<svg fill="none" height="50" viewBox="0 0 379 50" width="379" xmlns="http://www.w3.org/2000/svg" xmlns:xlink="http://www.w3.org/1999/xlink"><linearGradient id="a" gradientUnits="userSpaceOnUse" x1="26.2142" x2="43.8869" y1="33.164" y2="40.328"><stop offset="0" stop-color="#5417ff"/><stop offset="1" stop-color="#937cf5"/></linearGradient><linearGradient id="b" gradientUnits="userSpaceOnUse" x1="26.0169" x2="40.8182" y1="16" y2="22"><stop offset="0" stop-color="#d700ff"/><stop offset="1" stop-color="#937cf5"/></linearGradient><path d="m67.6887 34.3908h9.9862v4.8194h-16.0648v-30.30594h6.0786zm35.0813 5.1233c-2.8367 0-5.4418-.6657-7.8153-1.9972-2.3736-1.3315-4.255-3.1695-5.6444-5.5141-1.3894-2.3736-2.0841-5.051-2.0841-8.0324 0-2.9524.6947-5.601 2.0841-7.9455 1.3894-2.3736 3.2708-4.2261 5.6444-5.5576 2.3735-1.33148 4.9786-1.99722 7.8153-1.99722 2.866 0 5.471.66574 7.815 1.99722 2.374 1.3315 4.241 3.184 5.601 5.5576 1.39 2.3445 2.084 4.9931 2.084 7.9455 0 2.9814-.694 5.6588-2.084 8.0324-1.36 2.3446-3.227 4.1826-5.601 5.5141-2.373 1.3315-4.978 1.9972-7.815 1.9972zm0-5.4272c1.824 0 3.43-.4053 4.819-1.2158 1.39-.8394 2.475-2.0261 3.257-3.5603.781-1.5341 1.172-3.3142 1.172-5.3404s-.391-3.7919-1.172-5.297c-.782-1.5341-1.867-2.7064-3.257-3.5169-1.389-.8105-2.995-1.2157-4.819-1.2157s-3.4446.4052-4.8629 1.2157c-1.3894.8105-2.4748 1.9828-3.2564 3.5169-.7815 1.5051-1.1723 3.2708-1.1723 5.297s.3908 3.8063 1.1723 5.3404c.7816 1.5342 1.867 2.7209 3.2564 3.5603 1.4183.8105 3.0389 1.2158 4.8629 1.2158zm25.71-10.0731c0-2.9814.666-5.6444 1.998-7.9889 1.36-2.3736 3.198-4.2116 5.514-5.5142 2.344-1.33146 4.964-1.9972 7.858-1.9972 3.387 0 6.354.86836 8.901 2.6051 2.547 1.7367 4.328 4.1392 5.341 7.2074h-6.991c-.694-1.4473-1.679-2.5327-2.952-3.2563-1.245-.7237-2.692-1.0855-4.342-1.0855-1.766 0-3.343.4197-4.733 1.2591-1.36.8105-2.431 1.9683-3.213 3.4735-.752 1.5052-1.128 3.2708-1.128 5.297 0 1.9973.376 3.7629 1.128 5.297.782 1.5052 1.853 2.6775 3.213 3.5169 1.39.8105 2.967 1.2157 4.733 1.2157 1.65 0 3.097-.3618 4.342-1.0854 1.273-.7526 2.258-1.8525 2.952-3.2998h6.991c-1.013 3.0972-2.794 5.5141-5.341 7.2508-2.518 1.7078-5.485 2.5617-8.901 2.5617-2.894 0-5.514-.6513-7.858-1.9538-2.316-1.3315-4.154-3.1695-5.514-5.5141-1.332-2.3446-1.998-5.0076-1.998-7.989zm59.074 15.1964-11.028-13.5031v13.5031h-6.079v-30.30594h6.079v13.58994l11.028-13.58994h7.338l-12.504 15.02274 12.851 15.2832zm40.947-20.9276c0 1.621-.39 3.1406-1.172 4.5589-.752 1.4184-1.954 2.5617-3.604 3.4301-1.621.8683-3.676 1.3025-6.165 1.3025h-5.08v11.6361h-6.078v-30.30594h11.158c2.345 0 4.342.40524 5.992 1.21574 1.65.8104 2.88 1.9248 3.69 3.3432.84 1.4183 1.259 3.0248 1.259 4.8194zm-11.201 4.3852c1.678 0 2.923-.3762 3.733-1.1288.811-.7816 1.216-1.867 1.216-3.2564 0-2.9524-1.65-4.4287-4.949-4.4287h-4.82v8.8139zm38.312 16.5424-6.687-11.8098h-2.865v11.8098h-6.079v-30.30594h11.376c2.344 0 4.342.41971 5.991 1.25914 1.65.8105 2.881 1.9249 3.691 3.3432.839 1.3894 1.259 2.9524 1.259 4.6892 0 1.9972-.579 3.8063-1.737 5.4272-1.157 1.5921-2.88 2.692-5.166 3.2998l7.25 12.2874zm-9.552-16.3687h5.08c1.65 0 2.88-.3907 3.69-1.1723.811-.8104 1.216-1.9248 1.216-3.3432 0-1.3894-.405-2.4603-1.216-3.2129-.81-.7816-2.04-1.1723-3.69-1.1723h-5.08zm34.979-9.031v7.5982h10.203v4.8194h-10.203v8.0324h11.505v4.9497h-17.584v-30.34936h17.584v4.94966zm34.657 25.7036c-2.113 0-4.023-.3618-5.731-1.0854-1.679-.7237-3.01-1.7657-3.995-3.1261-.984-1.3605-1.49-2.967-1.519-4.8195h6.513c.086 1.2447.521 2.2288 1.302 2.9525.811.7236 1.911 1.0854 3.3 1.0854 1.418 0 2.533-.3328 3.343-.9986.811-.6947 1.216-1.592 1.216-2.6919 0-.8973-.275-1.6354-.825-2.2144-.55-.5789-1.245-1.0275-2.084-1.3459-.811-.3474-1.94-.7237-3.387-1.1289-1.968-.5789-3.575-1.1433-4.819-1.6933-1.216-.5789-2.272-1.4328-3.17-2.5617-.868-1.1578-1.302-2.6919-1.302-4.6023 0-1.7946.448-3.3577 1.346-4.6892.897-1.3315 2.156-2.3446 3.777-3.03927 1.621-.72363 3.473-1.08545 5.558-1.08545 3.126 0 5.658.76705 7.598 2.30112 1.968 1.5052 3.053 3.6182 3.256 6.3391h-6.686c-.058-1.042-.507-1.8959-1.346-2.5617-.811-.6947-1.896-1.042-3.257-1.042-1.186 0-2.142.3039-2.865.9118-.695.6078-1.042 1.4907-1.042 2.6485 0 .8105.26 1.4907.781 2.0407.55.521 1.216.9552 1.997 1.3025.811.3184 1.94.6947 3.387 1.1289 1.968.5789 3.575 1.1578 4.82 1.7367 1.244.5789 2.315 1.4473 3.212 2.6051.898 1.1578 1.346 2.6775 1.346 4.5589 0 1.621-.419 3.1261-1.259 4.5155-.839 1.3894-2.069 2.5038-3.69 3.3432-1.621.8105-3.546 1.2157-5.775 1.2157zm33.622 0c-2.113 0-4.023-.3618-5.731-1.0854-1.679-.7237-3.01-1.7657-3.995-3.1261-.984-1.3605-1.49-2.967-1.519-4.8195h6.513c.086 1.2447.521 2.2288 1.302 2.9525.811.7236 1.911 1.0854 3.3 1.0854 1.418 0 2.533-.3328 3.343-.9986.811-.6947 1.216-1.592 1.216-2.6919 0-.8973-.275-1.6354-.825-2.2144-.55-.5789-1.245-1.0275-2.084-1.3459-.811-.3474-1.94-.7237-3.387-1.1289-1.968-.5789-3.575-1.1433-4.819-1.6933-1.216-.5789-2.272-1.4328-3.17-2.5617-.868-1.1578-1.302-2.6919-1.302-4.6023 0-1.7946.448-3.3577 1.346-4.6892.897-1.3315 2.156-2.3446 3.777-3.03927 1.621-.72363 3.473-1.08545 5.558-1.08545 3.126 0 5.658.76705 7.598 2.30112 1.968 1.5052 3.053 3.6182 3.256 6.3391h-6.686c-.058-1.042-.507-1.8959-1.346-2.5617-.811-.6947-1.896-1.042-3.257-1.042-1.186 0-2.142.3039-2.865.9118-.695.6078-1.042 1.4907-1.042 2.6485 0 .8105.26 1.4907.781 2.0407.55.521 1.216.9552 1.997 1.3025.811.3184 1.94.6947 3.387 1.1289 1.968.5789 3.575 1.1578 4.82 1.7367 1.244.5789 2.315 1.4473 3.212 2.6051.898 1.1578 1.346 2.6775 1.346 4.5589 0 1.621-.419 3.1261-1.259 4.5155-.839 1.3894-2.069 2.5038-3.69 3.3432-1.621.8105-3.546 1.2157-5.775 1.2157z" fill="#000"/><circle cx="24.5313" cy="24.5313" fill="#000" r="24.5313"/><path d="m25 26h14.328v14.328h-14.328z" fill="url(#a)"/><path d="m25 10h12v12h-12z" fill="url(#b)"/><path d="m12 6h8v35h-8z" fill="#f6f3ff"/></svg>