<?xml version="1.0" encoding="UTF-8"?> <svg xmlns="http://www.w3.org/2000/svg" xmlns:xlink="http://www.w3.org/1999/xlink" version="1.1" id="Layer_1" x="0px" y="0px" viewBox="0 0 1858 475.7" style="enable-background:new 0 0 1858 475.7;" xml:space="preserve"> <path d="M242,215.6c-40,39.6-79.8,79.5-119.5,119.4c-14.9,15-18.8,38.1-10.3,57.9c8.1,18.9,27.4,31.4,44.6,31.4 c17.9,0.2,30.3-4.9,40.2-14.8c40-39.6,79.9-79.3,119.4-119.5c20.6-20.9,19.6-53.5-1.2-74.2C295.7,196.4,261.9,195.9,242,215.6z"></path> <path d="M157.6,229.2c10-0.3,22.7-5.8,33.1-16.2c39.1-39.1,78.3-78.1,117.2-117.4c13.5-13.6,18.2-30.5,13.7-49.2 C317,26.6,304.5,13.5,285,7.9c-19.6-5.6-36.8-0.6-51.6,13.2c-5,4.6-9.7,9.6-14.5,14.5c-34.4,34.4-69,68.6-103.1,103.3 c-16,16.3-20.5,35.9-11.9,57.5C111.8,216.2,131.5,229.2,157.6,229.2z"></path> <path d="M55.6,220.1c-28.1,0-52.6,24.5-52.7,52.8c-0.1,28.8,24.4,53.3,53.2,53.2c29-0.1,52.4-23.9,52.4-53.2 C108.4,243.7,84.8,220.1,55.6,220.1z"></path> <path d="M373.6,105.5c-29.1,0.5-52,23.4-52,52.7c0,29.1,24,53.2,52.8,52.9c28.9-0.3,53-24.5,52.8-53.1 C426.9,129.2,403.2,105,373.6,105.5z"></path> <g> <path d="M694.6,195.5l-34.4-8.4c-11.7-2.9-21-7.3-27.8-13s-10.2-13.8-10.2-24.2c0-12.8,4.3-22.8,13-30s20.6-10.8,35.8-10.8 c14.7,0,26.9,3.5,36.8,10.4c9.9,6.9,16.8,15.7,20.8,26.4l44.8-14.4c-4.3-12-10.8-22.7-19.6-32.2s-19.9-16.9-33.4-22.4 s-29.1-8.2-47-8.2c-31.7,0-56.1,7.3-73.2,21.8c-17.1,14.5-25.6,34.9-25.6,61c0,13.9,3,25.9,9,36s14.3,18.5,24.8,25.2 s22.3,11.7,35.4,15.2l34.4,8.8c14.4,3.7,25.9,9,34.4,15.8c8.5,6.8,12.8,15.5,12.8,26.2c0,11.7-5.1,21.2-15.2,28.4 c-10.1,7.2-23.9,10.8-41.2,10.8c-14.9-0.3-27.5-4.1-37.6-11.6s-16.9-16.1-20.4-26l-45.6,14c2.4,8.3,6.6,16.2,12.6,23.8 s13.6,14.5,22.8,20.6s19.9,10.9,32,14.4s25.5,5.2,40.2,5.2c21.6,0,39.9-3.5,55-10.4s26.5-16.5,34.2-28.8s11.6-26.4,11.6-42.4 c0-18.1-6.9-34.7-20.8-49.6C739.2,212.2,719.7,201.6,694.6,195.5z"></path> <path d="M940.4,159.5c-12.9-7.2-29-10.8-48.2-10.8c-15.2,0-28.3,2.3-39.2,7s-20,10.9-27.2,18.6c-7.2,7.7-13.1,16-17.6,24.8l40,14 c4.8-8.3,10.8-14.4,18-18.4s15.5-6,24.8-6c10.4,0,18.7,2.4,24.8,7.2s10.7,11.7,13.6,20.8c1.6,4.8,2.7,10.3,3.4,16.4h-49.4 c-25.1,0-44.6,5.5-58.6,16.4s-21,26.8-21,47.6c0,19.5,6.6,34.5,19.8,45.2s31.7,16,55.4,16c24.5,0,42.6-7.8,54.2-23.4 c0.8-1,1.5-2,2.2-3.1l0.4,21.7H979V243.9c0-20.8-3.2-38.3-9.6-52.4C963,177.4,953.3,166.7,940.4,159.5z M933.8,270.7 c0,8.8-2,17-6,24.6s-9.7,13.7-17,18.4c-7.3,4.7-15.9,7-25.8,7c-11.2,0-19.9-2.2-26.2-6.6s-9.4-10.5-9.4-18.2 c0-9.1,3.5-16.1,10.6-21s19.5-7.4,37.4-7.4h36.7l0.1,3.2H933.8z"></path> <path d="M1148.4,159.5c-12.9-7.2-29-10.8-48.2-10.8c-15.2,0-28.3,2.3-39.2,7c-10.9,4.7-20,10.9-27.2,18.6 c-7.2,7.7-13.1,16-17.6,24.8l40,14c4.8-8.3,10.8-14.4,18-18.4s15.5-6,24.8-6c10.4,0,18.7,2.4,24.8,7.2c6.1,4.8,10.7,11.7,13.6,20.8 c1.6,4.8,2.7,10.3,3.4,16.4h-49.4c-25.1,0-44.6,5.5-58.6,16.4s-21,26.8-21,47.6c0,19.5,6.6,34.5,19.8,45.2 c13.2,10.7,31.7,16,55.4,16c24.5,0,42.6-7.8,54.2-23.4c0.8-1,1.5-2,2.2-3.1l0.4,21.7h43.2V243.9c0-20.8-3.2-38.3-9.6-52.4 C1171,177.4,1161.3,166.7,1148.4,159.5z M1141.8,270.7c0,8.8-2,17-6,24.6s-9.7,13.7-17,18.4c-7.3,4.7-15.9,7-25.8,7 c-11.2,0-19.9-2.2-26.2-6.6c-6.3-4.4-9.4-10.5-9.4-18.2c0-9.1,3.5-16.1,10.6-21s19.5-7.4,37.4-7.4h36.7l0.1,3.2H1141.8z"></path> <path d="M1355.2,250.1c-8.4-6.8-19.1-11.8-32.2-15l-23.6-5.6c-8.3-2.1-14.7-4.9-19.2-8.2s-6.8-7-6.8-11c0-6.7,2.5-11.9,7.6-15.8 c5.1-3.9,12-5.8,20.8-5.8c9.1,0,17.3,1.7,24.8,5.2s12.5,8.5,15.2,15.2l37.2-16.8c-2.9-8.8-8.1-16.5-15.6-23s-16.3-11.6-26.6-15.2 c-10.3-3.6-21.5-5.4-33.8-5.4c-24.3,0-42.9,5.5-56,16.4s-19.6,26.4-19.6,46.4c0,13.6,5.3,25.7,16,36.2c10.7,10.5,25.6,18.2,44.8,23 l18.8,5.2c8.5,2.1,15.2,4.9,20,8.2c4.8,3.3,7.2,8.1,7.2,14.2c0,6.4-3.1,11.3-9.4,14.6c-6.3,3.3-14.5,5-24.6,5 c-9.6,0-18.3-2.5-26.2-7.4c-7.9-4.9-13.8-11-17.8-18.2l-38.8,17.2c4.3,9.9,10.4,18.5,18.4,25.8s17.6,13,28.8,17s23.5,6,36.8,6 c15.2,0,28.7-2.5,40.4-7.4c11.7-4.9,21-11.9,27.8-21s10.2-19.6,10.2-31.6c0-8.5-2-17-6-25.4S1363.6,256.9,1355.2,250.1z"></path> <path d="M1436.2,63.1c-7.2,0-13.4,2.5-18.6,7.6s-7.8,11.2-7.8,18.4c0,7.2,2.6,13.4,7.8,18.6c5.2,5.2,11.4,7.8,18.6,7.8 s13.4-2.6,18.6-7.8c5.2-5.2,7.8-11.4,7.8-18.6s-2.6-13.3-7.8-18.4C1449.6,65.6,1443.4,63.1,1436.2,63.1z"></path> <polygon points="1413.8,353.5 1458.2,353.5 1458.6,153.5 1414.2,153.5 "></polygon> <path d="M1571.8,138.7c0-11.7,1.9-20.2,5.8-25.4c3.9-5.2,9.8-7.8,17.8-7.8c2.9,0,6.3,0.5,10.2,1.6c3.9,1.1,8.3,2.8,13.4,5.2 l16.4-33.2c-7.2-3.7-14.7-6.7-22.6-9s-15.3-3.4-22.2-3.4c-21.3,0-37.3,5.7-47.8,17s-15.8,27.5-15.8,48.6v21.2h-34.4v36.8h34.4 v163.2h44.8V190.3h52.4v-36.8h-52.4L1571.8,138.7L1571.8,138.7z"></path> <path d="M1803.4,153.5l-59.3,148l-61.1-148h-48.8l88.9,198.5l-10.9,25.5c-2.7,6.4-6.2,11.3-10.6,14.6c-4.4,3.3-9.8,5-16.2,5 c-2.7,0-6.1-0.7-10.4-2.2s-8.9-3.4-14-5.8l-16.8,36.4c7.2,3.7,14.7,6.8,22.6,9.2c7.9,2.4,15,3.6,21.4,3.6c13.3,0,24.3-2.6,32.8-7.8 c8.5-5.2,15.7-12.6,21.4-22.2c5.7-9.6,11.4-20.8,17-33.6l92.8-221.2L1803.4,153.5L1803.4,153.5z"></path> </g> </svg> 