<svg width="44" height="34" fill="none" xmlns="http://www.w3.org/2000/svg"><path d="M8.106 17.644c0 .888.05 1.53.148 1.924H9.29c2.467 0 4.341.641 5.624 1.924 1.283 1.283 1.924 2.861 1.924 4.736 0 1.973-.69 3.7-2.072 5.18-1.283 1.381-3.059 2.072-5.328 2.072-2.467 0-4.637-.987-6.512-2.96C1.15 28.448.262 25.488.262 21.64c0-3.059.641-6.167 1.924-9.324a20.689 20.689 0 015.92-8.288c2.664-2.27 5.821-3.503 9.472-3.7-2.664.987-4.933 3.256-6.808 6.808-1.776 3.552-2.664 7.055-2.664 10.508zm25.456 0c0 .888.05 1.53.148 1.924h1.036c2.467 0 4.341.641 5.624 1.924 1.283 1.283 1.924 2.861 1.924 4.736 0 1.973-.69 3.7-2.072 5.18-1.283 1.381-3.059 2.072-5.328 2.072-2.467 0-4.637-.987-6.512-2.96-1.776-2.072-2.664-5.032-2.664-8.88 0-3.059.641-6.167 1.924-9.324a20.688 20.688 0 015.92-8.288c2.664-2.27 5.821-3.503 9.472-3.7-2.664.987-4.933 3.256-6.808 6.808-1.776 3.552-2.664 7.055-2.664 10.508z" fill="currentColor"/></svg>