<?xml version="1.0" standalone="no"?>
<!DOCTYPE svg PUBLIC "-//W3C//DTD SVG 20010904//EN"
 "http://www.w3.org/TR/2001/REC-SVG-20010904/DTD/svg10.dtd">
<svg version="1.0" xmlns="http://www.w3.org/2000/svg"
 width="1280.000000pt" height="964.000000pt" viewBox="0 0 1280.000000 964.000000"
 preserveAspectRatio="xMidYMid meet">
<metadata>
Created by potrace 1.15, written by Peter Selinger 2001-2017
</metadata>
<g transform="translate(0.000000,964.000000) scale(0.100000,-0.100000)"
fill="#000000" stroke="none">
<path d="M4070 9591 c0 -22 -11 -76 -25 -120 -30 -93 -107 -204 -215 -310 -81
-79 -212 -229 -245 -279 -39 -61 -58 -144 -55 -246 7 -243 8 -235 -32 -316
-51 -106 -70 -128 -188 -221 -248 -195 -552 -490 -725 -704 -116 -143 -109
-138 -101 -85 10 66 46 135 115 220 120 147 170 299 151 458 -24 195 -86 409
-215 743 -40 103 -63 140 -39 63 8 -27 18 -87 21 -134 5 -72 1 -100 -21 -185
-15 -55 -44 -145 -65 -200 -52 -133 -98 -277 -109 -345 -17 -93 12 -217 75
-319 63 -106 77 -199 48 -336 -13 -61 -28 -88 -116 -218 -55 -81 -132 -201
-171 -265 -84 -141 -231 -436 -291 -585 -48 -119 -46 -118 -93 -27 l-29 55 0
215 c0 210 -1 217 -28 295 -16 44 -37 94 -48 112 -25 40 -145 152 -224 209
-65 45 -509 274 -534 274 -8 0 10 -17 39 -37 118 -84 168 -184 235 -473 18
-80 50 -196 70 -259 33 -100 42 -119 84 -161 46 -46 142 -100 179 -100 52 0
121 -32 160 -74 47 -52 63 -79 91 -164 l21 -64 -31 -91 c-155 -469 -229 -916
-233 -1406 0 -121 -4 -217 -7 -215 -19 11 -53 111 -80 237 -17 78 -42 174 -56
212 -31 85 -105 214 -152 262 -40 41 -190 142 -271 183 -102 50 -600 218 -600
201 0 -3 27 -18 59 -33 128 -60 221 -183 364 -482 100 -208 186 -353 233 -395
69 -61 145 -92 243 -101 105 -8 151 -30 217 -103 l50 -54 12 -153 c42 -505
151 -959 347 -1435 31 -77 66 -157 76 -177 11 -21 15 -38 10 -38 -6 0 -39 28
-74 63 -46 44 -88 102 -147 200 -45 76 -108 172 -141 213 -68 85 -207 201
-294 244 -58 29 -298 98 -413 120 -91 17 -604 50 -757 49 l-140 -1 105 -22
c58 -12 139 -36 180 -54 98 -42 260 -169 449 -354 245 -240 396 -359 496 -391
130 -41 219 -46 354 -21 106 20 171 9 286 -46 116 -56 145 -85 208 -203 203
-385 467 -742 792 -1076 71 -73 121 -131 110 -128 -11 3 -40 11 -65 17 -118
31 -178 67 -329 199 -205 179 -298 237 -474 297 -92 31 -130 38 -212 42 -103
4 -332 -22 -485 -54 -164 -35 -1040 -358 -1040 -384 0 -4 26 0 58 10 93 29
216 43 316 37 124 -9 364 -88 596 -197 163 -77 453 -190 563 -220 31 -8 81
-11 150 -7 163 8 258 41 408 140 46 30 105 62 131 71 110 37 262 30 420 -20
66 -21 91 -36 180 -111 297 -249 598 -448 932 -615 117 -59 380 -178 392 -178
2 0 4 26 4 59 0 57 -1 59 -32 72 -268 106 -616 298 -885 485 -70 49 -257 190
-292 220 -12 11 -30 145 -31 229 0 157 17 205 123 347 110 148 164 310 154
471 -6 115 -82 367 -192 640 -72 180 -134 384 -157 518 -19 112 10 306 67 441
4 10 3 18 -2 18 -27 0 -411 -882 -451 -1035 -36 -136 -82 -404 -82 -475 0 -83
45 -268 88 -363 47 -103 92 -172 213 -329 61 -78 119 -158 129 -178 24 -48 62
-175 58 -195 -2 -11 -43 20 -133 104 -345 317 -692 763 -902 1161 l-50 95 8
89 c13 140 56 253 126 337 15 17 59 52 98 76 86 55 134 100 191 179 103 144
115 207 120 649 4 336 16 510 41 585 28 84 82 185 132 248 28 34 47 62 43 62
-21 0 -525 -529 -625 -654 -53 -69 -212 -337 -236 -400 -20 -54 -41 -197 -41
-282 0 -81 26 -206 75 -368 40 -132 45 -158 44 -240 0 -50 -6 -113 -13 -141
l-12 -50 -28 60 c-268 571 -429 1239 -437 1817 -1 93 0 100 30 147 40 61 125
142 179 170 22 11 86 28 141 36 178 27 305 96 377 207 52 78 141 255 204 405
111 263 215 393 375 473 44 22 73 40 64 40 -35 0 -528 -179 -714 -260 -64 -27
-287 -168 -341 -214 -23 -20 -63 -70 -90 -112 -68 -110 -100 -212 -119 -379
-8 -77 -18 -153 -21 -170 -8 -38 -45 -113 -73 -145 l-21 -25 5 65 c2 36 7 125
10 199 11 262 61 584 135 876 43 169 137 461 169 524 28 54 140 154 213 190
71 35 107 38 263 26 113 -8 207 8 280 50 50 29 227 210 327 335 41 52 114 132
161 178 95 92 171 133 291 159 39 8 73 17 76 20 9 9 -243 -7 -495 -32 -212
-22 -256 -29 -375 -65 -182 -55 -225 -76 -303 -149 -84 -79 -134 -159 -193
-308 -26 -65 -60 -135 -75 -156 -26 -36 -109 -115 -109 -103 0 14 88 204 142
306 165 313 362 608 560 840 57 67 71 77 124 94 32 10 97 21 144 24 77 4 94 1
178 -27 110 -38 237 -54 321 -40 76 12 218 71 406 169 83 43 195 95 250 116
98 37 103 38 237 38 75 1 135 3 133 5 -7 6 -197 41 -429 78 -215 35 -246 38
-446 37 -210 0 -217 0 -283 -27 -126 -50 -189 -90 -293 -188 -99 -95 -121
-111 -197 -143 l-39 -16 50 58 c172 199 525 502 802 691 137 93 178 106 320
105 115 -1 158 -13 244 -65 118 -73 275 -110 384 -90 95 17 284 66 371 95 41
14 132 38 204 52 106 21 144 25 205 19 69 -6 146 -22 197 -41 14 -5 17 -4 10
3 -14 14 -186 80 -445 170 -345 119 -570 156 -738 120 -95 -21 -158 -50 -290
-136 -59 -38 -116 -72 -127 -75 -45 -13 -114 -23 -109 -15 15 25 380 213 519
267 l90 35 157 -2 c165 -2 197 3 312 46 62 23 83 39 194 147 125 122 239 267
420 539 71 105 88 148 25 63 -17 -24 -62 -66 -99 -94 -54 -40 -91 -57 -193
-90 -69 -23 -169 -51 -221 -63 -123 -29 -252 -72 -305 -103 -50 -30 -111 -100
-188 -216 -83 -127 -153 -178 -433 -318 -216 -108 -388 -207 -551 -318 -68
-45 -123 -80 -123 -77 0 3 15 25 34 48 24 29 65 58 136 95 128 67 177 105 235
180 60 78 78 121 114 269 31 126 46 261 56 501 3 74 8 170 11 213 4 51 2 77
-5 77 -6 0 -11 -18 -11 -39z"/>
<path d="M8586 9455 c19 -526 62 -759 164 -897 62 -85 129 -137 255 -200 67
-34 114 -65 143 -96 23 -25 40 -47 38 -49 -2 -2 -44 23 -92 55 -156 104 -363
221 -584 329 -323 158 -389 205 -475 338 -81 125 -136 180 -219 219 -71 33
-237 84 -351 106 -84 17 -241 68 -299 97 -28 14 -84 58 -125 99 -42 41 -77 74
-79 74 -6 0 117 -174 243 -345 124 -168 309 -363 390 -410 23 -14 75 -37 116
-53 71 -26 83 -27 264 -27 l190 -1 90 -36 c126 -51 249 -109 389 -185 142 -77
157 -88 101 -79 -84 15 -114 28 -214 92 -136 87 -192 112 -309 136 -73 15
-115 18 -171 13 -138 -12 -331 -54 -504 -111 -248 -81 -537 -186 -537 -196 0
-4 12 -3 28 3 48 19 172 39 237 39 81 0 236 -31 400 -80 408 -121 509 -121
752 1 118 60 124 62 215 67 53 2 126 -1 167 -8 68 -11 85 -20 220 -110 168
-112 341 -244 488 -372 146 -127 377 -352 365 -356 -28 -9 -127 52 -211 131
-114 107 -183 152 -296 197 l-90 35 -240 0 c-221 0 -256 -3 -445 -32 -321 -51
-460 -77 -460 -86 0 -5 9 -6 20 -2 31 10 209 7 266 -4 74 -14 216 -73 394
-161 85 -43 198 -95 250 -116 94 -39 97 -39 225 -38 119 0 139 3 230 33 79 26
117 32 180 32 78 0 173 -19 220 -44 67 -36 370 -433 531 -698 115 -190 282
-519 263 -519 -6 0 -36 26 -68 58 -46 46 -64 74 -91 142 -61 156 -120 260
-185 325 -91 93 -137 121 -258 161 -175 56 -258 72 -487 94 -192 18 -561 36
-485 24 67 -11 152 -37 211 -64 76 -34 200 -150 344 -320 129 -152 263 -280
324 -309 27 -12 86 -30 130 -38 69 -13 97 -14 191 -3 97 11 117 11 165 -3 70
-20 137 -63 211 -134 51 -49 63 -68 98 -157 111 -287 203 -642 246 -947 25
-177 45 -413 45 -529 l0 -105 -20 25 c-51 64 -70 127 -90 288 -10 86 -26 182
-36 212 -28 95 -93 209 -158 278 -32 34 -238 167 -336 217 -60 30 -473 186
-610 229 -47 15 -104 34 -127 41 -69 22 -49 3 40 -39 65 -31 98 -55 157 -115
84 -86 137 -172 231 -382 92 -207 187 -376 242 -431 30 -30 77 -62 130 -87 80
-38 115 -48 264 -71 111 -18 214 -93 288 -209 22 -35 25 -52 25 -123 -1 -437
-131 -1061 -320 -1527 -60 -149 -153 -351 -161 -351 -12 0 -29 114 -29 191 0
64 8 102 45 220 59 187 75 269 75 381 -1 216 -19 270 -166 506 -64 104 -121
179 -204 270 -150 166 -549 567 -556 560 -3 -4 17 -34 45 -68 54 -67 110 -167
134 -240 29 -86 40 -233 42 -545 3 -332 14 -475 43 -553 43 -114 162 -252 268
-312 153 -88 240 -249 245 -455 2 -74 2 -74 -61 -182 -204 -350 -442 -663
-719 -942 -142 -143 -330 -315 -338 -307 -11 10 42 170 72 221 19 30 72 102
120 160 162 200 230 318 281 490 45 153 44 243 -5 482 -23 112 -53 235 -67
275 -45 122 -267 624 -353 796 -81 162 -120 216 -74 101 63 -156 70 -331 22
-521 -38 -154 -57 -208 -136 -397 -108 -258 -203 -569 -203 -665 0 -70 35
-205 76 -294 18 -41 61 -108 95 -150 81 -100 108 -161 121 -271 10 -73 9 -105
-4 -185 -10 -63 -23 -104 -34 -118 -47 -52 -360 -268 -553 -382 -179 -106
-527 -276 -673 -329 -15 -5 -18 -18 -18 -67 l0 -60 53 21 c464 182 916 448
1321 777 82 66 113 85 175 105 115 38 207 51 312 44 117 -7 163 -23 280 -98
104 -67 167 -93 289 -120 101 -22 193 -24 275 -5 103 25 392 133 585 221 176
79 357 145 500 181 83 21 305 15 395 -11 165 -48 135 -25 -79 60 -252 100
-796 283 -905 305 -159 32 -439 62 -508 56 -75 -8 -209 -46 -310 -88 -103 -42
-205 -111 -368 -248 -158 -131 -202 -160 -295 -189 -147 -45 -147 -47 1 100
306 306 567 647 779 1019 46 80 90 153 99 164 28 32 148 97 226 122 90 28 130
30 250 8 77 -15 102 -15 184 -4 114 14 205 46 275 94 81 56 244 196 393 337
186 177 360 307 465 349 86 34 192 60 246 60 17 0 32 5 32 11 0 13 -171 8
-565 -17 -285 -17 -386 -32 -583 -85 -178 -48 -223 -68 -327 -146 -117 -87
-207 -191 -315 -364 -52 -83 -113 -170 -135 -193 -36 -37 -105 -92 -105 -84 0
2 25 59 56 128 221 494 353 1002 396 1525 l12 150 46 49 c75 81 111 98 218
107 79 6 105 12 165 42 40 20 91 55 114 79 48 50 156 233 248 422 125 255 223
378 353 439 35 16 61 31 59 33 -15 15 -562 -171 -657 -223 -115 -64 -242 -156
-272 -198 -96 -130 -137 -230 -186 -450 -27 -119 -65 -225 -81 -225 -3 0 -6
98 -7 218 -1 242 -13 388 -50 632 -40 259 -112 553 -191 776 -33 91 -30 122
20 220 54 107 102 144 218 167 110 22 208 88 249 168 26 50 87 253 111 368 21
102 69 252 101 316 25 49 114 137 157 154 17 8 31 17 31 22 0 28 -516 -233
-613 -310 -140 -111 -180 -158 -215 -247 -40 -104 -51 -194 -44 -377 l5 -148
-37 -74 c-20 -41 -41 -75 -45 -75 -4 0 -18 26 -31 58 -119 294 -309 636 -505
908 -103 143 -119 188 -120 329 l0 101 52 89 c54 95 93 211 93 281 0 57 -51
232 -115 393 -78 197 -98 285 -92 396 3 50 12 109 21 133 8 23 12 42 8 42 -4
0 -15 -19 -24 -42 -183 -472 -219 -592 -248 -818 -10 -75 -9 -94 10 -165 28
-109 67 -186 145 -280 36 -44 75 -96 85 -116 21 -40 45 -127 38 -134 -3 -3
-54 52 -114 122 -205 239 -453 473 -739 696 -178 138 -240 241 -234 387 7 181
3 265 -15 318 -23 68 -106 172 -258 325 -158 158 -220 241 -252 339 -14 42
-26 89 -27 105 0 15 -5 37 -10 48 -5 13 -7 -35 -3 -130z"/>
</g>
</svg>
