<svg width="64" height="64" viewBox="0 0 64 64" fill="none" xmlns="http://www.w3.org/2000/svg">
<rect width="64" height="64" rx="8" fill="#F3F4F6"/>
<path fill-rule="evenodd" clip-rule="evenodd" d="M36.3999 13.4891L27.5999 22.2891V50.5107L36.3999 41.7107V13.4891ZM18.1553 17.2445C17.8476 16.9369 17.4557 16.7275 17.029 16.6426C16.6023 16.5578 16.16 16.6014 15.7581 16.7678C15.3561 16.9343 15.0126 17.2162 14.7708 17.5779C14.5291 17.9396 14.4 18.3649 14.3999 18.7999V40.7999C14.4 41.3833 14.6319 41.9428 15.0445 42.3553L23.1999 50.5107V22.2891L18.1553 17.2445ZM48.9553 21.6445L40.7999 13.4891V41.7107L45.8445 46.7553C46.1522 47.0629 46.5441 47.2724 46.9708 47.3572C47.3975 47.4421 47.8398 47.3985 48.2417 47.232C48.6437 47.0655 48.9872 46.7836 49.229 46.4219C49.4707 46.0602 49.5998 45.635 49.5999 45.1999V23.1999C49.5998 22.6165 49.3679 22.057 48.9553 21.6445Z" fill="#6B7280"/>
</svg>
