<svg width="14" height="12" viewBox="0 0 14 12" fill="none" xmlns="http://www.w3.org/2000/svg">
<path fill-rule="evenodd" clip-rule="evenodd" d="M7.23438 0.634376C7.3844 0.484399 7.58784 0.400146 7.79998 0.400146C8.01211 0.400146 8.21555 0.484399 8.36557 0.634376L13.1656 5.43438C13.3156 5.5844 13.3998 5.78784 13.3998 5.99998C13.3998 6.21211 13.3156 6.41555 13.1656 6.56558L8.36557 11.3656C8.21469 11.5113 8.01261 11.5919 7.80285 11.5901C7.5931 11.5883 7.39245 11.5042 7.24412 11.3558C7.09579 11.2075 7.01166 11.0069 7.00984 10.7971C7.00801 10.5873 7.08865 10.3853 7.23438 10.2344L10.6688 6.79998H1.39998C1.1878 6.79998 0.984319 6.71569 0.83429 6.56566C0.684261 6.41563 0.599976 6.21215 0.599976 5.99998C0.599976 5.7878 0.684261 5.58432 0.83429 5.43429C0.984319 5.28426 1.1878 5.19998 1.39998 5.19998H10.6688L7.23438 1.76558C7.0844 1.61555 7.00015 1.41211 7.00015 1.19998C7.00015 0.987844 7.0844 0.784398 7.23438 0.634376Z" fill="#7E3AF2"/>
</svg>
