<svg width="17" height="17" viewBox="0 0 17 17" fill="none" xmlns="http://www.w3.org/2000/svg">
<path fill-rule="evenodd" clip-rule="evenodd" d="M8.08359 15.3251C9.78098 15.3251 11.4088 14.6509 12.6091 13.4506C13.8093 12.2504 14.4836 10.6225 14.4836 8.92515C14.4836 7.22776 13.8093 5.5999 12.6091 4.39966C11.4088 3.19943 9.78098 2.52515 8.08359 2.52515C6.38621 2.52515 4.75834 3.19943 3.55811 4.39966C2.35788 5.5999 1.68359 7.22776 1.68359 8.92515C1.68359 10.6225 2.35788 12.2504 3.55811 13.4506C4.75834 14.6509 6.38621 15.3251 8.08359 15.3251ZM11.0492 7.89075C11.1949 7.73986 11.2756 7.53778 11.2737 7.32803C11.2719 7.11827 11.1878 6.91762 11.0394 6.76929C10.8911 6.62097 10.6905 6.53683 10.4807 6.53501C10.271 6.53318 10.0689 6.61382 9.91799 6.75955L7.28359 9.39395L6.24919 8.35955C6.09831 8.21382 5.89623 8.13318 5.68647 8.13501C5.47672 8.13683 5.27607 8.22096 5.12774 8.36929C4.97941 8.51762 4.89528 8.71827 4.89345 8.92803C4.89163 9.13778 4.97227 9.33986 5.11799 9.49075L6.71799 11.0907C6.86802 11.2407 7.07146 11.325 7.28359 11.325C7.49572 11.325 7.69917 11.2407 7.84919 11.0907L11.0492 7.89075Z" fill="#28B883"/>
</svg>
