<svg width="20" height="20" viewBox="0 0 20 20" fill="none" xmlns="http://www.w3.org/2000/svg">
<path d="M8.00004 13.2931L7.64649 12.9396L4.35709 9.65019C4.26308 9.56068 4.13789 9.51121 4.00798 9.51234C3.87689 9.51348 3.75148 9.56606 3.65878 9.65877C3.56607 9.75147 3.51349 9.87688 3.51235 10.008C3.51122 10.1379 3.56069 10.2631 3.6502 10.3571L7.64654 14.3534C7.64656 14.3534 7.64658 14.3535 7.64659 14.3535C7.74035 14.4472 7.86748 14.4998 8.00004 14.4998C8.1326 14.4998 8.25973 14.4472 8.35349 14.3535L8.00004 13.2931ZM8.00004 13.2931L8.35359 12.9396L15.6465 5.64664C15.6466 5.64662 15.6466 5.6466 15.6466 5.64658C15.7404 5.55288 15.8675 5.50024 16 5.50024C16.1326 5.50024 16.2598 5.5529 16.3535 5.64664C16.4472 5.74039 16.4998 5.8675 16.4998 6.00003C16.4998 6.13259 16.4472 6.25972 16.3535 6.35348C16.3535 6.35349 16.3535 6.35351 16.3534 6.35353L8.35354 14.3534L8.00004 13.2931Z" fill="#28B883" stroke="#28B883" stroke-linecap="square"/>
</svg>
