<svg width="64" height="64" viewBox="0 0 64 64" fill="none" xmlns="http://www.w3.org/2000/svg">
<g id="Icon Shape">
<rect id="Shape" width="64" height="64" rx="8" fill="#F3F4F6"/>
<g id="at-symbol">
<path id="Vector" fill-rule="evenodd" clip-rule="evenodd" d="M41.3345 22.6652C39.5722 20.904 37.3474 19.6774 34.9173 19.1274C32.4872 18.5774 29.9511 18.7264 27.6022 19.5572C25.2532 20.388 23.1873 21.8666 21.6434 23.8221C20.0994 25.7776 19.1405 28.1301 18.8773 30.6078C18.6142 33.0854 19.0576 35.5869 20.1564 37.823C21.2552 40.0592 22.9644 41.9388 25.0865 43.2444C27.2086 44.55 29.6568 45.2283 32.1482 45.201C34.6396 45.1737 37.0724 44.4418 39.1653 43.09C39.4076 42.9239 39.6807 42.808 39.9685 42.7491C40.2563 42.6902 40.553 42.6896 40.841 42.7472C41.1291 42.8049 41.4027 42.9196 41.6457 43.0847C41.8887 43.2497 42.0961 43.4618 42.2558 43.7084C42.4156 43.9549 42.5243 44.2309 42.5756 44.5202C42.6269 44.8094 42.6198 45.106 42.5546 45.3925C42.4894 45.6789 42.3676 45.9494 42.1962 46.188C42.0248 46.4266 41.8074 46.6284 41.5567 46.7816C38.2715 48.906 34.3721 49.8752 30.4746 49.5361C26.5771 49.197 22.9036 47.569 20.0346 44.9093C17.1655 42.2496 15.2644 38.7097 14.6317 34.849C13.9989 30.9883 14.6705 27.0268 16.5404 23.5903C18.4102 20.1539 21.3718 17.4384 24.9571 15.8729C28.5425 14.3074 32.5472 13.9811 36.3387 14.9455C40.1302 15.91 43.4923 18.1102 45.8938 21.1986C48.2953 24.287 49.5994 28.0876 49.5999 31.9998C49.6003 33.2257 49.2593 34.4275 48.6151 35.4704C47.9709 36.5134 47.0489 37.3563 45.9525 37.9047C44.8561 38.4532 43.6287 38.6854 42.4078 38.5754C41.1868 38.4654 40.0206 38.0175 39.0399 37.282C37.7862 38.9536 35.9787 40.1245 33.9407 40.5853C31.9026 41.0462 29.7671 40.7668 27.9163 39.7971C26.0654 38.8275 24.6199 37.2309 23.8385 35.2931C23.0571 33.3553 22.9907 31.2026 23.6512 29.2203C24.3117 27.2379 25.656 25.5553 27.4436 24.4734C29.2311 23.3916 31.3454 22.9811 33.4079 23.3154C35.4705 23.6497 37.3468 24.707 38.7011 26.2981C40.0554 27.8892 40.7994 29.9103 40.7999 31.9998C40.7999 32.5833 41.0317 33.1429 41.4443 33.5555C41.8569 33.968 42.4164 34.1998 42.9999 34.1998C43.5834 34.1998 44.143 33.968 44.5556 33.5555C44.9681 33.1429 45.1999 32.5833 45.1999 31.9998C45.1999 28.6184 43.9107 25.2458 41.3345 22.6652ZM36.3999 31.9998C36.3999 30.8329 35.9364 29.7137 35.1112 28.8885C34.286 28.0634 33.1669 27.5998 31.9999 27.5998C30.833 27.5998 29.7138 28.0634 28.8887 28.8885C28.0635 29.7137 27.5999 30.8329 27.5999 31.9998C27.5999 33.1668 28.0635 34.2859 28.8887 35.1111C29.7138 35.9362 30.833 36.3998 31.9999 36.3998C33.1669 36.3998 34.286 35.9362 35.1112 35.1111C35.9364 34.2859 36.3999 33.1668 36.3999 31.9998Z" fill="#6B7280"/>
</g>
</g>
</svg>
