<svg width="64" height="64" viewBox="0 0 64 64" fill="none" xmlns="http://www.w3.org/2000/svg">
<rect width="64" height="64" rx="8" fill="#F3F4F6"/>
<path fill-rule="evenodd" clip-rule="evenodd" d="M18.8001 18.8C18.8001 17.633 19.2637 16.5139 20.0888 15.6887C20.914 14.8636 22.0331 14.4 23.2001 14.4H40.8001C41.9671 14.4 43.0862 14.8636 43.9114 15.6887C44.7365 16.5139 45.2001 17.633 45.2001 18.8V45.2C45.7836 45.2 46.3432 45.4318 46.7557 45.8444C47.1683 46.2569 47.4001 46.8165 47.4001 47.4C47.4001 47.9835 47.1683 48.543 46.7557 48.9556C46.3432 49.3682 45.7836 49.6 45.2001 49.6H38.6001C38.0166 49.6 37.457 49.3682 37.0445 48.9556C36.6319 48.543 36.4001 47.9835 36.4001 47.4V43C36.4001 42.4165 36.1683 41.8569 35.7557 41.4444C35.3432 41.0318 34.7836 40.8 34.2001 40.8H29.8001C29.2166 40.8 28.657 41.0318 28.2445 41.4444C27.8319 41.8569 27.6001 42.4165 27.6001 43V47.4C27.6001 47.9835 27.3683 48.543 26.9557 48.9556C26.5432 49.3682 25.9836 49.6 25.4001 49.6H18.8001C18.2166 49.6 17.657 49.3682 17.2445 48.9556C16.8319 48.543 16.6001 47.9835 16.6001 47.4C16.6001 46.8165 16.8319 46.2569 17.2445 45.8444C17.657 45.4318 18.2166 45.2 18.8001 45.2V18.8ZM25.4001 21H29.8001V25.4H25.4001V21ZM29.8001 29.8H25.4001V34.2H29.8001V29.8ZM34.2001 21H38.6001V25.4H34.2001V21ZM38.6001 29.8H34.2001V34.2H38.6001V29.8Z" fill="#6B7280"/>
</svg>
