<svg width="48" height="49" viewBox="0 0 48 49" fill="none" xmlns="http://www.w3.org/2000/svg">
<rect y="0.0249023" width="48" height="48" rx="6" fill="#F3F4F6"/>
<path fill-rule="evenodd" clip-rule="evenodd" d="M12.8 12.825C12.3757 12.825 11.9687 12.9935 11.6686 13.2936C11.3686 13.5936 11.2 14.0006 11.2 14.425C11.2 14.8493 11.3686 15.2563 11.6686 15.5563C11.9687 15.8564 12.3757 16.025 12.8 16.025V28.825C12.8 29.6736 13.1372 30.4876 13.7373 31.0877C14.3374 31.6878 15.1513 32.025 16 32.025H20.1376L18.0688 34.0937C17.916 34.2413 17.7941 34.4179 17.7102 34.6131C17.6264 34.8083 17.5823 35.0183 17.5804 35.2307C17.5786 35.4432 17.619 35.6538 17.6995 35.8505C17.7799 36.0471 17.8988 36.2258 18.049 36.376C18.1992 36.5262 18.3779 36.645 18.5745 36.7255C18.7711 36.8059 18.9818 36.8464 19.1943 36.8446C19.4067 36.8427 19.6167 36.7986 19.8119 36.7147C20.0071 36.6309 20.1836 36.509 20.3312 36.3562L24 32.6873L27.6688 36.3562C27.9706 36.6476 28.3747 36.8089 28.7943 36.8052C29.2138 36.8016 29.6151 36.6333 29.9117 36.3367C30.2084 36.04 30.3766 35.6387 30.3803 35.2192C30.3839 34.7997 30.2227 34.3955 29.9312 34.0937L27.8624 32.025H32C32.8487 32.025 33.6626 31.6878 34.2628 31.0877C34.8629 30.4876 35.2 29.6736 35.2 28.825V16.025C35.6244 16.025 36.0313 15.8564 36.3314 15.5563C36.6314 15.2563 36.8 14.8493 36.8 14.425C36.8 14.0006 36.6314 13.5936 36.3314 13.2936C36.0313 12.9935 35.6244 12.825 35.2 12.825H12.8ZM30.4 19.225C30.4 18.8006 30.2314 18.3936 29.9314 18.0936C29.6313 17.7935 29.2244 17.625 28.8 17.625C28.3757 17.625 27.9687 17.7935 27.6686 18.0936C27.3686 18.3936 27.2 18.8006 27.2 19.225V25.625C27.2 26.0493 27.3686 26.4563 27.6686 26.7563C27.9687 27.0564 28.3757 27.225 28.8 27.225C29.2244 27.225 29.6313 27.0564 29.9314 26.7563C30.2314 26.4563 30.4 26.0493 30.4 25.625V19.225ZM25.6 20.825C25.6 20.4006 25.4314 19.9936 25.1314 19.6936C24.8313 19.3935 24.4244 19.225 24 19.225C23.5757 19.225 23.1687 19.3935 22.8686 19.6936C22.5686 19.9936 22.4 20.4006 22.4 20.825V25.625C22.4 26.0493 22.5686 26.4563 22.8686 26.7563C23.1687 27.0564 23.5757 27.225 24 27.225C24.4244 27.225 24.8313 27.0564 25.1314 26.7563C25.4314 26.4563 25.6 26.0493 25.6 25.625V20.825ZM20.8 22.425C20.8 22.0006 20.6314 21.5936 20.3314 21.2936C20.0313 20.9935 19.6244 20.825 19.2 20.825C18.7757 20.825 18.3687 20.9935 18.0686 21.2936C17.7686 21.5936 17.6 22.0006 17.6 22.425V25.625C17.6 26.0493 17.7686 26.4563 18.0686 26.7563C18.3687 27.0564 18.7757 27.225 19.2 27.225C19.6244 27.225 20.0313 27.0564 20.3314 26.7563C20.6314 26.4563 20.8 26.0493 20.8 25.625V22.425Z" fill="#6B7280"/>
</svg>
