<svg width="48" height="49" viewBox="0 0 48 49" fill="none" xmlns="http://www.w3.org/2000/svg">
<rect y="0.512451" width="48" height="48" rx="6" fill="#F3F4F6"/>
<path d="M25.6 35.7128C25.6002 35.9854 25.67 36.2535 25.8028 36.4915C25.9357 36.7296 26.1272 36.9298 26.3591 37.0731C26.591 37.2164 26.8557 37.298 27.1281 37.3103C27.4004 37.3226 27.6714 37.265 27.9152 37.1432L34.3153 33.9432C34.581 33.8104 34.8045 33.6062 34.9608 33.3536C35.117 33.101 35.1999 32.8098 35.2001 32.5128V23.2904C35.1999 23.0177 35.1301 22.7497 34.9973 22.5116C34.8644 22.2735 34.673 22.0734 34.441 21.9301C34.2091 21.7868 33.9444 21.7051 33.672 21.6928C33.3997 21.6806 33.1287 21.7381 32.8849 21.86L26.4849 25.06C26.2191 25.1928 25.9956 25.3969 25.8393 25.6495C25.6831 25.9022 25.6002 26.1933 25.6 26.4904V35.7128ZM32.3377 18.5544C32.6031 18.4213 32.8262 18.2171 32.9822 17.9645C33.1381 17.7119 33.2207 17.4208 33.2207 17.124C33.2207 16.8271 33.1381 16.5361 32.9822 16.2834C32.8262 16.0308 32.6031 15.8266 32.3377 15.6936L24.7152 11.8824C24.4932 11.7714 24.2483 11.7136 24 11.7136C23.7518 11.7136 23.5069 11.7714 23.2849 11.8824L15.6624 15.6936C15.397 15.8266 15.1739 16.0308 15.0179 16.2834C14.862 16.5361 14.7794 16.8271 14.7794 17.124C14.7794 17.4208 14.862 17.7119 15.0179 17.9645C15.1739 18.2171 15.397 18.4213 15.6624 18.5544L23.2849 22.3656C23.5069 22.4765 23.7518 22.5343 24 22.5343C24.2483 22.5343 24.4932 22.4765 24.7152 22.3656L32.3377 18.5544ZM15.1152 21.86C14.8714 21.7381 14.6004 21.6806 14.3281 21.6928C14.0557 21.7051 13.791 21.7868 13.5591 21.9301C13.3271 22.0734 13.1357 22.2735 13.0028 22.5116C12.87 22.7497 12.8002 23.0177 12.8 23.2904V32.5128C12.8002 32.8098 12.8831 33.101 13.0393 33.3536C13.1956 33.6062 13.4191 33.8104 13.6848 33.9432L20.0848 37.1432C20.3287 37.265 20.5997 37.3226 20.872 37.3103C21.1444 37.298 21.4091 37.2164 21.641 37.0731C21.8729 36.9298 22.0644 36.7296 22.1973 36.4915C22.3301 36.2535 22.3999 35.9854 22.4 35.7128V26.4904C22.3999 26.1933 22.317 25.9022 22.1608 25.6495C22.0045 25.3969 21.781 25.1928 21.5152 25.06L15.1152 21.86Z" fill="#6B7280"/>
</svg>
