<svg width="56" height="56" viewBox="0 0 56 56" fill="none" xmlns="http://www.w3.org/2000/svg">
<rect width="56" height="56" rx="28" fill="#F3F4F6"/>
<path d="M36.4853 19.5147L31.7707 24.2293M36.4853 19.5147C34.2349 17.2642 31.1826 16 28 16C24.8174 16 21.7651 17.2642 19.5147 19.5147M36.4853 19.5147C38.7358 21.7651 40 24.8174 40 28C40 29.5759 39.6896 31.1363 39.0866 32.5922C38.4835 34.0481 37.5996 35.371 36.4853 36.4853M31.7707 24.2293C30.7705 23.2291 29.4145 22.6667 28 22.6667C26.5855 22.6667 25.2295 23.2291 24.2293 24.2293M31.7707 24.2293C32.7709 25.2295 33.3333 26.5855 33.3333 28C33.3333 29.4145 32.7709 30.7705 31.7707 31.7707M31.7707 31.7707L36.4853 36.4853M31.7707 31.7707C30.7705 32.7709 29.4145 33.3333 28 33.3333C26.5855 33.3333 25.2295 32.7709 24.2293 31.7707M36.4853 36.4853C35.371 37.5996 34.0481 38.4835 32.5922 39.0866C31.1363 39.6896 29.5759 40 28 40C26.4241 40 24.8637 39.6896 23.4078 39.0866C21.9519 38.4835 20.629 37.5996 19.5147 36.4853M24.2293 24.2293L19.5147 19.5147M24.2293 24.2293C23.2291 25.2295 22.6667 26.5855 22.6667 28C22.6667 29.4145 23.2291 30.7705 24.2293 31.7707M19.5147 19.5147C17.2642 21.7651 16 24.8174 16 28C16 29.5759 16.3104 31.1363 16.9134 32.5922C17.5165 34.0481 18.4004 35.371 19.5147 36.4853M24.2293 31.7707L19.5147 36.4853" stroke="#6B7280" stroke-width="3" stroke-linecap="round" stroke-linejoin="round"/>
</svg>
