<svg width="48" height="49" viewBox="0 0 48 49" fill="none" xmlns="http://www.w3.org/2000/svg">
<rect y="0.512451" width="48" height="48" rx="6" fill="#F3F4F6"/>
<path fill-rule="evenodd" clip-rule="evenodd" d="M12.8 16.5125C12.8 15.6638 13.1372 14.8499 13.7373 14.2498C14.3374 13.6496 15.1514 13.3125 16 13.3125H32C32.8487 13.3125 33.6627 13.6496 34.2628 14.2498C34.8629 14.8499 35.2001 15.6638 35.2001 16.5125V29.3125C35.2001 30.1612 34.8629 30.9751 34.2628 31.5752C33.6627 32.1754 32.8487 32.5125 32 32.5125H28.448L28.6448 33.2949L29.9312 34.5813C30.1549 34.8051 30.3073 35.0901 30.369 35.4004C30.4307 35.7108 30.399 36.0324 30.2779 36.3247C30.1569 36.6171 29.9518 36.8669 29.6888 37.0427C29.4257 37.2186 29.1165 37.3124 28.8001 37.3125H19.2C18.8836 37.3124 18.5744 37.2186 18.3113 37.0427C18.0483 36.8669 17.8432 36.6171 17.7222 36.3247C17.6011 36.0324 17.5694 35.7108 17.6311 35.4004C17.6928 35.0901 17.8452 34.8051 18.0688 34.5813L19.3552 33.2949L19.552 32.5125H16C15.1514 32.5125 14.3374 32.1754 13.7373 31.5752C13.1372 30.9751 12.8 30.1612 12.8 29.3125V16.5125ZM22.0336 27.7125H16V16.5125H32V27.7125H22.0336Z" fill="#6B7280"/>
</svg>
