<svg width="56" height="56" viewBox="0 0 56 56" fill="none" xmlns="http://www.w3.org/2000/svg">
<rect width="56" height="56" rx="28" fill="#F3F4F6"/>
<path d="M29.6 39.2003C29.6002 39.4729 29.67 39.741 29.8028 39.9791C29.9357 40.2172 30.1272 40.4173 30.3591 40.5606C30.591 40.7039 30.8557 40.7856 31.1281 40.7978C31.4004 40.8101 31.6714 40.7526 31.9152 40.6307L38.3153 37.4307C38.581 37.2979 38.8045 37.0938 38.9608 36.8412C39.117 36.5885 39.1999 36.2974 39.2001 36.0003V26.7779C39.1999 26.5053 39.1301 26.2372 38.9973 25.9992C38.8644 25.7611 38.673 25.5609 38.441 25.4176C38.2091 25.2743 37.9444 25.1927 37.672 25.1804C37.3997 25.1681 37.1287 25.2257 36.8849 25.3475L30.4849 28.5475C30.2191 28.6803 29.9956 28.8844 29.8393 29.1371C29.6831 29.3897 29.6002 29.6809 29.6 29.9779V39.2003ZM36.3377 22.0419C36.6031 21.9089 36.8262 21.7047 36.9822 21.452C37.1381 21.1994 37.2207 20.9084 37.2207 20.6115C37.2207 20.3146 37.1381 20.0236 36.9822 19.771C36.8262 19.5184 36.6031 19.3141 36.3377 19.1811L28.7152 15.3699C28.4932 15.2589 28.2483 15.2012 28 15.2012C27.7518 15.2012 27.5069 15.2589 27.2849 15.3699L19.6624 19.1811C19.397 19.3141 19.1739 19.5184 19.0179 19.771C18.862 20.0236 18.7794 20.3146 18.7794 20.6115C18.7794 20.9084 18.862 21.1994 19.0179 21.452C19.1739 21.7047 19.397 21.9089 19.6624 22.0419L27.2849 25.8531C27.5069 25.9641 27.7518 26.0219 28 26.0219C28.2483 26.0219 28.4932 25.9641 28.7152 25.8531L36.3377 22.0419ZM19.1152 25.3475C18.8714 25.2257 18.6004 25.1681 18.3281 25.1804C18.0557 25.1927 17.791 25.2743 17.5591 25.4176C17.3271 25.5609 17.1357 25.7611 17.0028 25.9992C16.87 26.2372 16.8002 26.5053 16.8 26.7779V36.0003C16.8002 36.2974 16.8831 36.5885 17.0393 36.8412C17.1956 37.0938 17.4191 37.2979 17.6848 37.4307L24.0848 40.6307C24.3287 40.7526 24.5997 40.8101 24.872 40.7978C25.1444 40.7856 25.4091 40.7039 25.641 40.5606C25.8729 40.4173 26.0644 40.2172 26.1973 39.9791C26.3301 39.741 26.3999 39.4729 26.4 39.2003V29.9779C26.3999 29.6809 26.317 29.3897 26.1608 29.1371C26.0045 28.8844 25.781 28.6803 25.5152 28.5475L19.1152 25.3475Z" fill="#6B7280"/>
</svg>
