<svg width="48" height="49" viewBox="0 0 48 49" fill="none" xmlns="http://www.w3.org/2000/svg">
<rect y="0.0249023" width="48" height="48" rx="6" fill="#F3F4F6"/>
<path fill-rule="evenodd" clip-rule="evenodd" d="M17.6 11.2249C16.7513 11.2249 15.9374 11.562 15.3373 12.1621C14.7372 12.7622 14.4 13.5762 14.4 14.4249V33.6249C14.4 34.4735 14.7372 35.2875 15.3373 35.8876C15.9374 36.4877 16.7513 36.8249 17.6 36.8249H30.4C31.2487 36.8249 32.0626 36.4877 32.6628 35.8876C33.2629 35.2875 33.6 34.4735 33.6 33.6249V19.8873C33.5998 19.0386 33.2626 18.2248 32.6624 17.6249L27.2 12.1625C26.6 11.5623 25.7862 11.225 24.9376 11.2249H17.6ZM20.8 27.2249C20.8 26.8005 20.6315 26.3935 20.3314 26.0935C20.0313 25.7934 19.6244 25.6249 19.2 25.6249C18.7757 25.6249 18.3687 25.7934 18.0687 26.0935C17.7686 26.3935 17.6 26.8005 17.6 27.2249V32.0249C17.6 32.4492 17.7686 32.8562 18.0687 33.1562C18.3687 33.4563 18.7757 33.6249 19.2 33.6249C19.6244 33.6249 20.0313 33.4563 20.3314 33.1562C20.6315 32.8562 20.8 32.4492 20.8 32.0249V27.2249ZM24 22.4249C24.4244 22.4249 24.8313 22.5934 25.1314 22.8935C25.4315 23.1935 25.6 23.6005 25.6 24.0249V32.0249C25.6 32.4492 25.4315 32.8562 25.1314 33.1562C24.8313 33.4563 24.4244 33.6249 24 33.6249C23.5757 33.6249 23.1687 33.4563 22.8687 33.1562C22.5686 32.8562 22.4 32.4492 22.4 32.0249V24.0249C22.4 23.6005 22.5686 23.1935 22.8687 22.8935C23.1687 22.5934 23.5757 22.4249 24 22.4249ZM30.4 20.8249C30.4 20.4005 30.2315 19.9935 29.9314 19.6935C29.6313 19.3934 29.2244 19.2249 28.8 19.2249C28.3757 19.2249 27.9687 19.3934 27.6687 19.6935C27.3686 19.9935 27.2 20.4005 27.2 20.8249V32.0249C27.2 32.4492 27.3686 32.8562 27.6687 33.1562C27.9687 33.4563 28.3757 33.6249 28.8 33.6249C29.2244 33.6249 29.6313 33.4563 29.9314 33.1562C30.2315 32.8562 30.4 32.4492 30.4 32.0249V20.8249Z" fill="#6B7280"/>
</svg>
