<svg width="56" height="56" viewBox="0 0 56 56" fill="none" xmlns="http://www.w3.org/2000/svg">
<rect width="56" height="56" rx="28" fill="#F3F4F6"/>
<path d="M34.6667 22.6667H37.3333C38.0406 22.6667 38.7189 22.9477 39.219 23.4478C39.719 23.9479 40 24.6261 40 25.3334V33.3334C40 34.0406 39.719 34.7189 39.219 35.219C38.7189 35.7191 38.0406 36 37.3333 36H34.6667V41.3334L29.3333 36H24C23.6498 36.0004 23.3029 35.9316 22.9794 35.7975C22.6558 35.6634 22.362 35.4667 22.1147 35.2187M22.1147 35.2187L26.6667 30.6667H32C32.7072 30.6667 33.3855 30.3858 33.8856 29.8857C34.3857 29.3856 34.6667 28.7073 34.6667 28V20C34.6667 19.2928 34.3857 18.6145 33.8856 18.1144C33.3855 17.6143 32.7072 17.3334 32 17.3334H18.6667C17.9594 17.3334 17.2811 17.6143 16.781 18.1144C16.281 18.6145 16 19.2928 16 20V28C16 28.7073 16.281 29.3856 16.781 29.8857C17.2811 30.3858 17.9594 30.6667 18.6667 30.6667H21.3333V36L22.1147 35.2187Z" stroke="#6B7280" stroke-width="2" stroke-linecap="round" stroke-linejoin="round"/>
</svg>
