<svg width="56" height="56" viewBox="0 0 56 56" fill="none" xmlns="http://www.w3.org/2000/svg">
<rect width="56" height="56" rx="28" fill="#F3F4F6"/>
<path fill-rule="evenodd" clip-rule="evenodd" d="M27.2064 13.811C27.4481 13.673 27.7217 13.6003 28 13.6003C28.2784 13.6003 28.5519 13.673 28.7936 13.811L31.5936 15.411C31.7813 15.5124 31.9467 15.6504 32.0803 15.8167C32.2139 15.983 32.3129 16.1743 32.3714 16.3794C32.43 16.5845 32.4469 16.7992 32.4213 17.011C32.3956 17.2227 32.3279 17.4272 32.2221 17.6124C32.1163 17.7976 31.9745 17.9598 31.8051 18.0894C31.6356 18.219 31.442 18.3134 31.2356 18.3671C31.0292 18.4208 30.8141 18.4327 30.603 18.402C30.3919 18.3714 30.1891 18.2988 30.0064 18.1886L28 17.043L25.9936 18.1886C25.811 18.2988 25.6081 18.3714 25.3971 18.402C25.186 18.4327 24.9709 18.4208 24.7645 18.3671C24.558 18.3134 24.3644 18.219 24.195 18.0894C24.0256 17.9598 23.8838 17.7976 23.778 17.6124C23.6721 17.4272 23.6044 17.2227 23.5788 17.011C23.5531 16.7992 23.5701 16.5845 23.6286 16.3794C23.6872 16.1743 23.7861 15.983 23.9197 15.8167C24.0533 15.6504 24.2188 15.5124 24.4064 15.411L27.2064 13.811ZM20.9888 19.2062C21.1992 19.5746 21.2546 20.0114 21.143 20.4206C21.0314 20.8299 20.7619 21.1781 20.3936 21.3886L20.0256 21.5998L20.3936 21.811C20.5813 21.9124 20.7467 22.0504 20.8803 22.2167C21.0139 22.383 21.1129 22.5743 21.1714 22.7794C21.23 22.9845 21.2469 23.1992 21.2213 23.411C21.1956 23.6227 21.1279 23.8272 21.0221 24.0124C20.9163 24.1976 20.7745 24.3598 20.6051 24.4894C20.4356 24.619 20.242 24.7134 20.0356 24.7671C19.8292 24.8208 19.6141 24.8327 19.403 24.802C19.1919 24.7714 18.9891 24.6988 18.8064 24.5886L18.4 24.3566V24.7998C18.4 25.2242 18.2314 25.6311 17.9314 25.9312C17.6313 26.2313 17.2244 26.3998 16.8 26.3998C16.3757 26.3998 15.9687 26.2313 15.6686 25.9312C15.3686 25.6311 15.2 25.2242 15.2 24.7998V21.5998C15.1991 21.3124 15.276 21.0301 15.4224 20.7828C15.5689 20.5355 15.7795 20.3324 16.032 20.195L18.8064 18.611C19.1748 18.4007 19.6116 18.3452 20.0208 18.4568C20.4301 18.5684 20.7783 18.838 20.9888 19.2062ZM35.0112 19.2062C35.2218 18.838 35.57 18.5684 35.9792 18.4568C36.3884 18.3452 36.8253 18.4007 37.1936 18.611L39.9664 20.195C40.2185 20.333 40.4289 20.5362 40.5756 20.7833C40.7222 21.0304 40.7997 21.3124 40.8 21.5998V24.7998C40.8 25.2242 40.6314 25.6311 40.3314 25.9312C40.0313 26.2313 39.6244 26.3998 39.2 26.3998C38.7757 26.3998 38.3687 26.2313 38.0686 25.9312C37.7686 25.6311 37.6 25.2242 37.6 24.7998V24.3566L37.1936 24.5886C37.011 24.6988 36.8081 24.7714 36.5971 24.802C36.386 24.8327 36.1709 24.8208 35.9645 24.7671C35.758 24.7134 35.5644 24.619 35.395 24.4894C35.2256 24.3598 35.0838 24.1976 34.978 24.0124C34.8721 23.8272 34.8044 23.6227 34.7788 23.411C34.7531 23.1992 34.7701 22.9845 34.8286 22.7794C34.8872 22.5743 34.9861 22.383 35.1197 22.2167C35.2533 22.0504 35.4188 21.9124 35.6064 21.811L35.9744 21.5998L35.6064 21.3886C35.2382 21.1781 34.9686 20.8299 34.857 20.4206C34.7454 20.0114 34.8009 19.5746 35.0112 19.2062ZM23.8112 25.6062C24.0218 25.238 24.37 24.9684 24.7792 24.8568C25.1884 24.7452 25.6253 24.8007 25.9936 25.011L28 26.1566L30.0064 25.011C30.1891 24.9008 30.3919 24.8283 30.603 24.7976C30.8141 24.767 31.0292 24.7789 31.2356 24.8325C31.442 24.8862 31.6356 24.9806 31.8051 25.1103C31.9745 25.2399 32.1163 25.402 32.2221 25.5872C32.3279 25.7724 32.3956 25.9769 32.4213 26.1887C32.4469 26.4004 32.43 26.6152 32.3714 26.8203C32.3129 27.0254 32.2139 27.2167 32.0803 27.383C31.9467 27.5493 31.7813 27.6872 31.5936 27.7886L29.6 28.9278V31.1998C29.6 31.6242 29.4314 32.0311 29.1314 32.3312C28.8313 32.6313 28.4244 32.7998 28 32.7998C27.5757 32.7998 27.1687 32.6313 26.8686 32.3312C26.5686 32.0311 26.4 31.6242 26.4 31.1998V28.9278L24.4064 27.7886C24.0382 27.5781 23.7686 27.2299 23.657 26.8206C23.5454 26.4114 23.6009 25.9746 23.8112 25.6062ZM16.8 29.5998C17.2244 29.5998 17.6313 29.7684 17.9314 30.0685C18.2314 30.3685 18.4 30.7755 18.4 31.1998V33.4718L20.3936 34.611C20.5813 34.7124 20.7467 34.8504 20.8803 35.0167C21.0139 35.1829 21.1129 35.3743 21.1714 35.5794C21.23 35.7845 21.2469 35.9992 21.2213 36.211C21.1956 36.4227 21.1279 36.6272 21.0221 36.8124C20.9163 36.9976 20.7745 37.1598 20.6051 37.2894C20.4356 37.419 20.242 37.5134 20.0356 37.5671C19.8292 37.6208 19.6141 37.6327 19.403 37.602C19.1919 37.5714 18.9891 37.4988 18.8064 37.3886L16.0064 35.7886C15.7615 35.6487 15.558 35.4466 15.4164 35.2027C15.2747 34.9588 15.2001 34.6818 15.2 34.3998V31.1998C15.2 30.7755 15.3686 30.3685 15.6686 30.0685C15.9687 29.7684 16.3757 29.5998 16.8 29.5998ZM39.2 29.5998C39.6244 29.5998 40.0313 29.7684 40.3314 30.0685C40.6314 30.3685 40.8 30.7755 40.8 31.1998V34.3998C40.7999 34.6818 40.7253 34.9588 40.5837 35.2027C40.4421 35.4466 40.2385 35.6487 39.9936 35.7886L37.1936 37.3886C37.011 37.4988 36.8081 37.5714 36.5971 37.602C36.386 37.6327 36.1709 37.6208 35.9645 37.5671C35.758 37.5134 35.5644 37.419 35.395 37.2894C35.2256 37.1598 35.0838 36.9976 34.978 36.8124C34.8721 36.6272 34.8044 36.4227 34.7788 36.211C34.7531 35.9992 34.7701 35.7845 34.8286 35.5794C34.8872 35.3743 34.9861 35.1829 35.1197 35.0167C35.2533 34.8504 35.4188 34.7124 35.6064 34.611L37.6 33.4718V31.1998C37.6 30.7755 37.7686 30.3685 38.0686 30.0685C38.3687 29.7684 38.7757 29.5998 39.2 29.5998ZM23.8112 38.4062C24.0218 38.038 24.37 37.7684 24.7792 37.6568C25.1884 37.5452 25.6253 37.6007 25.9936 37.811L26.4 38.043V37.5998C26.4 37.1755 26.5686 36.7685 26.8686 36.4685C27.1687 36.1684 27.5757 35.9998 28 35.9998C28.4244 35.9998 28.8313 36.1684 29.1314 36.4685C29.4314 36.7685 29.6 37.1755 29.6 37.5998V38.043L30.0064 37.811C30.1891 37.7008 30.3919 37.6283 30.603 37.5976C30.8141 37.567 31.0292 37.5789 31.2356 37.6325C31.442 37.6862 31.6356 37.7806 31.8051 37.9102C31.9745 38.0399 32.1163 38.202 32.2221 38.3872C32.3279 38.5724 32.3956 38.7769 32.4213 38.9887C32.4469 39.2004 32.43 39.4152 32.3714 39.6203C32.3129 39.8254 32.2139 40.0167 32.0803 40.183C31.9467 40.3493 31.7813 40.4872 31.5936 40.5886L28.8176 42.1758C28.5705 42.3237 28.288 42.4018 28 42.4018C27.7121 42.4018 27.4295 42.3237 27.1824 42.1758L24.4064 40.5886C24.0382 40.3781 23.7686 40.0299 23.657 39.6206C23.5454 39.2114 23.6009 38.7746 23.8112 38.4062Z" fill="#6B7280"/>
</svg>
