<svg width="16" height="22" viewBox="0 0 16 22" fill="none" xmlns="http://www.w3.org/2000/svg">
<path d="M15.9299 19.8376C15.9299 20.9422 15.0345 21.8376 13.9299 21.8376H12.8609C11.7564 21.8376 10.861 20.9422 10.861 19.8376L10.861 2.83759C10.861 1.73302 11.7564 0.83759 12.861 0.83759H13.9299C15.0345 0.83759 15.9299 1.73302 15.9299 2.83759L15.9299 19.8376Z" fill="#111927"/>
<path d="M0 4.10838C0 2.45153 1.34315 1.10838 3 1.10838H6.03724C7.6941 1.10838 9.03724 2.45153 9.03724 4.10838V7.14562C9.03724 8.80247 7.6941 10.1456 6.03724 10.1456H3C1.34315 10.1456 0 8.80247 0 7.14562L0 4.10838Z" fill="#111927"/>
<path d="M0.0153809 15.3036C0.0153809 13.6467 1.35853 12.3036 3.01538 12.3036H7.05262C8.15719 12.3036 9.05262 13.199 9.05262 14.3036V18.3408C9.05262 19.9976 7.70948 21.3408 6.05262 21.3408H3.01538C1.35853 21.3408 0.0153809 19.9976 0.0153809 18.3408V15.3036Z" fill="#28B883"/>
</svg>
