<svg width="56" height="56" viewBox="0 0 56 56" fill="none" xmlns="http://www.w3.org/2000/svg">
<rect width="56" height="56" rx="28" fill="#F3F4F6"/>
<path d="M32.8 23.2H23.2V32.8H32.8V23.2Z" fill="#6B7280"/>
<path fill-rule="evenodd" clip-rule="evenodd" d="M23.2 15.2C23.2 14.7756 23.3685 14.3687 23.6686 14.0686C23.9687 13.7685 24.3756 13.6 24.8 13.6C25.2243 13.6 25.6313 13.7685 25.9313 14.0686C26.2314 14.3687 26.4 14.7756 26.4 15.2V16.8H29.6V15.2C29.6 14.7756 29.7685 14.3687 30.0686 14.0686C30.3687 13.7685 30.7756 13.6 31.2 13.6C31.6243 13.6 32.0313 13.7685 32.3313 14.0686C32.6314 14.3687 32.8 14.7756 32.8 15.2V16.8H36C36.8487 16.8 37.6626 17.1371 38.2627 17.7372C38.8628 18.3373 39.2 19.1513 39.2 20V23.2H40.8C41.2243 23.2 41.6313 23.3685 41.9313 23.6686C42.2314 23.9687 42.4 24.3756 42.4 24.8C42.4 25.2243 42.2314 25.6313 41.9313 25.9313C41.6313 26.2314 41.2243 26.4 40.8 26.4H39.2V29.6H40.8C41.2243 29.6 41.6313 29.7685 41.9313 30.0686C42.2314 30.3687 42.4 30.7756 42.4 31.2C42.4 31.6243 42.2314 32.0313 41.9313 32.3313C41.6313 32.6314 41.2243 32.8 40.8 32.8H39.2V36C39.2 36.8487 38.8628 37.6626 38.2627 38.2627C37.6626 38.8628 36.8487 39.2 36 39.2H32.8V40.8C32.8 41.2243 32.6314 41.6313 32.3313 41.9313C32.0313 42.2314 31.6243 42.4 31.2 42.4C30.7756 42.4 30.3687 42.2314 30.0686 41.9313C29.7685 41.6313 29.6 41.2243 29.6 40.8V39.2H26.4V40.8C26.4 41.2243 26.2314 41.6313 25.9313 41.9313C25.6313 42.2314 25.2243 42.4 24.8 42.4C24.3756 42.4 23.9687 42.2314 23.6686 41.9313C23.3685 41.6313 23.2 41.2243 23.2 40.8V39.2H20C19.1513 39.2 18.3373 38.8628 17.7372 38.2627C17.1371 37.6626 16.8 36.8487 16.8 36V32.8H15.2C14.7756 32.8 14.3687 32.6314 14.0686 32.3313C13.7685 32.0313 13.6 31.6243 13.6 31.2C13.6 30.7756 13.7685 30.3687 14.0686 30.0686C14.3687 29.7685 14.7756 29.6 15.2 29.6H16.8V26.4H15.2C14.7756 26.4 14.3687 26.2314 14.0686 25.9313C13.7685 25.6313 13.6 25.2243 13.6 24.8C13.6 24.3756 13.7685 23.9687 14.0686 23.6686C14.3687 23.3685 14.7756 23.2 15.2 23.2H16.8V20C16.8 19.1513 17.1371 18.3373 17.7372 17.7372C18.3373 17.1371 19.1513 16.8 20 16.8H23.2V15.2ZM20 20H36V36H20V20Z" fill="#6B7280"/>
</svg>
