<svg width="56" height="56" viewBox="0 0 56 56" fill="none" xmlns="http://www.w3.org/2000/svg">
<rect width="56" height="56" rx="28" fill="#F3F4F6"/>
<path d="M25.4928 23.869C25.7408 23.7042 26.0464 23.5554 26.4 23.4418V26.1586C26.0796 26.0582 25.7744 25.9145 25.4928 25.7314C24.912 25.3442 24.8 24.9826 24.8 24.8002C24.8 24.6178 24.912 24.2562 25.4928 23.869ZM29.6 32.5586V29.8418C29.952 29.9554 30.2593 30.1042 30.5072 30.269C31.0897 30.6578 31.2 31.0178 31.2 31.2002C31.2 31.3826 31.088 31.7442 30.5072 32.1314C30.2257 32.3145 29.9205 32.4582 29.6 32.5586Z" fill="#6B7280"/>
<path fill-rule="evenodd" clip-rule="evenodd" d="M28 40.8C31.3947 40.8 34.6505 39.4514 37.0509 37.051C39.4514 34.6505 40.7999 31.3948 40.7999 28C40.7999 24.6052 39.4514 21.3495 37.0509 18.949C34.6505 16.5486 31.3947 15.2 28 15.2C24.6052 15.2 21.3494 16.5486 18.949 18.949C16.5485 21.3495 15.2 24.6052 15.2 28C15.2 31.3948 16.5485 34.6505 18.949 37.051C21.3494 39.4514 24.6052 40.8 28 40.8ZM29.6 20C29.6 19.5757 29.4314 19.1687 29.1313 18.8686C28.8313 18.5686 28.4243 18.4 28 18.4C27.5756 18.4 27.1686 18.5686 26.8686 18.8686C26.5685 19.1687 26.4 19.5757 26.4 20V20.1472C25.4442 20.3173 24.5324 20.6775 23.7184 21.2064C22.5632 21.9744 21.6 23.2144 21.6 24.8C21.6 26.384 22.5632 27.624 23.7184 28.3936C24.4864 28.9056 25.4048 29.2656 26.4 29.4528V32.5584C25.7744 32.3552 25.3119 32.0512 25.0512 31.752C24.9158 31.5859 24.7485 31.4487 24.5591 31.3485C24.3697 31.2483 24.1621 31.1872 23.9486 31.1687C23.7351 31.1503 23.5201 31.1749 23.3164 31.2411C23.1126 31.3073 22.9242 31.4138 22.7623 31.5542C22.6005 31.6946 22.4685 31.8661 22.3742 32.0585C22.2799 32.2509 22.2251 32.4602 22.2133 32.6742C22.2014 32.8881 22.2327 33.1023 22.3051 33.3039C22.3776 33.5055 22.4898 33.6906 22.6352 33.848C23.5344 34.8864 24.896 35.5696 26.4 35.8528V36C26.4 36.4244 26.5685 36.8313 26.8686 37.1314C27.1686 37.4314 27.5756 37.6 28 37.6C28.4243 37.6 28.8313 37.4314 29.1313 37.1314C29.4314 36.8313 29.6 36.4244 29.6 36V35.8528C30.5557 35.6827 31.4675 35.3225 32.2815 34.7936C33.4368 34.0256 34.4 32.7856 34.4 31.2C34.4 29.616 33.4368 28.376 32.2815 27.6064C31.4675 27.0775 30.5557 26.7173 29.6 26.5472V23.4416C30.2256 23.6448 30.688 23.9488 30.9488 24.248C31.0854 24.4101 31.2528 24.5434 31.4414 24.6403C31.63 24.7371 31.836 24.7955 32.0473 24.812C32.2587 24.8285 32.4712 24.8029 32.6726 24.7366C32.8739 24.6703 33.0601 24.5647 33.2203 24.4258C33.3805 24.2869 33.5114 24.1176 33.6056 23.9277C33.6998 23.7378 33.7553 23.531 33.7689 23.3195C33.7825 23.1079 33.7539 22.8958 33.6848 22.6953C33.6157 22.4949 33.5074 22.3102 33.3664 22.152C32.4655 21.1136 31.1055 20.4304 29.6 20.1472V20Z" fill="#6B7280"/>
</svg>
