<svg width="48" height="49" viewBox="0 0 48 49" fill="none" xmlns="http://www.w3.org/2000/svg">
<rect y="0.0249023" width="48" height="48" rx="6" fill="#F3F4F6"/>
<path d="M25.6 12.8249C25.6 12.4005 25.4314 11.9935 25.1314 11.6935C24.8313 11.3934 24.4244 11.2249 24 11.2249C23.5757 11.2249 23.1687 11.3934 22.8686 11.6935C22.5686 11.9935 22.4 12.4005 22.4 12.8249V14.4249C22.4 14.8492 22.5686 15.2562 22.8686 15.5562C23.1687 15.8563 23.5757 16.0249 24 16.0249C24.4244 16.0249 24.8313 15.8563 25.1314 15.5562C25.4314 15.2562 25.6 14.8492 25.6 14.4249V12.8249ZM33.0512 17.2361C33.3427 16.9343 33.5039 16.5301 33.5003 16.1106C33.4966 15.6911 33.3284 15.2898 33.0317 14.9931C32.7351 14.6965 32.3338 14.5282 31.9143 14.5246C31.4947 14.5209 31.0906 14.6822 30.7888 14.9737L29.6576 16.1049C29.3662 16.4066 29.2049 16.8108 29.2085 17.2303C29.2122 17.6498 29.3804 18.0511 29.6771 18.3478C29.9738 18.6444 30.3751 18.8127 30.7946 18.8163C31.2141 18.82 31.6182 18.6587 31.92 18.3673L33.0512 17.2361ZM36.8 24.0249C36.8 24.4492 36.6314 24.8562 36.3314 25.1562C36.0313 25.4563 35.6244 25.6249 35.2 25.6249H33.6C33.1757 25.6249 32.7687 25.4563 32.4686 25.1562C32.1686 24.8562 32 24.4492 32 24.0249C32 23.6005 32.1686 23.1935 32.4686 22.8935C32.7687 22.5934 33.1757 22.4249 33.6 22.4249H35.2C35.6244 22.4249 36.0313 22.5934 36.3314 22.8935C36.6314 23.1935 36.8 23.6005 36.8 24.0249ZM16.08 18.3673C16.2276 18.5201 16.4042 18.642 16.5994 18.7258C16.7946 18.8097 17.0045 18.8538 17.217 18.8557C17.4294 18.8575 17.6401 18.817 17.8367 18.7366C18.0334 18.6561 18.212 18.5373 18.3622 18.3871C18.5125 18.2369 18.6313 18.0582 18.7117 17.8616C18.7922 17.6649 18.8327 17.4543 18.8308 17.2418C18.829 17.0294 18.7848 16.8194 18.701 16.6242C18.6171 16.429 18.4952 16.2524 18.3424 16.1049L17.2112 14.9737C16.9094 14.6822 16.5053 14.5209 16.0858 14.5246C15.6663 14.5282 15.265 14.6965 14.9683 14.9931C14.6716 15.2898 14.5034 15.6911 14.4997 16.1106C14.4961 16.5301 14.6574 16.9343 14.9488 17.2361L16.08 18.3673ZM16 24.0249C16 24.4492 15.8314 24.8562 15.5314 25.1562C15.2313 25.4563 14.8244 25.6249 14.4 25.6249H12.8C12.3757 25.6249 11.9687 25.4563 11.6686 25.1562C11.3686 24.8562 11.2 24.4492 11.2 24.0249C11.2 23.6005 11.3686 23.1935 11.6686 22.8935C11.9687 22.5934 12.3757 22.4249 12.8 22.4249H14.4C14.8244 22.4249 15.2313 22.5934 15.5314 22.8935C15.8314 23.1935 16 23.6005 16 24.0249ZM20.8 33.6249V32.0249H27.2V33.6249C27.2 34.4735 26.8629 35.2875 26.2628 35.8876C25.6626 36.4877 24.8487 36.8249 24 36.8249C23.1513 36.8249 22.3374 36.4877 21.7373 35.8876C21.1372 35.2875 20.8 34.4735 20.8 33.6249ZM27.2 30.4249C27.224 29.8809 27.5328 29.3913 27.9632 29.0505C29.0075 28.2269 29.7693 27.0984 30.1426 25.8219C30.516 24.5454 30.4824 23.1843 30.0466 21.9278C29.6107 20.6713 28.7942 19.5817 27.7106 18.8106C26.6269 18.0396 25.33 17.6252 24 17.6252C22.67 17.6252 21.3731 18.0396 20.2895 18.8106C19.2058 19.5817 18.3893 20.6713 17.9535 21.9278C17.5176 23.1843 17.484 24.5454 17.8574 25.8219C18.2308 27.0984 18.9925 28.2269 20.0368 29.0505C20.4688 29.3913 20.776 29.8809 20.7984 30.4249H27.2016H27.2Z" fill="#6B7280"/>
</svg>
