<svg width="91" height="21" viewBox="0 0 91 21" fill="none" xmlns="http://www.w3.org/2000/svg">
<path d="M16.4297 19C16.4297 20.1046 15.5343 21 14.4297 21H13.3607C12.2562 21 11.3607 20.1046 11.3607 19L11.3607 2C11.3607 0.895432 12.2562 5.96047e-07 13.3607 5.96047e-07H14.4297C15.5343 5.96047e-07 16.4297 0.895432 16.4297 2L16.4297 19Z" fill="white"/>
<path d="M0.5 3.271C0.5 1.61414 1.84315 0.270996 3.5 0.270996H6.53724C8.1941 0.270996 9.53724 1.61414 9.53724 3.271V6.30824C9.53724 7.96509 8.1941 9.30824 6.53724 9.30824H3.5C1.84315 9.30824 0.5 7.96509 0.5 6.30824V3.271Z" fill="white"/>
<path d="M0.515625 14.4658C0.515625 12.809 1.85877 11.4658 3.51563 11.4658H7.55287C8.65744 11.4658 9.55287 12.3613 9.55287 13.4658V17.5031C9.55287 19.1599 8.20972 20.5031 6.55287 20.5031H3.51563C1.85877 20.5031 0.515625 19.1599 0.515625 17.5031V14.4658Z" fill="#28B883"/>
<path d="M27.5675 17H33.1605C36.1009 17 37.6669 15.4659 37.6669 13.3821C37.6669 11.4453 36.2798 10.2756 34.7905 10.2053V10.0774C36.152 9.7706 37.1555 8.8054 37.1555 7.26491C37.1555 5.30256 35.6982 3.90909 32.8089 3.90909H27.5675V17ZM30.3352 14.7372V11.2599H32.6555C33.9851 11.2599 34.8097 12.027 34.8097 13.1072C34.8097 14.0916 34.1385 14.7372 32.5916 14.7372H30.3352ZM30.3352 9.38707V6.14631H32.4382C33.6655 6.14631 34.3622 6.77912 34.3622 7.72514C34.3622 8.76065 33.5185 9.38707 32.3871 9.38707H30.3352ZM43.8912 17.1918C46.3201 17.1918 47.9565 16.0092 48.34 14.1875L45.8216 14.0213C45.5467 14.7692 44.8436 15.1591 43.9359 15.1591C42.5744 15.1591 41.7115 14.2578 41.7115 12.794V12.7876H48.3976V12.0398C48.3976 8.70312 46.3777 7.05398 43.7825 7.05398C40.8933 7.05398 39.0204 9.10582 39.0204 12.1357C39.0204 15.2486 40.8677 17.1918 43.8912 17.1918ZM41.7115 11.1001C41.769 9.98153 42.6191 9.08665 43.8272 9.08665C45.0098 9.08665 45.8279 9.9304 45.8343 11.1001H41.7115ZM50.1745 17H52.8975V11.4453C52.8975 10.2372 53.7797 9.40625 54.9814 9.40625C55.3585 9.40625 55.8762 9.47017 56.1319 9.55327V7.13707C55.889 7.07955 55.5502 7.04119 55.2754 7.04119C54.176 7.04119 53.2747 7.6804 52.9167 8.89489H52.8145V7.18182H50.1745V17ZM61.506 20.8864C64.3121 20.8864 66.3065 19.608 66.3065 17.0959V7.18182H63.6026V8.83097H63.5004C63.136 8.03196 62.337 7.05398 60.6942 7.05398C58.5401 7.05398 56.7184 8.72869 56.7184 12.0717C56.7184 15.3381 58.489 16.8594 60.7006 16.8594C62.2667 16.8594 63.1424 16.0732 63.5004 15.2614H63.6154V17.0575C63.6154 18.4062 62.7525 18.9304 61.57 18.9304C60.3683 18.9304 59.761 18.4062 59.5373 17.8118L57.0188 18.1506C57.3448 19.6974 58.8597 20.8864 61.506 20.8864ZM61.5636 14.8139C60.2276 14.8139 59.4989 13.7528 59.4989 12.0589C59.4989 10.3906 60.2148 9.22088 61.5636 9.22088C62.8867 9.22088 63.6282 10.3395 63.6282 12.0589C63.6282 13.7912 62.8739 14.8139 61.5636 14.8139ZM68.4734 17H71.1964V7.18182H68.4734V17ZM69.8413 5.91619C70.6531 5.91619 71.3178 5.29616 71.3178 4.53551C71.3178 3.78125 70.6531 3.16122 69.8413 3.16122C69.0359 3.16122 68.3711 3.78125 68.3711 4.53551C68.3711 5.29616 69.0359 5.91619 69.8413 5.91619ZM78.6575 7.18182H76.7079V6.52344C76.7079 5.85866 76.9764 5.46875 77.7754 5.46875C78.1014 5.46875 78.4338 5.53906 78.6511 5.60938L79.1305 3.56392C78.7917 3.46165 78.0439 3.29545 77.2065 3.29545C75.3592 3.29545 73.9849 4.33736 73.9849 6.4723V7.18182H72.5978V9.22727H73.9849V17H76.7079V9.22727H78.6575V7.18182ZM82.0021 20.6818C84.0284 20.6818 85.1023 19.6463 85.6584 18.0611L89.4744 7.1946L86.5916 7.18182L84.5398 14.392H84.4375L82.4048 7.18182H79.5412L83.0632 17.2812L82.9034 17.6967C82.5455 18.6172 81.8615 18.6619 80.9027 18.3679L80.2891 20.4006C80.679 20.5668 81.3118 20.6818 82.0021 20.6818Z" fill="white"/>
</svg>
