<svg width="90" height="21" viewBox="0 0 90 21" fill="none" xmlns="http://www.w3.org/2000/svg">
<path d="M15.9297 19C15.9297 20.1046 15.0343 21 13.9297 21H12.8607C11.7562 21 10.8607 20.1046 10.8607 19L10.8607 2C10.8607 0.89543 11.7562 -1.3113e-06 12.8607 -1.3113e-06H13.9297C15.0343 -1.3113e-06 15.9297 0.89543 15.9297 2L15.9297 19Z" fill="#111927"/>
<path d="M0 3.27079C0 1.61393 1.34315 0.270786 3 0.270786H6.03724C7.6941 0.270786 9.03724 1.61393 9.03724 3.27079V6.30803C9.03724 7.96488 7.6941 9.30803 6.03724 9.30803H3C1.34315 9.30803 0 7.96488 0 6.30803L0 3.27079Z" fill="#111927"/>
<path d="M0.015625 14.466C0.015625 12.8091 1.35877 11.466 3.01563 11.466H7.05287C8.15744 11.466 9.05287 12.3614 9.05287 13.466V17.5032C9.05287 19.1601 7.70972 20.5032 6.05287 20.5032H3.01563C1.35877 20.5032 0.015625 19.1601 0.015625 17.5032V14.466Z" fill="#28B883"/>
<path d="M27.0675 17H32.6605C35.6009 17 37.1669 15.4659 37.1669 13.3821C37.1669 11.4453 35.7798 10.2756 34.2905 10.2053V10.0774C35.652 9.7706 36.6555 8.8054 36.6555 7.26491C36.6555 5.30256 35.1982 3.90909 32.3089 3.90909H27.0675V17ZM29.8352 14.7372V11.2599H32.1555C33.4851 11.2599 34.3097 12.027 34.3097 13.1072C34.3097 14.0916 33.6385 14.7372 32.0916 14.7372H29.8352ZM29.8352 9.38707V6.14631H31.9382C33.1655 6.14631 33.8622 6.77912 33.8622 7.72514C33.8622 8.76065 33.0185 9.38707 31.8871 9.38707H29.8352ZM43.3912 17.1918C45.8201 17.1918 47.4565 16.0092 47.84 14.1875L45.3216 14.0213C45.0467 14.7692 44.3436 15.1591 43.4359 15.1591C42.0744 15.1591 41.2115 14.2578 41.2115 12.794V12.7876H47.8976V12.0398C47.8976 8.70312 45.8777 7.05398 43.2825 7.05398C40.3933 7.05398 38.5204 9.10582 38.5204 12.1357C38.5204 15.2486 40.3677 17.1918 43.3912 17.1918ZM41.2115 11.1001C41.269 9.98153 42.1191 9.08665 43.3272 9.08665C44.5098 9.08665 45.3279 9.9304 45.3343 11.1001H41.2115ZM49.6745 17H52.3975V11.4453C52.3975 10.2372 53.2797 9.40625 54.4814 9.40625C54.8585 9.40625 55.3762 9.47017 55.6319 9.55327V7.13707C55.389 7.07955 55.0502 7.04119 54.7754 7.04119C53.676 7.04119 52.7747 7.6804 52.4167 8.89489H52.3145V7.18182H49.6745V17ZM61.006 20.8864C63.8121 20.8864 65.8065 19.608 65.8065 17.0959V7.18182H63.1026V8.83097H63.0004C62.636 8.03196 61.837 7.05398 60.1942 7.05398C58.0401 7.05398 56.2184 8.72869 56.2184 12.0717C56.2184 15.3381 57.989 16.8594 60.2006 16.8594C61.7667 16.8594 62.6424 16.0732 63.0004 15.2614H63.1154V17.0575C63.1154 18.4062 62.2525 18.9304 61.07 18.9304C59.8683 18.9304 59.261 18.4062 59.0373 17.8118L56.5188 18.1506C56.8448 19.6974 58.3597 20.8864 61.006 20.8864ZM61.0636 14.8139C59.7276 14.8139 58.9989 13.7528 58.9989 12.0589C58.9989 10.3906 59.7148 9.22088 61.0636 9.22088C62.3867 9.22088 63.1282 10.3395 63.1282 12.0589C63.1282 13.7912 62.3739 14.8139 61.0636 14.8139ZM67.9734 17H70.6964V7.18182H67.9734V17ZM69.3413 5.91619C70.1531 5.91619 70.8178 5.29616 70.8178 4.53551C70.8178 3.78125 70.1531 3.16122 69.3413 3.16122C68.5359 3.16122 67.8711 3.78125 67.8711 4.53551C67.8711 5.29616 68.5359 5.91619 69.3413 5.91619ZM78.1575 7.18182H76.2079V6.52344C76.2079 5.85866 76.4764 5.46875 77.2754 5.46875C77.6014 5.46875 77.9338 5.53906 78.1511 5.60938L78.6305 3.56392C78.2917 3.46165 77.5439 3.29545 76.7065 3.29545C74.8592 3.29545 73.4849 4.33736 73.4849 6.4723V7.18182H72.0978V9.22727H73.4849V17H76.2079V9.22727H78.1575V7.18182ZM81.5021 20.6818C83.5284 20.6818 84.6023 19.6463 85.1584 18.0611L88.9744 7.1946L86.0916 7.18182L84.0398 14.392H83.9375L81.9048 7.18182H79.0412L82.5632 17.2812L82.4034 17.6967C82.0455 18.6172 81.3615 18.6619 80.4027 18.3679L79.7891 20.4006C80.179 20.5668 80.8118 20.6818 81.5021 20.6818Z" fill="#111927"/>
</svg>
