<svg width="15" height="14" viewBox="0 0 15 14" fill="none" xmlns="http://www.w3.org/2000/svg">
<path fill-rule="evenodd" clip-rule="evenodd" d="M1.7334 3.5001C1.7334 3.12879 1.8809 2.7727 2.14345 2.51015C2.406 2.2476 2.7621 2.1001 3.1334 2.1001H8.7334C9.1047 2.1001 9.4608 2.2476 9.72335 2.51015C9.9859 2.7727 10.1334 3.12879 10.1334 3.5001V10.5001C10.1334 10.8714 10.2809 11.2275 10.5434 11.49C10.806 11.7526 11.1621 11.9001 11.5334 11.9001H3.1334C2.7621 11.9001 2.406 11.7526 2.14345 11.49C1.8809 11.2275 1.7334 10.8714 1.7334 10.5001V3.5001ZM3.8334 4.2001H8.0334V7.0001H3.8334V4.2001ZM8.0334 8.4001H3.8334V9.8001H8.0334V8.4001Z" fill="#111927"/>
<path d="M10.8334 4.8999H11.5334C11.9047 4.8999 12.2608 5.0474 12.5233 5.30995C12.7859 5.5725 12.9334 5.9286 12.9334 6.2999V10.1499C12.9334 10.4284 12.8227 10.6955 12.6258 10.8924C12.4289 11.0893 12.1619 11.1999 11.8834 11.1999C11.6049 11.1999 11.3378 11.0893 11.1409 10.8924C10.944 10.6955 10.8334 10.4284 10.8334 10.1499V4.8999Z" fill="#111927"/>
</svg>
