<svg width="204" height="48" viewBox="0 0 204 48" fill="none" xmlns="http://www.w3.org/2000/svg">
<g clip-path="url(#clip0_1241:2080)">
<path d="M47.8821 23.7885C47.8821 36.9258 37.231 47.577 24.0936 47.577C10.9547 47.577 0.305176 36.9258 0.305176 23.7885C0.305176 10.6495 10.9555 0 24.0936 0C37.231 0 47.8821 10.6503 47.8821 23.7885Z" fill="#71717A"/>
<path d="M27.2648 23.7885H20.5253V16.652H27.2648C27.7334 16.652 28.1974 16.7443 28.6303 16.9236C29.0632 17.1029 29.4566 17.3658 29.788 17.6971C30.1193 18.0285 30.3821 18.4218 30.5615 18.8547C30.7408 19.2877 30.8331 19.7517 30.8331 20.2203C30.8331 20.6888 30.7408 21.1529 30.5615 21.5858C30.3821 22.0187 30.1193 22.4121 29.788 22.7434C29.4566 23.0747 29.0632 23.3376 28.6303 23.5169C28.1974 23.6962 27.7334 23.7885 27.2648 23.7885ZM27.2648 11.8943H15.7676V35.6828H20.5253V28.5462H27.2648C31.863 28.5462 35.5908 24.8185 35.5908 20.2203C35.5908 15.622 31.863 11.8943 27.2648 11.8943Z" fill="white"/>
<path d="M72.8721 20.8807C72.8721 19.5717 71.8666 18.7785 70.56 18.7785H67.0576V22.9586H70.5608C71.8674 22.9586 72.8729 22.1654 72.8729 20.8807H72.8721ZM63.7407 31.7174V15.8586H71.0261C74.4138 15.8586 76.2573 18.148 76.2573 20.8807C76.2573 23.5899 74.3902 25.8784 71.0261 25.8784H67.0576V31.7174H63.7415H63.7407ZM78.2766 31.7174V20.1559H81.2404V21.674C82.058 20.6928 83.437 19.876 84.8388 19.876V22.7715C84.6272 22.7251 84.371 22.7023 84.0211 22.7023C83.04 22.7023 81.731 23.262 81.2404 23.9877V31.7174H78.2758H78.2766ZM94.8163 25.7849C94.8163 24.0333 93.7863 22.5152 91.9184 22.5152C90.0724 22.5152 89.0465 24.0333 89.0465 25.7857C89.0465 27.5601 90.0724 29.0782 91.9184 29.0782C93.7863 29.0782 94.8154 27.5601 94.8154 25.7849H94.8163ZM85.9623 25.7849C85.9623 22.586 88.2045 19.876 91.9184 19.876C95.6558 19.876 97.898 22.5852 97.898 25.7849C97.898 28.9846 95.6558 31.7174 91.9184 31.7174C88.2045 31.7174 85.9623 28.9846 85.9623 25.7849ZM107.879 27.7936V23.7998C107.388 23.0513 106.314 22.5152 105.332 22.5152C103.629 22.5152 102.46 23.8462 102.46 25.7857C102.46 27.7464 103.629 29.0782 105.332 29.0782C106.314 29.0782 107.388 28.5412 107.879 27.7927V27.7936ZM107.879 31.7174V29.9894C106.99 31.1096 105.777 31.7174 104.398 31.7174C101.573 31.7174 99.4007 29.5696 99.4007 25.7849C99.4007 22.119 101.526 19.876 104.398 19.876C105.729 19.876 106.99 20.4374 107.879 21.604V15.8586H110.868V31.7174H107.879ZM121.433 31.7174V30.0121C120.663 30.8534 119.308 31.7174 117.462 31.7174C114.988 31.7174 113.82 30.3628 113.82 28.167V20.1559H116.785V26.9995C116.785 28.5648 117.602 29.0782 118.863 29.0782C120.007 29.0782 120.919 28.4477 121.433 27.7927V20.1559H124.399V31.7174H121.433ZM126.626 25.7849C126.626 22.3289 129.148 19.876 132.606 19.876C134.918 19.876 136.319 20.8807 137.067 21.9083L135.127 23.729C134.591 22.935 133.774 22.5152 132.746 22.5152C130.947 22.5152 129.687 23.8234 129.687 25.7857C129.687 27.7464 130.947 29.0782 132.746 29.0782C133.774 29.0782 134.591 28.6112 135.127 27.8399L137.067 29.6623C136.319 30.6898 134.918 31.7174 132.606 31.7174C129.148 31.7174 126.626 29.2653 126.626 25.7849ZM139.617 28.6112V22.7487H137.749V20.1559H139.617V17.0725H142.584V20.1559H144.871V22.7487H142.584V27.8172C142.584 28.5412 142.956 29.0782 143.611 29.0782C144.054 29.0782 144.477 28.9146 144.638 28.7283L145.27 30.9925C144.827 31.3911 144.032 31.7174 142.793 31.7174C140.715 31.7174 139.617 30.6435 139.617 28.6112ZM163.871 31.7174V24.8737H156.513V31.7174H153.199V15.8586H156.513V21.9774H163.871V15.8595H167.211V31.7174H163.871ZM177.825 31.7174V30.0121C177.055 30.8534 175.7 31.7174 173.855 31.7174C171.38 31.7174 170.212 30.3628 170.212 28.167V20.1559H173.177V26.9995C173.177 28.5648 173.994 29.0782 175.256 29.0782C176.4 29.0782 177.312 28.4477 177.825 27.7927V20.1559H180.792V31.7174H177.825ZM191.353 31.7174V24.6182C191.353 23.0529 190.538 22.516 189.275 22.516C188.108 22.516 187.221 23.1701 186.706 23.8242V31.7182H183.742V20.1559H186.706V21.604C187.431 20.7636 188.832 19.876 190.654 19.876C193.153 19.876 194.344 21.2769 194.344 23.4719V31.7174H191.354H191.353ZM197.878 28.6112V22.7487H196.012V20.1559H197.879V17.0725H200.846V20.1559H203.134V22.7487H200.846V27.8172C200.846 28.5412 201.218 29.0782 201.873 29.0782C202.316 29.0782 202.738 28.9146 202.901 28.7283L203.531 30.9925C203.088 31.3911 202.292 31.7174 201.055 31.7174C198.976 31.7174 197.879 30.6435 197.879 28.6112" fill="#71717A"/>
</g>
<defs>
<clipPath id="clip0_1241:2080">
<rect width="203.39" height="48" fill="white" transform="translate(0.305176)"/>
</clipPath>
</defs>
</svg>
