<svg width="124" height="20" viewBox="0 0 124 20" fill="none" xmlns="http://www.w3.org/2000/svg">
<path d="M0.1875 0H20.1125V19.925H0.1875V0Z" fill="#28B883"/>
<path fill-rule="evenodd" clip-rule="evenodd" d="M11.7877 8.39995H17.1377L12.8127 11.55L10.1773 13.4711L10.1627 13.475L10.1673 13.4783L10.1377 13.5L5.8127 16.625L7.4627 11.55L3.1377 8.39995H8.4877L10.1377 3.32495L11.7877 8.39995ZM10.1673 13.4783L14.4627 16.6L13.1877 12.675L10.1773 13.4711L10.1673 13.4783Z" fill="white"/>
<path d="M26.1123 0H46.0373V19.925H26.1123V0Z" fill="#28B883"/>
<path fill-rule="evenodd" clip-rule="evenodd" d="M37.7125 8.39995H43.0625L38.7375 11.55L36.1021 13.4711L36.0875 13.475L36.0922 13.4783L36.0625 13.5L31.7375 16.625L33.3875 11.55L29.0625 8.39995H34.4125L36.0625 3.32495L37.7125 8.39995ZM36.0922 13.4783L40.3875 16.6L39.1125 12.675L36.1021 13.4711L36.0922 13.4783Z" fill="white"/>
<path d="M52.0376 0H71.9626V19.925H52.0376V0Z" fill="#28B883"/>
<path fill-rule="evenodd" clip-rule="evenodd" d="M63.6378 8.39995H68.9878L64.6628 11.55L62.0274 13.4711L62.0128 13.475L62.0174 13.4783L61.9878 13.5L57.6628 16.625L59.3128 11.55L54.9878 8.39995H60.3378L61.9878 3.32495L63.6378 8.39995ZM62.0174 13.4783L66.3128 16.6L65.0378 12.675L62.0274 13.4711L62.0174 13.4783Z" fill="white"/>
<path d="M77.9624 0H97.8874V19.925H77.9624V0Z" fill="#28B883"/>
<path fill-rule="evenodd" clip-rule="evenodd" d="M89.5626 8.39995H94.9126L90.5876 11.55L87.9522 13.4711L87.9376 13.475L87.9423 13.4783L87.9126 13.5L83.5876 16.625L85.2376 11.55L80.9126 8.39995H86.2626L87.9126 3.32495L89.5626 8.39995ZM87.9423 13.4783L92.2376 16.6L90.9626 12.675L87.9522 13.4711L87.9423 13.4783Z" fill="white"/>
<path d="M103.888 0H123.813V19.925H103.888V0Z" fill="#28B883"/>
<path fill-rule="evenodd" clip-rule="evenodd" d="M115.488 8.39995H120.838L116.513 11.55L113.877 13.4711L113.863 13.475L113.868 13.4783L113.838 13.5L109.513 16.625L111.163 11.55L106.838 8.39995H112.188L113.838 3.32495L115.488 8.39995ZM113.868 13.4783L118.163 16.6L116.888 12.675L113.877 13.4711L113.868 13.4783Z" fill="white"/>
</svg>
