<svg width="121" height="40" viewBox="0 0 121 40" fill="none" xmlns="http://www.w3.org/2000/svg">
<path d="M20.5615 39.8704C31.5357 39.8704 40.432 30.9741 40.432 19.9999C40.432 9.02572 31.5357 0.129395 20.5615 0.129395C9.58726 0.129395 0.690918 9.02572 0.690918 19.9999C0.690918 30.9741 9.58726 39.8704 20.5615 39.8704Z" fill="#71717A"/>
<path d="M33.8164 20C33.8164 18.3876 32.5125 17.1072 30.9236 17.1072C30.1412 17.1072 29.4296 17.4152 28.9081 17.9134C26.9165 16.4906 24.1894 15.5659 21.1543 15.4475L22.482 9.23486L26.7976 10.1595C26.8453 11.2503 27.7461 12.1277 28.8608 12.1277C29.9989 12.1277 30.9236 11.203 30.9236 10.0645C30.9236 8.92635 29.9989 8.00171 28.8608 8.00171C28.0546 8.00171 27.343 8.47596 27.0111 9.1637L22.1978 8.14403C22.0555 8.12016 21.9132 8.14403 21.8181 8.21519C21.6997 8.28635 21.6285 8.4048 21.6051 8.54713L20.1346 15.4709C17.0521 15.5659 14.2778 16.4906 12.2623 17.9372C11.7195 17.4188 10.9974 17.1299 10.2468 17.131C8.63445 17.131 7.354 18.4349 7.354 20.0239C7.354 21.2093 8.06517 22.2051 9.06141 22.6559C9.01368 22.9401 8.99025 23.2248 8.99025 23.5333C8.99025 27.9907 14.1832 31.619 20.5854 31.619C26.9876 31.619 32.1806 28.0146 32.1806 23.5333C32.1806 23.2486 32.1567 22.9401 32.1094 22.6559C33.1052 22.2051 33.8164 21.1854 33.8164 20ZM13.9458 22.0628C13.9458 20.9246 14.8705 20 16.0091 20C17.1472 20 18.0718 20.9246 18.0718 22.0628C18.0718 23.2009 17.1472 24.126 16.0091 24.126C14.8705 24.1494 13.9458 23.2009 13.9458 22.0628ZM25.4937 27.5403C24.0709 28.9631 21.3677 29.0581 20.5854 29.0581C19.7792 29.0581 17.076 28.9392 15.6767 27.5403C15.4636 27.3269 15.4636 26.9949 15.6767 26.7815C15.8902 26.5684 16.2221 26.5684 16.4356 26.7815C17.3368 27.6827 19.2338 27.9907 20.5854 27.9907C21.937 27.9907 23.8575 27.6827 24.7348 26.7815C24.9483 26.5684 25.2802 26.5684 25.4937 26.7815C25.6833 26.9949 25.6833 27.3269 25.4937 27.5403ZM25.114 24.1494C23.9759 24.1494 23.0513 23.2248 23.0513 22.0866C23.0513 20.9485 23.9759 20.0239 25.114 20.0239C26.2526 20.0239 27.1773 20.9485 27.1773 22.0866C27.1773 23.2009 26.2526 24.1494 25.114 24.1494Z" fill="white"/>
<path d="M108.914 15.8978C110.302 15.8978 111.428 14.7724 111.428 13.3842C111.428 11.996 110.302 10.8706 108.914 10.8706C107.526 10.8706 106.4 11.996 106.4 13.3842C106.4 14.7724 107.526 15.8978 108.914 15.8978Z" fill="#71717A"/>
<path d="M73.0138 24.1019C74.247 24.1019 74.9582 23.1773 74.9109 22.2761C74.8874 21.8018 74.8397 21.4933 74.7924 21.2564C74.0335 17.9843 71.378 15.5653 68.224 15.5653C64.4777 15.5653 61.4425 18.9563 61.4425 23.1295C61.4425 27.3028 64.4777 30.6938 68.224 30.6938C70.5719 30.6938 72.2554 29.8403 73.4647 28.4887C74.0574 27.8248 73.9389 26.8051 73.2273 26.307C72.6346 25.9039 71.8996 26.0462 71.3542 26.4966C70.8326 26.9475 69.8368 27.8482 68.224 27.8482C66.3274 27.8482 64.715 26.212 64.3592 24.0542H73.0138V24.1019ZM68.2006 18.4347C69.9075 18.4347 71.378 19.7625 71.9235 21.5883H64.4777C65.0231 19.739 66.4932 18.4347 68.2006 18.4347ZM61.5849 17.0592C61.5849 16.3481 61.0633 15.7788 60.3994 15.6603C58.3362 15.3523 56.3919 16.1107 55.2777 17.5101V17.32C55.2777 16.4427 54.5661 15.8977 53.8549 15.8977C53.0721 15.8977 52.4321 16.5377 52.4321 17.32V28.9391C52.4321 29.698 53.001 30.3618 53.7599 30.4091C54.5899 30.4564 55.2777 29.8164 55.2777 28.9864V22.9872C55.2777 20.3317 57.2693 18.1501 60.0198 18.4586H60.3044C61.0156 18.4109 61.5849 17.7943 61.5849 17.0592ZM110.336 18.577C110.336 17.7943 109.696 17.1543 108.914 17.1543C108.131 17.1543 107.491 17.7943 107.491 18.577V28.9864C107.491 29.7691 108.131 30.4091 108.914 30.4091C109.696 30.4091 110.336 29.7691 110.336 28.9864V18.577ZM89.1854 10.7048C89.1854 9.92199 88.5454 9.28198 87.7626 9.28198C86.9803 9.28198 86.3403 9.92199 86.3403 10.7048V17.0358C85.3679 16.0634 84.1586 15.5892 82.712 15.5892C78.9657 15.5892 75.9305 18.9801 75.9305 23.1534C75.9305 27.3267 78.9657 30.7176 82.712 30.7176C84.1586 30.7176 85.3918 30.2195 86.3637 29.2471C86.4822 29.9115 87.0753 30.4091 87.7626 30.4091C88.5454 30.4091 89.1854 29.7691 89.1854 28.9864V10.7048ZM82.7359 27.8955C80.5542 27.8955 78.7995 25.7855 78.7995 23.1534C78.7995 20.5452 80.5542 18.4109 82.7359 18.4109C84.9175 18.4109 86.6722 20.5214 86.6722 23.1534C86.6722 25.7855 84.8937 27.8955 82.7359 27.8955ZM104.029 10.7048C104.029 9.92199 103.389 9.28198 102.606 9.28198C101.824 9.28198 101.184 9.92199 101.184 10.7048V17.0358C100.212 16.0634 99.0024 15.5892 97.5558 15.5892C93.8095 15.5892 90.7743 18.9801 90.7743 23.1534C90.7743 27.3267 93.8095 30.7176 97.5558 30.7176C99.0024 30.7176 100.235 30.2195 101.208 29.2471C101.326 29.9115 101.919 30.4091 102.606 30.4091C103.389 30.4091 104.029 29.7691 104.029 28.9864V10.7048ZM97.5558 27.8955C95.3741 27.8955 93.6199 25.7855 93.6199 23.1534C93.6199 20.5452 95.3741 18.4109 97.5558 18.4109C99.7375 18.4109 101.492 20.5214 101.492 23.1534C101.492 25.7855 99.7375 27.8955 97.5558 27.8955ZM117.545 29.0102V18.4347H118.802C119.466 18.4347 120.058 17.9366 120.106 17.2489C120.153 16.5138 119.561 15.8977 118.849 15.8977H117.545V13.9056C117.545 13.1467 116.976 12.4829 116.217 12.4356C115.387 12.3883 114.7 13.0283 114.7 13.8584V15.9211H113.514C112.85 15.9211 112.257 16.4192 112.21 17.107C112.162 17.842 112.755 18.4586 113.467 18.4586H114.676V29.0341C114.676 29.8164 115.316 30.4564 116.099 30.4564C116.929 30.4091 117.545 29.7926 117.545 29.0102Z" fill="#71717A"/>
</svg>
