<svg width="16" height="16" viewBox="0 0 16 16" fill="none" xmlns="http://www.w3.org/2000/svg">
<path fill-rule="evenodd" clip-rule="evenodd" d="M6.16553 2.63438C6.3155 2.7844 6.39976 2.98784 6.39976 3.19998C6.39976 3.41211 6.3155 3.61555 6.16553 3.76558L4.33113 5.59998H8.79993C10.2851 5.59998 11.7095 6.18997 12.7597 7.24018C13.8099 8.29038 14.3999 9.71476 14.3999 11.2V12.8C14.3999 13.0121 14.3156 13.2156 14.1656 13.3657C14.0156 13.5157 13.8121 13.6 13.5999 13.6C13.3878 13.6 13.1843 13.5157 13.0342 13.3657C12.8842 13.2156 12.7999 13.0121 12.7999 12.8V11.2C12.7999 10.1391 12.3785 9.12169 11.6284 8.37155C10.8782 7.6214 9.86079 7.19998 8.79993 7.19998H4.33113L6.16553 9.03438C6.24193 9.10817 6.30288 9.19645 6.34481 9.29405C6.38673 9.39166 6.4088 9.49663 6.40973 9.60286C6.41065 9.70908 6.39041 9.81442 6.35018 9.91274C6.30996 10.0111 6.25056 10.1004 6.17544 10.1755C6.10033 10.2506 6.01101 10.31 5.91269 10.3502C5.81437 10.3905 5.70903 10.4107 5.60281 10.4098C5.49658 10.4089 5.39161 10.3868 5.294 10.3449C5.1964 10.3029 5.10812 10.242 5.03433 10.1656L1.83433 6.96558C1.68435 6.81555 1.6001 6.61211 1.6001 6.39998C1.6001 6.18784 1.68435 5.9844 1.83433 5.83438L5.03433 2.63438C5.18435 2.4844 5.3878 2.40015 5.59993 2.40015C5.81206 2.40015 6.0155 2.4844 6.16553 2.63438Z" fill="#0E9F6E"/>
</svg>
