<svg width="44" height="45" viewBox="0 0 44 45" fill="none" xmlns="http://www.w3.org/2000/svg">
<path d="M19.9079 6.78967C20.5679 4.76347 23.4345 4.76347 24.0923 6.78967L26.4463 14.0321C26.5901 14.4731 26.8697 14.8575 27.245 15.1301C27.6204 15.4027 28.0724 15.5497 28.5363 15.5501H36.1527C38.2845 15.5501 39.1689 18.2781 37.4463 19.5321L31.2863 24.0069C30.9102 24.2797 30.6301 24.6647 30.4862 25.1065C30.3424 25.5484 30.3421 26.0245 30.4855 26.4665L32.8395 33.7089C33.4995 35.7351 31.1785 37.4225 29.4515 36.1685L23.2915 31.6937C22.9157 31.4209 22.4633 31.274 21.999 31.274C21.5347 31.274 21.0822 31.4209 20.7065 31.6937L14.5465 36.1685C12.8217 37.4225 10.5029 35.7351 11.1607 33.7089L13.5147 26.4665C13.6581 26.0245 13.6578 25.5484 13.514 25.1065C13.3701 24.6647 13.09 24.2797 12.7139 24.0069L6.55609 19.5343C4.83349 18.2803 5.72009 15.5523 7.84969 15.5523H15.4639C15.9282 15.5524 16.3806 15.4056 16.7564 15.1329C17.1322 14.8603 17.4122 14.4757 17.5561 14.0343L19.9101 6.79187L19.9079 6.78967Z" fill="#FACA15"/>
</svg>
