<svg width="192" height="50" viewBox="0 0 192 50" fill="none" xmlns="http://www.w3.org/2000/svg">
<g id="trustpilot-logo">
<path id="Shape" fill-rule="evenodd" clip-rule="evenodd" d="M50.5398 18.3182H69.9314V21.9831H62.2962V42.6426H58.1111V21.9831H50.5078L50.5398 18.3182ZM69.1008 25.0318H72.6789V28.4372H72.7428C72.8705 27.9507 73.0942 27.4966 73.4136 27.0426C73.7331 26.5885 74.1165 26.1669 74.5957 25.8101C75.0429 25.4209 75.5541 25.129 76.1291 24.902C76.6722 24.675 77.2472 24.5453 77.8223 24.5453C78.1022 24.5453 78.3321 24.558 78.5041 24.5675C78.6069 24.5732 78.689 24.5777 78.7487 24.5777C78.9085 24.6101 79.1002 24.6426 79.2599 24.6426V28.3723C79.0043 28.3074 78.7168 28.275 78.4293 28.2426L78.351 28.2337C78.0946 28.2045 77.8598 28.1777 77.5987 28.1777C76.9597 28.1777 76.3527 28.3074 75.7777 28.5669C75.2027 28.8263 74.7235 29.2155 74.2762 29.702C73.8609 30.2209 73.5095 30.8372 73.2539 31.5831C72.9983 32.329 72.8705 33.2047 72.8705 34.1777V42.5453H69.0369L69.1008 25.0318ZM93.0609 42.6426H96.8306H96.8626V25.0318H93.0289V35.248C93.0289 35.929 92.965 36.5777 92.8053 37.1615C92.6456 37.7453 92.422 38.2642 92.0705 38.6858C91.7511 39.1074 91.3038 39.4318 90.7607 39.6912C90.2176 39.9507 89.5467 40.0804 88.7481 40.0804C87.6938 40.0804 86.8632 39.7561 86.2882 39.1074C85.6812 38.4912 85.3937 37.3885 85.3937 35.8318V25.0318H81.5601V36.2209C81.5601 38.5236 82.0712 40.275 83.0935 41.4101C84.1158 42.5777 85.777 43.129 88.0453 43.129C89.0037 43.129 89.9621 42.8696 90.8885 42.3182C91.815 41.7669 92.5178 41.0858 92.997 40.1777H93.0609V42.6426ZM103.348 36.9993C103.476 38.1345 103.891 38.9128 104.626 39.3993C105.36 39.8534 106.255 40.0804 107.277 40.0804C107.629 40.0804 108.044 40.048 108.491 39.9831C108.938 39.9182 109.386 39.8209 109.769 39.6588C110.184 39.4966 110.504 39.2696 110.759 38.9453C111.015 38.6209 111.143 38.2318 111.111 37.7453C111.079 37.2588 110.919 36.8372 110.568 36.5128C110.216 36.1885 109.801 35.9615 109.29 35.7345C108.779 35.5399 108.172 35.3777 107.501 35.248C106.955 35.1424 106.409 35.0154 105.846 34.8844L105.846 34.8844C105.717 34.8544 105.587 34.8241 105.456 34.7939C104.753 34.6318 104.051 34.4372 103.38 34.2101C102.709 33.9831 102.134 33.6912 101.591 33.2696C101.08 32.8804 100.632 32.3939 100.345 31.7777C100.025 31.1615 99.8655 30.448 99.8655 29.5399C99.8655 28.5669 100.089 27.7885 100.568 27.1399C101.016 26.4912 101.623 25.9723 102.325 25.5831C103.028 25.1939 103.827 24.902 104.69 24.7399C105.552 24.5777 106.383 24.5128 107.149 24.5128C108.044 24.5128 108.906 24.6101 109.705 24.8047C110.504 24.9993 111.271 25.2912 111.909 25.7453C112.58 26.1669 113.123 26.7507 113.539 27.4318C113.986 28.1128 114.242 28.9561 114.369 29.929H110.376C110.184 28.9885 109.769 28.3723 109.13 28.048C108.459 27.7236 107.724 27.5615 106.862 27.5615C106.606 27.5615 106.255 27.5939 105.904 27.6263L105.903 27.6263C105.52 27.6912 105.201 27.7561 104.849 27.8858C104.53 28.0155 104.242 28.2101 104.019 28.4372C103.795 28.6642 103.667 28.9885 103.667 29.3777C103.667 29.8642 103.827 30.2209 104.146 30.5128C104.466 30.8047 104.881 31.0318 105.424 31.2588C105.935 31.4534 106.542 31.6155 107.213 31.7453C107.884 31.875 108.587 32.0372 109.29 32.1993C109.993 32.3615 110.664 32.5561 111.334 32.7831C112.005 33.0101 112.612 33.302 113.123 33.7236C113.635 34.1128 114.082 34.5993 114.401 35.1831C114.721 35.7669 114.881 36.5128 114.881 37.3561C114.881 38.3939 114.657 39.2696 114.178 40.0155C113.698 40.729 113.092 41.3453 112.357 41.7993C111.622 42.2534 110.759 42.5777 109.865 42.8047C108.938 42.9993 108.044 43.129 107.149 43.129C106.063 43.129 105.041 42.9993 104.114 42.7399C103.188 42.4804 102.357 42.0912 101.687 41.6047C101.016 41.0858 100.473 40.4696 100.089 39.6912C99.7058 38.9453 99.4822 38.0372 99.4502 36.9669H103.316V36.9993H103.348ZM118.874 25.0318H115.967V27.9182H118.874V38.2966C118.906 39.0101 118.97 39.6912 119.097 40.2426C119.225 40.7939 119.449 41.248 119.8 41.6372C120.152 41.9939 120.631 42.2858 121.238 42.4804C121.845 42.675 122.644 42.7723 123.666 42.7723C124.113 42.7723 124.496 42.7723 124.912 42.7074C125.327 42.675 125.742 42.6426 126.158 42.5777V39.5615C125.927 39.6199 125.671 39.652 125.436 39.6815L125.359 39.6912C125.103 39.7236 124.816 39.7236 124.56 39.7236C124.113 39.7236 123.794 39.6588 123.538 39.5615C123.314 39.4642 123.123 39.302 122.995 39.1074C122.899 38.9128 122.803 38.6534 122.771 38.3615C122.739 38.0372 122.707 37.7128 122.707 37.2912V27.8858H126.158V24.9993H122.707V19.7128H118.874V25.0318ZM128.873 25.0318H132.451V27.4318H132.515C133.058 26.3939 133.793 25.6804 134.751 25.2263C135.71 24.7723 136.732 24.5453 137.882 24.5453C139.256 24.5453 140.438 24.7723 141.46 25.2912C142.483 25.7777 143.313 26.4263 143.984 27.302C144.655 28.1453 145.166 29.1507 145.486 30.2858C145.805 31.4209 145.997 32.6534 145.997 33.9182C145.997 35.1182 145.837 36.2534 145.549 37.3561C145.23 38.4588 144.783 39.4642 144.176 40.3074C143.569 41.1507 142.802 41.8318 141.844 42.3507C140.885 42.8696 139.799 43.129 138.521 43.129C137.978 43.129 137.403 43.0642 136.86 42.9669C136.317 42.8696 135.774 42.7074 135.263 42.4804C134.751 42.2534 134.272 41.9615 133.857 41.6047C133.41 41.248 133.058 40.8263 132.771 40.3723H132.707V49.1615H128.873V25.0318ZM141.907 31.5507C142.131 32.2966 142.227 33.075 142.227 33.8534C142.227 34.6318 142.131 35.3777 141.971 36.1561C141.812 36.902 141.524 37.5507 141.141 38.1345C140.725 38.6858 140.246 39.1723 139.639 39.529C139.032 39.8858 138.329 40.0804 137.435 40.0804C136.636 40.0804 135.965 39.9182 135.358 39.5939C134.751 39.2696 134.24 38.848 133.825 38.2966C133.378 37.7453 133.09 37.0966 132.867 36.3507C132.643 35.6047 132.547 34.7939 132.547 33.8858C132.547 32.0047 132.962 30.4804 133.761 29.3453C134.592 28.2101 135.806 27.6588 137.403 27.6588C138.17 27.6588 138.873 27.8209 139.48 28.1777C140.055 28.5345 140.566 28.9885 140.981 29.5723C141.396 30.1561 141.716 30.8047 141.907 31.5507ZM148.968 18.3182H152.801V21.9831H148.968V18.3182ZM152.801 25.0318H148.968V42.6426H152.801V25.0318ZM156.22 18.3182H160.053V42.6426H156.22V18.3182ZM168.04 42.4155C169.126 42.902 170.372 43.129 171.746 43.129C173.151 43.129 174.365 42.8696 175.452 42.4155C176.538 41.9615 177.464 41.3128 178.199 40.502C178.934 39.6588 179.477 38.6858 179.892 37.5507C180.307 36.4155 180.499 35.1831 180.499 33.8209C180.499 32.4912 180.276 31.2588 179.892 30.1236C179.509 28.9885 178.934 27.9831 178.199 27.1723C177.432 26.3615 176.538 25.7128 175.452 25.2588C174.365 24.7723 173.119 24.5453 171.746 24.5453C170.372 24.5453 169.126 24.8047 168.04 25.2588C166.954 25.7128 166.027 26.3615 165.293 27.1723C164.558 28.0155 163.983 28.9885 163.599 30.1236C163.184 31.2588 162.992 32.4912 162.992 33.8209C162.992 35.1507 163.216 36.4155 163.599 37.5507C163.983 38.6858 164.558 39.6912 165.293 40.502C166.059 41.3128 166.954 41.929 168.04 42.4155ZM171.746 40.048C172.576 40.048 173.343 39.8534 173.95 39.4966C174.589 39.1399 175.068 38.6534 175.484 38.0696C175.899 37.4858 176.186 36.8047 176.378 36.0912C176.57 35.3453 176.666 34.5993 176.666 33.8209C176.666 33.075 176.57 32.329 176.378 31.5831C176.186 30.8372 175.899 30.1885 175.484 29.6047C175.068 29.0209 174.557 28.5669 173.95 28.2101C173.311 27.8534 172.576 27.6588 171.746 27.6588C170.915 27.6588 170.148 27.8534 169.541 28.2101C168.902 28.5669 168.423 29.0534 168.008 29.6047C167.593 30.1885 167.305 30.8372 167.113 31.5831C166.922 32.329 166.826 33.075 166.826 33.8209C166.826 34.5993 166.922 35.3453 167.113 36.0912C167.305 36.8372 167.593 37.4858 168.008 38.0696C168.423 38.6534 168.934 39.1399 169.541 39.4966C170.18 39.8858 170.915 40.048 171.746 40.048ZM184.556 25.0318H181.649V27.9182H184.556V38.2966C184.588 39.0101 184.652 39.6912 184.78 40.2426C184.908 40.7939 185.131 41.248 185.483 41.6372C185.834 41.9939 186.313 42.2858 186.92 42.4804C187.527 42.675 188.326 42.7723 189.348 42.7723C189.796 42.7723 190.179 42.7723 190.594 42.7074C191.01 42.675 191.425 42.6426 191.84 42.5777V39.5615C191.61 39.6199 191.354 39.652 191.118 39.6815C191.093 39.6848 191.067 39.688 191.042 39.6912C190.786 39.7236 190.498 39.7236 190.243 39.7236C189.796 39.7236 189.476 39.6588 189.221 39.5615C188.997 39.4642 188.805 39.302 188.678 39.1074C188.582 38.9128 188.486 38.6534 188.454 38.3615L188.454 38.3612C188.422 38.037 188.39 37.7127 188.39 37.2912V27.8858H191.84V24.9993H188.39V19.7128H184.556V25.0318Z" fill="black"/>
<path id="Path" d="M46.0672 18.3184H28.5284L23.1294 1.38867L17.6984 18.3184L0.159668 18.286L14.344 28.7616L8.91308 45.6914L23.0974 35.2157L37.2818 45.6914L31.8828 28.7616L46.0672 18.3184Z" fill="#00B67A"/>
<path id="Path_2" d="M33.0969 32.5885L31.8829 28.7615L23.1295 35.2155L33.0969 32.5885Z" fill="#005128"/>
</g>
</svg>
