<svg width="131" height="28" viewBox="0 0 131 28" fill="none" xmlns="http://www.w3.org/2000/svg">
<path d="M39.1601 4.44946C38.7022 2.74867 37.3612 1.40766 35.6604 0.94976C32.5532 0.0993652 20.1244 0.0993652 20.1244 0.0993652C20.1244 0.0993652 7.69558 0.0993652 4.58838 0.917052C2.9203 1.37496 1.54659 2.74867 1.08868 4.44946C0.270996 7.55667 0.270996 14 0.270996 14C0.270996 14 0.270996 20.4761 1.08868 23.5506C1.54659 25.2514 2.88759 26.5924 4.58838 27.0503C7.72829 27.9007 20.1244 27.9007 20.1244 27.9007C20.1244 27.9007 32.5532 27.9007 35.6604 27.083C37.3612 26.6251 38.7022 25.2841 39.1601 23.5833C39.9778 20.4761 39.9778 14.0327 39.9778 14.0327C39.9778 14.0327 40.0105 7.55667 39.1601 4.44946Z" fill="#71717A"/>
<path d="M16.167 8.04712V19.9526L26.5026 13.9999L16.167 8.04712Z" fill="white"/>
<path d="M63.9771 24.3357C63.1921 23.8123 62.636 22.9947 62.309 21.8499C61.9819 20.7379 61.8184 19.2333 61.8184 17.4017V14.8832C61.8184 13.0189 62.0146 11.5144 62.3744 10.3696C62.7669 9.22486 63.3556 8.40717 64.1406 7.88385C64.9583 7.36054 66.0049 7.09888 67.3132 7.09888C68.5888 7.09888 69.6354 7.36054 70.4204 7.88385C71.2054 8.40717 71.7614 9.25756 72.1212 10.3696C72.481 11.4817 72.6772 12.9862 72.6772 14.8832V17.4017C72.6772 19.266 72.5137 20.7379 72.1539 21.8826C71.7941 22.9947 71.2381 23.8451 70.4531 24.3684C69.6682 24.8917 68.5888 25.1533 67.2478 25.1533C65.8741 25.1206 64.762 24.859 63.9771 24.3357ZM68.3926 21.5882C68.6215 21.0322 68.7196 20.0837 68.7196 18.8081V13.3787C68.7196 12.1358 68.6215 11.22 68.3926 10.6313C68.1636 10.0425 67.8038 9.78088 67.2478 9.78088C66.7245 9.78088 66.332 10.0752 66.1357 10.6313C65.9068 11.22 65.8087 12.1358 65.8087 13.3787V18.8081C65.8087 20.0837 65.9068 21.0322 66.1357 21.5882C66.332 22.1443 66.7245 22.4386 67.2805 22.4386C67.8038 22.4386 68.1636 22.177 68.3926 21.5882Z" fill="#71717A"/>
<path d="M124.355 17.4344V18.3175C124.355 19.4296 124.388 20.28 124.453 20.836C124.519 21.392 124.649 21.8172 124.878 22.0462C125.075 22.3078 125.402 22.4387 125.86 22.4387C126.448 22.4387 126.841 22.2097 127.07 21.7518C127.299 21.2939 127.397 20.5416 127.429 19.4623L130.798 19.6585C130.831 19.8221 130.831 20.0183 130.831 20.28C130.831 21.8826 130.406 23.0928 129.523 23.8778C128.64 24.6628 127.397 25.0553 125.794 25.0553C123.864 25.0553 122.523 24.4338 121.738 23.2237C120.954 22.0135 120.561 20.1492 120.561 17.598V14.5562C120.561 11.9396 120.954 10.0425 121.771 8.83236C122.589 7.62218 123.963 7.03345 125.892 7.03345C127.233 7.03345 128.28 7.29511 128.999 7.78572C129.719 8.27633 130.21 9.06131 130.504 10.0752C130.798 11.1219 130.929 12.561 130.929 14.3926V17.369H124.355V17.4344ZM124.846 10.108C124.649 10.3696 124.519 10.7621 124.453 11.3181C124.388 11.8742 124.355 12.7246 124.355 13.8693V15.1122H127.233V13.8693C127.233 12.7573 127.2 11.9069 127.135 11.3181C127.07 10.7294 126.906 10.3369 126.71 10.108C126.514 9.879 126.187 9.74817 125.794 9.74817C125.336 9.71546 125.042 9.84629 124.846 10.108Z" fill="#71717A"/>
<path d="M54.4262 17.1072L49.978 0.982422H53.8702L55.4402 8.27619C55.8327 10.0751 56.127 11.6124 56.3233 12.8879H56.4214C56.5522 11.9721 56.8466 10.4676 57.3045 8.3089L58.9399 0.982422H62.832L58.3184 17.1072V24.8262H54.4589V17.1072H54.4262Z" fill="#71717A"/>
<path d="M85.3349 7.42578V24.8588H82.2604L81.9334 22.7329H81.8353C81.0176 24.3355 79.742 25.1532 78.0739 25.1532C76.9292 25.1532 76.0788 24.7607 75.5228 24.0084C74.9667 23.2562 74.7051 22.0787 74.7051 20.4433V7.42578H78.6299V20.2144C78.6299 20.9994 78.7281 21.5554 78.8916 21.8825C79.0551 22.2095 79.3495 22.3731 79.742 22.3731C80.0691 22.3731 80.3961 22.275 80.7232 22.046C81.0503 21.8498 81.2792 21.5881 81.4101 21.261V7.42578H85.3349Z" fill="#71717A"/>
<path d="M105.45 7.42578V24.8588H102.375L102.048 22.7329H101.95C101.132 24.3355 99.8568 25.1532 98.1887 25.1532C97.0439 25.1532 96.1935 24.7607 95.6375 24.0084C95.0815 23.2562 94.8198 22.0787 94.8198 20.4433V7.42578H98.7447V20.2144C98.7447 20.9994 98.8429 21.5554 99.0064 21.8825C99.1699 22.2095 99.4643 22.3731 99.8568 22.3731C100.184 22.3731 100.511 22.275 100.838 22.046C101.165 21.8498 101.394 21.5881 101.525 21.261V7.42578H105.45Z" fill="#71717A"/>
<path d="M95.9973 4.15505H92.1051V24.8262H88.2784V4.15505H84.3862V0.982422H95.9973V4.15505Z" fill="#71717A"/>
<path d="M118.435 10.206C118.206 9.09392 117.813 8.30894 117.29 7.81833C116.766 7.32772 116.014 7.06606 115.098 7.06606C114.379 7.06606 113.692 7.2623 113.071 7.6875C112.449 8.07999 111.959 8.63602 111.631 9.29017H111.599V0.0993652H107.805V24.8262H111.043L111.435 23.1908H111.533C111.828 23.7796 112.286 24.2375 112.907 24.5973C113.528 24.9243 114.183 25.1206 114.935 25.1206C116.276 25.1206 117.224 24.4991 117.846 23.289C118.467 22.0788 118.794 20.1491 118.794 17.5652V14.8177C118.762 12.8226 118.664 11.2853 118.435 10.206ZM114.837 17.3035C114.837 18.5791 114.771 19.5603 114.673 20.2799C114.575 20.9994 114.379 21.5228 114.15 21.8171C113.888 22.1115 113.561 22.275 113.169 22.275C112.842 22.275 112.547 22.2096 112.286 22.0461C112.024 21.8825 111.795 21.6536 111.631 21.3592V11.4816C111.762 11.0237 111.991 10.6312 112.318 10.3041C112.645 10.0097 113.005 9.8462 113.365 9.8462C113.757 9.8462 114.084 10.0097 114.281 10.3041C114.51 10.6312 114.641 11.1545 114.739 11.8741C114.837 12.6263 114.869 13.673 114.869 15.014V17.3035H114.837Z" fill="#71717A"/>
</svg>
