<svg width="1920" height="1442" viewBox="0 0 1920 1442" fill="none" xmlns="http://www.w3.org/2000/svg">
<g filter="url(#filter0_f_405_575)">
<path d="M1709.79 692.795C1709.79 730.747 1702.32 768.327 1687.79 803.39C1673.27 838.454 1651.98 870.313 1625.15 897.149L1420.79 692.795H1709.79Z" fill="#9774FF"/>
</g>
<g filter="url(#filter1_f_405_575)">
<path d="M1221.29 347.25C1266.67 321.051 1316.76 304.047 1368.71 297.208C1420.66 290.368 1473.45 293.828 1524.06 307.39L1420.79 692.794L1221.29 347.25Z" fill="##7892fe8f"/>
</g>
<g filter="url(#filter2_f_405_575)">
<path d="M1678.58 1125.42C1627.46 1154.94 1571.02 1174.1 1512.49 1181.81C1453.96 1189.51 1394.48 1185.61 1337.46 1170.33L1453.81 736.1L1678.58 1125.42Z" fill="#9d489987"/>
</g>
<g filter="url(#filter3_iii_405_575)">
<path d="M2260 853.5L2077.58 642.624C2058.98 621.114 2032.51 607.978 2004.13 606.163L2001.06 605.966C1914.74 600.446 1859.44 696.167 1907.33 768.196L1910.26 772.598C1918.29 784.675 1929.21 794.558 1942.02 801.353L1964.85 813.458C2035.92 851.145 2060.47 940.979 2018.44 1009.57V1009.57C2000.22 1039.31 1970.99 1060.65 1937.11 1068.94L1929.32 1070.85C1806.12 1100.99 1681.31 1027.57 1647.81 905.242L1609.11 763.938C1603.42 743.17 1593.82 723.678 1580.83 706.506V706.506C1527.69 636.271 1415.89 669.291 1409.44 757.126L1406 804" stroke="black" stroke-width="60" stroke-linecap="round"/>
<path d="M2260 853.5L2077.58 642.624C2058.98 621.114 2032.51 607.978 2004.13 606.163L2001.06 605.966C1914.74 600.446 1859.44 696.167 1907.33 768.196L1910.26 772.598C1918.29 784.675 1929.21 794.558 1942.02 801.353L1964.85 813.458C2035.92 851.145 2060.47 940.979 2018.44 1009.57V1009.57C2000.22 1039.31 1970.99 1060.65 1937.11 1068.94L1929.32 1070.85C1806.12 1100.99 1681.31 1027.57 1647.81 905.242L1609.11 763.938C1603.42 743.17 1593.82 723.678 1580.83 706.506V706.506C1527.69 636.271 1415.89 669.291 1409.44 757.126L1406 804" stroke="url(#paint0_linear_405_575)" stroke-width="60" stroke-linecap="round"/>
</g>
<g filter="url(#filter4_b_405_575)">
<rect x="146" y="478" width="114" height="114" rx="57" fill="url(#paint1_linear_405_575)" fill-opacity="0.2"/>
<rect x="146.5" y="478.5" width="113" height="113" rx="56.5" stroke="url(#paint2_linear_405_575)"/>
</g>
<g filter="url(#filter5_b_405_575)">
<mask id="path-7-inside-1_405_575" fill="white">
<path fill-rule="evenodd" clip-rule="evenodd" d="M1822.58 399.989C1818.03 392.104 1807.95 389.403 1800.06 393.955C1792.18 398.507 1789.48 408.59 1794.03 416.475L1809.03 442.466L1783.04 457.472C1775.16 462.025 1772.46 472.107 1777.01 479.992C1781.56 487.877 1791.64 490.579 1799.53 486.026L1825.52 471.02L1840.53 497.012C1845.08 504.897 1855.16 507.598 1863.05 503.046C1870.93 498.493 1873.63 488.411 1869.08 480.526L1854.07 454.534L1880.06 439.528C1887.95 434.976 1890.65 424.893 1886.1 417.009C1881.55 409.124 1871.46 406.422 1863.58 410.974L1837.59 425.981L1822.58 399.989Z"/>
</mask>
<path fill-rule="evenodd" clip-rule="evenodd" d="M1822.58 399.989C1818.03 392.104 1807.95 389.403 1800.06 393.955C1792.18 398.507 1789.48 408.59 1794.03 416.475L1809.03 442.466L1783.04 457.472C1775.16 462.025 1772.46 472.107 1777.01 479.992C1781.56 487.877 1791.64 490.579 1799.53 486.026L1825.52 471.02L1840.53 497.012C1845.08 504.897 1855.16 507.598 1863.05 503.046C1870.93 498.493 1873.63 488.411 1869.08 480.526L1854.07 454.534L1880.06 439.528C1887.95 434.976 1890.65 424.893 1886.1 417.009C1881.55 409.124 1871.46 406.422 1863.58 410.974L1837.59 425.981L1822.58 399.989Z" fill="url(#paint3_linear_405_575)" fill-opacity="0.2"/>
<path d="M1822.58 399.989L1821.72 400.489L1822.58 399.989ZM1809.03 442.466L1809.9 441.966L1810.4 442.832L1809.53 443.332L1809.03 442.466ZM1799.53 486.026L1800.03 486.892L1799.53 486.026ZM1825.52 471.02L1825.02 470.154L1825.89 469.654L1826.39 470.52L1825.52 471.02ZM1863.05 503.046L1863.55 503.912L1863.05 503.046ZM1854.07 454.534L1853.21 455.034L1852.71 454.168L1853.57 453.668L1854.07 454.534ZM1837.59 425.981L1838.09 426.847L1837.22 427.347L1836.72 426.481L1837.59 425.981ZM1799.56 393.089C1807.93 388.26 1818.62 391.126 1823.45 399.489L1821.72 400.489C1817.44 393.082 1807.97 390.545 1800.56 394.821L1799.56 393.089ZM1793.16 416.975C1788.33 408.612 1791.2 397.917 1799.56 393.089L1800.56 394.821C1793.16 399.097 1790.62 408.568 1794.89 415.975L1793.16 416.975ZM1808.17 442.966L1793.16 416.975L1794.89 415.975L1809.9 441.966L1808.17 442.966ZM1782.54 456.606L1808.53 441.6L1809.53 443.332L1783.54 458.338L1782.54 456.606ZM1776.14 480.492C1771.31 472.129 1774.18 461.435 1782.54 456.606L1783.54 458.338C1776.14 462.615 1773.6 472.085 1777.87 479.492L1776.14 480.492ZM1800.03 486.892C1791.66 491.721 1780.97 488.855 1776.14 480.492L1777.87 479.492C1782.15 486.899 1791.62 489.437 1799.03 485.16L1800.03 486.892ZM1826.02 471.886L1800.03 486.892L1799.03 485.16L1825.02 470.154L1826.02 471.886ZM1839.66 497.512L1824.65 471.52L1826.39 470.52L1841.39 496.512L1839.66 497.512ZM1863.55 503.912C1855.18 508.74 1844.49 505.875 1839.66 497.512L1841.39 496.512C1845.67 503.918 1855.14 506.456 1862.55 502.18L1863.55 503.912ZM1869.95 480.026C1874.77 488.389 1871.91 499.083 1863.55 503.912L1862.55 502.18C1869.95 497.904 1872.49 488.433 1868.21 481.026L1869.95 480.026ZM1854.94 454.034L1869.95 480.026L1868.21 481.026L1853.21 455.034L1854.94 454.034ZM1880.56 440.394L1854.57 455.4L1853.57 453.668L1879.56 438.662L1880.56 440.394ZM1886.96 416.509C1891.79 424.872 1888.93 435.566 1880.56 440.394L1879.56 438.662C1886.97 434.386 1889.51 424.915 1885.23 417.509L1886.96 416.509ZM1863.08 410.108C1871.44 405.28 1882.14 408.145 1886.96 416.509L1885.23 417.509C1880.96 410.102 1871.49 407.564 1864.08 411.84L1863.08 410.108ZM1837.09 425.114L1863.08 410.108L1864.08 411.84L1838.09 426.847L1837.09 425.114ZM1823.45 399.489L1838.45 425.481L1836.72 426.481L1821.72 400.489L1823.45 399.489Z" fill="url(#paint4_linear_405_575)" fill-opacity="0.3" mask="url(#path-7-inside-1_405_575)"/>
</g>
<defs>
<filter id="filter0_f_405_575" x="842.793" y="114.795" width="1445" height="1360.35" filterUnits="userSpaceOnUse" color-interpolation-filters="sRGB">
<feFlood flood-opacity="0" result="BackgroundImageFix"/>
<feBlend mode="normal" in="SourceGraphic" in2="BackgroundImageFix" result="shape"/>
<feGaussianBlur stdDeviation="120" result="effect1_foregroundBlur_405_575"/>
</filter>
<filter id="filter1_f_405_575" x="643.293" y="-284.206" width="1458.77" height="1555" filterUnits="userSpaceOnUse" color-interpolation-filters="sRGB">
<feFlood flood-opacity="0" result="BackgroundImageFix"/>
<feBlend mode="normal" in="SourceGraphic" in2="BackgroundImageFix" result="shape"/>
<feGaussianBlur stdDeviation="120" result="effect1_foregroundBlur_405_575"/>
</filter>
<filter id="filter2_f_405_575" x="759.456" y="158.1" width="1497.13" height="1605.55" filterUnits="userSpaceOnUse" color-interpolation-filters="sRGB">
<feFlood flood-opacity="0" result="BackgroundImageFix"/>
<feBlend mode="normal" in="SourceGraphic" in2="BackgroundImageFix" result="shape"/>
<feGaussianBlur stdDeviation="120" result="effect1_foregroundBlur_405_575"/>
</filter>
<filter id="filter3_iii_405_575" x="1376" y="539.84" width="985.79" height="567.773" filterUnits="userSpaceOnUse" color-interpolation-filters="sRGB">
<feFlood flood-opacity="0" result="BackgroundImageFix"/>
<feBlend mode="normal" in="SourceGraphic" in2="BackgroundImageFix" result="shape"/>
<feColorMatrix in="SourceAlpha" type="matrix" values="0 0 0 0 0 0 0 0 0 0 0 0 0 0 0 0 0 0 127 0" result="hardAlpha"/>
<feOffset dx="89.7352" dy="-26.9206"/>
<feGaussianBlur stdDeviation="35.8941"/>
<feComposite in2="hardAlpha" operator="arithmetic" k2="-1" k3="1"/>
<feColorMatrix type="matrix" values="0 0 0 0 0.486275 0 0 0 0 0.494118 0 0 0 0 1 0 0 0 1 0"/>
<feBlend mode="normal" in2="shape" result="effect1_innerShadow_405_575"/>
<feColorMatrix in="SourceAlpha" type="matrix" values="0 0 0 0 0 0 0 0 0 0 0 0 0 0 0 0 0 0 127 0" result="hardAlpha"/>
<feOffset dx="26.9206" dy="-35.8941"/>
<feGaussianBlur stdDeviation="33.6507"/>
<feComposite in2="hardAlpha" operator="arithmetic" k2="-1" k3="1"/>
<feColorMatrix type="matrix" values="0 0 0 0 0.933333 0 0 0 0 0 0 0 0 0 0 0 0 0 1 0"/>
<feBlend mode="normal" in2="effect1_innerShadow_405_575" result="effect2_innerShadow_405_575"/>
<feColorMatrix in="SourceAlpha" type="matrix" values="0 0 0 0 0 0 0 0 0 0 0 0 0 0 0 0 0 0 127 0" result="hardAlpha"/>
<feOffset dx="8.97352" dy="-26.9206"/>
<feGaussianBlur stdDeviation="17.947"/>
<feComposite in2="hardAlpha" operator="arithmetic" k2="-1" k3="1"/>
<feColorMatrix type="matrix" values="0 0 0 0 1 0 0 0 0 0.627451 0 0 0 0 0.258824 0 0 0 1 0"/>
<feBlend mode="normal" in2="effect2_innerShadow_405_575" result="effect3_innerShadow_405_575"/>
</filter>
<filter id="filter4_b_405_575" x="117" y="449" width="172" height="172" filterUnits="userSpaceOnUse" color-interpolation-filters="sRGB">
<feFlood flood-opacity="0" result="BackgroundImageFix"/>
<feGaussianBlur in="BackgroundImageFix" stdDeviation="14.5"/>
<feComposite in2="SourceAlpha" operator="in" result="effect1_backgroundBlur_405_575"/>
<feBlend mode="normal" in="SourceGraphic" in2="effect1_backgroundBlur_405_575" result="shape"/>
</filter>
<filter id="filter5_b_405_575" x="1745.8" y="362.744" width="171.514" height="171.514" filterUnits="userSpaceOnUse" color-interpolation-filters="sRGB">
<feFlood flood-opacity="0" result="BackgroundImageFix"/>
<feGaussianBlur in="BackgroundImageFix" stdDeviation="14.5"/>
<feComposite in2="SourceAlpha" operator="in" result="effect1_backgroundBlur_405_575"/>
<feBlend mode="normal" in="SourceGraphic" in2="effect1_backgroundBlur_405_575" result="shape"/>
</filter>
<linearGradient id="paint0_linear_405_575" x1="2303.94" y1="611.075" x2="2273.81" y2="1037.76" gradientUnits="userSpaceOnUse">
<stop offset="0.0299686" stop-color="#7BB9FE"/>
<stop offset="0.531958"/>
<stop offset="0.729029"/>
<stop offset="1" stop-color="#7C7EFF"/>
</linearGradient>
<linearGradient id="paint1_linear_405_575" x1="220.1" y1="476.445" x2="189.009" y2="607.545" gradientUnits="userSpaceOnUse">
<stop stop-color="#ED6FFF"/>
<stop offset="1" stop-color="#E0E7FF"/>
</linearGradient>
<linearGradient id="paint2_linear_405_575" x1="149.654" y1="630" x2="211.809" y2="494.064" gradientUnits="userSpaceOnUse">
<stop stop-color="#112053"/>
<stop offset="1" stop-color="white" stop-opacity="0"/>
</linearGradient>
<linearGradient id="paint3_linear_405_575" x1="1855.67" y1="456.396" x2="1819.88" y2="474.2" gradientUnits="userSpaceOnUse">
<stop stop-color="##7892fe8f"/>
<stop offset="1" stop-color="#E0E7FF"/>
</linearGradient>
<linearGradient id="paint4_linear_405_575" x1="1778.29" y1="411.19" x2="1821.68" y2="392.615" gradientUnits="userSpaceOnUse">
<stop stop-color="white"/>
<stop offset="1" stop-color="white" stop-opacity="0"/>
</linearGradient>
</defs>
</svg>
