<svg width="1920" height="1332" viewBox="0 0 1920 1332" fill="none" xmlns="http://www.w3.org/2000/svg">
<g opacity="0.5" filter="url(#filter0_f_405_894)">
<path d="M2066.03 693.711L1708.07 904.685L1547.71 729.413L1821.06 628.07L1595.97 434.771L2049.1 199.512L2066.03 693.711Z" fill="#7c7eff87"/>
</g>
<g opacity="0.5" filter="url(#filter1_f_405_894)">
<path d="M456.032 788.711L98.0667 999.685L-62.2913 824.413L211.058 723.07L-14.0313 529.771L439.099 294.512L456.032 788.711Z" fill="#7c7eff87"/>
</g>
<g opacity="0.5" filter="url(#filter2_f_405_894)">
<path d="M474.982 1101.21L253.437 1231.78L154.191 1123.3L323.368 1060.58L184.059 940.948L464.502 795.346L474.982 1101.21Z" fill="#FF26A8"/>
</g>
<g filter="url(#filter3_b_405_894)">
<rect width="111" height="111" rx="55.5" transform="matrix(4.37114e-08 -1 -1 -4.37114e-08 207 702)" fill="url(#paint0_linear_405_894)" fill-opacity="0.14"/>
<rect x="-0.5" y="-0.5" width="110" height="110" rx="55" transform="matrix(4.37114e-08 -1 -1 -4.37114e-08 206 701)" stroke="url(#paint1_linear_405_894)" stroke-opacity="0.3"/>
</g>
<g filter="url(#filter4_b_405_894)">
<rect width="127" height="127" rx="63.5" transform="matrix(4.37114e-08 -1 -1 -4.37114e-08 1947 569)" fill="url(#paint2_linear_405_894)" fill-opacity="0.14"/>
<rect x="-0.5" y="-0.5" width="126" height="126" rx="63" transform="matrix(4.37114e-08 -1 -1 -4.37114e-08 1946 568)" stroke="url(#paint3_linear_405_894)" stroke-opacity="0.3"/>
</g>
<g filter="url(#filter5_b_405_894)">
<rect width="109" height="109" rx="54.5" transform="matrix(4.37114e-08 -1 -1 -4.37114e-08 457.203 739.989)" fill="url(#paint4_linear_405_894)" fill-opacity="0.14"/>
<rect x="-0.5" y="-0.5" width="108" height="108" rx="54" transform="matrix(4.37114e-08 -1 -1 -4.37114e-08 456.203 738.989)" stroke="url(#paint5_linear_405_894)" stroke-opacity="0.3"/>
</g>
<g filter="url(#filter6_b_405_894)">
<rect width="78.4285" height="78.4285" rx="23" transform="matrix(0.5 -0.866025 -0.866025 -0.5 499.176 594.652)" fill="url(#paint6_linear_405_894)" fill-opacity="0.14"/>
<rect x="-0.183013" y="-0.683013" width="77.4285" height="77.4285" rx="22.5" transform="matrix(0.5 -0.866025 -0.866025 -0.5 498.493 593.469)" stroke="url(#paint7_linear_405_894)" stroke-opacity="0.3"/>
</g>
<g filter="url(#filter7_b_405_894)">
<rect x="1780" y="924.989" width="114" height="114" rx="57" fill="url(#paint8_linear_405_894)" fill-opacity="0.2"/>
<rect x="1780.5" y="925.489" width="113" height="113" rx="56.5" stroke="url(#paint9_linear_405_894)"/>
</g>
<g filter="url(#filter8_i_405_894)">
<path d="M1247.04 1341.96L1258.54 1521.11L2171.43 1401.61L2120.9 945.575C2108.94 957.538 2076.61 983.88 2042.96 993.546C2009.31 1003.21 1988.86 1017.6 1982.84 1023.58C1964 1038.13 1946.6 1063 1911.83 1071.14C1891.38 1075.92 1843.52 1093.58 1815.72 1125.93C1787.92 1158.27 1768.73 1158.85 1735.14 1172.98C1706.72 1184.94 1674.97 1168.65 1659.44 1195.43C1639.62 1229.62 1610.23 1238.45 1598.01 1238.6C1552.15 1244.95 1531.94 1253.87 1527.56 1257.53C1505.79 1275 1478.08 1278.05 1466.95 1277.39C1433.25 1272.76 1412.31 1288.26 1406.05 1296.59C1378.31 1330.09 1371.24 1334 1332.91 1333.89C1302.24 1333.8 1262.88 1339.23 1247.04 1341.96Z" fill="url(#paint10_linear_405_894)"/>
</g>
<g filter="url(#filter9_i_405_894)">
<path d="M1251.62 1388.22L1264.34 1523.58L2180.04 1416.6L2134.31 999.357C2117.72 1016.52 2079.86 1031.11 2063 1036.25C2044.47 1041.71 2009.39 1053.14 1982.1 1087.29C1935.13 1146.05 1894.43 1152.9 1862.62 1155.42C1830.81 1157.95 1818.19 1181.9 1793.85 1202.07C1769.5 1222.24 1743.34 1210.77 1731.59 1211.87C1719.85 1212.97 1692.8 1216.68 1673.15 1247.33C1657.43 1271.84 1629.07 1279.96 1616.85 1280.95C1602.48 1282.85 1568.28 1289.98 1546.5 1303.36C1524.72 1316.74 1509.3 1322.71 1487.38 1319.37C1474.19 1317.36 1445.58 1319.35 1429.31 1339C1399.57 1374.91 1391.82 1375.04 1353.57 1373.29C1322.96 1371.89 1272.85 1382.66 1251.62 1388.22Z" fill="url(#paint11_linear_405_894)"/>
</g>
<g filter="url(#filter10_i_405_894)">
<path d="M1252.54 1437.6L1261.05 1528.07L2191.32 1400.67L2146.78 1035.58C2134.95 1043.97 2088.63 1070.26 1998.01 1108.32C1884.73 1155.9 1855.53 1218.34 1841.55 1235.21C1827.58 1252.08 1801.62 1232.92 1776.77 1230.38C1751.91 1227.84 1744.25 1262.47 1731.89 1286.63C1719.53 1310.78 1692.52 1317.5 1679.39 1316.18C1666.26 1314.86 1655.53 1311.92 1646.24 1319.3C1636.94 1326.68 1624.1 1330.9 1606.65 1333.01C1589.2 1335.11 1563.08 1332.69 1541.03 1351.48C1512.87 1375.5 1484.95 1372.55 1458.07 1373.22C1431.2 1373.89 1417.8 1389.55 1403.58 1408.77C1389.37 1427.99 1359.37 1427.56 1328.04 1425.39C1302.98 1423.66 1267.27 1432.81 1252.54 1437.6Z" fill="url(#paint12_linear_405_894)"/>
</g>
<g filter="url(#filter11_i_405_894)">
<path d="M1255.5 1493.76C1255.5 1493.76 1406.98 1479.52 1437.62 1462C1468.26 1444.49 1498.45 1419.27 1517.42 1411.54C1541.13 1401.88 1553.24 1411.14 1575.43 1406.08L1575.75 1406.01C1591.49 1402.42 1603.48 1399.69 1615.08 1393.07C1626.77 1386.39 1632.85 1382.43 1654.14 1383.59C1680.75 1385.03 1681.25 1382.9 1686.71 1374.25C1692.17 1365.61 1705.15 1333.27 1726.63 1334.5C1748.12 1335.73 1775.14 1341.55 1795.41 1322.46C1815.68 1303.37 1833.48 1304.95 1833.48 1304.95C1833.48 1304.95 1879.41 1296.91 1904.98 1272.45C1930.55 1247.98 1983.13 1204.48 2051.96 1198.01C2126.62 1190.99 2142.5 1169.57 2143.65 1167.8L2143.65 1167.79C2143.73 1167.64 2143.74 1167.65 2143.65 1167.8L2176.58 1456.4L1260.09 1542.56L1255.5 1493.76Z" fill="url(#paint13_linear_405_894)"/>
</g>
<defs>
<filter id="filter0_f_405_894" x="1022.71" y="-325.488" width="1568.32" height="1755.17" filterUnits="userSpaceOnUse" color-interpolation-filters="sRGB">
<feFlood flood-opacity="0" result="BackgroundImageFix"/>
<feBlend mode="normal" in="SourceGraphic" in2="BackgroundImageFix" result="shape"/>
<feGaussianBlur stdDeviation="230" result="effect1_foregroundBlur_405_894"/>
</filter>
<filter id="filter1_f_405_894" x="-667.291" y="-310.488" width="1728.32" height="1915.17" filterUnits="userSpaceOnUse" color-interpolation-filters="sRGB">
<feFlood flood-opacity="0" result="BackgroundImageFix"/>
<feBlend mode="normal" in="SourceGraphic" in2="BackgroundImageFix" result="shape"/>
<feGaussianBlur stdDeviation="200" result="effect1_foregroundBlur_405_894"/>
</filter>
<filter id="filter2_f_405_894" x="-450.809" y="190.346" width="1530.79" height="1646.43" filterUnits="userSpaceOnUse" color-interpolation-filters="sRGB">
<feFlood flood-opacity="0" result="BackgroundImageFix"/>
<feBlend mode="normal" in="SourceGraphic" in2="BackgroundImageFix" result="shape"/>
<feGaussianBlur stdDeviation="270" result="effect1_foregroundBlur_405_894"/>
</filter>
<filter id="filter3_b_405_894" x="76" y="571" width="151" height="151" filterUnits="userSpaceOnUse" color-interpolation-filters="sRGB">
<feFlood flood-opacity="0" result="BackgroundImageFix"/>
<feGaussianBlur in="BackgroundImageFix" stdDeviation="10"/>
<feComposite in2="SourceAlpha" operator="in" result="effect1_backgroundBlur_405_894"/>
<feBlend mode="normal" in="SourceGraphic" in2="effect1_backgroundBlur_405_894" result="shape"/>
</filter>
<filter id="filter4_b_405_894" x="1800" y="422" width="167" height="167" filterUnits="userSpaceOnUse" color-interpolation-filters="sRGB">
<feFlood flood-opacity="0" result="BackgroundImageFix"/>
<feGaussianBlur in="BackgroundImageFix" stdDeviation="10"/>
<feComposite in2="SourceAlpha" operator="in" result="effect1_backgroundBlur_405_894"/>
<feBlend mode="normal" in="SourceGraphic" in2="effect1_backgroundBlur_405_894" result="shape"/>
</filter>
<filter id="filter5_b_405_894" x="328.203" y="610.989" width="149" height="149" filterUnits="userSpaceOnUse" color-interpolation-filters="sRGB">
<feFlood flood-opacity="0" result="BackgroundImageFix"/>
<feGaussianBlur in="BackgroundImageFix" stdDeviation="10"/>
<feComposite in2="SourceAlpha" operator="in" result="effect1_backgroundBlur_405_894"/>
<feBlend mode="normal" in="SourceGraphic" in2="effect1_backgroundBlur_405_894" result="shape"/>
</filter>
<filter id="filter6_b_405_894" x="419.669" y="475.931" width="130.306" height="130.306" filterUnits="userSpaceOnUse" color-interpolation-filters="sRGB">
<feFlood flood-opacity="0" result="BackgroundImageFix"/>
<feGaussianBlur in="BackgroundImageFix" stdDeviation="10"/>
<feComposite in2="SourceAlpha" operator="in" result="effect1_backgroundBlur_405_894"/>
<feBlend mode="normal" in="SourceGraphic" in2="effect1_backgroundBlur_405_894" result="shape"/>
</filter>
<filter id="filter7_b_405_894" x="1751" y="895.989" width="172" height="172" filterUnits="userSpaceOnUse" color-interpolation-filters="sRGB">
<feFlood flood-opacity="0" result="BackgroundImageFix"/>
<feGaussianBlur in="BackgroundImageFix" stdDeviation="14.5"/>
<feComposite in2="SourceAlpha" operator="in" result="effect1_backgroundBlur_405_894"/>
<feBlend mode="normal" in="SourceGraphic" in2="effect1_backgroundBlur_405_894" result="shape"/>
</filter>
<filter id="filter8_i_405_894" x="1247.04" y="945.575" width="924.396" height="579.534" filterUnits="userSpaceOnUse" color-interpolation-filters="sRGB">
<feFlood flood-opacity="0" result="BackgroundImageFix"/>
<feBlend mode="normal" in="SourceGraphic" in2="BackgroundImageFix" result="shape"/>
<feColorMatrix in="SourceAlpha" type="matrix" values="0 0 0 0 0 0 0 0 0 0 0 0 0 0 0 0 0 0 127 0" result="hardAlpha"/>
<feOffset dy="4"/>
<feGaussianBlur stdDeviation="2"/>
<feComposite in2="hardAlpha" operator="arithmetic" k2="-1" k3="1"/>
<feColorMatrix type="matrix" values="0 0 0 0 0.858333 0 0 0 0 0.858333 0 0 0 0 0.858333 0 0 0 0.25 0"/>
<feBlend mode="normal" in2="shape" result="effect1_innerShadow_405_894"/>
</filter>
<filter id="filter9_i_405_894" x="1251.62" y="999.357" width="928.424" height="528.226" filterUnits="userSpaceOnUse" color-interpolation-filters="sRGB">
<feFlood flood-opacity="0" result="BackgroundImageFix"/>
<feBlend mode="normal" in="SourceGraphic" in2="BackgroundImageFix" result="shape"/>
<feColorMatrix in="SourceAlpha" type="matrix" values="0 0 0 0 0 0 0 0 0 0 0 0 0 0 0 0 0 0 127 0" result="hardAlpha"/>
<feOffset dy="4"/>
<feGaussianBlur stdDeviation="2"/>
<feComposite in2="hardAlpha" operator="arithmetic" k2="-1" k3="1"/>
<feColorMatrix type="matrix" values="0 0 0 0 0.929167 0 0 0 0 0.83625 0 0 0 0 0.83625 0 0 0 0.25 0"/>
<feBlend mode="normal" in2="shape" result="effect1_innerShadow_405_894"/>
</filter>
<filter id="filter10_i_405_894" x="1252.54" y="1035.58" width="938.774" height="496.495" filterUnits="userSpaceOnUse" color-interpolation-filters="sRGB">
<feFlood flood-opacity="0" result="BackgroundImageFix"/>
<feBlend mode="normal" in="SourceGraphic" in2="BackgroundImageFix" result="shape"/>
<feColorMatrix in="SourceAlpha" type="matrix" values="0 0 0 0 0 0 0 0 0 0 0 0 0 0 0 0 0 0 127 0" result="hardAlpha"/>
<feOffset dy="4"/>
<feGaussianBlur stdDeviation="2"/>
<feComposite in2="hardAlpha" operator="arithmetic" k2="-1" k3="1"/>
<feColorMatrix type="matrix" values="0 0 0 0 0.783333 0 0 0 0 0.649514 0 0 0 0 0.753893 0 0 0 0.25 0"/>
<feBlend mode="normal" in2="shape" result="effect1_innerShadow_405_894"/>
</filter>
<filter id="filter11_i_405_894" x="1255.5" y="1167.68" width="921.083" height="378.883" filterUnits="userSpaceOnUse" color-interpolation-filters="sRGB">
<feFlood flood-opacity="0" result="BackgroundImageFix"/>
<feBlend mode="normal" in="SourceGraphic" in2="BackgroundImageFix" result="shape"/>
<feColorMatrix in="SourceAlpha" type="matrix" values="0 0 0 0 0 0 0 0 0 0 0 0 0 0 0 0 0 0 127 0" result="hardAlpha"/>
<feOffset dy="4"/>
<feGaussianBlur stdDeviation="2"/>
<feComposite in2="hardAlpha" operator="arithmetic" k2="-1" k3="1"/>
<feColorMatrix type="matrix" values="0 0 0 0 1 0 0 0 0 1 0 0 0 0 1 0 0 0 0.25 0"/>
<feBlend mode="normal" in2="shape" result="effect1_innerShadow_405_894"/>
</filter>
<linearGradient id="paint0_linear_405_894" x1="29.0622" y1="-1.91793" x2="62.4155" y2="120.543" gradientUnits="userSpaceOnUse">
<stop stop-color="#394B6C"/>
<stop offset="0.276042" stop-color="#697187"/>
<stop offset="1" stop-color="#F16EFF"/>
</linearGradient>
<linearGradient id="paint1_linear_405_894" x1="-26.535" y1="44.1123" x2="52.2932" y2="-17.289" gradientUnits="userSpaceOnUse">
<stop stop-color="white"/>
<stop offset="0.128796" stop-opacity="0"/>
<stop offset="1" stop-color="white" stop-opacity="0.33"/>
</linearGradient>
<linearGradient id="paint2_linear_405_894" x1="33.2513" y1="-2.19439" x2="71.4123" y2="137.918" gradientUnits="userSpaceOnUse">
<stop stop-color="#394B6C"/>
<stop offset="0.276042" stop-color="#697187"/>
<stop offset="1" stop-color="#F16EFF"/>
</linearGradient>
<linearGradient id="paint3_linear_405_894" x1="-30.3599" y1="50.4708" x2="59.831" y2="-19.7811" gradientUnits="userSpaceOnUse">
<stop stop-color="white"/>
<stop offset="0.128796" stop-opacity="0"/>
<stop offset="1" stop-color="white" stop-opacity="0.33"/>
</linearGradient>
<linearGradient id="paint4_linear_405_894" x1="28.5385" y1="-1.88337" x2="61.2909" y2="118.371" gradientUnits="userSpaceOnUse">
<stop stop-color="#394B6C"/>
<stop offset="0.276042" stop-color="#697187"/>
<stop offset="1" stop-color="#F16EFF"/>
</linearGradient>
<linearGradient id="paint5_linear_405_894" x1="-26.0569" y1="43.3175" x2="51.351" y2="-16.9775" gradientUnits="userSpaceOnUse">
<stop stop-color="white"/>
<stop offset="0.128796" stop-opacity="0"/>
<stop offset="1" stop-color="white" stop-opacity="0.33"/>
</linearGradient>
<linearGradient id="paint6_linear_405_894" x1="20.5343" y1="-1.35514" x2="44.1005" y2="85.1709" gradientUnits="userSpaceOnUse">
<stop stop-color="#394B6C"/>
<stop offset="0.276042" stop-color="#697187"/>
<stop offset="1" stop-color="#F16EFF"/>
</linearGradient>
<linearGradient id="paint7_linear_405_894" x1="-18.7487" y1="31.1681" x2="36.9485" y2="-12.2158" gradientUnits="userSpaceOnUse">
<stop stop-color="white"/>
<stop offset="0.128796" stop-opacity="0"/>
<stop offset="1" stop-color="white" stop-opacity="0.33"/>
</linearGradient>
<linearGradient id="paint8_linear_405_894" x1="1854.1" y1="923.435" x2="1823.01" y2="1054.53" gradientUnits="userSpaceOnUse">
<stop stop-color="#ED6FFF"/>
<stop offset="1" stop-color="#E0E7FF"/>
</linearGradient>
<linearGradient id="paint9_linear_405_894" x1="1783.65" y1="1076.99" x2="1845.81" y2="941.053" gradientUnits="userSpaceOnUse">
<stop stop-color="#112053"/>
<stop offset="1" stop-color="white" stop-opacity="0"/>
</linearGradient>
<linearGradient id="paint10_linear_405_894" x1="1249.83" y1="1371.66" x2="2131" y2="983.876" gradientUnits="userSpaceOnUse">
<stop stop-color="#712AE0"/>
<stop offset="0.494792" stop-color="#601CB9"/>
<stop offset="1" stop-color="#6333B8"/>
</linearGradient>
<linearGradient id="paint11_linear_405_894" x1="1252.28" y1="1397.68" x2="2142.75" y2="1032.24" gradientUnits="userSpaceOnUse">
<stop stop-color="#D32BE2"/>
<stop offset="0.536458" stop-color="#A51CEA"/>
<stop offset="1" stop-color="#9A1AEC"/>
</linearGradient>
<linearGradient id="paint12_linear_405_894" x1="1272.38" y1="1455.94" x2="2155.43" y2="1127.67" gradientUnits="userSpaceOnUse">
<stop stop-color="#FF79A2"/>
<stop offset="0.59375" stop-color="#C74CC4"/>
<stop offset="1" stop-color="#3813FF"/>
</linearGradient>
<linearGradient id="paint13_linear_405_894" x1="2174.38" y1="1447.79" x2="1521.08" y2="1398.65" gradientUnits="userSpaceOnUse">
<stop stop-color="#E847B0"/>
<stop offset="0.317708" stop-color="#E231CB"/>
<stop offset="1" stop-color="#FABA41"/>
</linearGradient>
</defs>
</svg>
