<svg width="1119" height="77" viewBox="0 0 1119 77" fill="none" xmlns="http://www.w3.org/2000/svg">
<path fill-rule="evenodd" clip-rule="evenodd" d="M31.099 4.08588C30.3973 4.06229 29.6628 4.18463 28.9264 4.42338C27.4535 4.90089 25.9101 5.83144 24.3262 7.11987C23.7054 7.6248 23.0791 8.20199 22.4506 8.8144C21.836 8.21754 21.2225 7.65584 20.6154 7.16206C19.0328 5.87467 17.4936 4.94376 16.024 4.46733C14.5545 3.9909 13.0923 3.97614 11.8914 4.66948C10.6905 5.36282 9.97236 6.63557 9.6502 8.14643C9.32803 9.6573 9.36352 11.4565 9.68711 13.4708C9.79951 14.1705 9.95981 14.9045 10.1424 15.6523C9.45619 15.8603 8.78981 16.0789 8.17187 16.3203C6.30699 17.0486 4.76391 17.92 3.64023 18.957C2.51656 19.9939 1.79102 21.2524 1.79102 22.6343C1.79102 24.0162 2.51656 25.273 3.64023 26.3099C4.76391 27.3468 6.30699 28.22 8.17187 28.9484C8.83263 29.2065 9.54801 29.4388 10.2865 29.6585C10.0209 30.6511 9.80566 31.6143 9.65898 32.5273C9.33513 34.5432 9.30093 36.3427 9.62383 37.857C9.94673 39.3713 10.6652 40.6512 11.8721 41.348C13.0789 42.0448 14.5476 42.0277 16.0205 41.5501C17.4934 41.0726 19.035 40.1438 20.6189 38.8554C21.234 38.3551 21.8561 37.7844 22.4787 37.1785C23.1046 37.7881 23.7292 38.3615 24.3473 38.8642C25.9299 40.1516 27.4709 41.0807 28.9404 41.5572C30.41 42.0336 31.8721 42.0484 33.073 41.355C34.2739 40.6617 34.9903 39.3889 35.3125 37.8781C35.6347 36.3672 35.5992 34.5697 35.2756 32.5554C35.1285 31.6399 34.9132 30.6736 34.6463 29.6779C35.4092 29.4528 36.1472 29.2142 36.8277 28.9484C38.6926 28.22 40.2357 27.3468 41.3594 26.3099C42.483 25.273 43.2086 24.0162 43.2086 22.6343C43.2086 21.2524 42.483 19.9939 41.3594 18.957C40.2357 17.92 38.6926 17.0486 36.8277 16.3203C36.2009 16.0754 35.5243 15.8539 34.8273 15.6435C35.0114 14.8911 35.1748 14.1519 35.2879 13.448C35.6117 11.4321 35.6459 9.63084 35.323 8.11655C35.0002 6.60226 34.2799 5.32406 33.073 4.62729C32.4696 4.27891 31.8007 4.10948 31.099 4.08588ZM31.0164 5.91753C31.4567 5.92957 31.8324 6.03435 32.1537 6.21987C32.7964 6.5909 33.2714 7.31303 33.5248 8.50151C33.7782 9.68999 33.7695 11.2957 33.4703 13.158C33.3679 13.7955 33.2192 14.4713 33.0502 15.1636C31.2092 14.7206 29.192 14.3918 27.042 14.1986C25.9627 12.7033 24.8537 11.3412 23.7355 10.1328C24.327 9.55544 24.9146 9.0155 25.4881 8.54897C26.9512 7.35879 28.3364 6.54893 29.4924 6.17417C30.0704 5.98678 30.5761 5.90548 31.0164 5.91753ZM13.9375 5.9228C14.3804 5.91044 14.8871 5.99151 15.4668 6.17944C16.6261 6.55529 18.0137 7.36478 19.4781 8.556C20.0401 9.01317 20.6146 9.54283 21.1937 10.1064C20.0674 11.3247 18.9492 12.6987 17.8627 14.2074C15.7218 14.4041 13.7127 14.7347 11.8809 15.1794C11.7131 14.4909 11.5644 13.8187 11.4625 13.1843C11.1631 11.3205 11.1556 9.71451 11.4098 8.5226C11.6639 7.3307 12.1428 6.60312 12.7914 6.22866C13.1157 6.04143 13.4946 5.93516 13.9375 5.9228ZM22.4787 11.4283C23.2119 12.2261 23.9452 13.0992 24.6725 14.0386C23.9578 14.0088 23.2345 13.9912 22.4998 13.9912C21.7505 13.9912 21.0134 14.0094 20.285 14.0404C21.0124 13.1002 21.7454 12.2267 22.4787 11.4283ZM22.4998 15.8087C23.7237 15.8087 24.9166 15.859 26.077 15.9441C26.8754 17.0908 27.6556 18.3074 28.399 19.5951C29.0523 20.7265 29.6434 21.8562 30.1814 22.9718C29.6377 24.1023 29.0367 25.2472 28.3744 26.3943C27.7915 27.404 27.1827 28.363 26.5639 29.2876C25.2532 29.3972 23.8951 29.4581 22.4998 29.4581C21.0709 29.4581 19.6823 29.3936 18.3426 29.2789C17.7341 28.3675 17.1356 27.423 16.5619 26.4294C15.9012 25.285 15.303 24.1421 14.7602 23.014C15.3053 21.8795 15.9061 20.7303 16.5707 19.5792C17.3102 18.2983 18.0882 17.0888 18.8822 15.9476C20.0551 15.8606 21.2618 15.8087 22.4998 15.8087ZM28.3937 16.1691C29.8774 16.3542 31.2704 16.6112 32.5668 16.9197C32.1821 18.1807 31.7083 19.4979 31.1342 20.8572C30.7614 20.1386 30.3753 19.4176 29.9582 18.6951C29.4527 17.8195 28.9262 16.9847 28.3937 16.1691ZM16.5092 16.1832C15.988 16.9835 15.4752 17.8021 14.9799 18.6599C14.5574 19.3917 14.1633 20.1224 13.7863 20.8501C13.2172 19.499 12.7462 18.1893 12.3643 16.9355C13.651 16.6265 15.0359 16.3704 16.5092 16.1832ZM34.3475 17.3978C34.9855 17.5908 35.6016 17.7923 36.1668 18.013C37.8859 18.6845 39.2458 19.4796 40.1271 20.2929C41.0085 21.1062 41.391 21.8819 41.391 22.6343C41.391 23.3868 41.0085 24.1624 40.1271 24.9757C39.2458 25.7891 37.8859 26.5842 36.1668 27.2556C35.5387 27.5009 34.8487 27.7234 34.1312 27.9341C33.6195 26.3512 32.9663 24.6998 32.1889 23.014C33.0827 21.0785 33.8048 19.1914 34.3475 17.3978ZM10.6223 17.4066C11.1587 19.1823 11.8715 21.0507 12.7527 22.9665C11.9702 24.6622 11.3138 26.323 10.7998 27.9148C10.1077 27.7096 9.441 27.4932 8.83281 27.2556C7.11367 26.5842 5.75382 25.7891 4.87246 24.9757C3.9911 24.1624 3.60859 23.3868 3.60859 22.6343C3.60859 21.8819 3.9911 21.1062 4.87246 20.2929C5.75382 19.4796 7.11367 18.6845 8.83281 18.013C9.3893 17.7957 9.99513 17.5971 10.6223 17.4066ZM22.4998 18.4999C20.0252 18.4999 17.9998 20.5253 17.9998 22.9999C17.9998 25.4746 20.0252 27.4999 22.4998 27.4999C24.9744 27.4999 26.9998 25.4746 26.9998 22.9999C26.9998 20.5253 24.9744 18.4999 22.4998 18.4999ZM13.8074 25.1287C14.1861 25.86 14.5798 26.5939 15.0045 27.3294C15.3367 27.9049 15.6761 28.4651 16.0205 29.0152C14.8118 28.8476 13.6629 28.6354 12.584 28.3841C12.9271 27.3333 13.3376 26.2425 13.8074 25.1287ZM31.157 25.1287C31.6288 26.2451 32.0395 27.3377 32.384 28.3912C31.3016 28.6421 30.1492 28.8536 28.9369 29.0205C29.2859 28.4636 29.6305 27.8965 29.967 27.3136C30.3885 26.5835 30.7808 25.8547 31.157 25.1287ZM12.0654 30.1314C13.6943 30.5173 15.4597 30.8137 17.3318 31.0068C18.5815 32.8143 19.8835 34.4385 21.1937 35.8583C20.6078 36.4296 20.0271 36.9658 19.4588 37.4281C17.9956 38.6183 16.6087 39.4263 15.4527 39.8011C14.2968 40.1759 13.4341 40.1264 12.7914 39.7554C12.1488 39.3844 11.6755 38.6623 11.4221 37.4738C11.1686 36.2853 11.1756 34.6813 11.4748 32.8191C11.6105 31.9743 11.8133 31.0697 12.0654 30.1314ZM32.9043 30.1384C33.1585 31.0824 33.3619 31.9904 33.4984 32.8402C33.7979 34.704 33.8053 36.31 33.5512 37.5019C33.297 38.6938 32.8216 39.4231 32.173 39.7976C31.5245 40.1721 30.6534 40.2209 29.4941 39.8451C28.3348 39.4692 26.9472 38.6597 25.4828 37.4685C24.9104 37.0029 24.3257 36.4624 23.7355 35.8865C25.0546 34.4611 26.3657 32.8286 27.6238 31.0103C29.5006 30.8185 31.271 30.5238 32.9043 30.1384ZM19.6803 31.1914C20.6044 31.2417 21.5406 31.2757 22.4998 31.2757C23.4273 31.2757 24.3332 31.2438 25.2279 31.1966C24.3133 32.4307 23.3809 33.5526 22.4523 34.5628C21.5243 33.5504 20.5937 32.4265 19.6803 31.1914Z" fill="white"/>
<path d="M4.32031 58.125H8.08594C8.9401 58.125 9.66146 58.2552 10.25 58.5156C10.8438 58.776 11.2943 59.1615 11.6016 59.6719C11.9141 60.1771 12.0703 60.7995 12.0703 61.5391C12.0703 62.0599 11.9635 62.5365 11.75 62.9688C11.5417 63.3958 11.2396 63.7604 10.8438 64.0625C10.4531 64.3594 9.98438 64.5807 9.4375 64.7266L9.01562 64.8906H5.47656L5.46094 63.6641H8.13281C8.67448 63.6641 9.125 63.5703 9.48438 63.3828C9.84375 63.1901 10.1146 62.9323 10.2969 62.6094C10.4792 62.2865 10.5703 61.9297 10.5703 61.5391C10.5703 61.1016 10.4844 60.7188 10.3125 60.3906C10.1406 60.0625 9.86979 59.8099 9.5 59.6328C9.13542 59.4505 8.66406 59.3594 8.08594 59.3594H5.82812V69.5H4.32031V58.125ZM10.9688 69.5L8.20312 64.3438L9.77344 64.3359L12.5781 69.4062V69.5H10.9688ZM17.4688 69.6562C16.8802 69.6562 16.3464 69.5573 15.8672 69.3594C15.3932 69.1562 14.9844 68.8724 14.6406 68.5078C14.3021 68.1432 14.0417 67.7109 13.8594 67.2109C13.6771 66.7109 13.5859 66.1641 13.5859 65.5703V65.2422C13.5859 64.5547 13.6875 63.9427 13.8906 63.4062C14.0938 62.8646 14.3698 62.4062 14.7188 62.0312C15.0677 61.6562 15.4635 61.3724 15.9062 61.1797C16.349 60.987 16.8073 60.8906 17.2812 60.8906C17.8854 60.8906 18.4062 60.9948 18.8438 61.2031C19.2865 61.4115 19.6484 61.7031 19.9297 62.0781C20.2109 62.4479 20.4193 62.8854 20.5547 63.3906C20.6901 63.8906 20.7578 64.4375 20.7578 65.0312V65.6797H14.4453V64.5H19.3125V64.3906C19.2917 64.0156 19.2135 63.651 19.0781 63.2969C18.9479 62.9427 18.7396 62.651 18.4531 62.4219C18.1667 62.1927 17.776 62.0781 17.2812 62.0781C16.9531 62.0781 16.651 62.1484 16.375 62.2891C16.099 62.4245 15.862 62.6276 15.6641 62.8984C15.4661 63.1693 15.3125 63.5 15.2031 63.8906C15.0938 64.2812 15.0391 64.7318 15.0391 65.2422V65.5703C15.0391 65.9714 15.0938 66.349 15.2031 66.7031C15.3177 67.0521 15.4818 67.3594 15.6953 67.625C15.9141 67.8906 16.1771 68.099 16.4844 68.25C16.7969 68.401 17.151 68.4766 17.5469 68.4766C18.0573 68.4766 18.4896 68.3724 18.8438 68.1641C19.1979 67.9557 19.5078 67.6771 19.7734 67.3281L20.6484 68.0234C20.4661 68.2995 20.2344 68.5625 19.9531 68.8125C19.6719 69.0625 19.3255 69.2656 18.9141 69.4219C18.5078 69.5781 18.026 69.6562 17.4688 69.6562ZM27.4297 68.0547V63.7031C27.4297 63.3698 27.362 63.0807 27.2266 62.8359C27.0964 62.5859 26.8984 62.3932 26.6328 62.2578C26.3672 62.1224 26.0391 62.0547 25.6484 62.0547C25.2839 62.0547 24.9635 62.1172 24.6875 62.2422C24.4167 62.3672 24.2031 62.5312 24.0469 62.7344C23.8958 62.9375 23.8203 63.1562 23.8203 63.3906H22.375C22.375 63.0885 22.4531 62.7891 22.6094 62.4922C22.7656 62.1953 22.9896 61.9271 23.2812 61.6875C23.5781 61.4427 23.9323 61.25 24.3438 61.1094C24.7604 60.9635 25.224 60.8906 25.7344 60.8906C26.349 60.8906 26.8906 60.9948 27.3594 61.2031C27.8333 61.4115 28.2031 61.7266 28.4688 62.1484C28.7396 62.5651 28.875 63.0885 28.875 63.7188V67.6562C28.875 67.9375 28.8984 68.237 28.9453 68.5547C28.9974 68.8724 29.0729 69.1458 29.1719 69.375V69.5H27.6641C27.5911 69.3333 27.5339 69.112 27.4922 68.8359C27.4505 68.5547 27.4297 68.2943 27.4297 68.0547ZM27.6797 64.375L27.6953 65.3906H26.2344C25.8229 65.3906 25.4557 65.4245 25.1328 65.4922C24.8099 65.5547 24.5391 65.651 24.3203 65.7812C24.1016 65.9115 23.9349 66.0755 23.8203 66.2734C23.7057 66.4661 23.6484 66.6927 23.6484 66.9531C23.6484 67.2188 23.7083 67.4609 23.8281 67.6797C23.9479 67.8984 24.1276 68.0729 24.3672 68.2031C24.612 68.3281 24.9115 68.3906 25.2656 68.3906C25.7083 68.3906 26.099 68.2969 26.4375 68.1094C26.776 67.9219 27.0443 67.6927 27.2422 67.4219C27.4453 67.151 27.5547 66.888 27.5703 66.6328L28.1875 67.3281C28.151 67.5469 28.0521 67.7891 27.8906 68.0547C27.7292 68.3203 27.513 68.5755 27.2422 68.8203C26.9766 69.0599 26.6589 69.2604 26.2891 69.4219C25.9245 69.5781 25.513 69.6562 25.0547 69.6562C24.4818 69.6562 23.9792 69.5443 23.5469 69.3203C23.1198 69.0964 22.7865 68.7969 22.5469 68.4219C22.3125 68.0417 22.1953 67.6172 22.1953 67.1484C22.1953 66.6953 22.2839 66.2969 22.4609 65.9531C22.638 65.6042 22.8932 65.3151 23.2266 65.0859C23.5599 64.8516 23.9609 64.6745 24.4297 64.5547C24.8984 64.4349 25.4219 64.375 26 64.375H27.6797ZM34.5312 68.4688C34.875 68.4688 35.1927 68.3984 35.4844 68.2578C35.776 68.1172 36.0156 67.9245 36.2031 67.6797C36.3906 67.4297 36.4974 67.1458 36.5234 66.8281H37.8984C37.8724 67.3281 37.7031 67.7943 37.3906 68.2266C37.0833 68.6536 36.6797 69 36.1797 69.2656C35.6797 69.526 35.1302 69.6562 34.5312 69.6562C33.8958 69.6562 33.3411 69.5443 32.8672 69.3203C32.3984 69.0964 32.0078 68.7891 31.6953 68.3984C31.388 68.0078 31.1562 67.5599 31 67.0547C30.849 66.5443 30.7734 66.0052 30.7734 65.4375V65.1094C30.7734 64.5417 30.849 64.0052 31 63.5C31.1562 62.9896 31.388 62.5391 31.6953 62.1484C32.0078 61.7578 32.3984 61.4505 32.8672 61.2266C33.3411 61.0026 33.8958 60.8906 34.5312 60.8906C35.1927 60.8906 35.7708 61.026 36.2656 61.2969C36.7604 61.5625 37.1484 61.9271 37.4297 62.3906C37.7161 62.849 37.8724 63.3698 37.8984 63.9531H36.5234C36.4974 63.6042 36.3984 63.2891 36.2266 63.0078C36.0599 62.7266 35.8307 62.5026 35.5391 62.3359C35.2526 62.1641 34.9167 62.0781 34.5312 62.0781C34.0885 62.0781 33.7161 62.1667 33.4141 62.3438C33.1172 62.5156 32.8802 62.75 32.7031 63.0469C32.5312 63.3385 32.4062 63.6641 32.3281 64.0234C32.2552 64.3776 32.2188 64.7396 32.2188 65.1094V65.4375C32.2188 65.8073 32.2552 66.1719 32.3281 66.5312C32.401 66.8906 32.5234 67.2161 32.6953 67.5078C32.8724 67.7995 33.1094 68.0339 33.4062 68.2109C33.7083 68.3828 34.0833 68.4688 34.5312 68.4688ZM43.0625 61.0469V62.1562H38.4922V61.0469H43.0625ZM40.0391 58.9922H41.4844V67.4062C41.4844 67.6927 41.5286 67.9089 41.6172 68.0547C41.7057 68.2005 41.8203 68.2969 41.9609 68.3438C42.1016 68.3906 42.2526 68.4141 42.4141 68.4141C42.5339 68.4141 42.6589 68.4036 42.7891 68.3828C42.9245 68.3568 43.026 68.3359 43.0938 68.3203L43.1016 69.5C42.987 69.5365 42.8359 69.5703 42.6484 69.6016C42.4661 69.638 42.2448 69.6562 41.9844 69.6562C41.6302 69.6562 41.3047 69.5859 41.0078 69.4453C40.7109 69.3047 40.474 69.0703 40.2969 68.7422C40.125 68.4089 40.0391 67.9609 40.0391 67.3984V58.9922Z" fill="white"/>
<path fill-rule="evenodd" clip-rule="evenodd" d="M187 6L184 40L170 44L156 40L153 6H187ZM161.801 28H165.801L165.898 30.5L170 31.8984L174.102 30.5L174.398 26H165.602L165.398 22H174.602L174.898 18H161.102L160.801 14H179.102L178.602 22L177.898 33.5L170 36.1016L162.102 33.5L161.801 28Z" fill="white"/>
<path d="M161.188 66.3828H162.688C162.609 67.1016 162.404 67.7448 162.07 68.3125C161.737 68.8802 161.266 69.3307 160.656 69.6641C160.047 69.9922 159.286 70.1562 158.375 70.1562C157.708 70.1562 157.102 70.0312 156.555 69.7812C156.013 69.5312 155.547 69.1771 155.156 68.7188C154.766 68.2552 154.464 67.7005 154.25 67.0547C154.042 66.4036 153.938 65.6797 153.938 64.8828V63.75C153.938 62.9531 154.042 62.2318 154.25 61.5859C154.464 60.9349 154.768 60.3776 155.164 59.9141C155.565 59.4505 156.047 59.0938 156.609 58.8438C157.172 58.5938 157.805 58.4688 158.508 58.4688C159.367 58.4688 160.094 58.6302 160.688 58.9531C161.281 59.276 161.742 59.724 162.07 60.2969C162.404 60.8646 162.609 61.5234 162.688 62.2734H161.188C161.115 61.7422 160.979 61.2865 160.781 60.9062C160.583 60.5208 160.302 60.224 159.938 60.0156C159.573 59.8073 159.096 59.7031 158.508 59.7031C158.003 59.7031 157.557 59.7995 157.172 59.9922C156.792 60.1849 156.471 60.4583 156.211 60.8125C155.956 61.1667 155.763 61.5911 155.633 62.0859C155.503 62.5807 155.438 63.1302 155.438 63.7344V64.8828C155.438 65.4401 155.495 65.9635 155.609 66.4531C155.729 66.9427 155.909 67.3724 156.148 67.7422C156.388 68.112 156.693 68.4036 157.062 68.6172C157.432 68.8255 157.87 68.9297 158.375 68.9297C159.016 68.9297 159.526 68.8281 159.906 68.625C160.286 68.4219 160.573 68.1302 160.766 67.75C160.964 67.3698 161.104 66.9141 161.188 66.3828ZM170.805 67.125C170.805 66.8594 170.763 66.625 170.68 66.4219C170.602 66.2135 170.461 66.026 170.258 65.8594C170.06 65.6927 169.784 65.5339 169.43 65.3828C169.081 65.2318 168.638 65.0781 168.102 64.9219C167.539 64.7552 167.031 64.5703 166.578 64.3672C166.125 64.1589 165.737 63.9219 165.414 63.6562C165.091 63.3906 164.844 63.0859 164.672 62.7422C164.5 62.3984 164.414 62.0052 164.414 61.5625C164.414 61.1198 164.505 60.7109 164.688 60.3359C164.87 59.9609 165.13 59.6354 165.469 59.3594C165.812 59.0781 166.221 58.8594 166.695 58.7031C167.169 58.5469 167.698 58.4688 168.281 58.4688C169.135 58.4688 169.859 58.6328 170.453 58.9609C171.052 59.2839 171.508 59.7083 171.82 60.2344C172.133 60.7552 172.289 61.3125 172.289 61.9062H170.789C170.789 61.4792 170.698 61.1016 170.516 60.7734C170.333 60.4401 170.057 60.1797 169.688 59.9922C169.318 59.7995 168.849 59.7031 168.281 59.7031C167.745 59.7031 167.302 59.7839 166.953 59.9453C166.604 60.1068 166.344 60.3255 166.172 60.6016C166.005 60.8776 165.922 61.1927 165.922 61.5469C165.922 61.7865 165.971 62.0052 166.07 62.2031C166.174 62.3958 166.333 62.5755 166.547 62.7422C166.766 62.9089 167.042 63.0625 167.375 63.2031C167.714 63.3438 168.117 63.4792 168.586 63.6094C169.232 63.7917 169.789 63.9948 170.258 64.2188C170.727 64.4427 171.112 64.6953 171.414 64.9766C171.721 65.2526 171.948 65.5677 172.094 65.9219C172.245 66.2708 172.32 66.6667 172.32 67.1094C172.32 67.5729 172.227 67.9922 172.039 68.3672C171.852 68.7422 171.583 69.0625 171.234 69.3281C170.885 69.5938 170.466 69.7995 169.977 69.9453C169.492 70.0859 168.951 70.1562 168.352 70.1562C167.826 70.1562 167.307 70.0833 166.797 69.9375C166.292 69.7917 165.831 69.5729 165.414 69.2812C165.003 68.9896 164.672 68.6302 164.422 68.2031C164.177 67.7708 164.055 67.2708 164.055 66.7031H165.555C165.555 67.0938 165.63 67.4297 165.781 67.7109C165.932 67.987 166.138 68.2161 166.398 68.3984C166.664 68.5807 166.964 68.7161 167.297 68.8047C167.635 68.888 167.987 68.9297 168.352 68.9297C168.878 68.9297 169.323 68.8568 169.688 68.7109C170.052 68.5651 170.328 68.3568 170.516 68.0859C170.708 67.8151 170.805 67.4948 170.805 67.125ZM180.305 67.125C180.305 66.8594 180.263 66.625 180.18 66.4219C180.102 66.2135 179.961 66.026 179.758 65.8594C179.56 65.6927 179.284 65.5339 178.93 65.3828C178.581 65.2318 178.138 65.0781 177.602 64.9219C177.039 64.7552 176.531 64.5703 176.078 64.3672C175.625 64.1589 175.237 63.9219 174.914 63.6562C174.591 63.3906 174.344 63.0859 174.172 62.7422C174 62.3984 173.914 62.0052 173.914 61.5625C173.914 61.1198 174.005 60.7109 174.188 60.3359C174.37 59.9609 174.63 59.6354 174.969 59.3594C175.312 59.0781 175.721 58.8594 176.195 58.7031C176.669 58.5469 177.198 58.4688 177.781 58.4688C178.635 58.4688 179.359 58.6328 179.953 58.9609C180.552 59.2839 181.008 59.7083 181.32 60.2344C181.633 60.7552 181.789 61.3125 181.789 61.9062H180.289C180.289 61.4792 180.198 61.1016 180.016 60.7734C179.833 60.4401 179.557 60.1797 179.188 59.9922C178.818 59.7995 178.349 59.7031 177.781 59.7031C177.245 59.7031 176.802 59.7839 176.453 59.9453C176.104 60.1068 175.844 60.3255 175.672 60.6016C175.505 60.8776 175.422 61.1927 175.422 61.5469C175.422 61.7865 175.471 62.0052 175.57 62.2031C175.674 62.3958 175.833 62.5755 176.047 62.7422C176.266 62.9089 176.542 63.0625 176.875 63.2031C177.214 63.3438 177.617 63.4792 178.086 63.6094C178.732 63.7917 179.289 63.9948 179.758 64.2188C180.227 64.4427 180.612 64.6953 180.914 64.9766C181.221 65.2526 181.448 65.5677 181.594 65.9219C181.745 66.2708 181.82 66.6667 181.82 67.1094C181.82 67.5729 181.727 67.9922 181.539 68.3672C181.352 68.7422 181.083 69.0625 180.734 69.3281C180.385 69.5938 179.966 69.7995 179.477 69.9453C178.992 70.0859 178.451 70.1562 177.852 70.1562C177.326 70.1562 176.807 70.0833 176.297 69.9375C175.792 69.7917 175.331 69.5729 174.914 69.2812C174.503 68.9896 174.172 68.6302 173.922 68.2031C173.677 67.7708 173.555 67.2708 173.555 66.7031H175.055C175.055 67.0938 175.13 67.4297 175.281 67.7109C175.432 67.987 175.638 68.2161 175.898 68.3984C176.164 68.5807 176.464 68.7161 176.797 68.8047C177.135 68.888 177.487 68.9297 177.852 68.9297C178.378 68.9297 178.823 68.8568 179.188 68.7109C179.552 68.5651 179.828 68.3568 180.016 68.0859C180.208 67.8151 180.305 67.4948 180.305 67.125ZM185.477 63.6016H186.508C187.013 63.6016 187.43 63.5182 187.758 63.3516C188.091 63.1797 188.339 62.9479 188.5 62.6562C188.667 62.3594 188.75 62.026 188.75 61.6562C188.75 61.2188 188.677 60.8516 188.531 60.5547C188.385 60.2578 188.167 60.0339 187.875 59.8828C187.583 59.7318 187.214 59.6562 186.766 59.6562C186.359 59.6562 186 59.737 185.688 59.8984C185.38 60.0547 185.138 60.2786 184.961 60.5703C184.789 60.862 184.703 61.2057 184.703 61.6016H183.258C183.258 61.0234 183.404 60.4974 183.695 60.0234C183.987 59.5495 184.396 59.1719 184.922 58.8906C185.453 58.6094 186.068 58.4688 186.766 58.4688C187.453 58.4688 188.055 58.5911 188.57 58.8359C189.086 59.0755 189.487 59.4349 189.773 59.9141C190.06 60.388 190.203 60.9792 190.203 61.6875C190.203 61.974 190.135 62.2812 190 62.6094C189.87 62.9323 189.664 63.2344 189.383 63.5156C189.107 63.7969 188.747 64.0286 188.305 64.2109C187.862 64.388 187.331 64.4766 186.711 64.4766H185.477V63.6016ZM185.477 64.7891V63.9219H186.711C187.435 63.9219 188.034 64.0078 188.508 64.1797C188.982 64.3516 189.354 64.5807 189.625 64.8672C189.901 65.1536 190.094 65.4688 190.203 65.8125C190.318 66.151 190.375 66.4896 190.375 66.8281C190.375 67.3594 190.284 67.8307 190.102 68.2422C189.924 68.6536 189.672 69.0026 189.344 69.2891C189.021 69.5755 188.641 69.7917 188.203 69.9375C187.766 70.0833 187.289 70.1562 186.773 70.1562C186.279 70.1562 185.812 70.0859 185.375 69.9453C184.943 69.8047 184.56 69.6016 184.227 69.3359C183.893 69.0651 183.633 68.7344 183.445 68.3438C183.258 67.9479 183.164 67.4974 183.164 66.9922H184.609C184.609 67.388 184.695 67.7344 184.867 68.0312C185.044 68.3281 185.294 68.5599 185.617 68.7266C185.945 68.888 186.331 68.9688 186.773 68.9688C187.216 68.9688 187.596 68.8932 187.914 68.7422C188.237 68.5859 188.484 68.3516 188.656 68.0391C188.833 67.7266 188.922 67.3333 188.922 66.8594C188.922 66.3854 188.823 65.9974 188.625 65.6953C188.427 65.388 188.146 65.1615 187.781 65.0156C187.422 64.8646 186.997 64.7891 186.508 64.7891H185.477Z" fill="white"/>
<path d="M320 12C306.543 12 296 17.7109 296 25C296 32.2891 306.543 38 320 38C333.457 38 344 32.2891 344 25C344 17.7109 333.457 12 320 12ZM317.508 16H320.129L319.297 20H321.637C323.121 20 324.117 20.207 324.684 20.7266C325.238 21.2383 325.406 22.0781 325.184 23.2227L324.145 28H321.48L322.438 23.582C322.555 22.9766 322.508 22.5547 322.305 22.332C322.102 22.1094 321.656 22 320.988 22H318.891L317.625 28H315L317.508 16ZM306 20H311.332C313.875 20 315.414 21.7031 314.812 24.2461C314.113 27.1992 312.238 28 308.793 28H307.145L306.621 31H303.973L306 20ZM327 20H332.332C334.875 20 336.414 21.7031 335.812 24.2461C335.113 27.1992 333.238 28 329.793 28H328.145L327.621 31H324.973L327 20ZM308.27 22L307.516 26H309.227C310.707 26 312.082 25.832 312.312 23.625C312.398 22.7695 312.043 22 310.332 22H308.27ZM329.27 22L328.516 26H330.227C331.707 26 333.082 25.832 333.312 23.625C333.398 22.7695 333.043 22 331.332 22H329.27Z" fill="white"/>
<path d="M309.516 65.5391H306.477V64.3125H309.516C310.104 64.3125 310.581 64.2188 310.945 64.0312C311.31 63.8438 311.576 63.5833 311.742 63.25C311.914 62.9167 312 62.5365 312 62.1094C312 61.7188 311.914 61.3516 311.742 61.0078C311.576 60.6641 311.31 60.388 310.945 60.1797C310.581 59.9661 310.104 59.8594 309.516 59.8594H306.828V70H305.32V58.625H309.516C310.375 58.625 311.102 58.7734 311.695 59.0703C312.289 59.3672 312.74 59.7786 313.047 60.3047C313.354 60.8255 313.508 61.4219 313.508 62.0938C313.508 62.8229 313.354 63.4453 313.047 63.9609C312.74 64.4766 312.289 64.8698 311.695 65.1406C311.102 65.4062 310.375 65.5391 309.516 65.5391ZM322.844 63.5156V64.7422H316.688V63.5156H322.844ZM316.922 58.625V70H315.414V58.625H316.922ZM324.156 58.625V70H322.656V58.625H324.156ZM331.031 65.5391H327.992V64.3125H331.031C331.62 64.3125 332.096 64.2188 332.461 64.0312C332.826 63.8438 333.091 63.5833 333.258 63.25C333.43 62.9167 333.516 62.5365 333.516 62.1094C333.516 61.7188 333.43 61.3516 333.258 61.0078C333.091 60.6641 332.826 60.388 332.461 60.1797C332.096 59.9661 331.62 59.8594 331.031 59.8594H328.344V70H326.836V58.625H331.031C331.891 58.625 332.617 58.7734 333.211 59.0703C333.805 59.3672 334.255 59.7786 334.562 60.3047C334.87 60.8255 335.023 61.4219 335.023 62.0938C335.023 62.8229 334.87 63.4453 334.562 63.9609C334.255 64.4766 333.805 64.8698 333.211 65.1406C332.617 65.4062 331.891 65.5391 331.031 65.5391Z" fill="white"/>
<path d="M445 13.0195L453 38.9805L458.09 22.9805L463 38.9805L470.367 16.0156H476.625L471 24.4688V26H472.309C477.457 26 478 29.1406 478 30.6914C478 35.2344 474.98 35.9844 474.062 35.9844C473.191 35.9844 472.434 35.5117 471.793 34.9492C471.148 34.3867 470.629 33.6172 470.234 32.6406L467.551 33.7227C468.098 35.3359 468.937 36.6172 470.074 37.5625C471.207 38.5078 472.535 38.9805 474.062 38.9805C476.094 38.9805 477.746 38.1836 479.023 36.5938C480.301 35 480.938 33.0352 480.938 30.6953C480.938 28.3711 479.875 24.1289 475 23.2617L481 14.7305V13.0195H467.746L463 28.875L458.254 13.0195H454.82L456.391 18.2969L453.18 28.875L448.438 13.0195H445ZM494 13.0195L492.312 16.4141C492.312 16.4141 491.48 14.9141 490.656 14.2305C489.875 13.5781 488.859 12.9766 487.574 13.1055C486.332 13.2305 484.934 14.293 483.988 16.0664C482.922 18.082 482.555 20.125 482.547 22.3789C482.539 25.5352 483.734 27.6914 483.734 27.6914C483.734 27.6914 483.461 26.6875 483.504 24.9922C483.535 23.9336 483.543 22.7852 484.359 20.4062C485.047 18.418 486.617 16.8047 488.004 16.5273C489.082 16.3086 489.77 16.4688 490.828 17.1914C492.086 18.0547 493 19.6133 493 19.6133L495 15.9414L494 13.0195ZM481.332 31.3477C481.332 31.3477 481.82 32.8789 482.125 33.5312C482.297 33.9062 482.836 35.0508 483.598 36.0469C484.309 36.9766 485.688 38.5781 487.785 38.9375C489.887 39.3008 491.328 38.3828 491.688 38.1602C492.043 37.9375 492.797 37.3242 493.27 36.8281C493.77 36.3086 494.238 35.6484 494.5 35.2539C494.688 34.9648 495 34.3789 495 34.3789L494.5 31.832C494.5 31.832 493.629 33.3477 493.086 33.9336C492.543 34.5195 491.57 35.5469 490.375 36.0625C489.176 36.5742 488.543 36.6719 487.359 36.5625C486.176 36.4492 485.074 35.7813 484.688 35.5039C484.305 35.2266 483.32 34.4062 482.762 33.6406C482.203 32.875 481.332 31.3477 481.332 31.3477Z" fill="white"/>
<path d="M457.312 66.5625L459.57 58.625H460.664L460.031 61.7109L457.602 70H456.516L457.312 66.5625ZM454.977 58.625L456.773 66.4062L457.312 70H456.234L453.477 58.625H454.977ZM463.586 66.3984L465.344 58.625H466.852L464.102 70H463.023L463.586 66.3984ZM460.828 58.625L463.023 66.5625L463.82 70H462.734L460.391 61.7109L459.75 58.625H460.828ZM470.258 63.6016H471.289C471.794 63.6016 472.211 63.5182 472.539 63.3516C472.872 63.1797 473.12 62.9479 473.281 62.6562C473.448 62.3594 473.531 62.026 473.531 61.6562C473.531 61.2188 473.458 60.8516 473.312 60.5547C473.167 60.2578 472.948 60.0339 472.656 59.8828C472.365 59.7318 471.995 59.6562 471.547 59.6562C471.141 59.6562 470.781 59.737 470.469 59.8984C470.161 60.0547 469.919 60.2786 469.742 60.5703C469.57 60.862 469.484 61.2057 469.484 61.6016H468.039C468.039 61.0234 468.185 60.4974 468.477 60.0234C468.768 59.5495 469.177 59.1719 469.703 58.8906C470.234 58.6094 470.849 58.4688 471.547 58.4688C472.234 58.4688 472.836 58.5911 473.352 58.8359C473.867 59.0755 474.268 59.4349 474.555 59.9141C474.841 60.388 474.984 60.9792 474.984 61.6875C474.984 61.974 474.917 62.2812 474.781 62.6094C474.651 62.9323 474.445 63.2344 474.164 63.5156C473.888 63.7969 473.529 64.0286 473.086 64.2109C472.643 64.388 472.112 64.4766 471.492 64.4766H470.258V63.6016ZM470.258 64.7891V63.9219H471.492C472.216 63.9219 472.815 64.0078 473.289 64.1797C473.763 64.3516 474.135 64.5807 474.406 64.8672C474.682 65.1536 474.875 65.4688 474.984 65.8125C475.099 66.151 475.156 66.4896 475.156 66.8281C475.156 67.3594 475.065 67.8307 474.883 68.2422C474.706 68.6536 474.453 69.0026 474.125 69.2891C473.802 69.5755 473.422 69.7917 472.984 69.9375C472.547 70.0833 472.07 70.1562 471.555 70.1562C471.06 70.1562 470.594 70.0859 470.156 69.9453C469.724 69.8047 469.341 69.6016 469.008 69.3359C468.674 69.0651 468.414 68.7344 468.227 68.3438C468.039 67.9479 467.945 67.4974 467.945 66.9922H469.391C469.391 67.388 469.477 67.7344 469.648 68.0312C469.826 68.3281 470.076 68.5599 470.398 68.7266C470.727 68.888 471.112 68.9688 471.555 68.9688C471.997 68.9688 472.378 68.8932 472.695 68.7422C473.018 68.5859 473.266 68.3516 473.438 68.0391C473.615 67.7266 473.703 67.3333 473.703 66.8594C473.703 66.3854 473.604 65.9974 473.406 65.6953C473.208 65.388 472.927 65.1615 472.562 65.0156C472.203 64.8646 471.779 64.7891 471.289 64.7891H470.258ZM484.391 66.3828H485.891C485.812 67.1016 485.607 67.7448 485.273 68.3125C484.94 68.8802 484.469 69.3307 483.859 69.6641C483.25 69.9922 482.49 70.1562 481.578 70.1562C480.911 70.1562 480.305 70.0312 479.758 69.7812C479.216 69.5312 478.75 69.1771 478.359 68.7188C477.969 68.2552 477.667 67.7005 477.453 67.0547C477.245 66.4036 477.141 65.6797 477.141 64.8828V63.75C477.141 62.9531 477.245 62.2318 477.453 61.5859C477.667 60.9349 477.971 60.3776 478.367 59.9141C478.768 59.4505 479.25 59.0938 479.812 58.8438C480.375 58.5938 481.008 58.4688 481.711 58.4688C482.57 58.4688 483.297 58.6302 483.891 58.9531C484.484 59.276 484.945 59.724 485.273 60.2969C485.607 60.8646 485.812 61.5234 485.891 62.2734H484.391C484.318 61.7422 484.182 61.2865 483.984 60.9062C483.786 60.5208 483.505 60.224 483.141 60.0156C482.776 59.8073 482.299 59.7031 481.711 59.7031C481.206 59.7031 480.76 59.7995 480.375 59.9922C479.995 60.1849 479.674 60.4583 479.414 60.8125C479.159 61.1667 478.966 61.5911 478.836 62.0859C478.706 62.5807 478.641 63.1302 478.641 63.7344V64.8828C478.641 65.4401 478.698 65.9635 478.812 66.4531C478.932 66.9427 479.112 67.3724 479.352 67.7422C479.591 68.112 479.896 68.4036 480.266 68.6172C480.635 68.8255 481.073 68.9297 481.578 68.9297C482.219 68.9297 482.729 68.8281 483.109 68.625C483.49 68.4219 483.776 68.1302 483.969 67.75C484.167 67.3698 484.307 66.9141 484.391 66.3828Z" fill="white"/>
<path d="M645.936 2.99947C645.772 2.82145 645.543 2.71997 645.301 2.71997H611.699C611.457 2.71997 611.228 2.82145 611.064 2.99947C610.901 3.17749 610.821 3.41657 610.843 3.65651L613.87 37.5637C613.902 37.9181 614.148 38.2165 614.491 38.3145L628.259 42.2473C628.336 42.2688 628.416 42.28 628.495 42.28C628.574 42.28 628.654 42.2688 628.731 42.2473L642.511 38.3145C642.853 38.2165 643.1 37.9181 643.132 37.5637L646.158 3.65651C646.179 3.41657 646.098 3.17749 645.936 2.99947ZM617.32 25.9434L623.34 27.6135V10.46H626.78V32.82L617.32 30.1961V25.9434ZM639.727 19.92L638.82 30.455L630.22 32.82V28.8631L636.025 27.2678L636.24 24.0428L630.22 25.08V10.46H640.54L640.243 13.9H633.66V20.78L639.727 19.92Z" fill="white"/>
<path d="M601.094 65.6797V57.625H602.594V65.6797C602.594 66.4297 602.44 67.0625 602.133 67.5781C601.826 68.0938 601.401 68.487 600.859 68.7578C600.323 69.0234 599.706 69.1562 599.008 69.1562C598.31 69.1562 597.69 69.0365 597.148 68.7969C596.607 68.5573 596.182 68.1927 595.875 67.7031C595.568 67.2135 595.414 66.5964 595.414 65.8516H596.922C596.922 66.3307 597.01 66.724 597.188 67.0312C597.365 67.3385 597.609 67.5651 597.922 67.7109C598.24 67.8568 598.602 67.9297 599.008 67.9297C599.404 67.9297 599.758 67.8464 600.07 67.6797C600.388 67.5078 600.638 67.2552 600.82 66.9219C601.003 66.5833 601.094 66.1693 601.094 65.6797ZM609.914 67.5547V63.2031C609.914 62.8698 609.846 62.5807 609.711 62.3359C609.581 62.0859 609.383 61.8932 609.117 61.7578C608.852 61.6224 608.523 61.5547 608.133 61.5547C607.768 61.5547 607.448 61.6172 607.172 61.7422C606.901 61.8672 606.688 62.0312 606.531 62.2344C606.38 62.4375 606.305 62.6562 606.305 62.8906H604.859C604.859 62.5885 604.938 62.2891 605.094 61.9922C605.25 61.6953 605.474 61.4271 605.766 61.1875C606.062 60.9427 606.417 60.75 606.828 60.6094C607.245 60.4635 607.708 60.3906 608.219 60.3906C608.833 60.3906 609.375 60.4948 609.844 60.7031C610.318 60.9115 610.688 61.2266 610.953 61.6484C611.224 62.0651 611.359 62.5885 611.359 63.2188V67.1562C611.359 67.4375 611.383 67.737 611.43 68.0547C611.482 68.3724 611.557 68.6458 611.656 68.875V69H610.148C610.076 68.8333 610.018 68.612 609.977 68.3359C609.935 68.0547 609.914 67.7943 609.914 67.5547ZM610.164 63.875L610.18 64.8906H608.719C608.307 64.8906 607.94 64.9245 607.617 64.9922C607.294 65.0547 607.023 65.151 606.805 65.2812C606.586 65.4115 606.419 65.5755 606.305 65.7734C606.19 65.9661 606.133 66.1927 606.133 66.4531C606.133 66.7188 606.193 66.9609 606.312 67.1797C606.432 67.3984 606.612 67.5729 606.852 67.7031C607.096 67.8281 607.396 67.8906 607.75 67.8906C608.193 67.8906 608.583 67.7969 608.922 67.6094C609.26 67.4219 609.529 67.1927 609.727 66.9219C609.93 66.651 610.039 66.388 610.055 66.1328L610.672 66.8281C610.635 67.0469 610.536 67.2891 610.375 67.5547C610.214 67.8203 609.997 68.0755 609.727 68.3203C609.461 68.5599 609.143 68.7604 608.773 68.9219C608.409 69.0781 607.997 69.1562 607.539 69.1562C606.966 69.1562 606.464 69.0443 606.031 68.8203C605.604 68.5964 605.271 68.2969 605.031 67.9219C604.797 67.5417 604.68 67.1172 604.68 66.6484C604.68 66.1953 604.768 65.7969 604.945 65.4531C605.122 65.1042 605.378 64.8151 605.711 64.5859C606.044 64.3516 606.445 64.1745 606.914 64.0547C607.383 63.9349 607.906 63.875 608.484 63.875H610.164ZM616.078 67.6953L618.391 60.5469H619.867L616.828 69H615.859L616.078 67.6953ZM614.148 60.5469L616.531 67.7344L616.695 69H615.727L612.664 60.5469H614.148ZM626.117 67.5547V63.2031C626.117 62.8698 626.049 62.5807 625.914 62.3359C625.784 62.0859 625.586 61.8932 625.32 61.7578C625.055 61.6224 624.727 61.5547 624.336 61.5547C623.971 61.5547 623.651 61.6172 623.375 61.7422C623.104 61.8672 622.891 62.0312 622.734 62.2344C622.583 62.4375 622.508 62.6562 622.508 62.8906H621.062C621.062 62.5885 621.141 62.2891 621.297 61.9922C621.453 61.6953 621.677 61.4271 621.969 61.1875C622.266 60.9427 622.62 60.75 623.031 60.6094C623.448 60.4635 623.911 60.3906 624.422 60.3906C625.036 60.3906 625.578 60.4948 626.047 60.7031C626.521 60.9115 626.891 61.2266 627.156 61.6484C627.427 62.0651 627.562 62.5885 627.562 63.2188V67.1562C627.562 67.4375 627.586 67.737 627.633 68.0547C627.685 68.3724 627.76 68.6458 627.859 68.875V69H626.352C626.279 68.8333 626.221 68.612 626.18 68.3359C626.138 68.0547 626.117 67.7943 626.117 67.5547ZM626.367 63.875L626.383 64.8906H624.922C624.51 64.8906 624.143 64.9245 623.82 64.9922C623.497 65.0547 623.227 65.151 623.008 65.2812C622.789 65.4115 622.622 65.5755 622.508 65.7734C622.393 65.9661 622.336 66.1927 622.336 66.4531C622.336 66.7188 622.396 66.9609 622.516 67.1797C622.635 67.3984 622.815 67.5729 623.055 67.7031C623.299 67.8281 623.599 67.8906 623.953 67.8906C624.396 67.8906 624.786 67.7969 625.125 67.6094C625.464 67.4219 625.732 67.1927 625.93 66.9219C626.133 66.651 626.242 66.388 626.258 66.1328L626.875 66.8281C626.839 67.0469 626.74 67.2891 626.578 67.5547C626.417 67.8203 626.201 68.0755 625.93 68.3203C625.664 68.5599 625.346 68.7604 624.977 68.9219C624.612 69.0781 624.201 69.1562 623.742 69.1562C623.169 69.1562 622.667 69.0443 622.234 68.8203C621.807 68.5964 621.474 68.2969 621.234 67.9219C621 67.5417 620.883 67.1172 620.883 66.6484C620.883 66.1953 620.971 65.7969 621.148 65.4531C621.326 65.1042 621.581 64.8151 621.914 64.5859C622.247 64.3516 622.648 64.1745 623.117 64.0547C623.586 63.9349 624.109 63.875 624.688 63.875H626.367ZM634.758 66.7578C634.758 66.5495 634.711 66.3568 634.617 66.1797C634.529 65.9974 634.344 65.8333 634.062 65.6875C633.786 65.5365 633.37 65.4062 632.812 65.2969C632.344 65.1979 631.919 65.0807 631.539 64.9453C631.164 64.8099 630.844 64.6458 630.578 64.4531C630.318 64.2604 630.117 64.0339 629.977 63.7734C629.836 63.513 629.766 63.2083 629.766 62.8594C629.766 62.526 629.839 62.2109 629.984 61.9141C630.135 61.6172 630.346 61.3542 630.617 61.125C630.893 60.8958 631.224 60.7161 631.609 60.5859C631.995 60.4557 632.424 60.3906 632.898 60.3906C633.576 60.3906 634.154 60.5104 634.633 60.75C635.112 60.9896 635.479 61.3099 635.734 61.7109C635.99 62.1068 636.117 62.5469 636.117 63.0312H634.672C634.672 62.7969 634.602 62.5703 634.461 62.3516C634.326 62.1276 634.125 61.9427 633.859 61.7969C633.599 61.651 633.279 61.5781 632.898 61.5781C632.497 61.5781 632.172 61.6406 631.922 61.7656C631.677 61.8854 631.497 62.0391 631.383 62.2266C631.273 62.4141 631.219 62.612 631.219 62.8203C631.219 62.9766 631.245 63.1172 631.297 63.2422C631.354 63.362 631.453 63.474 631.594 63.5781C631.734 63.6771 631.932 63.7708 632.188 63.8594C632.443 63.9479 632.768 64.0365 633.164 64.125C633.857 64.2812 634.427 64.4688 634.875 64.6875C635.323 64.9062 635.656 65.1745 635.875 65.4922C636.094 65.8099 636.203 66.1953 636.203 66.6484C636.203 67.0182 636.125 67.3568 635.969 67.6641C635.818 67.9714 635.596 68.237 635.305 68.4609C635.018 68.6797 634.674 68.8516 634.273 68.9766C633.878 69.0964 633.432 69.1562 632.938 69.1562C632.193 69.1562 631.562 69.0234 631.047 68.7578C630.531 68.4922 630.141 68.1484 629.875 67.7266C629.609 67.3047 629.477 66.8594 629.477 66.3906H630.93C630.951 66.7865 631.065 67.1016 631.273 67.3359C631.482 67.5651 631.737 67.7292 632.039 67.8281C632.341 67.9219 632.641 67.9688 632.938 67.9688C633.333 67.9688 633.664 67.9167 633.93 67.8125C634.201 67.7083 634.406 67.5651 634.547 67.3828C634.688 67.2005 634.758 66.9922 634.758 66.7578ZM641.484 67.9688C641.828 67.9688 642.146 67.8984 642.438 67.7578C642.729 67.6172 642.969 67.4245 643.156 67.1797C643.344 66.9297 643.451 66.6458 643.477 66.3281H644.852C644.826 66.8281 644.656 67.2943 644.344 67.7266C644.036 68.1536 643.633 68.5 643.133 68.7656C642.633 69.026 642.083 69.1562 641.484 69.1562C640.849 69.1562 640.294 69.0443 639.82 68.8203C639.352 68.5964 638.961 68.2891 638.648 67.8984C638.341 67.5078 638.109 67.0599 637.953 66.5547C637.802 66.0443 637.727 65.5052 637.727 64.9375V64.6094C637.727 64.0417 637.802 63.5052 637.953 63C638.109 62.4896 638.341 62.0391 638.648 61.6484C638.961 61.2578 639.352 60.9505 639.82 60.7266C640.294 60.5026 640.849 60.3906 641.484 60.3906C642.146 60.3906 642.724 60.526 643.219 60.7969C643.714 61.0625 644.102 61.4271 644.383 61.8906C644.669 62.349 644.826 62.8698 644.852 63.4531H643.477C643.451 63.1042 643.352 62.7891 643.18 62.5078C643.013 62.2266 642.784 62.0026 642.492 61.8359C642.206 61.6641 641.87 61.5781 641.484 61.5781C641.042 61.5781 640.669 61.6667 640.367 61.8438C640.07 62.0156 639.833 62.25 639.656 62.5469C639.484 62.8385 639.359 63.1641 639.281 63.5234C639.208 63.8776 639.172 64.2396 639.172 64.6094V64.9375C639.172 65.3073 639.208 65.6719 639.281 66.0312C639.354 66.3906 639.477 66.7161 639.648 67.0078C639.826 67.2995 640.062 67.5339 640.359 67.7109C640.661 67.8828 641.036 67.9688 641.484 67.9688ZM647.922 61.875V69H646.477V60.5469H647.883L647.922 61.875ZM650.562 60.5L650.555 61.8438C650.435 61.8177 650.32 61.8021 650.211 61.7969C650.107 61.7865 649.987 61.7812 649.852 61.7812C649.518 61.7812 649.224 61.8333 648.969 61.9375C648.714 62.0417 648.497 62.1875 648.32 62.375C648.143 62.5625 648.003 62.7865 647.898 63.0469C647.799 63.3021 647.734 63.5833 647.703 63.8906L647.297 64.125C647.297 63.6146 647.346 63.1354 647.445 62.6875C647.549 62.2396 647.708 61.8438 647.922 61.5C648.135 61.151 648.406 60.8802 648.734 60.6875C649.068 60.4896 649.464 60.3906 649.922 60.3906C650.026 60.3906 650.146 60.4036 650.281 60.4297C650.417 60.4505 650.51 60.474 650.562 60.5ZM653.469 60.5469V69H652.016V60.5469H653.469ZM651.906 58.3047C651.906 58.0703 651.977 57.8724 652.117 57.7109C652.263 57.5495 652.477 57.4688 652.758 57.4688C653.034 57.4688 653.245 57.5495 653.391 57.7109C653.542 57.8724 653.617 58.0703 653.617 58.3047C653.617 58.5286 653.542 58.7214 653.391 58.8828C653.245 59.0391 653.034 59.1172 652.758 59.1172C652.477 59.1172 652.263 59.0391 652.117 58.8828C651.977 58.7214 651.906 58.5286 651.906 58.3047ZM657.234 62.1719V72.25H655.781V60.5469H657.109L657.234 62.1719ZM662.93 64.7031V64.8672C662.93 65.4818 662.857 66.0521 662.711 66.5781C662.565 67.099 662.352 67.5521 662.07 67.9375C661.794 68.3229 661.453 68.6224 661.047 68.8359C660.641 69.0495 660.174 69.1562 659.648 69.1562C659.112 69.1562 658.638 69.0677 658.227 68.8906C657.815 68.7135 657.466 68.4557 657.18 68.1172C656.893 67.7786 656.664 67.3724 656.492 66.8984C656.326 66.4245 656.211 65.8906 656.148 65.2969V64.4219C656.211 63.7969 656.328 63.237 656.5 62.7422C656.672 62.2474 656.898 61.8255 657.18 61.4766C657.466 61.1224 657.812 60.8542 658.219 60.6719C658.625 60.4844 659.094 60.3906 659.625 60.3906C660.156 60.3906 660.628 60.4948 661.039 60.7031C661.451 60.9062 661.797 61.1979 662.078 61.5781C662.359 61.9583 662.57 62.4141 662.711 62.9453C662.857 63.4714 662.93 64.0573 662.93 64.7031ZM661.477 64.8672V64.7031C661.477 64.2812 661.432 63.8854 661.344 63.5156C661.255 63.1406 661.117 62.8125 660.93 62.5312C660.747 62.2448 660.513 62.0208 660.227 61.8594C659.94 61.6927 659.599 61.6094 659.203 61.6094C658.839 61.6094 658.521 61.6719 658.25 61.7969C657.984 61.9219 657.758 62.0911 657.57 62.3047C657.383 62.513 657.229 62.7526 657.109 63.0234C656.995 63.2891 656.909 63.5651 656.852 63.8516V65.875C656.956 66.2396 657.102 66.5833 657.289 66.9062C657.477 67.224 657.727 67.4818 658.039 67.6797C658.352 67.8724 658.745 67.9688 659.219 67.9688C659.609 67.9688 659.945 67.888 660.227 67.7266C660.513 67.5599 660.747 67.3333 660.93 67.0469C661.117 66.7604 661.255 66.4323 661.344 66.0625C661.432 65.6875 661.477 65.2891 661.477 64.8672ZM668.312 60.5469V61.6562H663.742V60.5469H668.312ZM665.289 58.4922H666.734V66.9062C666.734 67.1927 666.779 67.4089 666.867 67.5547C666.956 67.7005 667.07 67.7969 667.211 67.8438C667.352 67.8906 667.503 67.9141 667.664 67.9141C667.784 67.9141 667.909 67.9036 668.039 67.8828C668.174 67.8568 668.276 67.8359 668.344 67.8203L668.352 69C668.237 69.0365 668.086 69.0703 667.898 69.1016C667.716 69.138 667.495 69.1562 667.234 69.1562C666.88 69.1562 666.555 69.0859 666.258 68.9453C665.961 68.8047 665.724 68.5703 665.547 68.2422C665.375 67.9089 665.289 67.4609 665.289 66.8984V58.4922Z" fill="white"/>
<path d="M779.312 66.5625L781.57 58.625H782.664L782.031 61.7109L779.602 70H778.516L779.312 66.5625ZM776.977 58.625L778.773 66.4062L779.312 70H778.234L775.477 58.625H776.977ZM785.586 66.3984L787.344 58.625H788.852L786.102 70H785.023L785.586 66.3984ZM782.828 58.625L785.023 66.5625L785.82 70H784.734L782.391 61.7109L781.75 58.625H782.828ZM793.562 70.1562C792.974 70.1562 792.44 70.0573 791.961 69.8594C791.487 69.6562 791.078 69.3724 790.734 69.0078C790.396 68.6432 790.135 68.2109 789.953 67.7109C789.771 67.2109 789.68 66.6641 789.68 66.0703V65.7422C789.68 65.0547 789.781 64.4427 789.984 63.9062C790.188 63.3646 790.464 62.9062 790.812 62.5312C791.161 62.1562 791.557 61.8724 792 61.6797C792.443 61.487 792.901 61.3906 793.375 61.3906C793.979 61.3906 794.5 61.4948 794.938 61.7031C795.38 61.9115 795.742 62.2031 796.023 62.5781C796.305 62.9479 796.513 63.3854 796.648 63.8906C796.784 64.3906 796.852 64.9375 796.852 65.5312V66.1797H790.539V65H795.406V64.8906C795.385 64.5156 795.307 64.151 795.172 63.7969C795.042 63.4427 794.833 63.151 794.547 62.9219C794.26 62.6927 793.87 62.5781 793.375 62.5781C793.047 62.5781 792.745 62.6484 792.469 62.7891C792.193 62.9245 791.956 63.1276 791.758 63.3984C791.56 63.6693 791.406 64 791.297 64.3906C791.188 64.7812 791.133 65.2318 791.133 65.7422V66.0703C791.133 66.4714 791.188 66.849 791.297 67.2031C791.411 67.5521 791.576 67.8594 791.789 68.125C792.008 68.3906 792.271 68.599 792.578 68.75C792.891 68.901 793.245 68.9766 793.641 68.9766C794.151 68.9766 794.583 68.8724 794.938 68.6641C795.292 68.4557 795.602 68.1771 795.867 67.8281L796.742 68.5234C796.56 68.7995 796.328 69.0625 796.047 69.3125C795.766 69.5625 795.419 69.7656 795.008 69.9219C794.602 70.0781 794.12 70.1562 793.562 70.1562ZM798.531 58H799.984V68.3594L799.859 70H798.531V58ZM805.695 65.7031V65.8672C805.695 66.4818 805.622 67.0521 805.477 67.5781C805.331 68.099 805.117 68.5521 804.836 68.9375C804.555 69.3229 804.211 69.6224 803.805 69.8359C803.398 70.0495 802.932 70.1562 802.406 70.1562C801.87 70.1562 801.398 70.0651 800.992 69.8828C800.591 69.6953 800.253 69.4271 799.977 69.0781C799.701 68.7292 799.479 68.3073 799.312 67.8125C799.151 67.3177 799.039 66.7604 798.977 66.1406V65.4219C799.039 64.7969 799.151 64.237 799.312 63.7422C799.479 63.2474 799.701 62.8255 799.977 62.4766C800.253 62.1224 800.591 61.8542 800.992 61.6719C801.393 61.4844 801.859 61.3906 802.391 61.3906C802.922 61.3906 803.393 61.4948 803.805 61.7031C804.216 61.9062 804.56 62.1979 804.836 62.5781C805.117 62.9583 805.331 63.4141 805.477 63.9453C805.622 64.4714 805.695 65.0573 805.695 65.7031ZM804.242 65.8672V65.7031C804.242 65.2812 804.203 64.8854 804.125 64.5156C804.047 64.1406 803.922 63.8125 803.75 63.5312C803.578 63.2448 803.352 63.0208 803.07 62.8594C802.789 62.6927 802.443 62.6094 802.031 62.6094C801.667 62.6094 801.349 62.6719 801.078 62.7969C800.812 62.9219 800.586 63.0911 800.398 63.3047C800.211 63.513 800.057 63.7526 799.938 64.0234C799.823 64.2891 799.737 64.5651 799.68 64.8516V66.7344C799.763 67.099 799.898 67.4505 800.086 67.7891C800.279 68.1224 800.534 68.3958 800.852 68.6094C801.174 68.8229 801.573 68.9297 802.047 68.9297C802.438 68.9297 802.771 68.8516 803.047 68.6953C803.328 68.5339 803.555 68.3125 803.727 68.0312C803.904 67.75 804.034 67.4245 804.117 67.0547C804.201 66.6849 804.242 66.2891 804.242 65.8672ZM816.148 64.3359V68.5C816.008 68.7083 815.784 68.9427 815.477 69.2031C815.169 69.4583 814.745 69.6823 814.203 69.875C813.667 70.0625 812.974 70.1562 812.125 70.1562C811.432 70.1562 810.794 70.0365 810.211 69.7969C809.633 69.5521 809.13 69.1979 808.703 68.7344C808.281 68.2656 807.953 67.6979 807.719 67.0312C807.49 66.3594 807.375 65.599 807.375 64.75V63.8672C807.375 63.0182 807.474 62.2604 807.672 61.5938C807.875 60.9271 808.172 60.362 808.562 59.8984C808.953 59.4297 809.432 59.0755 810 58.8359C810.568 58.5911 811.219 58.4688 811.953 58.4688C812.823 58.4688 813.549 58.6198 814.133 58.9219C814.721 59.2188 815.18 59.6302 815.508 60.1562C815.841 60.6823 816.055 61.2812 816.148 61.9531H814.641C814.573 61.5417 814.438 61.1667 814.234 60.8281C814.036 60.4896 813.753 60.2188 813.383 60.0156C813.013 59.8073 812.536 59.7031 811.953 59.7031C811.427 59.7031 810.971 59.7995 810.586 59.9922C810.201 60.1849 809.883 60.4609 809.633 60.8203C809.383 61.1797 809.195 61.6146 809.07 62.125C808.951 62.6354 808.891 63.2109 808.891 63.8516V64.75C808.891 65.4062 808.966 65.9922 809.117 66.5078C809.273 67.0234 809.495 67.4635 809.781 67.8281C810.068 68.1875 810.409 68.4609 810.805 68.6484C811.206 68.8359 811.648 68.9297 812.133 68.9297C812.669 68.9297 813.104 68.8854 813.438 68.7969C813.771 68.7031 814.031 68.5938 814.219 68.4688C814.406 68.3385 814.549 68.2161 814.648 68.1016V65.5547H812.016V64.3359H816.148ZM825.547 68.7734V70H819.859V68.7734H825.547ZM820.156 58.625V70H818.648V58.625H820.156Z" fill="white"/>
<path d="M788.439 14C777.699 14 769 18.92 769 25C769 31.07 777.699 36 788.439 36C795.419 36 801.531 33.7999 804.961 30.6699C801.831 32.5399 797.14 33.5996 791.9 33.5996C782.47 33.5996 774.83 29.75 774.83 25C774.83 23.5618 775.541 22.2089 776.779 21.0176L779.09 29.8105H780.68L782.918 21.8555L785.131 29.8105H786.725L789.479 19.6836H787.686L785.893 27.4531L783.727 19.6836H782.082L779.922 27.4531L778.174 19.9023C781.282 17.7816 786.264 16.4004 791.9 16.4004C797.16 16.4004 801.87 17.4794 805 19.3594C801.58 16.2094 795.449 14 788.439 14ZM807.09 20.2207C806.377 20.2207 805.738 20.3476 805.17 20.5996C804.602 20.8526 804.122 21.2005 803.732 21.6445C803.342 22.0885 803.044 22.6091 802.836 23.2051C802.628 23.8021 802.523 24.4505 802.523 25.1465C802.523 25.8255 802.63 26.4589 802.838 27.0469C803.046 27.6349 803.343 28.147 803.734 28.582C804.125 29.018 804.605 29.3594 805.174 29.6074C805.743 29.8554 806.384 29.9805 807.096 29.9805C807.547 29.9805 807.993 29.8862 808.436 29.6992C808.879 29.5122 809.282 29.1848 809.648 28.7148L809.857 29.7695H811.154V24.7363H807.254V26.2676H809.311C809.25 26.9176 809.034 27.4158 808.664 27.7578C808.294 28.1008 807.772 28.2715 807.094 28.2715C806.633 28.2715 806.241 28.1829 805.92 28.0039C805.599 27.8249 805.339 27.587 805.139 27.291C804.939 26.995 804.792 26.663 804.701 26.293C804.61 25.923 804.564 25.5404 804.564 25.1484C804.564 24.7394 804.61 24.3439 804.701 23.9609C804.792 23.5769 804.937 23.2365 805.137 22.9355C805.336 22.6355 805.597 22.3958 805.918 22.2168C806.239 22.0378 806.63 21.9492 807.09 21.9492C807.584 21.9492 808.006 22.0788 808.354 22.3398C808.701 22.6008 808.935 22.9927 809.057 23.5137H811.01C810.958 22.9837 810.812 22.5125 810.578 22.1035C810.344 21.6945 810.048 21.3513 809.688 21.0723C809.327 20.7933 808.924 20.5815 808.477 20.4375C808.03 20.2935 807.567 20.2207 807.09 20.2207ZM812.43 20.4551V29.7637H819V28.0352H814.469V20.4551H812.43ZM795.496 20.6074V29.8105H796.748V29.1855C796.858 29.3295 796.999 29.4812 797.186 29.6152C797.543 29.8712 797.982 30 798.494 30C799.044 30 799.534 29.8768 799.951 29.6348C800.323 29.4188 800.64 29.1089 800.889 28.7109C801.107 28.3639 801.272 27.9531 801.381 27.4941C801.475 27.0971 801.523 26.6633 801.523 26.2383C801.522 25.7683 801.459 25.3259 801.332 24.9199C801.204 24.5109 801.014 24.1497 800.771 23.8477C800.519 23.5357 800.215 23.294 799.865 23.127C799.499 22.953 799.089 22.8633 798.646 22.8633H798.645C798.236 22.8703 797.862 22.9599 797.535 23.1289C797.265 23.2689 797.022 23.4648 796.812 23.7148V20.6074H795.496ZM791.736 22.8613C791.192 22.8613 790.702 22.9593 790.279 23.1543C789.878 23.3393 789.538 23.6119 789.264 23.9629C788.757 24.6129 788.488 25.5293 788.488 26.6113C788.488 27.0933 788.556 27.5441 788.691 27.9531C788.826 28.3651 789.026 28.7283 789.285 29.0293C789.829 29.6623 790.604 29.9961 791.527 29.9961C792.012 29.9961 792.409 29.9458 792.738 29.8418C793.026 29.7508 793.216 29.6333 793.373 29.5293C793.575 29.3963 793.762 29.233 793.926 29.043C794.065 28.882 794.189 28.7018 794.295 28.5078C794.484 28.1608 794.575 27.8361 794.596 27.6641L794.609 27.5508H793.287L793.281 27.6445C793.248 28.0745 792.685 28.8418 791.682 28.8418C790.247 28.8418 789.905 27.8037 789.883 26.8887H794.686V26.7852C794.686 26.1952 794.625 25.6575 794.506 25.1855C794.383 24.7015 794.198 24.2843 793.957 23.9453C793.708 23.5943 793.397 23.3246 793.031 23.1426C792.655 22.9556 792.219 22.8613 791.736 22.8613ZM791.586 24.0547C792.65 24.0547 793.218 24.6276 793.322 25.8066H789.883C789.933 24.8476 790.693 24.0547 791.586 24.0547ZM798.443 24.0586C799.156 24.0586 799.632 24.3371 799.9 24.9121C800.12 25.3881 800.15 25.9651 800.15 26.4141C800.15 27.1371 800.005 27.7411 799.73 28.1641C799.438 28.6151 799.013 28.8438 798.469 28.8438C797.682 28.8438 796.762 28.2923 796.762 26.7383C796.762 25.9943 796.854 25.4223 797.043 24.9883C797.316 24.3623 797.773 24.0586 798.443 24.0586Z" fill="white"/>
<path d="M934.1 6.30005L936.8 36.9001L949.4 40.5001L962 36.9001C962.9 26.703 963.8 16.497 964.7 6.30005H934.1ZM956.384 31.5L949.391 33.3L942.407 31.5L942.056 27H945.53L945.692 28.8L949.4 29.358L953.153 28.8L953.522 24.3H941.831L942.695 13.5H956.6L957.23 18.9H953.9L953.693 17.1H946.169L945.881 20.7H957.275L956.384 31.5Z" fill="white"/>
<path d="M938.75 63.5156V64.7422H932.594V63.5156H938.75ZM932.828 58.625V70H931.32V58.625H932.828ZM940.062 58.625V70H938.562V58.625H940.062ZM946.711 58.625V70H945.227V58.625H946.711ZM950.367 58.625V59.8594H941.578V58.625H950.367ZM952.531 58.625H953.992L957.719 67.8984L961.438 58.625H962.906L958.281 70H957.141L952.531 58.625ZM952.055 58.625H953.344L953.555 65.5625V70H952.055V58.625ZM962.086 58.625H963.375V70H961.875V65.5625L962.086 58.625ZM972.922 68.7734V70H967.234V68.7734H972.922ZM967.531 58.625V70H966.023V58.625H967.531Z" fill="white"/>
<path d="M1096.5 2.80005C1085.09 2.80005 1075.8 12.0862 1075.8 23.5C1075.8 34.9138 1085.09 44.2 1096.5 44.2C1107.91 44.2 1117.2 34.9138 1117.2 23.5C1117.2 12.0862 1107.91 2.80005 1096.5 2.80005ZM1101.58 9.10181C1105.02 9.04457 1107.86 10.2968 1108.45 12.6227C1109.3 15.95 1106.41 19.9289 1102.72 21.359C1099.41 22.6361 1096.68 22.4355 1095.56 22.0674C1094.29 21.6489 1093.54 20.8068 1093.36 20.3325C1093.29 20.1462 1093.16 19.8358 1093.36 19.7278C1093.48 19.6612 1093.52 19.6764 1093.84 20.0301C1094.15 20.3658 1095.37 21.2685 1097.7 21.0075C1103.8 20.3235 1107.48 15.5794 1106.32 13.027C1105.5 11.2405 1100.8 10.4359 1094.92 13.3645C1087.75 16.9402 1087.36 19.8879 1087.3 21.0075C1087.13 24.0864 1091.1 25.706 1093.24 27.9965C1093.29 28.0505 1093.34 28.1051 1093.39 28.16C1094.04 27.9179 1094.94 27.7818 1096.37 27.7575C1099.84 27.6981 1101.8 29.9859 1101.72 32.0325C1101.66 33.6444 1100.18 34.3086 1099.9 34.3545C1099.71 34.3887 1099.6 34.3951 1099.57 34.2385C1099.55 34.1305 1099.62 34.0802 1099.85 33.9344C1100.09 33.7895 1100.79 33.3107 1100.91 32.4368C1101.04 31.5638 1100.38 29.4761 1097.04 29.0864C1095.86 28.9478 1094.93 29.0419 1094.13 29.2534C1094.71 30.5305 1094.82 33.1003 1093.49 35.0893C1092.1 37.1503 1089.53 38.4024 1087.03 37.7049C1086.22 37.4799 1085 35.8101 1086.05 33.4809C1087.05 31.2732 1091.32 29.1133 1091.9 28.8262V28.8157C1089.92 27.1138 1085.11 24.8198 1084.43 21.3098C1084.24 20.3153 1084.71 17.933 1087.63 15.1979C1090.09 12.8975 1093.51 11.1364 1096.67 10.0141C1098.33 9.42461 1100.02 9.12782 1101.58 9.10181ZM1092.72 29.8651C1092.66 29.8975 1092.6 29.9294 1092.54 29.96L1092.55 29.967C1092.55 29.9661 1090.56 30.904 1089.18 32.3629C1087.9 33.7192 1087.54 35.4215 1088.26 35.8364C1088.92 36.2207 1090.46 35.7653 1091.57 34.5584C1091.93 34.1624 1092.23 33.7333 1092.45 33.2752C1092.5 33.1834 1092.54 33.0911 1092.57 32.9975C1092.61 32.9039 1092.65 32.809 1092.68 32.7127C1092.97 31.8469 1093 30.8902 1092.72 29.8651Z" fill="white"/>
<path d="M1084.38 66.125C1084.38 65.8594 1084.34 65.625 1084.26 65.4219C1084.18 65.2135 1084.04 65.026 1083.84 64.8594C1083.64 64.6927 1083.36 64.5339 1083.01 64.3828C1082.66 64.2318 1082.22 64.0781 1081.68 63.9219C1081.12 63.7552 1080.61 63.5703 1080.16 63.3672C1079.7 63.1589 1079.32 62.9219 1078.99 62.6562C1078.67 62.3906 1078.42 62.0859 1078.25 61.7422C1078.08 61.3984 1077.99 61.0052 1077.99 60.5625C1077.99 60.1198 1078.08 59.7109 1078.27 59.3359C1078.45 58.9609 1078.71 58.6354 1079.05 58.3594C1079.39 58.0781 1079.8 57.8594 1080.27 57.7031C1080.75 57.5469 1081.28 57.4688 1081.86 57.4688C1082.71 57.4688 1083.44 57.6328 1084.03 57.9609C1084.63 58.2839 1085.09 58.7083 1085.4 59.2344C1085.71 59.7552 1085.87 60.3125 1085.87 60.9062H1084.37C1084.37 60.4792 1084.28 60.1016 1084.09 59.7734C1083.91 59.4401 1083.64 59.1797 1083.27 58.9922C1082.9 58.7995 1082.43 58.7031 1081.86 58.7031C1081.32 58.7031 1080.88 58.7839 1080.53 58.9453C1080.18 59.1068 1079.92 59.3255 1079.75 59.6016C1079.58 59.8776 1079.5 60.1927 1079.5 60.5469C1079.5 60.7865 1079.55 61.0052 1079.65 61.2031C1079.75 61.3958 1079.91 61.5755 1080.12 61.7422C1080.34 61.9089 1080.62 62.0625 1080.95 62.2031C1081.29 62.3438 1081.7 62.4792 1082.16 62.6094C1082.81 62.7917 1083.37 62.9948 1083.84 63.2188C1084.3 63.4427 1084.69 63.6953 1084.99 63.9766C1085.3 64.2526 1085.53 64.5677 1085.67 64.9219C1085.82 65.2708 1085.9 65.6667 1085.9 66.1094C1085.9 66.5729 1085.8 66.9922 1085.62 67.3672C1085.43 67.7422 1085.16 68.0625 1084.81 68.3281C1084.46 68.5938 1084.04 68.7995 1083.55 68.9453C1083.07 69.0859 1082.53 69.1562 1081.93 69.1562C1081.4 69.1562 1080.89 69.0833 1080.38 68.9375C1079.87 68.7917 1079.41 68.5729 1078.99 68.2812C1078.58 67.9896 1078.25 67.6302 1078 67.2031C1077.76 66.7708 1077.63 66.2708 1077.63 65.7031H1079.13C1079.13 66.0938 1079.21 66.4297 1079.36 66.7109C1079.51 66.987 1079.72 67.2161 1079.98 67.3984C1080.24 67.5807 1080.54 67.7161 1080.88 67.8047C1081.21 67.888 1081.57 67.9297 1081.93 67.9297C1082.46 67.9297 1082.9 67.8568 1083.27 67.7109C1083.63 67.5651 1083.91 67.3568 1084.09 67.0859C1084.29 66.8151 1084.38 66.4948 1084.38 66.125ZM1092.03 58.6328L1088.27 69H1086.73L1091.06 57.625H1092.05L1092.03 58.6328ZM1095.19 69L1091.41 58.6328L1091.39 57.625H1092.38L1096.73 69H1095.19ZM1094.99 64.7891V66.0234H1088.6V64.7891H1094.99ZM1104.32 66.125C1104.32 65.8594 1104.28 65.625 1104.2 65.4219C1104.12 65.2135 1103.98 65.026 1103.77 64.8594C1103.58 64.6927 1103.3 64.5339 1102.95 64.3828C1102.6 64.2318 1102.15 64.0781 1101.62 63.9219C1101.05 63.7552 1100.55 63.5703 1100.09 63.3672C1099.64 63.1589 1099.25 62.9219 1098.93 62.6562C1098.61 62.3906 1098.36 62.0859 1098.19 61.7422C1098.02 61.3984 1097.93 61.0052 1097.93 60.5625C1097.93 60.1198 1098.02 59.7109 1098.2 59.3359C1098.39 58.9609 1098.65 58.6354 1098.98 58.3594C1099.33 58.0781 1099.74 57.8594 1100.21 57.7031C1100.68 57.5469 1101.21 57.4688 1101.8 57.4688C1102.65 57.4688 1103.38 57.6328 1103.97 57.9609C1104.57 58.2839 1105.02 58.7083 1105.34 59.2344C1105.65 59.7552 1105.8 60.3125 1105.8 60.9062H1104.3C1104.3 60.4792 1104.21 60.1016 1104.03 59.7734C1103.85 59.4401 1103.57 59.1797 1103.2 58.9922C1102.83 58.7995 1102.36 58.7031 1101.8 58.7031C1101.26 58.7031 1100.82 58.7839 1100.47 58.9453C1100.12 59.1068 1099.86 59.3255 1099.69 59.6016C1099.52 59.8776 1099.44 60.1927 1099.44 60.5469C1099.44 60.7865 1099.49 61.0052 1099.59 61.2031C1099.69 61.3958 1099.85 61.5755 1100.06 61.7422C1100.28 61.9089 1100.56 62.0625 1100.89 62.2031C1101.23 62.3438 1101.63 62.4792 1102.1 62.6094C1102.75 62.7917 1103.3 62.9948 1103.77 63.2188C1104.24 63.4427 1104.63 63.6953 1104.93 63.9766C1105.24 64.2526 1105.46 64.5677 1105.61 64.9219C1105.76 65.2708 1105.84 65.6667 1105.84 66.1094C1105.84 66.5729 1105.74 66.9922 1105.55 67.3672C1105.37 67.7422 1105.1 68.0625 1104.75 68.3281C1104.4 68.5938 1103.98 68.7995 1103.49 68.9453C1103.01 69.0859 1102.47 69.1562 1101.87 69.1562C1101.34 69.1562 1100.82 69.0833 1100.31 68.9375C1099.81 68.7917 1099.35 68.5729 1098.93 68.2812C1098.52 67.9896 1098.19 67.6302 1097.94 67.2031C1097.69 66.7708 1097.57 66.2708 1097.57 65.7031H1099.07C1099.07 66.0938 1099.15 66.4297 1099.3 66.7109C1099.45 66.987 1099.65 67.2161 1099.91 67.3984C1100.18 67.5807 1100.48 67.7161 1100.81 67.8047C1101.15 67.888 1101.5 67.9297 1101.87 67.9297C1102.39 67.9297 1102.84 67.8568 1103.2 67.7109C1103.57 67.5651 1103.84 67.3568 1104.03 67.0859C1104.22 66.8151 1104.32 66.4948 1104.32 66.125ZM1113.82 66.125C1113.82 65.8594 1113.78 65.625 1113.7 65.4219C1113.62 65.2135 1113.48 65.026 1113.27 64.8594C1113.08 64.6927 1112.8 64.5339 1112.45 64.3828C1112.1 64.2318 1111.65 64.0781 1111.12 63.9219C1110.55 63.7552 1110.05 63.5703 1109.59 63.3672C1109.14 63.1589 1108.75 62.9219 1108.43 62.6562C1108.11 62.3906 1107.86 62.0859 1107.69 61.7422C1107.52 61.3984 1107.43 61.0052 1107.43 60.5625C1107.43 60.1198 1107.52 59.7109 1107.7 59.3359C1107.89 58.9609 1108.15 58.6354 1108.48 58.3594C1108.83 58.0781 1109.24 57.8594 1109.71 57.7031C1110.18 57.5469 1110.71 57.4688 1111.3 57.4688C1112.15 57.4688 1112.88 57.6328 1113.47 57.9609C1114.07 58.2839 1114.52 58.7083 1114.84 59.2344C1115.15 59.7552 1115.3 60.3125 1115.3 60.9062H1113.8C1113.8 60.4792 1113.71 60.1016 1113.53 59.7734C1113.35 59.4401 1113.07 59.1797 1112.7 58.9922C1112.33 58.7995 1111.86 58.7031 1111.3 58.7031C1110.76 58.7031 1110.32 58.7839 1109.97 58.9453C1109.62 59.1068 1109.36 59.3255 1109.19 59.6016C1109.02 59.8776 1108.94 60.1927 1108.94 60.5469C1108.94 60.7865 1108.99 61.0052 1109.09 61.2031C1109.19 61.3958 1109.35 61.5755 1109.56 61.7422C1109.78 61.9089 1110.06 62.0625 1110.39 62.2031C1110.73 62.3438 1111.13 62.4792 1111.6 62.6094C1112.25 62.7917 1112.8 62.9948 1113.27 63.2188C1113.74 63.4427 1114.13 63.6953 1114.43 63.9766C1114.74 64.2526 1114.96 64.5677 1115.11 64.9219C1115.26 65.2708 1115.34 65.6667 1115.34 66.1094C1115.34 66.5729 1115.24 66.9922 1115.05 67.3672C1114.87 67.7422 1114.6 68.0625 1114.25 68.3281C1113.9 68.5938 1113.48 68.7995 1112.99 68.9453C1112.51 69.0859 1111.97 69.1562 1111.37 69.1562C1110.84 69.1562 1110.32 69.0833 1109.81 68.9375C1109.31 68.7917 1108.85 68.5729 1108.43 68.2812C1108.02 67.9896 1107.69 67.6302 1107.44 67.2031C1107.19 66.7708 1107.07 66.2708 1107.07 65.7031H1108.57C1108.57 66.0938 1108.65 66.4297 1108.8 66.7109C1108.95 66.987 1109.15 67.2161 1109.41 67.3984C1109.68 67.5807 1109.98 67.7161 1110.31 67.8047C1110.65 67.888 1111 67.9297 1111.37 67.9297C1111.89 67.9297 1112.34 67.8568 1112.7 67.7109C1113.07 67.5651 1113.34 67.3568 1113.53 67.0859C1113.72 66.8151 1113.82 66.4948 1113.82 66.125Z" fill="white"/>
</svg>
