<svg width="57" height="56" fill="none" xmlns="http://www.w3.org/2000/svg"><circle cx="24" cy="24" r="24" fill="#E8ECFE"/><g clip-path="url(#clip0_1928_2469)"><path d="M18.34 17.208v18.37a8 8 0 003.562 6.656l10.438 6.96 10.438-6.96a8 8 0 003.562-6.654V17.208l-14-3.108-14 3.108zm-2.434-3.556L32.34 10l16.434 3.652a2 2 0 011.566 1.952v19.974a11.998 11.998 0 01-5.344 9.984L32.34 54l-12.656-8.438a12 12 0 01-5.344-9.982V15.604a2 2 0 011.566-1.952zM32.34 35l-5.878 3.09 1.122-6.544-4.754-4.636 6.572-.956L32.34 20l2.94 5.954 6.57.956-4.754 4.636 1.12 6.544L32.34 35z" fill="#6C57DB"/></g><defs><clipPath id="clip0_1928_2469"><path fill="#fff" transform="translate(8.34 8)" d="M0 0h48v48H0z"/></clipPath></defs></svg>