<svg width="57" height="56" fill="none" xmlns="http://www.w3.org/2000/svg"><circle cx="24" cy="24" r="24" fill="#E8ECFE"/><g clip-path="url(#clip0_1941_2520)"><path d="M41.361 35a13.976 13.976 0 005.34-11h4a17.974 17.974 0 01-7.324 14.492l5.056 8.756a4 4 0 01-1.464 5.464l-7.053-12.216A17.94 17.94 0 0132.702 42a17.94 17.94 0 01-7.214-1.504l-7.055 12.216a4 4 0 01-1.463-5.464l10.126-17.54A8.004 8.004 0 0130.7 16.252V12h4v4.252a8.004 8.004 0 013.606 13.456L41.361 35zm-3.46 2.004l-3.056-5.294a8.007 8.007 0 01-4.284 0l-3.055 5.294a13.98 13.98 0 005.197.996c1.836 0 3.59-.354 5.198-.996zM32.701 28a4 4 0 100-8 4 4 0 000 8z" fill="#6C57DB"/></g><defs><clipPath id="clip0_1941_2520"><path fill="#fff" transform="translate(8.701 8)" d="M0 0h48v48H0z"/></clipPath></defs></svg>