<svg xmlns="http://www.w3.org/2000/svg" viewBox="0 0 73.36 73.36"><defs><style>.cls-1{fill:none;stroke:#000;stroke-miterlimit:10;stroke-width:3px;}</style></defs><g id="Layer_2" data-name="Layer 2"><g id="Layer_1-2" data-name="Layer 1"><path class="cls-1" d="M36.68,1.5a4.39,4.39,0,0,1,4.39,4.4v4.39h4.4a4.41,4.41,0,0,1,3.12,7.52l-8.8,8.79a4.39,4.39,0,0,1-6.22,0l-8.79-8.79a4.41,4.41,0,0,1,3.12-7.52h4.39V5.9a4.39,4.39,0,0,1,4.4-4.4Z"/><path class="cls-1" d="M24.78,55.55l8.79-8.79a4.39,4.39,0,0,1,6.22,0l8.8,8.79a4.41,4.41,0,0,1-3.12,7.52h-4.4v4.4a4.4,4.4,0,0,1-8.79,0V63.06h-4.4a4.41,4.41,0,0,1-3.12-7.52Z"/><path class="cls-1" d="M5.9,32.28h4.39v-4.4a4.41,4.41,0,0,1,7.52-3.12l8.79,8.8a4.39,4.39,0,0,1,0,6.22l-8.79,8.79a4.41,4.41,0,0,1-7.52-3.11V41.07H5.9a4.4,4.4,0,1,1,0-8.79Z"/><path class="cls-1" d="M46.76,39.78a4.39,4.39,0,0,1,0-6.22l8.79-8.8a4.41,4.41,0,0,1,7.52,3.12v4.4h4.4a4.4,4.4,0,0,1,0,8.79H63.06v4.4a4.41,4.41,0,0,1-7.52,3.12l-8.79-8.8Z"/><circle class="cls-1" cx="36.68" cy="36.68" r="4.4"/></g></g></svg>