<svg id="Layer_1" data-name="Layer 1" xmlns="http://www.w3.org/2000/svg" viewBox="0 0 80 74.53"><defs><style>.cls-1{fill:none;stroke:#000;stroke-miterlimit:10;stroke-width:2.88px;}</style></defs><path class="cls-1" d="M53.28,51.41c1.93-1.11,2.42-4.15,4-5.72s4.61-2.06,5.73-4,0-4.78.6-7,2.83-4,2.83-6.32-2.39-4.22-3-6.33.5-5.05-.6-6.95-4.16-2.43-5.73-4-2.06-4.6-4-5.72-4.78,0-6.95-.6c-2-.57-3.93-3-6.21-3s-4.22,2.39-6.32,2.95-5.05-.49-7,.61-2.42,4.15-4,5.72-4.6,2.06-5.72,4,0,4.78-.61,6.95-2.95,4.05-2.95,6.34,2.39,4.22,2.95,6.32-.5,5,.6,6.95,4.16,2.42,5.73,4,2.06,4.6,4,5.72,4.78,0,7,.61S37.72,55,40,55s4.22-2.39,6.33-2.95S51.37,52.52,53.28,51.41Zm-24.34-23A11.07,11.07,0,1,1,40,39.48,11.05,11.05,0,0,1,28.94,28.42ZM13.69,61.77a3.31,3.31,0,0,0,3.73,4.48L23.67,65l3,5.85a3.29,3.29,0,0,0,3,1.82h.14a3.32,3.32,0,0,0,2.94-2.06l4.64-11.35A30.84,30.84,0,0,1,18.2,50.41ZM61.8,50.42a30.88,30.88,0,0,1-19.11,8.84l4.64,11.35a3.27,3.27,0,0,0,2.94,2.06c0-.13,0,0,.15,0a3.28,3.28,0,0,0,2.95-1.82l3-5.84,6.25,1.24a3.31,3.31,0,0,0,3.73-4.48Z"/></svg>