<svg id="Layer_1" data-name="Layer 1" xmlns="http://www.w3.org/2000/svg" viewBox="0 0 80 74.53"><defs><style>.cls-1{fill:none;stroke:#000;stroke-miterlimit:10;stroke-width:3px;}</style></defs><rect class="cls-1" x="11.84" y="32.77" width="8.62" height="8.62" rx="2.16"/><rect class="cls-1" x="24.77" y="32.77" width="8.62" height="8.62" rx="2.16"/><rect class="cls-1" x="11.84" y="15.53" width="8.62" height="8.62" rx="2.16"/><rect class="cls-1" x="24.77" y="15.53" width="8.62" height="8.62" rx="2.16"/><rect class="cls-1" x="37.71" y="15.53" width="8.62" height="8.62" rx="2.16"/><path d="M39.65,42.81a3.44,3.44,0,0,1-3.44-3.58V34.92a3.66,3.66,0,0,1,3.65-3.65h4.31a3.66,3.66,0,0,1,3.66,3.65v.84l-3,1.08V34.92a.66.66,0,0,0-.66-.65H39.86a.66.66,0,0,0-.65.65v4.31c0,.58.57.58.69.58Z"/><path class="cls-1" d="M60.22,38.15a2.41,2.41,0,0,1,1.79,0L74.06,43a2.44,2.44,0,0,1,1.52,2.24C75.58,51.57,73,62.16,62,66.72a2.4,2.4,0,0,1-1.86,0C49.25,62.16,46.65,51.57,46.65,45.21A2.42,2.42,0,0,1,48.17,43l12-4.82Z"/><path class="cls-1" d="M70.69,46.82,61.11,43V61.85C68,58.54,70.3,51.91,70.69,46.82Z"/><path class="cls-1" d="M35.4,71.72l12.08.06a7.36,7.36,0,0,0,6.38-3.61c-9.57-7-12-18.24-12-25.44a3.25,3.25,0,0,1,2-3l11-4.39V9.21a6.46,6.46,0,0,0-6.47-6.46H9.54A6.46,6.46,0,0,0,3.08,9.21v56a6.47,6.47,0,0,0,6.46,6.47H22.47V60.94a6.46,6.46,0,0,1,6.58-6.46,6.52,6.52,0,0,1,6.35,6.57Z"/><line class="cls-1" x1="22.47" y1="71.72" x2="35.4" y2="71.72"/></svg>