<svg id="Layer_1" data-name="Layer 1" xmlns="http://www.w3.org/2000/svg" viewBox="0 0 80 74.53"><defs><style>.cls-1{fill:none;stroke:#000;stroke-miterlimit:10;stroke-width:3px;}</style></defs><path class="cls-1" d="M11.93,58.32a2.35,2.35,0,0,0,2.34,2.34H72.75a4.68,4.68,0,0,1,0,9.35H14.27A11.69,11.69,0,0,1,2.58,58.32V9.2a4.68,4.68,0,1,1,9.35,0Z"/><path class="cls-1" d="M52.66,40.57a4.67,4.67,0,0,1-6.61,0l-8.39-8.38L24.59,45.25A4.67,4.67,0,0,1,18,38.64L34.36,22.27a4.65,4.65,0,0,1,6.6,0l8.4,8.37,15.4-15.39a4.67,4.67,0,0,1,6.61,6.61Z"/></svg>