<svg id="Layer_1" data-name="Layer 1" xmlns="http://www.w3.org/2000/svg" viewBox="0 0 80 74.53"><path d="M26.72,1.86a4.43,4.43,0,0,1,4.43,4.43v4.42h17.7V6.29a4.43,4.43,0,1,1,8.85,0v4.42h6.64A6.65,6.65,0,0,1,71,17.35V24H9V17.35a6.65,6.65,0,0,1,6.64-6.64H22.3V6.29A4.42,4.42,0,0,1,26.72,1.86ZM9,28.42H71V66a6.64,6.64,0,0,1-6.64,6.64H15.66A6.64,6.64,0,0,1,9,66Zm8.85,11.06v4.43a2.23,2.23,0,0,0,2.22,2.21h4.42a2.22,2.22,0,0,0,2.21-2.21V39.48a2.21,2.21,0,0,0-2.21-2.21H20.09A2.22,2.22,0,0,0,17.87,39.48Zm17.7,0v4.43a2.23,2.23,0,0,0,2.22,2.21h4.42a2.23,2.23,0,0,0,2.22-2.21V39.48a2.22,2.22,0,0,0-2.22-2.21H37.79A2.22,2.22,0,0,0,35.57,39.48Zm19.92-2.21a2.21,2.21,0,0,0-2.21,2.21v4.43a2.22,2.22,0,0,0,2.21,2.21h4.42a2.23,2.23,0,0,0,2.22-2.21V39.48a2.22,2.22,0,0,0-2.22-2.21ZM17.87,57.18v4.43a2.23,2.23,0,0,0,2.22,2.21h4.42a2.22,2.22,0,0,0,2.21-2.21V57.18A2.21,2.21,0,0,0,24.51,55H20.09A2.22,2.22,0,0,0,17.87,57.18ZM37.79,55a2.22,2.22,0,0,0-2.22,2.21v4.43a2.23,2.23,0,0,0,2.22,2.21h4.42a2.23,2.23,0,0,0,2.22-2.21V57.18A2.22,2.22,0,0,0,42.21,55Zm15.49,2.21v4.43a2.22,2.22,0,0,0,2.21,2.21h4.42a2.23,2.23,0,0,0,2.22-2.21V57.18A2.22,2.22,0,0,0,59.91,55H55.49A2.21,2.21,0,0,0,53.28,57.18Z"/></svg>