<svg id="Layer_1" data-name="Layer 1" xmlns="http://www.w3.org/2000/svg" viewBox="0 0 80 74.53"><defs><style>.cls-1{fill:none;stroke:#000;stroke-miterlimit:10;stroke-width:2.96px;}</style></defs><circle class="cls-1" cx="17.27" cy="21.62" r="8.43"/><path class="cls-1" d="M2.09,42.69a8.44,8.44,0,0,1,8.43-8.43H23.17a8.38,8.38,0,0,1,4.4,1.24,16.94,16.94,0,0,0-10,11.41H6.31a4.22,4.22,0,0,1-4.22-4.22Z"/><path class="cls-1" d="M52.65,35.4a8.32,8.32,0,0,1,4.23-1.14H69.53A8.43,8.43,0,0,1,78,42.69a4.21,4.21,0,0,1-4.21,4.22H62.89A17.18,17.18,0,0,0,52.65,35.4Z"/><path class="cls-1" d="M49.4,38.79a12.68,12.68,0,0,1,9.08,8.12,12.49,12.49,0,0,1,.72,4.21A4.2,4.2,0,0,1,55,55.33H25.48a4.2,4.2,0,0,1-4.21-4.21A12.49,12.49,0,0,1,22,46.91a12.66,12.66,0,0,1,8.7-8,12,12,0,0,1,3.22-.41H46.56A12.68,12.68,0,0,1,49.4,38.79Z"/><circle class="cls-1" cx="63.63" cy="21.62" r="8.43"/><circle class="cls-1" cx="40.24" cy="23.73" r="10.54"/><rect x="0.7" y="64.67" width="78.68" height="3.23" rx="1.61"/></svg>