<svg id="Layer_1" data-name="Layer 1" xmlns="http://www.w3.org/2000/svg" viewBox="0 0 80 74.53"><defs><style>.cls-1{fill:none;stroke:#000;stroke-miterlimit:10;stroke-width:3px;}</style></defs><path class="cls-1" d="M40.14,4.57a2.14,2.14,0,0,1,2.19-2.26A30.59,30.59,0,0,1,72.92,32.9a2.22,2.22,0,0,1-2.27,2.18H40.14Z"/><path class="cls-1" d="M3,39.45A32.8,32.8,0,0,1,31.14,7a2.12,2.12,0,0,1,2.45,2.1V41.64L55,63a2.07,2.07,0,0,1-.21,3.17A32.78,32.78,0,0,1,3,39.45Z"/><path class="cls-1" d="M74.88,41.64A2.08,2.08,0,0,1,77,44a32.76,32.76,0,0,1-10.1,19.43A2.19,2.19,0,0,1,64,63.31L42.33,41.64Z"/></svg>