<svg id="Layer_1" data-name="Layer 1" xmlns="http://www.w3.org/2000/svg" viewBox="0 0 80 74.53"><defs><style>.cls-1{fill:none;stroke:#000;stroke-miterlimit:10;stroke-width:3px;}</style></defs><path class="cls-1" d="M77.66,44A20.17,20.17,0,0,1,57.48,64.17H56.14a5.38,5.38,0,0,1,0-10.76h1.34A9.42,9.42,0,0,0,66.9,44V42.65H56.14A10.77,10.77,0,0,1,45.38,31.89V21.13A10.76,10.76,0,0,1,56.14,10.37H66.9A10.77,10.77,0,0,1,77.66,21.13V44Zm-43,0A20.17,20.17,0,0,1,14.45,64.17H13.1a5.38,5.38,0,0,1,0-10.76h1.35A9.42,9.42,0,0,0,23.86,44V42.65H13.1A10.78,10.78,0,0,1,2.34,31.89V21.13A10.77,10.77,0,0,1,13.1,10.37H23.86A10.76,10.76,0,0,1,34.62,21.13V44Z"/></svg>