<svg xmlns="http://www.w3.org/2000/svg" viewBox="0 0 263.45 263.45"><defs><style>.cls-1{fill:#fff;}</style></defs><g id="Layer_2" data-name="Layer 2"><g id="Layer_1-2" data-name="Layer 1"><circle cx="131.72" cy="131.72" r="131.72"/><path class="cls-1" d="M98.92,131.72a32.81,32.81,0,1,1,32.81,32.81A32.8,32.8,0,0,1,98.92,131.72Zm32.81,20.51a20.51,20.51,0,0,0,0-41H131a10.12,10.12,0,0,1,.75,4.1,16.42,16.42,0,0,1-16.41,16.4,10.28,10.28,0,0,1-4.1-.74v.51a20.56,20.56,0,0,0,20.51,20.74ZM82.37,95C94.44,83.76,111,74.32,131.73,74.32S169,83.76,181.09,95s20,24.22,23.81,33.6a8.22,8.22,0,0,1,0,6.31c-3.8,9.15-11.82,22.24-23.81,33.59s-28.66,20.66-49.36,20.66-37.29-9.43-49.36-20.66-20-24.44-23.82-33.59a8.22,8.22,0,0,1,0-6.31c3.81-9.38,11.83-22.48,23.82-33.6Zm49.36-8.35c-16.71,0-30.45,7.58-41,17.35a88.31,88.31,0,0,0-20.16,27.75,91.1,91.1,0,0,0,20.16,27.76c10.53,9.76,24.27,17.35,41,17.35s30.44-7.59,41-17.35a95.65,95.65,0,0,0,20.17-27.76A92.57,92.57,0,0,0,172.71,104c-10.54-9.77-24.27-17.35-41-17.35Z"/></g></g></svg>