<svg xmlns="http://www.w3.org/2000/svg" viewBox="0 0 263.44 263.44"><defs><style>.cls-1{fill:#fff;}</style></defs><g id="Layer_2" data-name="Layer 2"><g id="Layer_1-2" data-name="Layer 1"><circle cx="131.72" cy="131.72" r="131.72"/><path class="cls-1" d="M102.46,73.2a7.32,7.32,0,1,0,0,14.63h11.59l-46,46a7.32,7.32,0,1,0,10.35,10.35l46-46v11.59a7.32,7.32,0,1,0,14.63,0V80.51a7.31,7.31,0,0,0-7.31-7.31Zm95.1,18.28a11,11,0,1,0-11,11A11,11,0,0,0,197.56,91.48Zm-29.27,29.27a11,11,0,1,0-11,11A11,11,0,0,0,168.29,120.75Zm-11,40.23a11,11,0,1,0-11-11A11,11,0,0,0,157.32,161Zm11,18.29a11,11,0,1,0-11,11A11,11,0,0,0,168.29,179.27Zm29.27,0a11,11,0,1,0-11,11A11,11,0,0,0,197.56,179.27ZM128.06,161a11,11,0,1,0-11-11A11,11,0,0,0,128.06,161Zm11,18.29a11,11,0,1,0-11,11A11,11,0,0,0,139,179.27Zm-40.23,11a11,11,0,1,0-11-11A11,11,0,0,0,98.8,190.24ZM197.56,150a11,11,0,1,0-11,11A11,11,0,0,0,197.56,150Zm-11-18.29a11,11,0,1,0-11-11A11,11,0,0,0,186.58,131.72Z"/></g></g></svg>