<svg xmlns="http://www.w3.org/2000/svg" viewBox="0 0 263.45 263.45"><defs><style>.cls-1{fill:#fff;}</style></defs><g id="Layer_2" data-name="Layer 2"><g id="Layer_1-2" data-name="Layer 1"><circle cx="131.72" cy="131.72" r="131.72"/><path class="cls-1" d="M187.29,76.17a8,8,0,0,0-13.57-5.63L162.9,81.38A63.5,63.5,0,0,1,118,100H84.1a15.89,15.89,0,0,0-15.88,15.87v23.82A15.89,15.89,0,0,0,84.1,155.54v31.75A7.92,7.92,0,0,0,92,195.23h15.88a7.93,7.93,0,0,0,7.94-7.94V155.54H118a63.47,63.47,0,0,1,44.89,18.61L173.72,185a8,8,0,0,0,13.57-5.63V142.74c4.61-2.18,7.94-8.06,7.94-15s-3.33-12.8-7.94-15Zm-15.88,19v65.14A79.33,79.33,0,0,0,118,139.67h-2.16V115.85H118A79.33,79.33,0,0,0,171.41,95.19Z"/></g></g></svg>