<svg id="Layer_1" data-name="Layer 1" xmlns="http://www.w3.org/2000/svg" viewBox="0 0 175 50"><defs><style>.cls-1{fill:none;}</style></defs><path d="M38.8963,40V18.1818h14.446v3.8033H43.5092V27.184h8.8743v3.8032H43.5092V40Z"/><path d="M56.36,40V23.6364h4.5384V40Zm2.28-18.473a2.4658,2.4658,0,0,1-1.7365-.6712,2.176,2.176,0,0,1-.7137-1.63,2.1313,2.1313,0,0,1,.7137-1.6087,2.4445,2.4445,0,0,1,1.7365-.6818,2.4076,2.4076,0,0,1,1.7259.6818,2.1174,2.1174,0,0,1,.7244,1.6087,2.1614,2.1614,0,0,1-.7244,1.63A2.4283,2.4283,0,0,1,58.64,21.527Z"/><path d="M69.0721,30.54V40H64.5337V23.6364H68.859v2.887h.1918a4.5649,4.5649,0,0,1,1.8217-2.2585,5.513,5.513,0,0,1,3.1-.8416,5.7557,5.7557,0,0,1,2.9723.7457A5.0692,5.0692,0,0,1,78.9158,26.3a7.1241,7.1241,0,0,1,.7032,3.2813V40H75.0806V30.3906a3.2869,3.2869,0,0,0-.767-2.3437,2.7537,2.7537,0,0,0-2.1414-.8523,3.2549,3.2549,0,0,0-1.6193.3942,2.7471,2.7471,0,0,0-1.0866,1.1505A3.9871,3.9871,0,0,0,69.0721,30.54Z"/><path d="M87.862,40.309a6.8194,6.8194,0,0,1-2.7911-.5434,4.4937,4.4937,0,0,1-1.939-1.63,4.8842,4.8842,0,0,1-.7031-2.706,4.7706,4.7706,0,0,1,.5007-2.29,4.0548,4.0548,0,0,1,1.3637-1.4915,6.611,6.611,0,0,1,1.96-.8522,14.9461,14.9461,0,0,1,2.3224-.4049q1.4276-.1491,2.3012-.277a3.2617,3.2617,0,0,0,1.2677-.4048.89.89,0,0,0,.3942-.7883v-.064a1.9609,1.9609,0,0,0-.6392-1.566,2.6214,2.6214,0,0,0-1.79-.554,3.1757,3.1757,0,0,0-1.95.5433,2.5,2.5,0,0,0-.9588,1.3424l-4.1974-.3409a5.704,5.704,0,0,1,1.2571-2.5782A6.0329,6.0329,0,0,1,86.68,24.02a9.2484,9.2484,0,0,1,3.4517-.5966,10.4681,10.4681,0,0,1,2.61.32,6.8279,6.8279,0,0,1,2.2266.9908A4.8146,4.8146,0,0,1,96.5126,26.46a5.1939,5.1939,0,0,1,.5646,2.5036V40H92.7733V37.7308h-.1279a4.6169,4.6169,0,0,1-1.0547,1.353,4.882,4.882,0,0,1-1.5873.9056A6.564,6.564,0,0,1,87.862,40.309Zm1.3-3.1322a3.8152,3.8152,0,0,0,1.7684-.3941,3.1325,3.1325,0,0,0,1.2039-1.0867,2.8015,2.8015,0,0,0,.4368-1.5447V32.4148a2.4365,2.4365,0,0,1-.586.2557q-.3623.1065-.82.2024-.4581.0852-.9162.16-.4581.0639-.831.1172a5.6173,5.6173,0,0,0-1.3956.3728,2.2323,2.2323,0,0,0-.9268.6925,1.6868,1.6868,0,0,0-.33,1.0653,1.6465,1.6465,0,0,0,.6712,1.4169A2.93,2.93,0,0,0,89.1618,37.1768Z"/><path d="M105.137,30.54V40h-4.539V23.6364h4.325v2.887h.192a4.566,4.566,0,0,1,1.822-2.2585,5.5128,5.5128,0,0,1,3.1-.8416,5.7548,5.7548,0,0,1,2.972.7457A5.06,5.06,0,0,1,114.98,26.3a7.1216,7.1216,0,0,1,.703,3.2813V40h-4.538V30.3906a3.2891,3.2891,0,0,0-.767-2.3437,2.7522,2.7522,0,0,0-2.141-.8523,3.2576,3.2576,0,0,0-1.62.3942,2.7513,2.7513,0,0,0-1.086,1.1505A3.9819,3.9819,0,0,0,105.137,30.54Z"/><path d="M126.654,40.32a8.387,8.387,0,0,1-4.326-1.0653,7.2,7.2,0,0,1-2.769-2.983,9.6331,9.6331,0,0,1-.959-4.3892,9.5664,9.5664,0,0,1,.969-4.4105,7.2019,7.2019,0,0,1,2.781-2.9723,8.194,8.194,0,0,1,4.282-1.076,8.52,8.52,0,0,1,3.75.7777,6.2672,6.2672,0,0,1,2.547,2.1839,6.4188,6.4188,0,0,1,1.033,3.3026h-4.283a3.3052,3.3052,0,0,0-.958-1.9709,2.7462,2.7462,0,0,0-2.014-.7564,3.044,3.044,0,0,0-1.843.5753,3.6623,3.6623,0,0,0-1.214,1.6513,7.0436,7.0436,0,0,0-.437,2.6314,7.3757,7.3757,0,0,0,.426,2.6633,3.69,3.69,0,0,0,1.225,1.6726,3.044,3.044,0,0,0,1.843.5753,2.9956,2.9956,0,0,0,1.396-.32,2.696,2.696,0,0,0,1.033-.9268,3.5453,3.5453,0,0,0,.543-1.4809h4.283a6.7046,6.7046,0,0,1-1.023,3.3026,6.1742,6.1742,0,0,1-2.503,2.2159A8.3666,8.3666,0,0,1,126.654,40.32Z"/><path d="M136.868,40V23.6364h4.538V40Zm2.28-18.473a2.4665,2.4665,0,0,1-1.737-.6712,2.1755,2.1755,0,0,1-.714-1.63,2.1309,2.1309,0,0,1,.714-1.6087,2.4452,2.4452,0,0,1,1.737-.6818,2.4054,2.4054,0,0,1,1.725.6818,2.1176,2.1176,0,0,1,.725,1.6087,2.1616,2.1616,0,0,1-.725,1.63A2.426,2.426,0,0,1,139.148,21.527Z"/><path d="M152.435,40.32a8.3807,8.3807,0,0,1-4.293-1.0547,7.2174,7.2174,0,0,1-2.781-2.9616,9.5468,9.5468,0,0,1-.98-4.4212,9.53,9.53,0,0,1,.98-4.4318,7.1326,7.1326,0,0,1,2.781-2.9617,9.1626,9.1626,0,0,1,8.576,0,7.1179,7.1179,0,0,1,2.791,2.9617,9.53,9.53,0,0,1,.98,4.4318,9.5468,9.5468,0,0,1-.98,4.4212,7.2021,7.2021,0,0,1-2.791,2.9616A8.3278,8.3278,0,0,1,152.435,40.32Zm.021-3.5156a2.8212,2.8212,0,0,0,1.886-.6392,3.97,3.97,0,0,0,1.14-1.7685,8.424,8.424,0,0,0,0-5.0923,3.97,3.97,0,0,0-1.14-1.7685,2.792,2.792,0,0,0-1.886-.65,2.8874,2.8874,0,0,0-1.917.65,3.9948,3.9948,0,0,0-1.162,1.7685,8.6548,8.6548,0,0,0,0,5.0923,3.9954,3.9954,0,0,0,1.162,1.7685A2.9181,2.9181,0,0,0,152.456,36.804Z"/><rect x="14" y="24" width="4" height="16"/><rect x="21" y="20" width="4" height="20"/><rect x="28" y="16" width="4" height="24"/><rect class="cls-1" width="175" height="50"/></svg>