<svg xmlns="http://www.w3.org/2000/svg" viewBox="0 0 175 50"><defs><style>.cls-1{fill:none;}</style></defs><g id="Layer_2" data-name="Layer 2"><g id="Layer_1-2" data-name="Layer 1"><path d="M67.36,17V39.6883H63V17Z"/><path d="M75.8584,26.4275V39.6883H71.6727v-16.86h3.9321ZM75.1925,30.65H73.9558a10.9507,10.9507,0,0,1,.5074-3.3347,7.8267,7.8267,0,0,1,1.3794-2.5711,6.1854,6.1854,0,0,1,2.14-1.6518,6.45,6.45,0,0,1,2.7588-.5765,6.8559,6.8559,0,0,1,2.2355.3428A4.2239,4.2239,0,0,1,84.69,23.95a4.8186,4.8186,0,0,1,1.11,1.9634,9.5369,9.5369,0,0,1,.3964,2.9607V39.6883H81.9785V28.8428A3.9837,3.9837,0,0,0,81.63,27.02a1.93,1.93,0,0,0-.983-.9505,3.8813,3.8813,0,0,0-1.57-.28,3.5477,3.5477,0,0,0-1.6965.39,3.49,3.49,0,0,0-1.205,1.044,5.101,5.101,0,0,0-.7293,1.5427A6.73,6.73,0,0,0,75.1925,30.65Z"/><path d="M98.0079,22.8279v2.9607h-9.83V22.8279ZM90.81,18.6829h4.2016V34.8266a2.5976,2.5976,0,0,0,.2061,1.1531,1.0568,1.0568,0,0,0,.6184.5454,3.0633,3.0633,0,0,0,.983.14,5.7586,5.7586,0,0,0,.761-.0467q.3489-.0468.5867-.0935l.0158,3.0853a7.9744,7.9744,0,0,1-1.1891.2805A8.9747,8.9747,0,0,1,95.5187,40a6.0942,6.0942,0,0,1-2.4734-.4675A3.51,3.51,0,0,1,91.3964,37.99a5.9156,5.9156,0,0,1-.5867-2.836Z"/><path d="M104.984,26.2717V39.6883h-4.186v-16.86h3.964Zm5.216-3.5529-.063,3.8334a7.5356,7.5356,0,0,0-.793-.0935c-.285-.0208-.555-.0312-.808-.0312a4.9628,4.9628,0,0,0-1.697.2649,3.1824,3.1824,0,0,0-1.221.7324,3.2226,3.2226,0,0,0-.729,1.1843,5,5,0,0,0-.285,1.5582l-.904-.109a12.5961,12.5961,0,0,1,.333-2.9763,8.2468,8.2468,0,0,1,.967-2.4,4.6069,4.6069,0,0,1,1.586-1.5894,4.2463,4.2463,0,0,1,2.219-.5765,4.7943,4.7943,0,0,1,.745.0623A2.6474,2.6474,0,0,1,110.2,22.7188Z"/><path d="M121.41,36.1043V28.3286a3.3689,3.3689,0,0,0-.301-1.48,2.1588,2.1588,0,0,0-.92-.9661,3.21,3.21,0,0,0-1.57-.3428,3.6158,3.6158,0,0,0-1.474.2805,2.1647,2.1647,0,0,0-.951.7947,2.0276,2.0276,0,0,0-.333,1.1531h-4.202a4.0916,4.0916,0,0,1,.507-1.979,5.334,5.334,0,0,1,1.443-1.6829,7.1465,7.1465,0,0,1,2.268-1.1687,9.8622,9.8622,0,0,1,2.98-.4207,8.7212,8.7212,0,0,1,3.473.6544,5.265,5.265,0,0,1,2.41,1.9323,5.6321,5.6321,0,0,1,.887,3.2568v7.355a12.7048,12.7048,0,0,0,.159,2.166,5.8965,5.8965,0,0,0,.507,1.5426v.2649h-4.265a6.0986,6.0986,0,0,1-.459-1.62A12.4588,12.4588,0,0,1,121.41,36.1043Zm.587-6.6849.031,2.4465h-2.647a6.6245,6.6245,0,0,0-1.729.2025,3.2327,3.2327,0,0,0-1.221.561,2.2852,2.2852,0,0,0-.713.8726,2.6053,2.6053,0,0,0-.238,1.1376,2.2107,2.2107,0,0,0,.286,1.1219,2.1577,2.1577,0,0,0,.856.7947,2.9828,2.9828,0,0,0,1.332.2805,4.08,4.08,0,0,0,1.934-.4363,3.78,3.78,0,0,0,1.284-1.0908,2.3284,2.3284,0,0,0,.492-1.2154l1.205,1.7764a6.9187,6.9187,0,0,1-.666,1.3557,6.1382,6.1382,0,0,1-1.142,1.34,5.83,5.83,0,0,1-1.68,1.0285A5.9664,5.9664,0,0,1,117.097,40a6.6024,6.6024,0,0,1-2.98-.6545,5.2482,5.2482,0,0,1-2.077-1.792,4.54,4.54,0,0,1-.761-2.5867,5.2911,5.2911,0,0,1,.507-2.3686,4.56,4.56,0,0,1,1.506-1.73,7.064,7.064,0,0,1,2.474-1.0752,14.0461,14.0461,0,0,1,3.408-.374Z"/><path d="M136.441,36.7588a3.55,3.55,0,0,0,1.585-.3428,2.766,2.766,0,0,0,1.11-.9661,2.6881,2.6881,0,0,0,.46-1.4492h3.948a5.4043,5.4043,0,0,1-.983,3.07,6.7079,6.7079,0,0,1-2.537,2.15,7.8112,7.8112,0,0,1-3.52.7791,8.4583,8.4583,0,0,1-3.456-.6545,6.7188,6.7188,0,0,1-2.458-1.8231,8.0276,8.0276,0,0,1-1.459-2.7114,11.1588,11.1588,0,0,1-.475-3.3035v-.4987a11.1578,11.1578,0,0,1,.475-3.3035,8.0257,8.0257,0,0,1,1.459-2.7114,6.719,6.719,0,0,1,2.458-1.8232,8.4131,8.4131,0,0,1,3.44-.6544,7.9723,7.9723,0,0,1,3.647.7947,5.9665,5.9665,0,0,1,2.473,2.2439,6.525,6.525,0,0,1,.936,3.4126h-3.948a3.6792,3.6792,0,0,0-.413-1.6206,2.9916,2.9916,0,0,0-1.078-1.1531,3.135,3.135,0,0,0-1.696-.4363,3.35,3.35,0,0,0-1.776.4363,3.0285,3.0285,0,0,0-1.094,1.2,5.8452,5.8452,0,0,0-.539,1.683,12.609,12.609,0,0,0-.143,1.9322v.4987A13.0252,13.0252,0,0,0,133,33.4709a5.8445,5.8445,0,0,0,.539,1.6829,3.0858,3.0858,0,0,0,1.094,1.1687A3.4153,3.4153,0,0,0,136.441,36.7588Z"/><path d="M154.04,40a9.3443,9.3443,0,0,1-3.504-.6233,7.7,7.7,0,0,1-2.648-1.73,7.9291,7.9291,0,0,1-1.665-2.6023,8.94,8.94,0,0,1-.571-3.21v-.6233a10.42,10.42,0,0,1,.571-3.5373,8.0926,8.0926,0,0,1,1.617-2.7581,7.121,7.121,0,0,1,2.505-1.7764,8.1119,8.1119,0,0,1,3.219-.6233,7.9983,7.9983,0,0,1,3.219.6077,6.2119,6.2119,0,0,1,2.33,1.6829,7.2921,7.2921,0,0,1,1.411,2.6179,11.1274,11.1274,0,0,1,.476,3.35v1.73H147.555v-2.836h9.323V29.357a4.8806,4.8806,0,0,0-.381-1.792,2.8718,2.8718,0,0,0-1.078-1.3089,3.2766,3.2766,0,0,0-1.887-.4986,3.1949,3.1949,0,0,0-1.633.4051,3.2477,3.2477,0,0,0-1.141,1.122,5.5054,5.5054,0,0,0-.666,1.714,10.2015,10.2015,0,0,0-.222,2.2128v.6233a6.4976,6.4976,0,0,0,.285,1.9634,4.6926,4.6926,0,0,0,.872,1.5739A4.2454,4.2454,0,0,0,152.422,36.4a4.6543,4.6543,0,0,0,1.871.3584,5.5333,5.5333,0,0,0,2.379-.4986,5.2787,5.2787,0,0,0,1.87-1.5116l2.109,2.15a6.9183,6.9183,0,0,1-1.458,1.4959,7.4976,7.4976,0,0,1-2.188,1.1687A9.2153,9.2153,0,0,1,154.04,40Z"/><rect x="19" y="22" width="5" height="18"/><rect x="38" y="22" width="5" height="18"/><path d="M31,10,48,23H14Z"/><rect class="cls-1" width="175" height="50"/></g></g></svg>