<svg id="Layer_1" data-name="Layer 1" xmlns="http://www.w3.org/2000/svg" viewBox="0 0 175 50"><defs><style>.cls-1{fill:none;}</style></defs><path d="M4,26,23,12V40H4Z"/><path d="M30,18h8.3629a11.803,11.803,0,0,1,4.42.7453,6.1091,6.1091,0,0,1,2.8646,2.2059,6.2038,6.2038,0,0,1,1.0011,3.5922,6.724,6.724,0,0,1-.616,2.9959,5.6471,5.6471,0,0,1-1.71,2.0718,8.9724,8.9724,0,0,1-2.572,1.3117l-1.4631.7452H33.0187L32.9879,28.18h5.4058a4.3422,4.3422,0,0,0,2.0176-.4173A2.7824,2.7824,0,0,0,41.6126,26.6a3.49,3.49,0,0,0,.4158-1.729,3.82,3.82,0,0,0-.4-1.8035,2.6617,2.6617,0,0,0-1.2167-1.1627,4.62,4.62,0,0,0-2.0484-.4024H34.62V39.7019H30ZM42.5367,39.7019l-5.1133-9.6734,4.8822-.03,5.1749,9.4946v.2087Z"/><path d="M57.5991,40a9.5813,9.5813,0,0,1-3.4807-.5962A7.6642,7.6642,0,0,1,51.5,37.72,7.4587,7.4587,0,0,1,49.8677,35.23a8.1423,8.1423,0,0,1-.57-3.0407v-.5962a9.9757,9.9757,0,0,1,.5391-3.3537,7.8242,7.8242,0,0,1,1.54-2.6382,6.7648,6.7648,0,0,1,2.4642-1.7141,8.3231,8.3231,0,0,1,3.2651-.6111,8.171,8.171,0,0,1,3.1419.5664,6.1521,6.1521,0,0,1,2.2948,1.61,6.8831,6.8831,0,0,1,1.4169,2.504,10.2285,10.2285,0,0,1,.4774,3.22v1.7886H51.1922V30.103h8.8865v-.3279A3.6177,3.6177,0,0,0,59.74,28.18a2.5553,2.5553,0,0,0-.9857-1.1328A3.129,3.129,0,0,0,57.06,26.63a2.7878,2.7878,0,0,0-2.5412,1.416,5.5609,5.5609,0,0,0-.5853,1.58,9.7368,9.7368,0,0,0-.1848,1.9675V32.19a5.5519,5.5519,0,0,0,.2772,1.7886,4.3211,4.3211,0,0,0,.8163,1.416,3.72,3.72,0,0,0,1.2937.9241,4.4033,4.4033,0,0,0,1.74.3279,5.5552,5.5552,0,0,0,2.2331-.4471,4.8128,4.8128,0,0,0,1.802-1.3862l2.1562,2.2656A6.4567,6.4567,0,0,1,62.6354,38.48a7.7408,7.7408,0,0,1-2.1562,1.103A9.1662,9.1662,0,0,1,57.5991,40Z"/><path d="M71.3063,27.0176V39.7019H66.8707V23.5745h4.1584Zm-.6469,4.0542H69.4581a10.14,10.14,0,0,1,.4775-3.2195,7.2561,7.2561,0,0,1,1.34-2.4593,5.7308,5.7308,0,0,1,2.0484-1.5651,6.3491,6.3491,0,0,1,2.68-.5515,6.654,6.654,0,0,1,2.1408.3279,4.1119,4.1119,0,0,1,1.6633,1.0434,4.5884,4.5884,0,0,1,1.0781,1.893,9.3385,9.3385,0,0,1,.385,2.8766V39.7019H76.8046v-10.3a3.6938,3.6938,0,0,0-.3081-1.6693,1.707,1.707,0,0,0-.9086-.8347A3.6464,3.6464,0,0,0,74.14,26.645a3.3406,3.3406,0,0,0-1.5555.3428,3.0575,3.0575,0,0,0-1.0781.9539,4.43,4.43,0,0,0-.6314,1.4011A6.6585,6.6585,0,0,0,70.6594,31.0718Z"/><path d="M83.9354,31.8022v-.313a9.7876,9.7876,0,0,1,.5236-3.2643,7.4936,7.4936,0,0,1,1.5247-2.6084,6.83,6.83,0,0,1,2.4642-1.7141,8.47,8.47,0,0,1,3.3575-.626,8.5826,8.5826,0,0,1,3.3729.626,6.8022,6.8022,0,0,1,2.48,1.7141,7.3694,7.3694,0,0,1,1.54,2.6084,9.7876,9.7876,0,0,1,.5237,3.2643v.313a9.8713,9.8713,0,0,1-.5237,3.2642,7.5477,7.5477,0,0,1-1.54,2.6084,6.83,6.83,0,0,1-2.4642,1.7141A8.65,8.65,0,0,1,91.8362,40a8.7661,8.7661,0,0,1-3.3729-.6111,6.98,6.98,0,0,1-2.48-1.7141,7.6779,7.6779,0,0,1-1.5247-2.6084A9.8713,9.8713,0,0,1,83.9354,31.8022Zm4.4355-.313v.313a9.1983,9.1983,0,0,0,.1848,1.8929,5.0138,5.0138,0,0,0,.5853,1.55,3.0064,3.0064,0,0,0,1.0781,1.0284,3.2533,3.2533,0,0,0,1.6171.3726,3.1863,3.1863,0,0,0,1.5864-.3726,2.8844,2.8844,0,0,0,1.0627-1.0284,5.0137,5.0137,0,0,0,.5852-1.55,8.514,8.514,0,0,0,.2-1.8929v-.313a8.1754,8.1754,0,0,0-.2-1.8483,4.7809,4.7809,0,0,0-.6007-1.55,2.9305,2.9305,0,0,0-1.0626-1.0732,3.0955,3.0955,0,0,0-4.2662,1.0732,5.0132,5.0132,0,0,0-.5853,1.55A8.8314,8.8314,0,0,0,88.3709,31.4892Z"/><path d="M107.869,36.5718l3.696-12.9973h4.636L110.58,39.7019h-2.803Zm-2.541-12.9973,3.711,13.0122.077,3.1152h-2.818l-5.621-16.1274Z"/><path d="M126.936,36.065V28.8808a3.0649,3.0649,0,0,0-.262-1.3266,1.9142,1.9142,0,0,0-.816-.8794,2.773,2.773,0,0,0-1.402-.313,2.9778,2.9778,0,0,0-1.278.2534,1.836,1.836,0,0,0-.832.7,1.8893,1.8893,0,0,0-.292,1.0583h-4.436a4.0861,4.0861,0,0,1,.493-1.9526,4.91,4.91,0,0,1,1.432-1.6247,7.16,7.16,0,0,1,2.233-1.1178,9.944,9.944,0,0,1,2.927-.4025,8.9378,8.9378,0,0,1,3.449.626,5.2349,5.2349,0,0,1,2.372,1.8781,5.3152,5.3152,0,0,1,.878,3.13v6.9011a11.4537,11.4537,0,0,0,.17,2.1761,5.6259,5.6259,0,0,0,.492,1.4607v.2534h-4.481a6.0392,6.0392,0,0,1-.493-1.64A13.0435,13.0435,0,0,1,126.936,36.065Zm.585-6.1856.031,2.43h-2.48a5.3345,5.3345,0,0,0-1.524.1938,2.862,2.862,0,0,0-1.063.5515,2.1342,2.1342,0,0,0-.616.8049,2.7092,2.7092,0,0,0-.185,1.0135,1.9355,1.9355,0,0,0,.262.9987,1.84,1.84,0,0,0,.754.6856,2.6281,2.6281,0,0,0,1.156.2385,3.7,3.7,0,0,0,1.74-.3875,3.1522,3.1522,0,0,0,1.14-.954,1.9431,1.9431,0,0,0,.431-1.0731l1.17,1.8184a7.2867,7.2867,0,0,1-.677,1.2669,6,6,0,0,1-1.063,1.2372,5.51,5.51,0,0,1-1.556.939A5.8719,5.8719,0,0,1,122.885,40a6.6622,6.6622,0,0,1-2.88-.6111,5.2037,5.2037,0,0,1-2.033-1.7141,4.3927,4.3927,0,0,1-.739-2.5041,4.9522,4.9522,0,0,1,.493-2.2506,4.4229,4.4229,0,0,1,1.448-1.6545,6.8994,6.8994,0,0,1,2.418-1.0285,14.0779,14.0779,0,0,1,3.357-.3577Z"/><path d="M142.984,23.5745v3.0407h-9.703V23.5745Zm-7.3-3.98h4.435V34.8428a2.4825,2.4825,0,0,0,.185,1.0732,1.1,1.1,0,0,0,.585.5217,2.9912,2.9912,0,0,0,.971.1341q.4155,0,.739-.03.339-.0447.57-.0894l.015,3.16a8.5643,8.5643,0,0,1-1.232.2832A9.4383,9.4383,0,0,1,140.489,40a6.5335,6.5335,0,0,1-2.557-.4621,3.4778,3.4778,0,0,1-1.663-1.52,5.5886,5.5886,0,0,1-.585-2.7425Z"/><path d="M153.18,40a9.5825,9.5825,0,0,1-3.481-.5962,7.6537,7.6537,0,0,1-2.618-1.6843,7.4524,7.4524,0,0,1-1.633-2.4891,8.14,8.14,0,0,1-.57-3.0407v-.5962a9.9858,9.9858,0,0,1,.539-3.3537,7.8421,7.8421,0,0,1,1.54-2.6382,6.7711,6.7711,0,0,1,2.465-1.7141,8.32,8.32,0,0,1,3.265-.6111,8.1711,8.1711,0,0,1,3.142.5664,6.1547,6.1547,0,0,1,2.294,1.61,6.8689,6.8689,0,0,1,1.417,2.504,10.2081,10.2081,0,0,1,.478,3.22v1.7886H146.773V30.103h8.886v-.3279a3.6164,3.6164,0,0,0-.339-1.5949,2.5531,2.5531,0,0,0-.985-1.1328,3.132,3.132,0,0,0-1.694-.4173,2.7882,2.7882,0,0,0-2.542,1.416,5.5971,5.5971,0,0,0-.585,1.58,9.7507,9.7507,0,0,0-.185,1.9675V32.19a5.5464,5.5464,0,0,0,.278,1.7886,4.32,4.32,0,0,0,.816,1.416,3.715,3.715,0,0,0,1.293.9241,4.408,4.408,0,0,0,1.741.3279,5.5544,5.5544,0,0,0,2.233-.4471,4.8136,4.8136,0,0,0,1.802-1.3862l2.156,2.2656a6.4462,6.4462,0,0,1-1.432,1.4011,7.7437,7.7437,0,0,1-2.156,1.103A9.166,9.166,0,0,1,153.18,40Z"/><path d="M166.979,27.0921v12.61h-4.435V23.5745h4.173ZM172,23.47l-.077,3.98c-.216-.03-.477-.0547-.785-.0746q-.447-.0447-.817-.0447a5.0227,5.0227,0,0,0-1.632.2385,2.73,2.73,0,0,0-1.818,1.7588,5.198,5.198,0,0,0-.246,1.4607l-.893-.2683a11.9906,11.9906,0,0,1,.323-2.8767,7.8122,7.8122,0,0,1,.94-2.31,4.6237,4.6237,0,0,1,1.54-1.52,4.01,4.01,0,0,1,2.079-.5366,4.9452,4.9452,0,0,1,.755.06A2.8606,2.8606,0,0,1,172,23.47Z"/><rect class="cls-1" width="175" height="50"/></svg>