<svg id="Layer_1" data-name="Layer 1" xmlns="http://www.w3.org/2000/svg" viewBox="0 0 175 50"><defs><style>.cls-1{fill-rule:evenodd;}.cls-2{fill:none;}</style></defs><path class="cls-1" d="M5,14V40H31V26.1508L18.8492,14Zm18.0919,0L31,21.9081V14Z"/><path d="M52.0078,33.4189a2.8219,2.8219,0,0,0-.1758-1.0253,1.9374,1.9374,0,0,0-.6152-.85,5.4535,5.4535,0,0,0-1.2744-.7763,18.0114,18.0114,0,0,0-2.124-.791,26.8846,26.8846,0,0,1-2.7539-1.0547A11.3228,11.3228,0,0,1,42.7793,27.56a6.1385,6.1385,0,0,1-1.5527-1.8311,5.3983,5.3983,0,0,1,.0293-4.834,5.5633,5.5633,0,0,1,1.6406-1.875,7.7932,7.7932,0,0,1,2.49-1.2158,11.274,11.274,0,0,1,3.1787-.4248,9.36,9.36,0,0,1,4.1162.85,6.59,6.59,0,0,1,2.7246,2.3291,5.9808,5.9808,0,0,1,.9815,3.3838H52.0225a3.2911,3.2911,0,0,0-.3955-1.6406,2.6761,2.6761,0,0,0-1.1719-1.1279,4.1771,4.1771,0,0,0-1.9629-.41,4.5425,4.5425,0,0,0-1.9043.3516,2.54,2.54,0,0,0-1.1426.9228,2.2717,2.2717,0,0,0-.3808,1.2891,1.8706,1.8706,0,0,0,.2636.9814,2.9707,2.9707,0,0,0,.82.82,7.3031,7.3031,0,0,0,1.333.7178,19.2629,19.2629,0,0,0,1.8311.6592,19.4782,19.4782,0,0,1,3.0615,1.1865,9.49,9.49,0,0,1,2.2266,1.4795,5.5017,5.5017,0,0,1,1.3476,1.86,5.838,5.838,0,0,1,.4541,2.3584,5.5549,5.5549,0,0,1-.5419,2.49,5.1159,5.1159,0,0,1-1.5674,1.86,7.3753,7.3753,0,0,1-2.4463,1.1573,11.8532,11.8532,0,0,1-3.1787.3955,12.06,12.06,0,0,1-3.12-.41A9.4762,9.4762,0,0,1,42.75,37.6084a6.4238,6.4238,0,0,1-1.9922-2.168,6.2261,6.2261,0,0,1-.7471-3.12H44.42a4.1222,4.1222,0,0,0,.3076,1.6846,2.8151,2.8151,0,0,0,.8643,1.1133,3.7129,3.7129,0,0,0,1.3477.6152,7.3774,7.3774,0,0,0,1.7285.19,4.686,4.686,0,0,0,1.875-.3222,2.2905,2.2905,0,0,0,1.4648-2.1827ZM66.8906,23.15v2.9883H57.6621V23.15Zm-6.9433-3.9111H64.166V34.2246a2.5081,2.5081,0,0,0,.1758,1.0547,1.0556,1.0556,0,0,0,.5566.5127,2.7573,2.7573,0,0,0,.9229.1318q.3956,0,.7031-.0293.3224-.044.542-.0879l.0147,3.1055a7.9208,7.9208,0,0,1-1.1719.2783,8.6879,8.6879,0,0,1-1.3916.1026,6.0365,6.0365,0,0,1-2.4317-.4541,3.3494,3.3494,0,0,1-1.582-1.4942,5.6427,5.6427,0,0,1-.5566-2.6953Zm17.9,16.1865V28.3652a3.1057,3.1057,0,0,0-.2491-1.3037,1.8532,1.8532,0,0,0-.7763-.8642,2.5653,2.5653,0,0,0-1.333-.3077,2.7569,2.7569,0,0,0-1.2159.2491,1.76,1.76,0,0,0-.791.6884,1.9033,1.9033,0,0,0-.2783,1.04H68.9854a4.1275,4.1275,0,0,1,.4687-1.919,4.7837,4.7837,0,0,1,1.3623-1.5966,6.7262,6.7262,0,0,1,2.124-1.0987,9.1705,9.1705,0,0,1,2.7832-.3955,8.2607,8.2607,0,0,1,3.2813.6153,5.0123,5.0123,0,0,1,2.2558,1.8457,5.3565,5.3565,0,0,1,.835,3.0761v6.7823a11.6349,11.6349,0,0,0,.1611,2.1386,5.6342,5.6342,0,0,0,.4688,1.4356V39H78.4629a6.0966,6.0966,0,0,1-.4688-1.6113A13.2872,13.2872,0,0,1,77.8477,35.4258Zm.5566-6.0791.0293,2.3877H76.0752a4.9281,4.9281,0,0,0-1.45.19,2.6983,2.6983,0,0,0-1.0107.542,2.0952,2.0952,0,0,0-.586.791,2.7368,2.7368,0,0,0-.1758.9961,1.9551,1.9551,0,0,0,.2491.9815,1.7735,1.7735,0,0,0,.7177.6738,2.4287,2.4287,0,0,0,1.0987.2344,3.4244,3.4244,0,0,0,1.6552-.3809,3.024,3.024,0,0,0,1.084-.9375,1.9473,1.9473,0,0,0,.41-1.0547l1.1133,1.7871a7.2356,7.2356,0,0,1-.6446,1.2451,5.8156,5.8156,0,0,1-1.0107,1.2159,5.215,5.215,0,0,1-1.48.9228,5.4281,5.4281,0,0,1-2.0508.3516,6.1611,6.1611,0,0,1-2.7392-.6006,4.9937,4.9937,0,0,1-1.9336-1.6846,4.4221,4.4221,0,0,1-.7032-2.4609,5.0083,5.0083,0,0,1,.4688-2.2119,4.3154,4.3154,0,0,1,1.3769-1.626,6.4693,6.4693,0,0,1,2.3-1.0108,12.986,12.986,0,0,1,3.1934-.3515Zm11.1621-2.7393V39H85.3477V23.15h3.97Zm4.7754-3.5595-.0732,3.9111q-.3077-.0439-.7471-.0733a7.5941,7.5941,0,0,0-.7764-.0439,4.6362,4.6362,0,0,0-1.5527.2344,2.77,2.77,0,0,0-1.084.6592,2.8777,2.8777,0,0,0-.6445,1.0693A5.25,5.25,0,0,0,89.23,30.24l-.85-.2636a12.1763,12.1763,0,0,1,.3076-2.8272,7.8172,7.8172,0,0,1,.8936-2.27,4.47,4.47,0,0,1,1.4648-1.4941,3.72,3.72,0,0,1,1.9775-.5274,4.5463,4.5463,0,0,1,.7178.0586A2.639,2.639,0,0,1,94.3418,23.0479ZM104.83,23.15v2.9883H95.6016V23.15Zm-6.9433-3.9111h4.2183V34.2246a2.5109,2.5109,0,0,0,.176,1.0547,1.0567,1.0567,0,0,0,.557.5127,2.7575,2.7575,0,0,0,.923.1318c.263,0,.498-.01.703-.0293.215-.0293.395-.0586.542-.0879l.015,3.1055a7.9373,7.9373,0,0,1-1.172.2783,8.6922,8.6922,0,0,1-1.392.1026,6.0393,6.0393,0,0,1-2.432-.4541,3.35,3.35,0,0,1-1.5816-1.4942,5.6426,5.6426,0,0,1-.5567-2.6953Zm18.72,15.9668V23.15h4.219V39h-3.97Zm.469-3.252,1.245-.0293a11.316,11.316,0,0,1-.366,2.9443,7.0049,7.0049,0,0,1-1.099,2.3438,5.13,5.13,0,0,1-1.845,1.5381,5.9283,5.9283,0,0,1-2.622.542,6.8193,6.8193,0,0,1-2.139-.3223,4.3531,4.3531,0,0,1-1.67-1.04A5.0432,5.0432,0,0,1,107.496,36.1a8.5114,8.5114,0,0,1-.381-2.71V23.15h4.219V33.4189a3.8,3.8,0,0,0,.161,1.1866,2.1137,2.1137,0,0,0,.484.791,1.7655,1.7655,0,0,0,.717.4394,3.1534,3.1534,0,0,0,.938.1319,3.5038,3.5038,0,0,0,2.051-.5274,2.7843,2.7843,0,0,0,1.069-1.4355A6.1849,6.1849,0,0,0,117.076,31.9541Zm11.192-5.7568V45.0938h-4.219V23.15h3.911Zm10.034,4.7021v.3076a11.99,11.99,0,0,1-.41,3.208,8.0256,8.0256,0,0,1-1.172,2.5782,5.3668,5.3668,0,0,1-4.571,2.3,5.1637,5.1637,0,0,1-2.519-.586,5.2455,5.2455,0,0,1-1.802-1.6406,9.5134,9.5134,0,0,1-1.157-2.4756,19.506,19.506,0,0,1-.674-3.0176v-.8056a19.9732,19.9732,0,0,1,.674-3.1641,9.1475,9.1475,0,0,1,1.157-2.5049,5.24,5.24,0,0,1,1.787-1.6552,5.1324,5.1324,0,0,1,2.505-.586,5.852,5.852,0,0,1,2.651.5713,5.2057,5.2057,0,0,1,1.934,1.6406,7.5035,7.5035,0,0,1,1.187,2.5489A12.2855,12.2855,0,0,1,138.302,30.8994Zm-4.234.3076v-.3076a9.2068,9.2068,0,0,0-.175-1.86,4.8428,4.8428,0,0,0-.528-1.5088,2.5648,2.5648,0,0,0-.937-.9961,2.5265,2.5265,0,0,0-1.392-.3662,3.5685,3.5685,0,0,0-1.479.2783,2.4679,2.4679,0,0,0-.982.8057,3.7306,3.7306,0,0,0-.571,1.26,8.1162,8.1162,0,0,0-.234,1.6553v2.0361a6.5247,6.5247,0,0,0,.41,1.9483,2.9272,2.9272,0,0,0,1.04,1.3476,3.1236,3.1236,0,0,0,1.845.4981,2.5564,2.5564,0,0,0,1.407-.3662,2.8159,2.8159,0,0,0,.923-1.04,4.7341,4.7341,0,0,0,.512-1.5234A10.1035,10.1035,0,0,0,134.068,31.207Zm19.234,4.4971V39H141.261V35.7041Zm-.235-10.1221L142.96,39h-2.827V36.4951L150.196,23.15h2.871ZM151.573,23.15v3.31H140.367V23.15Zm9.082,14.0625L164.859,23.15h4.527l-6.372,18.2373a9.9781,9.9781,0,0,1-.557,1.2891,5.2252,5.2252,0,0,1-.923,1.3037,4.3171,4.3171,0,0,1-1.45,1.0254,5.0914,5.0914,0,0,1-2.124.3955,5.3491,5.3491,0,0,1-.981-.0733q-.381-.0732-.909-.2051V42.0322h.337c.117.01.23.0147.337.0147a4.0729,4.0729,0,0,0,1.362-.1905,1.9005,1.9005,0,0,0,.85-.5859,2.81,2.81,0,0,0,.513-.9961ZM158.897,23.15l3.443,11.4844.6,4.4677-2.871.3077-5.698-16.26Z"/><rect class="cls-2" width="175" height="50"/></svg>