<svg xmlns="http://www.w3.org/2000/svg" viewBox="0 0 50 43.75"><g id="Layer_2" data-name="Layer 2"><g id="Layer_1-2" data-name="Layer 1"><path d="M9.38,15.54H3.12a3.1,3.1,0,0,0-3.12,3V40.36a3.06,3.06,0,0,0,3.12,3H9.38a3.11,3.11,0,0,0,3.12-3V18.66A3.18,3.18,0,0,0,9.38,15.54ZM50,19a6.54,6.54,0,0,0-6.54-6.53H33.71a19,19,0,0,0,1.45-5.79A6.72,6.72,0,0,0,28.31,0c-4.55,0-5.79,3.17-6.79,5.71-3.1,7.86-5.9,6.49-5.9,9.13A2.35,2.35,0,0,0,18,17.18a2.3,2.3,0,0,0,1.46-.51c7.5-6,5.66-12,8.88-12a2.05,2.05,0,0,1,2.16,2,20.1,20.1,0,0,1-2.5,7,2.34,2.34,0,0,0-.3,1.14A2.28,2.28,0,0,0,30,17.11H43.46A2,2,0,0,1,45.31,19a1.85,1.85,0,0,1-1.72,1.83,2.34,2.34,0,0,0-2.19,2.34c0,1.51,1.12,1.55,1.12,2.82,0,2.48-3.43,1.2-3.43,4.12,0,1.09.63,1.27.63,2.17,0,2.21-2.91,1.34-2.91,4,0,.44.11.58.11.92a1.85,1.85,0,0,1-1.85,1.85H29.94a11.77,11.77,0,0,1-7-2.32l-3.58-2.69a2.35,2.35,0,1,0-2.82,3.75l3.58,2.68a16.42,16.42,0,0,0,9.8,3.27h5.13a6.54,6.54,0,0,0,6.52-6.08,6.47,6.47,0,0,0,2.82-5.35,6.54,6.54,0,0,0-.06-.89A6.48,6.48,0,0,0,47,24.5,6.62,6.62,0,0,0,50,19Z"/></g></g></svg>