<svg xmlns="http://www.w3.org/2000/svg" viewBox="0 0 263.45 263.45"><defs><style>.cls-1{fill:#fff;}</style></defs><g id="Layer_2" data-name="Layer 2"><g id="Layer_1-2" data-name="Layer 1"><circle cx="131.72" cy="131.72" r="131.72"/><path class="cls-1" d="M162.19,72.11a18.41,18.41,0,0,1,26.05,0l3.1,3.1a18.43,18.43,0,0,1,0,26.05l-50.47,50.49a18.67,18.67,0,0,1-8,4.68l-25.59,7.32a5.84,5.84,0,0,1-6-1.79,5.67,5.67,0,0,1-1.56-5.81L107,130.56a18.67,18.67,0,0,1,4.68-8Zm17.14,8.68a5.9,5.9,0,0,0-8.47,0l-7.44,7.45L175.21,100l7.45-7.67a5.86,5.86,0,0,0,0-8.47Zm-60.49,53.15-4.3,15,15-4.3a5.93,5.93,0,0,0,2.66-1.56l34.37-34.34-11.8-11.8L120.4,131.28A6,6,0,0,0,118.84,133.94ZM117.9,82.1a6.14,6.14,0,0,1,0,12.28H89.24A10.23,10.23,0,0,0,79,104.61v69.61a10.23,10.23,0,0,0,10.24,10.23h69.6a10.23,10.23,0,0,0,10.23-10.23V145.56a6.15,6.15,0,0,1,12.29,0v28.66a22.52,22.52,0,0,1-22.52,22.51H89.24a22.51,22.51,0,0,1-22.52-22.51V104.61A22.51,22.51,0,0,1,89.24,82.1Z"/></g></g></svg>