<svg xmlns="http://www.w3.org/2000/svg" viewBox="0 0 382 555.95"><defs><style>.cls-1,.cls-2{fill:none;stroke:#000;stroke-miterlimit:10;}.cls-1{stroke-width:30px;}.cls-2{stroke-width:28px;}</style></defs><g id="Layer_2" data-name="Layer 2"><g id="Layer_1-2" data-name="Layer 1"><path class="cls-1" d="M111.1,483.29A32.12,32.12,0,0,0,116.38,501l17.14,25.69c5.25,7.87,17.17,14.28,26.64,14.28h61.67c9.44,0,21.36-6.4,26.61-14.28L265.52,501a37.68,37.68,0,0,0,5.35-17.7l.13-39.2H111Z"/><path class="cls-1" d="M190.4,15C88.44,15.31,15,98,15,190.09a175.06,175.06,0,0,0,43.56,115.8c16.53,18.84,42.34,58.23,52.22,91.45,0,.25.09.51.12.78H271.1c0-.27.1-.52.13-.78,9.87-33.22,35.69-72.61,52.22-91.45,27.15-30.1,43.55-70.5,43.55-115.8C367,93.6,287.9,14.7,190.4,15Z"/><path class="cls-2" d="M218,117.79c-55.16,0-100,47.18-100,104,0,12.74-9,22.21-20,22.21s-20-9.47-20-21c0-81.19,62.81-146.06,140-146.06,11.05,0,20,9.41,20,21S229,117.79,218,117.79Z"/></g></g></svg>