<svg xmlns="http://www.w3.org/2000/svg" viewBox="0 0 512 512"><g id="Layer_2" data-name="Layer 2"><g id="Layer_1-2" data-name="Layer 1"><path d="M192,64H389.5L416,90.51V160h64V77.25a32,32,0,0,0-9.38-22.62L425.38,9.38A32,32,0,0,0,402.8,0H160a32,32,0,0,0-32,32V160h64ZM64,128H32A32.08,32.08,0,0,0,0,160V480a32.07,32.07,0,0,0,32,32H64a32.07,32.07,0,0,0,32-32V160A32.07,32.07,0,0,0,64,128Zm416,64H128V480a32.09,32.09,0,0,0,32,32H480a32.09,32.09,0,0,0,32-32V224A32.09,32.09,0,0,0,480,192ZM288,432a15.94,15.94,0,0,1-16,16H240a15.92,15.92,0,0,1-16-16V400a15.92,15.92,0,0,1,16-16h32a15.94,15.94,0,0,1,16,16Zm0-128a15.94,15.94,0,0,1-16,16H240a15.92,15.92,0,0,1-16-16V272a15.92,15.92,0,0,1,16-16h32a15.92,15.92,0,0,1,16,16ZM416,432a15.94,15.94,0,0,1-16,16H368a15.94,15.94,0,0,1-16-16V400a15.94,15.94,0,0,1,16-16h32a15.94,15.94,0,0,1,16,16Zm0-128a15.94,15.94,0,0,1-16,16H368a15.92,15.92,0,0,1-16-16V272a15.92,15.92,0,0,1,16-16h32a15.92,15.92,0,0,1,16,16Z"/></g></g></svg>