<svg xmlns="http://www.w3.org/2000/svg" viewBox="0 0 665 409.05"><defs><style>.cls-1{fill:none;stroke:#000;stroke-miterlimit:10;stroke-width:25px;}</style></defs><g id="Layer_2" data-name="Layer 2"><g id="Layer_1-2" data-name="Layer 1"><path class="cls-1" d="M347.1,165.9l-30,27.49c-40.6,37.21-86.8,11.91-101.7-4.29a72,72,0,0,1,4.4-101.7l81.8-74.9H295A218.5,218.5,0,0,0,140.7,76.3l-96.2.3a32.08,32.08,0,0,0-32,32v159.8c0,17.59,14.4,32,31.1,32l114.3-.06,90.5,81.82a63.93,63.93,0,0,0,90-9.26l18.12,15.25c15.88,12.1,39.38,10.5,52.38-5.36l31.38-38.6,5.37,4.49a32.09,32.09,0,0,0,45-4.74l9.58-11.83a31.91,31.91,0,0,0-4.7-44.86ZM620.5,76.6l-96-.13A218.47,218.47,0,0,0,370,12.59l-8.6-.09a32.54,32.54,0,0,0-21.62,8.57L241.5,110.8l-.2.4a39.61,39.61,0,0,0-2.2,56c9.63,10.5,35,21.62,56.13,2.75,0-.13.25-.13.38-.25l80-73.1a16,16,0,0,1,21.62,23.62l-26.12,23.87,145.6,118.1a63.43,63.43,0,0,1,22.12,38l81.67,0a32.08,32.08,0,0,0,32-32V108.6A32,32,0,0,0,620.5,76.6Z"/></g></g></svg>