<svg xmlns="http://www.w3.org/2000/svg" viewBox="0 0 603.89 540"><defs><style>.cls-1{fill:none;stroke:#000;stroke-miterlimit:10;stroke-width:28px;}</style></defs><g id="Layer_2" data-name="Layer 2"><g id="Layer_1-2" data-name="Layer 1"><path class="cls-1" d="M582.2,350.3a39.9,39.9,0,0,0-55.93-8.47L406.57,430H286c-8.75,0-15.1-7.25-15.1-16s7.25-16,15.1-16h78.25c15.1,0,30.75-10.88,33.37-26.62A32.06,32.06,0,0,0,366,334H205.1A119.57,119.57,0,0,0,131,360.26L84.48,398l-55.38-.9c-7.85,0-15.1,8.2-15.1,16.9v96c0,8.82,7.25,16,15.1,16H375.2a104.8,104.8,0,0,0,61.7-20.27L572,406.21C591.5,393.1,595.3,368.1,582.2,350.3ZM293.3,189c-7.6-1.1-17.6-4.7-26.4-7.9l-4.9-1.7c-12.5-5.3-26.2,2.1-30.6,13.7s2.12,26.2,14.59,30.64l4.65,1.66A248.39,248.39,0,0,0,278,233.71V246a24,24,0,1,0,48,0V235.6c25.27-5.72,42.88-21.85,46.1-45.72,8.69-50-38.89-63.66-64.41-70.95l-5.3-1.83c-26.3-7.46-24.8-10.68-24.1-14.79,1.16-6.77,15.3-10.06,32.21-7.39a120.78,120.78,0,0,1,19.65,5.42A24,24,0,0,0,345.84,55,188.59,188.59,0,0,0,326,49.25V38a24,24,0,1,0-48,0V48.52C252.8,54.23,235.1,70.25,230.1,94.13c-7.7,49.47,40.6,63.67,58.8,69.07l6.5,1.87c31.66,9.07,31.15,11.89,30.34,16.64C324.6,188.5,310.5,191.8,293.3,189Z"/></g></g></svg>