<svg fill="none" height="70" viewBox="0 0 55 70" width="55" xmlns="http://www.w3.org/2000/svg"><g fill="#fff"><path d="m43.4944 61.3984h-8.2346c-.7306-4.5021-4.6761-7.9212-9.5473-8.1495l-17.35558-17.3556c.53934-.7267.8591-1.6259.8591-2.5983 0-.9322-.29448-1.7962-.7938-2.5064l14.55438-14.5544c-.5568 4.5563.9703 9.2414 4.3279 12.5987.2393.2393.553.359.8666.359s.6275-.1197.8668-.3591l4.9588-4.9587c.0007.0008.0014.0016.002.0023 1.4188 1.419 3.3052 2.2004 5.3119 2.2004 2.0065 0 3.8929-.7814 5.3119-2.2002 1.4188-1.4189 2.2001-3.3053 2.2001-5.3118 0-2.0066-.7815-3.8931-2.2005-5.3119-.0007-.0007-.0015-.0014-.0022-.0021l4.1506-4.15057c.4787-.47882.4787-1.25482 0-1.7336-2.8662-2.86602-6.6772-4.44456-10.7309-4.44456-1.9339 0-3.8755.3764-5.6662 1.09372l-2.8464-2.8463c-.7542-.754129-1.7571-1.16949-2.8237-1.16949-1.0665 0-2.0695.415361-2.8239 1.16965l-2.7723 2.77246c-1.5567 1.55698-1.5567 4.09022 0 5.64737l2.5235 2.52352-17.1364 17.1365c-.50872-.208-1.06448-.3234-1.64693-.3234-2.40891 0-4.368754 1.9599-4.368754 4.3688 0 2.4091 1.959844 4.369 4.368754 4.369.53969 0 1.05664-.099 1.53425-.2789l16.17518 16.1753c-3.864.9657-6.8104 4.0094-7.4316 7.8381h-8.2347c-.677 0-1.22574.5488-1.22574 1.2258v6.1501c0 .677.54874 1.2257 1.22574 1.2257h36.604c.677 0 1.2257-.5487 1.2257-1.2257v-6.1501c0-.677-.5487-1.2258-1.2257-1.2258zm-.6055-46.4119c.9557.9558 1.4822 2.2265 1.4822 3.5783 0 1.3517-.5264 2.6224-1.4822 3.5782-.9558.9559-2.2265 1.4822-3.5783 1.4822-1.3517 0-2.6225-.5263-3.5782-1.482-.0009-.0009-.0017-.0016-.0025-.0023l7.1568-7.1568c.0008.0007.0015.0017.0022.0024zm-20.0482-7.13047c-.6011-.60127-.6011-1.57941 0-2.18063l2.7721-2.7723c.2912-.29123.6786-.45158 1.0905-.45158s.7993.16039 1.0903.45158l3.4006 3.40041c.0118.01262.0234.02497.0343.03606.3655.36527.9207.4624 1.3888.24235 1.6801-.79054 3.5551-1.20829 5.4223-1.20829 2.9869 0 5.8166 1.02207 8.0898 2.9007l-17.9164 17.91627c-3.0955-3.762-3.7959-9.0429-1.6934-13.5109.2201-.4677.1231-1.0231-.2423-1.3887-.0111-.0112-.0234-.0228-.0359-.0344zm-19.91075 25.43897c0-1.0572.86012-1.9173 1.91728-1.9173 1.05715 0 1.91727.8601 1.91727 1.9173 0 1.0573-.86012 1.9174-1.91727 1.9174-1.05716 0-1.91728-.8601-1.91728-1.9174zm22.26235 22.3931c3.738 0 6.8384 2.4229 7.5743 5.7104h-15.1483c.7356-3.2876 3.836-5.7104 7.574-5.7104zm17.0763 11.8604h-34.15246v-3.6986h8.11546 17.9216 8.1154z"/><path d="m48.2506 26.0791c-.4785-.4785-1.2546-.4786-1.7335.0002-.4786.4786-.4786 1.2548.0002 1.7334l2.2225 2.2223c.2393.2393.553.359.8666.359.3137 0 .6274-.1198.8668-.3592.4786-.4786.4786-1.2548-.0002-1.7334z"/><path d="m40.7144 28.8838c-.6769 0-1.2258.5487-1.2258 1.2256l-.0003 3.1433c0 .677.5486 1.2259 1.2256 1.2259h.0002c.6768 0 1.2257-.5487 1.2257-1.2256l.0004-3.1433c0-.677-.5486-1.2259-1.2256-1.2259z"/><path d="m53.6908 19.0506-3.1431-.0003h-.0002c-.6769 0-1.2257.5488-1.2257 1.2256 0 .677.5485 1.226 1.2256 1.226l3.1432.0003h.0001c.6769 0 1.2258-.5487 1.2258-1.2256-.0001-.677-.5487-1.226-1.2257-1.226z"/></g></svg>