<svg fill="none" height="71" viewBox="0 0 75 71" width="75" xmlns="http://www.w3.org/2000/svg"><g fill="#fff"><path d="m37.1484.146973c-13.6464 0-24.7485 11.102227-24.7485 24.748827 0 9.0943 4.8935 17.3327 12.8266 21.6926v6.3296h-.0052v5.0575h-.0072v7.6716h7.1516c.1482 2.5063 2.2332 4.4999 4.7756 4.4999 2.5425 0 4.6275-1.9937 4.7755-4.4999h7.147v-5.0577h.0073v-7.6714h-.0008v-6.3296c7.9332-4.3599 12.8267-12.5984 12.8267-21.6926 0-13.6466-11.1022-24.748827-24.7486-24.748827zm-9.3132 55.384927h18.6219v2.4437h-18.6219zm9.3061 12.0012c-1.2192 0-2.0138-.9321-2.1484-1.886h4.2984c-.1405 1.0626-1.0499 1.886-2.15 1.886zm9.3086-4.5h-18.6218v-2.4436h18.6218zm.7209-18.3967-.7144.3635v7.8463h-8.0057v-19.3143l7.7528-7.7532c.5104-.5104.5104-1.3378-.0002-1.8484-.5101-.5101-1.3378-.5103-1.8483.0002l-7.2113 7.2117-7.2113-7.2117c-.5103-.5103-1.3379-.5105-1.8483-.0001-.5105.5105-.5105 1.338-.0002 1.8483l7.7528 7.7532v19.3143h-7.9962v-7.8463l-.7144-.3635c-7.4711-3.801-12.1122-11.3653-12.1122-19.7406 0-12.2052 9.9295-22.13479 22.1345-22.13479 12.2051 0 22.1346 9.92959 22.1346 22.13479 0 8.3753-4.6411 15.9396-12.1122 19.7406z"/><path d="m44.0457 8.07129c-.7218 0-1.3069.5851-1.3069 1.30699 0 .72192.5851 1.30692 1.3069 1.30692 2.0559 0 6.8744 2.4697 6.8744 7.2591 0 .7219.5851 1.307 1.3069 1.307.7219 0 1.307-.5851 1.307-1.307 0-6.4822-6.1769-9.87301-9.4883-9.87301z"/><path d="m8.53976 27.3975c0-.7218-.5851-1.3069-1.30696-1.3069h-5.92585c-.721848 0-1.30695.5851-1.30695 1.3069 0 .7219.585102 1.307 1.30695 1.307h5.92585c.72186 0 1.30696-.5851 1.30696-1.307z"/><path d="m8.98808 10.3022c.25528.2553.5897.3829.92425.3829.33437 0 .66897-.1276.92407-.3827.5106-.51055.5106-1.33797.0002-1.84828l-4.18984-4.19005c-.51014-.51019-1.33781-.51035-1.84833-.00017-.51051.51052-.51051 1.33798-.00016 1.84833z"/><path d="m8.98867 44.4927-4.19023 4.1901c-.51052.5105-.51052 1.338-.00017 1.8485.25528.2553.58966.3829.92425.3829.33438 0 .66896-.1276.92404-.3829l4.19024-4.1901c.5105-.5105.5105-1.338.0002-1.8481-.5103-.5106-1.33798-.5106-1.84833-.0004z"/><path d="m72.9796 26.0906h-5.9256c-.7218 0-1.3069.5851-1.3069 1.3069 0 .7219.5851 1.307 1.3069 1.307h5.9256c.7219 0 1.307-.5851 1.307-1.307 0-.7218-.5851-1.3069-1.307-1.3069z"/><path d="m64.374 10.6852c.3344 0 .6689-.1276.9242-.3827l4.1901-4.19003c.5103-.51051.5103-1.33797 0-1.84848-.5105-.51019-1.338-.51019-1.8485 0l-4.1901 4.19001c-.5104.51056-.5104 1.33797 0 1.8485.2553.2551.5899.3827.9243.3827z"/><path d="m65.2979 44.4927c-.5101-.5102-1.3377-.5102-1.8483.0004-.5103.5101-.5103 1.3376.0002 1.8481l4.1902 4.1901c.2551.2553.5897.3829.9241.3829s.669-.1276.9242-.3829c.5103-.5105.5103-1.338-.0002-1.8485z"/></g></svg>