<svg fill="none" height="70" viewBox="0 0 69 70" width="69" xmlns="http://www.w3.org/2000/svg"><g fill="#fff"><path d="m67.1946 30.5686h-1.401c-1.2531-11.5981-8.8203-21.3306-19.1848-25.67951h11.9059v1.216c0 .67624.5479 1.22437 1.2244 1.22437h4.8807c.6764 0 1.2243-.54813 1.2243-1.22437v-4.88072c0-.676208-.5479-1.22437-1.2243-1.22437h-4.8807c-.6765 0-1.2244.548123-1.2244 1.22437v1.21599h-20.4013v-1.21599c0-.676208-.5479-1.22437-1.2243-1.22437h-4.881c-.6763 0-1.2244.548123-1.2244 1.22437v1.21599h-20.4012v-1.21599c0-.676208-.54817-1.22437-1.22441-1.22437h-4.88061c-.67621 0-1.22433.548123-1.22433 1.22437v4.88072c0 .67624.54812 1.22437 1.22433 1.22437h4.88057c.6762 0 1.22435-.54813 1.22435-1.22437v-1.216h11.9064c-10.3648 4.34891-17.93189 14.08141-19.1849 25.67951h-1.40102c-.67624 0-1.224364.5481-1.224364 1.2244v4.8807c0 .6762.548084 1.2243 1.224364 1.2243h4.88104c.67625 0 1.22437-.5481 1.22437-1.2243v-4.8807c0-.6762-.54808-1.2244-1.22437-1.2244h-1.01529c1.55233-13.2304 12.01937-23.77411 25.21507-25.4409v.97739c0 .67624.5481 1.22437 1.2244 1.22437h4.881c.6764 0 1.2243-.54813 1.2243-1.22437v-.97747c13.1958 1.66652 23.6628 12.21048 25.2154 25.44108h-1.015c-.6764 0-1.2243.5481-1.2243 1.2243v4.8807c0 .6762.5479 1.2243 1.2243 1.2243h4.8808c.6764 0 1.2244-.5481 1.2244-1.2243v-4.8807c0-.6762-.548-1.2244-1.2244-1.2244zm-3.7992-25.68787h-2.432v-1.216-1.216h2.432zm-57.89352-2.432h2.43181v2.432h-2.43181zm-.14228 31.66637v1.3342h-2.43235v-1.332-.798c.00202-.1008.00463-.2014.00751-.302h2.42484zm29.0894-31.66637c.4071 0 .8122.01035 1.2156.02572v2.40628h-2.4322v-2.40631c.4038-.01534.809-.02569 1.2166-.02569zm31.5212 30.88397v.7835 1.3331h-2.4319v-1.332-1.1h2.424c.0035.105.0059.2102.0079.3154z"/><path d="m35.5697 9.71212c-.1947-.44616-.6354-.73458-1.1221-.73458-.4868 0-.9274.28842-1.1221.73458l-15.9513 36.54588c-.1277.2928-.1361.6237-.0234.9224l.019.0503c.1298.3439.4074.6113.7558.7283 3.8154 1.2804 6.3789 4.8449 6.3789 8.8696 0 1.6767-.4504 3.323-1.3024 4.7609-.0265.0446-.049.0907-.0693.1378-.1385.1983-.2204.4392-.2204.6995v6.2002c0 .6727.5428 1.2196 1.2155 1.2245l20.6218.1485h.0092c.672 0 1.2193-.5425 1.224-1.2154.0048-.6763-.5393-1.2285-1.2154-1.2333l-19.4064-.1397v-3.0767h18.9445c.5114 0 .9692-.3179 1.1475-.797l.3341-.8974c.1291-.3468.0946-.7332-.0943-1.0516-.8517-1.4374-1.3019-3.0835-1.3019-4.7603 0-4.0248 2.5632-7.5893 6.3787-8.8697.3495-.1174.6276-.3862.7571-.7317l.0187-.0502c.1114-.2979.1025-.6274-.0246-.919zm-1.1221 34.07908c1.3548 0 2.4572 1.1021 2.4572 2.4566 0 1.3547-1.1024 2.4568-2.4572 2.4568-1.3547 0-2.4568-1.1021-2.4568-2.4568 0-1.3545 1.1021-2.4566 2.4568-2.4566zm7.4946 13.0375c0 1.7547.3913 3.4833 1.1381 5.0575h-17.2651c.7471-1.5745 1.1381-3.3029 1.1381-5.0575 0-4.6425-2.703-8.7996-6.845-10.7131l13.1149-30.0478v25.4293c-2.1144.5452-3.6811 2.4686-3.6811 4.7508 0 2.7049 2.2006 4.9054 4.9055 4.9054 2.7052 0 4.906-2.2005 4.906-4.9054 0-2.2824-1.5671-4.2056-3.6817-4.7508v-25.4293l13.1152 30.0478c-4.1419 1.9138-6.8449 6.0706-6.8449 10.7131z"/></g></svg>