<svg fill="none" height="48" viewBox="0 0 155 48" width="155" xmlns="http://www.w3.org/2000/svg"><g fill="#f4f4f4"><path d="m27.3496 14.0963h2.3301v16.2177h6.9905v2.3302h-9.3206zm16.5789 0c1.3826 0 2.7341.41 3.8837 1.1781 1.1495.7681 2.0456 1.8598 2.5746 3.1372.5291 1.2774.6675 2.6829.3978 4.0388-.2697 1.356-.9354 2.6016-1.9132 3.5792-.9776.9777-2.2231 1.6434-3.5792 1.9132-1.3559.2697-2.7614.1313-4.0388-.3978-1.2774-.5292-2.369-1.4251-3.1372-2.5747-.7681-1.1495-1.1781-2.501-1.1781-3.8836 0-.918.1808-1.8271.5321-2.6751.3513-.8482.8662-1.6188 1.5154-2.2678.6491-.6492 1.4196-1.1642 2.2678-1.5154.8481-.3513 1.7572-.5321 2.6751-.5321zm0 11.6507c.9217 0 1.8228-.2734 2.5892-.7854.7663-.5122 1.3637-1.24 1.7163-2.0915.3528-.8516.4451-1.7885.2652-2.6926-.1798-.904-.6237-1.7344-1.2754-2.3861s-1.4821-1.0956-2.3861-1.2754c-.9041-.1799-1.841-.0876-2.6925.2652-.8516.3526-1.5795.95-2.0916 1.7164-.512.7663-.7853 1.6674-.7853 2.5891.0061 1.2319.4998 2.4113 1.3731 3.2802s2.0552 1.3568 3.2871 1.3568zm-4.6602 4.5903h9.3205v2.3302h-9.3205zm29.8257 2.3302h-2.3301v-1.6661c-1.5028 1.0518-3.2921 1.6171-5.1263 1.6195-1.5642.0104-3.1058-.3729-4.4828-1.1147-1.3771-.7419-2.5453-1.8183-3.3969-3.1301-.8518-1.3119-1.3598-2.8171-1.477-4.3769-.1173-1.5596.1598-3.1239.8059-4.5483.646-1.4245 1.6402-2.6635 2.8907-3.6028 1.2507-.9394 2.7177-1.549 4.2657-1.7724 1.5481-.2236 3.1276-.0539 4.5928.4934 1.4653.5472 2.7694 1.4543 3.792 2.6379l-1.7127 1.5263c-.7778-.8697-1.7608-1.5307-2.8595-1.923-1.0987-.3924-2.2781-.5035-3.4307-.3233-1.1527.1802-2.2418.6461-3.1684 1.3551-.9265.7091-1.6608 1.6385-2.1359 2.7041-.4752 1.0655-.6762 2.2329-.5846 3.396.0915 1.163.4726 2.2846 1.1088 3.2626.6361.978 1.5067 1.7813 2.5328 2.3365 1.026.5553 2.1747.845 3.3413.8426.9682.002 1.9254-.2051 2.8062-.6073.8807-.4022 1.6642-.9899 2.2968-1.7228h-6.2914v-2.3301h8.5866zm8.5749-18.5246c1.3826 0 2.7341.41 3.8836 1.1781 1.1496.7681 2.0456 1.8598 2.5747 3.1372s.6675 2.6829.3978 4.0388c-.2698 1.356-.9355 2.6016-1.9132 3.5792-.9776.9777-2.2232 1.6434-3.5792 1.9132-1.3559.2697-2.7614.1313-4.0388-.3978-1.2774-.5292-2.3691-1.4251-3.1372-2.5747-.7681-1.1495-1.1781-2.501-1.1781-3.8836-.0062-.9239.1709-1.8398.5209-2.6948.35-.8551.866-1.6323 1.5182-2.2866.6522-.6544 1.4277-1.173 2.2815-1.5259.8539-.3527 1.7692-.5329 2.6931-.5297zm0 11.6507c.9217 0 1.8227-.2734 2.5891-.7854.7664-.5122 1.3637-1.24 1.7164-2.0915.3528-.8516.445-1.7885.2652-2.6926-.1798-.904-.6237-1.7343-1.2754-2.3861-.6518-.6517-1.4821-1.0956-2.3861-1.2754-.9041-.1799-1.841-.0876-2.6926.2652-.8515.3526-1.5795.95-2.0915 1.7164-.5121.7663-.7854 1.6674-.7854 2.5891.0184 1.2279.5207 2.3989 1.3977 3.2585.877.8594 2.0579 1.3381 3.2859 1.3319zm-4.6603 4.5903h9.3206v2.3302h-9.3206zm14.1323-16.2876h2.3301v18.5246h-2.3301zm5.5574 0h2.3301c.12-.0127.241-.0127.3612 0 .9758-.1059 1.9631-.005 2.8974.2959.9342.3011 1.795.7954 2.525 1.451.731.6556 1.315 1.4577 1.715 2.3541s.607 1.867.607 2.8486-.207 1.9522-.607 2.8486-.984 1.6986-1.715 2.3541c-.73.6556-1.5908 1.15-2.525 1.451-.9343.3009-1.9216.4018-2.8974.2959h-.3612v4.6603h-2.3301zm2.3301 2.3301v9.2157h.3612c.6581.0876 1.3273.0337 1.963-.1584.6355-.1921 1.2227-.5177 1.7222-.9551.4996-.4373.8998-.9764 1.1742-1.5811.274-.6046.416-1.2609.416-1.9249s-.142-1.3202-.416-1.9249c-.2744-.6047-.6746-1.1438-1.1742-1.5811-.4995-.4375-1.0867-.763-1.7222-.9552-.6357-.192-1.3049-.2459-1.963-.1583-.1269.0132-.252.0406-.3729.0816zm16.7886-.9903-1.724 1.3631c-.298-.3108-.678-.5303-1.096-.6326s-.856-.0832-1.263.0551c-.408.1382-.767.3898-1.037.7254-.269.3355-.437.741-.484 1.1687v.1864c0 1.0252.711 1.7126 2.097 1.8058 5.336.3262 7.783 2.8311 7.783 6.1399v.2097c-.138 1.3096-.649 2.552-1.472 3.5796-.824 1.0276-1.925 1.7969-3.173 2.2167-1.248.4196-2.591.472-3.868.1508-1.277-.3211-2.435-1.0023-3.336-1.9625l1.783-1.3748c.415.4447.921.7938 1.485 1.0232.563.2292 1.169.3334 1.777.305 1.122.0592 2.224-.3175 3.075-1.0514.851-.7337 1.385-1.768 1.492-2.8866v-.1631c0-3.1107-3.053-3.6816-5.697-3.9379-2.447-.233-4.206-1.7592-4.206-3.9612v-.0932c.086-1.1464.609-2.216 1.461-2.9877.852-.7719 1.968-1.1871 3.118-1.16.609-.0179 1.215.092 1.779.3228.563.2308 1.073.5773 1.494 1.0171zm13.398 14.8197c2.901 0 5.197-3.1341 5.197-6.9904v-9.3206h2.33v9.3206c0 5.1263-3.356 9.2623-7.48 9.2623s-7.48-4.136-7.48-9.2623v-9.3206h2.33v9.3206c-.093 3.9146 2.202 7.0486 5.092 7.0486zm25.41 2.3301h-2.33v-11.5342l-5.371 6.9904-5.371-6.9904v11.5692h-2.33v-18.5246l7.69 10.1244 7.689-10.1244z"/><path d="m16.1642 11.3118c0-1.68089-.6677-3.29298-1.8563-4.48157-1.1886-1.18861-2.8007-1.85635-4.48165-1.85635-1.68094 0-3.29302.66774-4.48162 1.85635-1.1886 1.18859-1.85635 2.80068-1.85635 4.48157v19.1654l5.2195 3.7399v9.1108h2.23692v-9.1108l5.2195-3.7399zm-2.2369 10.7187-2.9826 2.9825v-2.7961l2.9826-2.9826zm-8.15549-2.7962 2.98258 2.9826v2.7961l-2.98258-2.9825zm8.15549-3.169-4.10105 4.1011-4.10104-4.1943v-2.7961l4.10104 4.101 4.10105-4.101zm-4.10105-8.85449c.90195.00398 1.77765.30353 2.49315.85274.7154.54922 1.2311 1.31781 1.4681 2.18805l-3.96125 3.9496-3.96123-3.9496c.22828-.87889.74025-1.65792 1.45649-2.21615.71623-.55824 1.59667-.8645 2.50474-.87126zm-4.10104 22.13629v-4.1943l2.98257 2.9826v3.3321zm5.21949 2.1321v-3.3438l2.9826-2.9826v4.1826z"/></g></svg>