<svg fill="none" height="36" viewBox="0 0 139 36" width="139" xmlns="http://www.w3.org/2000/svg"><g fill="#f4f4f4"><path d="m16.4852 7.4879v-4.369h-13.77524v30.0176h13.77524v-4.369c-2.8219 0-5.5282-1.121-7.52351-3.1164-1.99535-1.9953-3.11633-4.7015-3.11633-7.5234 0-2.8218 1.12098-5.5282 3.11633-7.5235 1.99531-1.99532 4.70161-3.1163 7.52351-3.1163z"/><path d="m16.4854 7.48779v21.27961c2.8218 0 5.5281-1.121 7.5235-3.1164 1.9953-1.9953 3.1163-4.7015 3.1163-7.5234s-1.121-5.5282-3.1163-7.5235c-1.9954-1.99532-4.7017-3.11631-7.5235-3.11631z"/><path d="m34.8555 10.1606h3.084v14.8547h-3.084z"/><path d="m39.6665 19.9267c0-1.0687.3173-2.1134.9117-3.0016s1.4391-1.5799 2.4271-1.9875c.9881-.4075 2.0748-.5126 3.1225-.3018 1.0477.2107 2.0093.7278 2.7628 1.4856.7536.758 1.2652 1.7224 1.47 2.7714.2047 1.049.0934 2.1351-.3198 3.1207-.4133.9856-1.1098 1.8264-2.0013 2.4156-.8916.5894-1.9381.9006-3.0068.8946-.7088.0055-1.4117-.1305-2.0672-.4002-.6556-.2697-1.2508-.6675-1.7506-1.1701-.4998-.5027-.8942-1.1002-1.1601-1.7573s-.3979-1.3606-.3883-2.0694zm7.7306 0c-.0122-.4608-.1599-.9078-.4247-1.2849-.2648-.3773-.6349-.6681-1.0642-.8361-.4292-.168-.8984-.2057-1.3488-.1083-.4506.0972-.8624.3251-1.1841.6553-.3216.3301-.5389.7477-.6244 1.2006s-.0357.921.1434 1.3457c.1791.4246.4794.7872.8634 1.042.384.255.8346.391 1.2955.3912.3139.0062.6256-.0525.9157-.1724.2901-.1198.5523-.2981.7703-.5239.2181-.2257.3872-.4941.4969-.7881.1097-.2941.1575-.6077.1404-.9211z"/><path d="m62.6014 14.8379v9.6735c0 3.4129-2.6728 4.8624-5.3765 4.8624-.9536.0782-1.9102-.1112-2.7619-.5471-.8518-.4359-1.565-1.1009-2.0594-1.9201l2.6009-1.5009c.2107.425.5459.7755.961 1.0051.4151.2295.8903.3272 1.3622.2799.3007.037.6058.0072.8936-.0874s.5511-.2516.7711-.4599c.2201-.2083.3913-.4625.5016-.7447.1103-.2821.1569-.5851.1365-.8873v-.9355c-.3589.4351-.8143.7805-1.33 1.009-.5157.2284-1.0775.3334-1.641.3068-1.3632 0-2.6705-.5415-3.6345-1.5055-.9639-.9638-1.5055-2.2713-1.5055-3.6345s.5416-2.6705 1.5055-3.6345c.964-.9639 2.2713-1.5055 3.6345-1.5055.5635-.0266 1.1253.0784 1.641.3069.5157.2284.9711.5738 1.33 1.009v-1.028zm-2.9709 4.883c.0204-.4918-.1066-.9786-.365-1.3976-.2583-.419-.636-.7512-1.0847-.9538-.4486-.2026-.9475-.2663-1.4328-.1831-.4851.0833-.9343.3098-1.2897.6504-.3554.3405-.6007.7797-.7046 1.2609-.1038.4812-.0613.9824.1219 1.4392.1834.4568.4992.8484.9068 1.1243.4078.2759.8887.4237 1.3809.4241.3212.0231.6437-.0214.9465-.1306.303-.1093.5797-.2808.8122-.5037.2325-.2228.4157-.4919.5377-.7899s.1802-.6184.1708-.9402z"/><path d="m64.3382 19.9268c0-1.0679.3169-2.1117.9103-2.9995.5935-.8878 1.437-1.5795 2.4238-1.9876.9867-.4083 2.0724-.5145 3.1196-.3055 1.0473.2091 2.0088.7242 2.7633 1.48.7543.7558 1.2675 1.7185 1.4746 2.766.2071 1.0476.0988 2.1331-.3113 3.1191s-1.1035 1.8282-1.9923 2.42c-.8889.5918-1.9333.9066-3.0012.9045-.7102.0069-1.4147-.1281-2.072-.397s-1.2543-.6663-1.756-1.169c-.5018-.5027-.8981-1.1005-1.1657-1.7583-.2676-.6579-.4013-1.3625-.3931-2.0727zm7.7306 0c-.0121-.4612-.1601-.9085-.4254-1.286-.2652-.3774-.636-.6682-1.0658-.8359s-.8995-.2048-1.3503-.1066c-.4508.0981-.8626.3271-1.1838.6582-.3213.3312-.5377.7498-.622 1.2033-.0844.4536-.0331.9219.1475 1.3464.1807.4245.4826.7863.868 1.04.3853.2536.8369.388 1.2983.3861.3138.0062.6255-.0525.9156-.1724.2901-.1197.5523-.2981.7704-.5238.218-.2258.3871-.4942.4968-.7882.1097-.2941.1575-.6077.1404-.9211z"/><path d="m76.541 12.1138c0-.3619.1073-.7157.3084-1.0166s.4869-.5355.8212-.674c.3344-.1385.7023-.1747 1.0573-.1041.3548.0706.6809.2449.9369.5008.2559.2559.4301.582.5007.9369.0707.3549.0344.7228-.1041 1.0573-.1385.3343-.3731.62-.674.8211s-.6546.3084-1.0165.3084c-.4837-.0053-.946-.1998-1.288-.5418-.342-.3421-.5365-.8043-.5419-1.288zm.2981 2.7242h3.084v10.1772h-3.084z"/><path d="m93.1233 19.9266c.0346.6768-.0651 1.3538-.2932 1.992-.228.6382-.5801 1.225-1.0358 1.7265-.4558.5017-1.0062.9082-1.6197 1.1962-.6134.2881-1.2778.4519-1.9548.4823-.5746.0382-1.1504-.0538-1.6843-.2692-.5341-.2154-1.0125-.5486-1.3997-.9747v5.0269h-3.084v-14.2686h3.084v.956c.3877-.4249.8666-.7565 1.4006-.9701.5341-.2138 1.1095-.3038 1.6834-.2635.6743.0303 1.336.1933 1.9474.4794.6114.286 1.1604.6898 1.6157 1.1881.4554.4983.8081 1.0814 1.0381 1.7161.23.6345.3328 1.3082.3023 1.9826zm-3.084 0c-.0121-.4775-.165-.9408-.4392-1.3317-.2743-.391-.658-.6924-1.1028-.8662-.4448-.1739-.931-.2126-1.3979-.1113-.4667.1012-.8931.3381-1.2258.6807-.3328.3426-.557.7758-.6445 1.2454-.0876.4695-.0346.9544.1522 1.394.1869.4395.4993.8141.8982 1.0768.3989.2628.8664.4019 1.344.4.3271.0139.6535-.0415.9577-.1626.3043-.1211.5795-.3051.8076-.54s.4039-.5155.5161-.823c.1121-.3077.1579-.6355.1344-.9621z"/><path d="m102.508 21.962c0 2.3438-2.056 3.341-4.2352 3.341-.8889.08-1.7813-.1085-2.5619-.5409-.7807-.4325-1.4138-1.0892-1.8173-1.8852l2.6522-1.5009c.1051.3668.3329.6864.6454.9054s.6907.3239 1.0714.2974c.7298 0 1.0999-.2262 1.0999-.6374 0-1.1205-5.0063-.5243-5.0063-4.0503 0-2.2205 1.8709-3.3307 3.9886-3.3307.8049-.0361 1.6047.1466 2.3142.5285.709.3819 1.302.9488 1.716 1.6406l-2.6527 1.398c-.1172-.2652-.3086-.4907-.5512-.6494-.2427-.1588-.5261-.2438-.816-.2449-.5346 0-.8533.2056-.8533.5654 0 1.1719 5.0062.4009 5.0062 4.1634z"/><path d="m113.683 14.8381v10.1772h-3.084v-.956c-.351.4232-.796.758-1.299.9777-.504.2197-1.051.3179-1.6.2867-2.056 0-3.814-1.47-3.814-4.2148v-6.2708h3.084v5.8082c-.025.2429.004.488.084.7187.08.2306.209.4411.377.6171.17.1759.376.313.603.402.227.0888.471.1272.714.1126 1.11 0 1.892-.6579 1.892-2.056v-5.6026z"/><path d="m131.159 18.765v6.2503h-3.084v-5.983c0-1.028-.483-1.6653-1.46-1.6653-.976 0-1.593.7093-1.593 1.912v5.7363h-3.084v-5.983c0-1.028-.483-1.6653-1.46-1.6653-.976 0-1.593.7093-1.593 1.912v5.7363h-3.084v-10.1772h3.084v.9355c.319-.4133.736-.7406 1.214-.9524.477-.2118 1-.3014 1.52-.2607.521-.0272 1.042.0817 1.508.316.467.2343.865.586 1.155 1.0204.339-.454.787-.8146 1.303-1.0482.515-.2338 1.083-.3329 1.647-.2882 2.406 0 3.927 1.6654 3.927 4.2045z"/></g></svg>