<svg fill="none" height="29" viewBox="0 0 112 29" width="112" xmlns="http://www.w3.org/2000/svg"><path d="m3.44727 26.0813h23.90723v-23.90723h-23.90723zm19.30563-14.2539h-5.0517v-5.05178h5.0517zm-14.70502-5.05178h5.05452v9.65238h9.6505v5.0517h-14.70502zm34.87472-4.60155c-2.3643 0-4.6754.70107-6.6411 2.01455-1.9658 1.31348-3.4979 3.18038-4.4027 5.36462-.9047 2.18426-1.1413 4.58766-.6802 6.90646.4613 2.3187 1.5997 4.4487 3.2715 6.1204 1.6717 1.6718 3.8016 2.8102 6.1204 3.2715 2.3188.4612 4.7222.2245 6.9065-.6802 2.1843-.9048 4.0511-2.4369 5.3646-4.4027s2.0146-4.2769 2.0146-6.641c-.0038-3.1692-1.2644-6.20748-3.5053-8.44841s-5.2792-3.50152-8.4483-3.50522zm0 19.30563c-1.4541 0-2.8756-.4312-4.0847-1.2391-1.2089-.8078-2.1513-1.956-2.7078-3.2994-.5564-1.3434-.702-2.8216-.4184-4.2479.2838-1.4261.984-2.73611 2.0122-3.76431s2.3382-1.72842 3.7643-2.0121c1.4262-.28368 2.9044-.13808 4.2479.41838 1.3433.55645 2.4916 1.49878 3.2994 2.70783.8079 1.209 1.2391 2.6305 1.2391 4.0846-.003 1.949-.7785 3.8173-2.1567 5.1954-1.3781 1.3782-3.2464 2.1536-5.1953 2.1566zm54.7293-19.30563c-2.3647-.00017-4.6755.70073-6.6414 2.0141-1.9659 1.31336-3.4981 3.18019-4.403 5.36442-.9049 2.18421-1.1418 4.58771-.6806 6.90651.4611 2.3189 1.5995 4.4489 3.2712 6.1207s3.8016 2.8104 6.1208 3.2717c2.318.4613 4.7221.2246 6.9061-.68 2.184-.9048 4.051-2.4369 5.364-4.4027 1.315-1.9658 2.016-4.2769 2.016-6.6411-.004-3.169-1.264-6.20718-3.505-8.44808-2.241-2.24091-5.279-3.5016-8.4481-3.50555zm0 19.30563c-1.4541.0002-2.8754-.4309-4.0849-1.2386-1.2091-.8077-2.1516-1.9559-2.7082-3.2993-.5567-1.3434-.7023-2.8217-.4188-4.2479.2836-1.4261.9838-2.73624 2.0119-3.76458 1.0282-1.0283 2.3385-1.72861 3.7646-2.01236 1.426-.28375 2.9043-.13821 4.2475.41822 1.344.55643 2.492 1.49875 3.3 2.70782.807 1.2091 1.239 2.6306 1.239 4.0847-.003 1.9488-.778 3.8169-2.157 5.195-1.377 1.3782-3.2452 2.1538-5.1941 2.157zm-27.3652-19.30563c-2.3642 0-4.6753.70107-6.641 2.01455-1.9658 1.31348-3.4979 3.18038-4.4027 5.36462-.9047 2.18426-1.1414 4.58766-.6802 6.90646.4613 2.3187 1.5997 4.4487 3.2714 6.1204 1.6718 1.6718 3.8017 2.8102 6.1205 3.2715 2.3187.4612 4.7222.2245 6.9065-.6802 2.1842-.9048 4.051-2.4369 5.3646-4.4027 1.3134-1.9658 2.0145-4.2769 2.0145-6.641-.0037-3.1692-1.2643-6.20748-3.5052-8.44841-2.241-2.24093-5.2792-3.50152-8.4484-3.50522zm0 19.30563c-1.3548.0007-2.6833-.373-3.8392-1.0798-1.1557-.7068-2.0938-1.7191-2.7106-2.9253-.6166-1.2063-.8881-2.5595-.7843-3.9103s.5788-2.6466 1.3726-3.7445c.7939-1.09781 1.8756-1.95497 3.1258-2.47683s2.6203-.68812 3.9591-.48044c1.3388.20769 2.594.78124 3.6274 1.65736 1.0334.87611 1.8046 2.02081 2.2285 3.30751h-6.9793v4.6006h6.9793c-.4855 1.4682-1.421 2.7465-2.6737 3.6532-1.2527.9068-2.7591 1.396-4.3056 1.3985z" fill="#f4f4f4"/></svg>