<svg fill="none" height="38" viewBox="0 0 146 38" width="146" xmlns="http://www.w3.org/2000/svg"><g fill="#f4f4f4"><path d="m27.2804 16.2153c2.7855 0 3.4122 1.2099 3.4122 2.719 0 1.5995-.7581 2.7455-3.4007 2.7455-2.6257 0-3.3847-1.0794-3.3847-2.7455 0-1.6396.8273-2.719 3.3732-2.719z"/><path d="m56.3898 16.2153c2.7855 0 3.4122 1.2099 3.4122 2.719 0 1.5995-.759 2.7455-3.4007 2.7455-2.6249 0-3.3847-1.0794-3.3847-2.7455 0-1.6396.8273-2.719 3.3732-2.719z"/><path clip-rule="evenodd" d="m2.61719 34.662v-31.47059h140.76481v31.47059zm67.08841-1.7754h71.9014v-27.91985h-71.9014zm-42.4127-8.5278c4.9452 0 7.0241-2.1331 7.0241-5.4645 0-3.3856-2.3417-5.3979-7.0241-5.3979-4.6106 0-7.0375 2.1854-7.0375 5.3979 0 3.6252 2.5459 5.4645 7.0375 5.4645zm-17.1933-10.6228v10.463h9.9809v-2.7864h-6.3699v-7.6766zm35.3878 10.463-.0932-1.0137c-1.208.8621-2.6783 1.277-4.1587 1.1735-2.2254 0-4.0788-.6666-5.1183-2.0124-.6856-.9824-1.0318-2.1618-.9862-3.3589-.039-1.172.3192-2.3228 1.0164-3.2657 1.0519-1.3058 2.9586-2.1722 5.7974-2.1722 3.2657 0 5.1848.9995 6.0104 2.679.1772.3956.2813.8199.3071 1.2525h-3.4548c-.0871-.2629-.2491-.4946-.466-.6666-.6882-.4563-1.51-.6673-2.3328-.5992-.4827-.0585-.9723-.0139-1.4364.1308-.464.1448-.8922.3865-1.2559.7089-.4132.5655-.6071 1.2616-.546 1.9591-.0479.6655.1304 1.3277.506 1.8792.3671.3421.8035.6011 1.2794.7598.4761.1586.9805.2132 1.4795.1599.9909.0806 1.9747-.2251 2.7456-.8531.1655-.207.2797-.4504.3328-.7101h-3.7175v-2.2485h6.9567v6.1977zm10.9157.1598c4.9444 0 7.0242-2.1331 7.0242-5.4645 0-3.3856-2.3453-5.3979-7.0242-5.3979-4.6105 0-7.0374 2.1854-7.0374 5.3979 0 3.6252 2.5458 5.4645 7.0374 5.4645z" fill-rule="evenodd"/><path d="m75.7891 24.159v-10.463h2.5742v10.463z"/><path d="m91.5824 19.7872c-.6525.8531-1.7754 1.2428-3.3581 1.2525-.3338 0-4.7588-.0133-4.7588-.0133v3.1326h-2.5192v-10.463h7.2789c.5834-.0617 1.1735.0002 1.7309.1815.5584.1815 1.0715.4783 1.5073.8713.5752.7494.8548 1.6837.7865 2.6257.0586.8568-.1767 1.708-.6675 2.4127zm-2.0657-3.4113c-.2663-.3995-.8406-.6214-1.8126-.6214h-4.2519v3.185h4.2244c1.0395 0 1.5872-.2131 1.8401-.6267.1501-.2914.2149-.6196.1865-.9463.0221-.3407-.0418-.6814-.1865-.9906z"/><path d="m99.6733 24.3187c-4.7455 0-6.1977-1.7754-6.1977-3.5321h2.6923c0 .8664 1.1859 1.5197 3.6252 1.5197 2.4249 0 3.0649-.427 3.0649-1.1202 0-.7732-.479-1.0129-2.732-1.2658-.4438-.04-1.6519-.1865-2.1055-.253-3.1957-.3604-4.426-1.3067-4.426-2.9995 0-1.786 1.8002-3.1317 5.7051-3.1317 4.2384 0 5.8644 1.6662 5.8644 3.3989h-2.663c0-.8797-.999-1.3865-3.3585-1.3865-2.426 0-2.9453.3329-2.9453.9862 0 .6799.5326.893 3.1068 1.1992.5868.0808 1.893.2273 2.252.2663 2.72.2796 3.946 1.2658 3.946 3.0119-.005 2.0798-1.871 3.3066-5.8287 3.3066z"/><path d="m113.082 24.3055c-3.478 0-5.744-1.3732-5.744-4.2608v-6.3487h2.545v6.3842c0 1.3199 1.08 2.1987 3.306 2.1987 2.012 0 3.212-.8255 3.212-2.1987v-6.3842h2.519v6.5857c0 2.6248-2.106 4.0238-5.838 4.0238z"/><path d="m132.715 24.159v-6.9842l-3.266 6.9842h-2.478l-3.173-6.9842v6.9842h-2.397v-10.463h3.247l3.599 7.9704 3.679-7.9704h3.195v10.463z"/></g></svg>