<svg fill="none" height="38" viewBox="0 0 141 38" width="141" xmlns="http://www.w3.org/2000/svg"><g fill="#f4f4f4"><path d="m41.2803 12.4807h3.4193v13.8477h-3.4193zm4.7827 8.6388c0-3.4299 2.1305-5.4858 5.3261-5.4858s5.326 2.0559 5.326 5.4858c0 3.43-2.0559 5.5072-5.326 5.5072-3.2702 0-5.3261-2.0026-5.3261-5.5072zm7.2647 0c0-1.8854-.735-2.9932-1.9067-2.9932s-1.896 1.0652-1.896 2.9932c0 1.9281.7243 2.9826 1.896 2.9826s1.928-1.0545 1.928-2.9719zm4.7509 5.9226h3.3021c.1503.3554.4129.6521.7475.8444.3347.1923.7231.2699 1.1059.2208 1.3102 0 1.992-.703 1.992-1.7469v-1.9174h.0106c-.2821.597-.7385 1.0946-1.3088 1.4274-.5704.3327-1.2282.4849-1.8868.4367-2.5032 0-4.1649-1.9067-4.1649-5.1876 0-3.2808 1.5871-5.326 4.2608-5.326.6754-.0361 1.3455.1381 1.9178.4986.5723.3606 1.0187.8898 1.2778 1.5147h-.0959v-1.9281h3.3874v10.3751c0 2.5033-2.2156 4.0691-5.4752 4.0691-2.9612-.0106-4.8573-1.3634-5.049-3.2702zm7.1581-5.9226c0-1.6723-.7669-2.7269-1.9813-2.7269-1.2143 0-1.9599 1.0652-1.9599 2.7269 0 1.6618.735 2.6418 1.9599 2.6418 1.225 0 1.9813-.9055 1.9813-2.6418zm4.7402 0c0-3.4299 2.1304-5.4858 5.326-5.4858s5.326 2.0559 5.326 5.4858c0 3.43-2.0665 5.5072-5.326 5.5072s-5.3047-2.0026-5.3047-5.5072zm7.2647 0c0-1.8854-.7457-2.9932-1.9067-2.9932-1.1611 0-1.8961 1.0652-1.8961 2.9932 0 1.9281.7243 2.9826 1.8961 2.9826 1.1717 0 1.928-1.0545 1.928-2.9719zm4.7721-7.7653c-.0149-.3483.0748-.6931.2575-.99.1826-.297.45-.5324.7677-.6761.3176-.1438.6709-.1892 1.0146-.1304.3436.0587.6618.2189.9136.46.2518.2412.4257.552.4995.8927.0736.3408.0436.6958-.0861 1.0193-.1298.3236-.3533.601-.642.7965s-.6292.3001-.9779.3004c-.2227.0056-.4445-.033-.6522-.1137s-.3974-.2019-.5579-.3565c-.1606-.1546-.2888-.3395-.3772-.5441-.0885-.2045-.1355-.4246-.1383-.6474zm0 2.5139h3.4619v10.5029h-3.4086zm15.9142 5.2514c0 3.4194-1.5339 5.4006-4.1437 5.4006-.6681.0413-1.3328-.1236-1.9043-.4722-.5714-.3486-1.0221-.8642-1.2913-1.4771h-.0639v5.1769h-3.4193v-13.8477h3.398v1.8748h.0639c.2599-.625.7062-1.1547 1.278-1.5168.5719-.3622 1.2415-.5393 1.9176-.5071 2.6843-.0213 4.2289 1.9493 4.2289 5.3793zm-3.4833 0c0-1.6617-.7776-2.7375-1.9812-2.7375-1.2037 0-1.96 1.0652-1.9707 2.7375-.0106 1.6724.767 2.727 1.9707 2.727 1.2036 0 2.0452-.9907 2.0452-2.7163zm9.3204-5.4964c2.866 0 4.644 1.3528 4.666 3.5258h-3.121c0-.7563-.629-1.225-1.566-1.225-.938 0-1.385.3622-1.385.9055 0 .5432.394.7136 1.182.8734l2.195.4474c2.13.4474 2.982 1.2996 2.982 2.8867 0 2.1304-1.97 3.5791-4.9 3.5791-2.929 0-4.8356-1.4061-4.9741-3.5471h3.3131c.096.7776.713 1.2356 1.715 1.2356 1.001 0 1.47-.3196 1.47-.8841 0-.5646-.32-.6604-1.14-.8309l-1.981-.4154c-2.056-.4367-3.1321-1.5126-3.1321-3.1211.0639-2.0878 1.8531-3.4193 4.7401-3.4193zm16.404 10.7373h-3.312v-1.9707h-.064c-.186.6574-.589 1.2318-1.145 1.6287-.557.397-1.231.5927-1.913.555-.514.0167-1.027-.0755-1.504-.2709-.476-.1952-.906-.4891-1.261-.8623-.356-.3732-.627-.8173-.799-1.303-.171-.4858-.238-1.0024-.196-1.5157v-6.7428h3.42v6.0078c0 1.2356.649 1.9067 1.715 1.9067.25-.0019.496-.0574.723-.1626.227-.1054.428-.2581.59-.448.163-.1898.283-.4123.353-.6524.068-.2402.085-.4923.049-.7396v-5.9119h3.408zm1.651-10.4923h3.324v2.0239h.074c.184-.6484.578-1.2176 1.119-1.6185.542-.4008 1.201-.6109 1.875-.5972.676-.0587 1.35.1368 1.889.5485.54.4117.907 1.0101 1.029 1.6778h.149c.213-.6714.642-1.2536 1.22-1.6562.577-.4026 1.273-.603 1.976-.5701.468-.0177.934.0634 1.368.2382.434.1747.826.4392 1.151.7761s.574.7385.733 1.1787c.16.4401.224.9088.189 1.3755v7.1262h-3.441v-6.2527c0-1.0653-.501-1.6618-1.47-1.6618-.215-.0035-.428.0396-.625.126-.197.0866-.372.2148-.515.3756-.142.161-.249.3507-.312.5565-.062.2058-.079.4226-.05.6356v6.2208h-3.259v-6.2847c0-1.0652-.522-1.6298-1.46-1.6298-.217-.0017-.432.0431-.63.1313-.2.0883-.376.2179-.521.3804-.144.1624-.252.3538-.316.5613-.065.2076-.084.4265-.056.642v6.1995h-3.419z"/><path d="m34.516 13.3861c.0001-2.1201-.6401-4.19081-1.8367-5.94088-1.1967-1.75007-2.8941-3.09792-4.8697-3.867-1.9757-.76909-4.1376-.92354-6.2025-.44315-2.065.4804-3.9367 1.57326-5.37 3.13542h-13.29374v28.05751h28.06814v-13.1127c1.1016-.9853 1.9832-2.1919 2.587-3.5409.6039-1.3491.9165-2.8103.9175-4.2883zm-5.4006 0c.0021 1.0158-.2972 2.0096-.86 2.8553-.563.8457-1.364 1.5055-2.302 1.8957-.9381.3903-1.9707.4935-2.9674.2965-.9966-.1968-1.9125-.685-2.6316-1.4026-.7191-.7177-1.2091-1.6324-1.4081-2.6287-.1989-.9962-.0979-2.0291.2904-2.9679s1.0464-1.74131 1.8909-2.30594c.8446-.56464 1.8376-.86602 2.8535-.86604 1.3599 0 2.6642.53948 3.6267 1.50004.9627.96054 1.5048 2.26374 1.5076 3.62364zm-3.5045 15.5413h-17.26695v-17.2563h5.26205c-.1016.5661-.1551 1.1399-.1597 1.715.0028 2.7931 1.1136 5.4711 3.0887 7.4462 1.975 1.975 4.653 3.0859 7.4461 3.0886.5462-.0028 1.0911-.0492 1.6298-.1384z"/></g></svg>