<?xml version="1.0" encoding="UTF-8" standalone="no"?>
<!DOCTYPE svg PUBLIC "-//W3C//DTD SVG 1.1//EN" "http://www.w3.org/Graphics/SVG/1.1/DTD/svg11.dtd">
<svg width="100%" height="100%" viewBox="0 0 417 240" version="1.1" xmlns="http://www.w3.org/2000/svg" xmlns:xlink="http://www.w3.org/1999/xlink" xml:space="preserve" xmlns:serif="http://www.serif.com/" style="fill-rule:evenodd;clip-rule:evenodd;stroke-linecap:round;stroke-linejoin:round;stroke-miterlimit:1.5;">
    <g transform="matrix(1,0,0,1,-122.911,-241.411)">
        <path d="M132,472C198.333,463.667 190.388,353.403 223,354C257.657,354.635 298.333,456.833 309.5,457C337.24,465.717 360.393,281.966 428,253C447.783,244.524 501,447 530,460M263.5,250.5C280.333,250.5 294,263.719 294,280C294,296.281 280.333,309.5 263.5,309.5C246.667,309.5 233,296.281 233,280C233,263.719 246.667,250.5 263.5,250.5Z" style="fill:none;stroke:rgb(244,225,254);stroke-width:18.18px;"/>
    </g>
</svg>
