<svg width="433.47" height="90.657" viewBox="0 0 108.368 22.664" xmlns="http://www.w3.org/2000/svg">
  <path style="fill:#000;fill-rule:nonzero;stroke:none;stroke-width:.25" d="M158.732 192.452c2.963.933 5.553 3.113 6.613 5.935.896 2.39.784 5.168-.606 7.113-1.221 1.739-3.105 2.925-5.064 3.352-2.12.462-4.322-.045-5.866-1.25a6.238 6.238 0 0 1-2.286-3.8c-.285-1.618.23-3.195 1.176-4.194.715-.76 1.687-1.148 2.565-1.224 1.125-.096 2.055.459 2.48 1.143.308.489.24 1.111.13 1.502-.08.273-.204.47-.379.576-.421.262-.743-.024-.743-.024s.305.302.759.05c.186-.104.329-.306.418-.585.13-.394.226-1.033-.085-1.578-.425-.733-1.383-1.368-2.595-1.303a4.289 4.289 0 0 0-2.777 1.222c-1.045 1.046-1.663 2.717-1.4 4.489a6.725 6.725 0 0 0 2.373 4.183c1.662 1.35 4.033 1.972 6.379 1.51a9.202 9.202 0 0 0 5.608-3.574c1.595-2.224 1.798-5.29.805-7.942-1.178-3.146-3.967-5.546-7.207-6.555-1.474-.461-3.155-.714-5.048-.699h.021c-53.18-1.834-69.154 31.86-89.956 17.617l.02.014h-.001c-2.138-1.616-3.736-3.943-4.371-6.498-.644-2.575-.167-5.37 1.295-7.436 1.22-1.736 3.102-2.923 5.061-3.35 2.118-.461 4.318.044 5.863 1.248a6.234 6.234 0 0 1 2.284 3.797c.286 1.617-.228 3.193-1.174 4.192-.714.76-1.685 1.148-2.563 1.224-1.124.096-2.053-.458-2.478-1.142-.309-.488-.24-1.11-.13-1.501.079-.273.203-.47.377-.576.422-.262.743.024.743.024s-.305-.302-.759-.051c-.186.105-.329.307-.418.585-.13.395-.227 1.034.085 1.58.425.733 1.383 1.37 2.596 1.304a4.29 4.29 0 0 0 2.779-1.222c1.045-1.047 1.665-2.719 1.402-4.492a6.729 6.729 0 0 0-2.375-4.186c-1.664-1.352-4.036-1.973-6.382-1.51a9.206 9.206 0 0 0-5.611 3.574c-1.645 2.272-2.218 5.315-1.53 8.168.676 2.793 2.383 5.316 4.704 7.066l.009.007a27.218 27.218 0 0 0 .01.007c21.427 14.67 37.644-19.265 90.486-17.443a121.636 121.636 0 0 1 .01 0 19.135 19.135 0 0 1 .011 0c1.798-.014 3.376.226 4.742.654z" transform="translate(-58.474 -190.267)"/>
</svg>
