<svg width="883.836" height="91.445" viewBox="0 0 220.959 22.861" xmlns="http://www.w3.org/2000/svg">
  <path style="fill:#000;fill-rule:nonzero;stroke:none;stroke-width:.25" d="M114.5 264.856c2.963.932 5.553 3.112 6.613 5.935.896 2.389.784 5.168-.606 7.112-1.221 1.74-3.105 2.925-5.064 3.352-2.12.462-4.322-.045-5.866-1.249a6.238 6.238 0 0 1-2.286-3.8c-.285-1.619.23-3.196 1.176-4.195.715-.76 1.687-1.148 2.565-1.224 1.125-.096 2.055.46 2.48 1.144.308.488.24 1.11.13 1.502-.08.272-.204.47-.379.576-.421.261-.743-.025-.743-.025s.305.303.759.051c.186-.105.329-.307.418-.585.13-.395.226-1.033-.085-1.579-.425-.732-1.383-1.368-2.595-1.303a4.289 4.289 0 0 0-2.777 1.222c-1.045 1.047-1.663 2.717-1.4 4.49a6.725 6.725 0 0 0 2.373 4.182c1.662 1.351 4.033 1.972 6.379 1.51a9.202 9.202 0 0 0 5.608-3.573c1.595-2.224 1.798-5.29.805-7.943-1.178-3.146-3.967-5.546-7.207-6.555-1.474-.46-3.155-.714-5.048-.698h.021c-53.181-1.834-69.154 31.859-89.956 17.617l.02.013h-.001c-2.138-1.615-3.736-3.942-4.371-6.497-.644-2.576-.167-5.37 1.295-7.436 1.22-1.737 3.102-2.923 5.061-3.35 2.118-.462 4.318.044 5.863 1.247a6.234 6.234 0 0 1 2.284 3.797c.285 1.617-.228 3.193-1.174 4.192-.714.76-1.685 1.148-2.563 1.224-1.124.097-2.053-.457-2.479-1.142-.308-.487-.24-1.11-.13-1.5.08-.273.203-.47.378-.577a.624.624 0 0 1 .743.024s-.305-.302-.759-.05c-.186.104-.329.306-.418.585-.13.395-.227 1.033.085 1.58.425.732 1.383 1.368 2.595 1.304a4.29 4.29 0 0 0 2.78-1.223c1.045-1.047 1.664-2.719 1.402-4.491a6.729 6.729 0 0 0-2.375-4.186c-1.664-1.353-4.036-1.974-6.383-1.512a9.206 9.206 0 0 0-5.61 3.576c-1.645 2.272-2.218 5.314-1.53 8.167.675 2.793 2.383 5.317 4.704 7.066l.009.007a27.218 27.218 0 0 0 .01.007c21.426 14.67 37.644-19.265 90.486-17.442a121.636 121.636 0 0 1 .01 0 19.135 19.135 0 0 1 .011 0c1.798-.015 3.376.226 4.742.653zM134.645 264.099c-3.24 1.008-6.029 3.409-7.206 6.555-.994 2.652-.79 5.718.805 7.942a9.202 9.202 0 0 0 5.608 3.573c2.345.463 4.716-.159 6.378-1.51a6.725 6.725 0 0 0 2.374-4.182c.263-1.772-.356-3.443-1.4-4.49a4.288 4.288 0 0 0-2.778-1.221c-1.211-.065-2.17.57-2.594 1.302-.312.546-.215 1.184-.086 1.58.09.278.233.48.419.585.453.251.758-.051.758-.051s-.321.286-.743.024c-.175-.106-.299-.303-.378-.576-.11-.391-.179-1.014.13-1.502.424-.684 1.354-1.24 2.48-1.143.877.076 1.85.464 2.564 1.224.946.999 1.462 2.576 1.176 4.195a6.238 6.238 0 0 1-2.285 3.8c-1.545 1.204-3.746 1.71-5.867 1.249-1.96-.427-3.842-1.613-5.064-3.352-1.39-1.945-1.502-4.724-.606-7.113 1.06-2.822 3.65-5.002 6.614-5.935 1.366-.427 2.943-.668 4.741-.653a19.135 19.135 0 0 1 .01 0 121.636 121.636 0 0 1 .011 0c52.842-1.823 69.06 32.113 90.487 17.442a27.218 27.218 0 0 0 .01-.007l.009-.007c2.32-1.75 4.028-4.273 4.704-7.066.688-2.853.114-5.895-1.53-8.167a9.206 9.206 0 0 0-5.611-3.575c-2.346-.463-4.718.158-6.383 1.51a6.729 6.729 0 0 0-2.374 4.187c-.263 1.773.356 3.444 1.402 4.491a4.29 4.29 0 0 0 2.779 1.223c1.212.065 2.17-.572 2.596-1.305.311-.546.215-1.184.085-1.58-.09-.278-.233-.48-.419-.585-.454-.25-.759.052-.759.052s.322-.287.743-.025c.175.107.299.304.378.576.11.392.178 1.014-.13 1.501-.425.685-1.355 1.239-2.479 1.142-.877-.076-1.849-.464-2.563-1.224-.945-.998-1.46-2.575-1.174-4.192a6.234 6.234 0 0 1 2.285-3.797c1.544-1.203 3.744-1.709 5.862-1.247 1.96.427 3.84 1.613 5.061 3.35 1.462 2.065 1.94 4.86 1.296 7.436-.636 2.555-2.234 4.882-4.372 6.497l.019-.013c-20.801 14.242-36.775-19.451-89.956-17.617h.022c-1.893-.016-3.575.237-5.049.699z" transform="translate(-14.242 -262.67)"/>
</svg>
