<svg width="819.107" height="93.148" viewBox="0 0 204.777 23.287" xmlns="http://www.w3.org/2000/svg">
  <path style="fill:#000;fill-rule:nonzero;stroke:none;stroke-width:.5;stroke-linejoin:bevel" d="M171.028 69.053c-5.66-3.07-11.268-6.32-17.625-7.162-2.586-.207-5.128.38-7.45 1.204-2.51.887-4.949 2.083-7.238 3.13-2.364 1.08-4.607 2.06-6.978 2.582-2.29.5-4.612.468-6.624-.336-3.628-1.439-6.947-3.097-10.185-4.05-1.44-.425-2.84-.683-4.223-.622a7.64 7.64 0 0 0-3.798 1.211c-2.692 1.753-4.352 4.498-5.237 6.148a26.034 26.034 0 0 0-1.256 2.704c-.143.359-.242.633-.31.827-.035.1-.06.174-.077.228l-.02.06A.434.434 0 0 0 100 75l.008-.023.021-.06.083-.225a26.275 26.275 0 0 1 1.644-3.486c.92-1.625 2.63-4.317 5.295-5.97a7.342 7.342 0 0 1 3.667-1.093c1.33-.037 2.679.243 4.088.682 3.176.993 6.438 2.695 10.082 4.204 2.142.88 4.596.964 6.996.462 2.465-.513 4.775-1.483 7.158-2.543 2.313-1.026 4.746-2.19 7.197-3.028 2.264-.772 4.682-1.324 7.062-1.103 6.104.82 11.566 4.052 17.252 7.115 5.3 2.887 10.9 5.82 16.976 5.54 2.117-.159 4.233-.447 6.24-1.173 2.758-1.004 5.13-2.893 6.587-5.335 1.377-2.304 2.19-4.921 2.007-7.517a9.745 9.745 0 0 0-2.55-5.87c-3.456-3.687-8.938-4.003-12.827-2.61-2.074.74-3.743 2.152-4.77 3.812-1.009 1.627-1.395 3.464-1.06 5.091.4 1.894 1.883 3.184 3.292 3.71 4.906 1.826 8.153-.327 8.153-.327s-3.312 2.07-8.09.163c-1.35-.536-2.753-1.81-3.085-3.6-.297-1.551.115-3.296 1.103-4.84 1.008-1.572 2.63-2.892 4.612-3.564 3.766-1.271 9.041-.883 12.178 2.617a9.05 9.05 0 0 1 2.298 5.469c.155 2.402-.65 4.852-1.972 7.038-1.364 2.253-3.604 3.993-6.183 4.913-1.882.674-3.912.93-5.99 1.08-5.729.285-11.13-2.627-16.443-5.476zm-142.056 0c5.661-3.07 11.269-6.32 17.626-7.162 2.585-.207 5.128.38 7.45 1.204 2.51.887 4.948 2.083 7.237 3.13 2.365 1.08 4.607 2.06 6.979 2.582 2.29.5 4.612.468 6.624-.336 3.627-1.439 6.947-3.097 10.185-4.05 1.44-.425 2.84-.683 4.222-.622a7.64 7.64 0 0 1 3.799 1.211c2.691 1.753 4.352 4.498 5.236 6.148a26.033 26.033 0 0 1 1.257 2.704c.142.359.242.633.31.827l.077.228A5.925 5.925 0 0 1 100 75l-.008-.023a21.332 21.332 0 0 0-.433-1.104 26.273 26.273 0 0 0-1.315-2.668c-.92-1.624-2.63-4.316-5.295-5.969a7.343 7.343 0 0 0-3.667-1.093c-1.33-.037-2.679.243-4.088.682-3.175.993-6.438 2.695-10.081 4.204-2.143.88-4.597.964-6.997.462-2.465-.513-4.775-1.483-7.158-2.543-2.313-1.026-4.746-2.19-7.197-3.028-2.264-.772-4.682-1.324-7.062-1.103-6.104.82-11.566 4.052-17.252 7.115-5.3 2.887-10.9 5.82-16.976 5.54-2.117-.159-4.233-.447-6.24-1.173-2.758-1.004-5.13-2.893-6.587-5.335-1.377-2.304-2.19-4.921-2.007-7.517a9.745 9.745 0 0 1 2.55-5.87c3.456-3.687 8.938-4.003 12.827-2.61 2.074.74 3.743 2.152 4.77 3.812 1.009 1.627 1.395 3.464 1.06 5.091-.4 1.894-1.883 3.184-3.292 3.71-4.906 1.826-8.153-.327-8.153-.327s3.312 2.07 8.09.163c1.35-.536 2.753-1.81 3.085-3.6.297-1.551-.115-3.296-1.103-4.84-1.008-1.573-2.63-2.892-4.612-3.564C9.094 52.141 3.82 52.53.682 56.03a9.05 9.05 0 0 0-2.298 5.469c-.155 2.402.65 4.852 1.972 7.038C1.72 70.79 3.96 72.53 6.54 73.45c1.882.674 3.912.93 5.99 1.08 5.729.285 11.13-2.627 16.443-5.476z" class="UnoptimicedTransforms" transform="matrix(-1 0 0 1 202.389 -52.204)"/>
</svg>
