<svg width="883.836" height="91.448" viewBox="0 0 220.959 22.862" xmlns="http://www.w3.org/2000/svg">
  <path style="fill:#000;fill-rule:nonzero;stroke:none;stroke-width:.25" d="M114.798 249.301c3.24-1.008 6.03-3.409 7.207-6.555.993-2.651.79-5.718-.805-7.942a9.202 9.202 0 0 0-5.608-3.573c-2.346-.463-4.717.159-6.379 1.51a6.725 6.725 0 0 0-2.373 4.183c-.263 1.771.355 3.442 1.4 4.488a4.288 4.288 0 0 0 2.777 1.223c1.212.065 2.17-.571 2.595-1.303.311-.546.215-1.184.085-1.579-.09-.279-.232-.48-.418-.586-.454-.25-.759.052-.759.052s.322-.287.743-.025c.175.107.299.303.378.576.11.391.18 1.014-.13 1.502-.424.685-1.354 1.24-2.479 1.144-.878-.076-1.85-.465-2.565-1.225-.946-.998-1.461-2.575-1.176-4.194a6.238 6.238 0 0 1 2.286-3.8c1.544-1.204 3.745-1.712 5.866-1.25 1.96.428 3.843 1.614 5.064 3.353 1.39 1.944 1.502 4.723.606 7.112-1.06 2.823-3.65 5.002-6.613 5.935-1.366.427-2.944.668-4.742.653a19.135 19.135 0 0 1-.01 0 121.636 121.636 0 0 1-.011 0c-52.842 1.823-69.06-32.112-90.487-17.442a27.218 27.218 0 0 0-.01.007l-.008.007c-2.321 1.75-4.029 4.273-4.704 7.066-.688 2.853-.115 5.895 1.53 8.167a9.206 9.206 0 0 0 5.61 3.576c2.347.462 4.719-.159 6.383-1.511a6.729 6.729 0 0 0 2.375-4.187c.262-1.772-.357-3.444-1.402-4.491a4.29 4.29 0 0 0-2.78-1.223c-1.212-.064-2.17.572-2.595 1.305-.312.546-.215 1.184-.085 1.58.09.278.232.48.418.585.454.251.76-.051.76-.051s-.323.286-.744.024c-.175-.107-.298-.303-.377-.576-.11-.391-.179-1.014.13-1.501.425-.684 1.354-1.238 2.478-1.142.878.076 1.85.464 2.563 1.224.946.999 1.46 2.575 1.174 4.192a6.234 6.234 0 0 1-2.284 3.797c-1.545 1.204-3.745 1.71-5.863 1.247-1.96-.427-3.84-1.613-5.06-3.35-1.463-2.065-1.94-4.86-1.296-7.436.635-2.554 2.233-4.881 4.371-6.497l-.019.014C40.617 218.14 56.59 251.834 109.771 250h-.021c1.893.016 3.574-.237 5.048-.699zM134.944 248.15c-2.963-.933-5.554-3.113-6.614-5.935-.896-2.39-.783-5.169.606-7.113 1.222-1.739 3.105-2.925 5.064-3.352 2.121-.462 4.322.045 5.867 1.25a6.238 6.238 0 0 1 2.285 3.8c.286 1.618-.23 3.195-1.176 4.194-.715.76-1.687 1.148-2.565 1.224-1.125.096-2.055-.459-2.48-1.144-.308-.488-.24-1.11-.129-1.501.08-.273.203-.47.378-.576.422-.262.743.024.743.024s-.305-.302-.758-.051c-.186.105-.33.307-.419.586-.13.394-.226 1.033.086 1.578.425.732 1.383 1.368 2.594 1.303a4.289 4.289 0 0 0 2.778-1.222c1.044-1.046 1.663-2.717 1.4-4.489a6.725 6.725 0 0 0-2.374-4.183c-1.662-1.35-4.033-1.972-6.378-1.51a9.202 9.202 0 0 0-5.608 3.573c-1.596 2.224-1.799 5.291-.805 7.943 1.177 3.146 3.966 5.546 7.206 6.555 1.474.461 3.156.714 5.048.698h-.021c53.181 1.835 69.155-31.858 89.956-17.616l-.019-.014c2.138 1.616 3.736 3.943 4.372 6.497.643 2.576.166 5.371-1.296 7.437-1.22 1.736-3.102 2.922-5.06 3.35-2.12.461-4.319-.044-5.863-1.248a6.234 6.234 0 0 1-2.285-3.797c-.285-1.617.229-3.193 1.174-4.192.714-.76 1.686-1.148 2.563-1.224 1.124-.096 2.054.458 2.479 1.142.308.487.24 1.11.13 1.501-.08.273-.203.47-.378.576a.624.624 0 0 1-.743-.024s.305.302.759.051c.186-.105.329-.307.419-.586.13-.394.226-1.033-.085-1.58-.425-.732-1.384-1.368-2.596-1.304a4.29 4.29 0 0 0-2.78 1.223c-1.045 1.047-1.664 2.719-1.401 4.491a6.729 6.729 0 0 0 2.374 4.187c1.665 1.352 4.037 1.973 6.383 1.51a9.206 9.206 0 0 0 5.61-3.575c1.645-2.272 2.219-5.314 1.53-8.167-.675-2.793-2.382-5.316-4.703-7.066l-.01-.007a27.218 27.218 0 0 0-.01-.007c-21.426-14.67-37.644 19.265-90.486 17.442a121.636 121.636 0 0 1-.01 0 19.135 19.135 0 0 1-.01 0c-1.799.015-3.376-.226-4.742-.653z" transform="translate(-14.242 -227.67)"/>
</svg>
