<svg width="183.676" height="118.524" viewBox="0 0 45.919 29.631" xmlns="http://www.w3.org/2000/svg">
  <path style="fill:#000;fill-rule:nonzero;stroke:none;stroke-width:.25;stroke-linejoin:bevel" transform="matrix(1 0 0 -1 -104.351 141.841)" d="M127.212 130.197c-.006.01-.239-.09-.865-.613a8.42 8.42 0 0 1-1.608-1.775 5.997 5.997 0 0 1-.64-1.26 4.79 4.79 0 0 1-.29-1.482 4.736 4.736 0 0 1 .253-1.667 6.45 6.45 0 0 1 .977-1.807 28.136 28.136 0 0 1 1.318-1.631c.411-.476.869-.982 1.362-1.498 1.141-1.195 2.464-2.436 3.843-3.492a19.89 19.89 0 0 1 2.127-1.435c.72-.416 1.442-.755 2.15-.986.715-.234 1.42-.36 2.1-.339.688.02 1.345.191 1.946.544.466.273.862.56 1.195.856a5.066 5.066 0 0 1 .822.93 3.73 3.73 0 0 1 .64 2.01c.017.686-.143 1.366-.389 2.015-.25.66-.596 1.31-.967 1.932-.373.624-.779 1.234-1.153 1.816-.37.574-.714 1.128-.967 1.644a5.115 5.115 0 0 0-.298.731c-.07.23-.112.448-.117.652a1.403 1.403 0 0 0 .096.56c.071.172.184.333.348.481.703.637 1.65 1.223 2.702 1.795 1.024.556 2.158 1.102 3.288 1.69 1.028.534 2.116 1.138 2.993 1.805.415.315.8.657 1.119 1.03.163.191.311.393.437.605.105.177.198.367.27.57.19.529.318 1.075.355 1.627a4.532 4.532 0 0 1-.145 1.513 4.344 4.344 0 0 1-.64 1.35c-.288.41-.656.795-1.108 1.148-.87.68-2.042 1.235-3.525 1.633-1.46.391-3.203.627-5.217.684-1.72.054-3.145-.175-4.304-.594-1.183-.428-2.087-1.053-2.75-1.771a5.709 5.709 0 0 1-1.333-2.42 5.64 5.64 0 0 1-.082-2.537c.167-.84.52-1.572.992-2.14a3.677 3.677 0 0 1 1.895-1.23c.833-.22 1.722-.136 2.609.185 1.147.415 2.223 1.198 3.16 2.081-.945-.876-2.027-1.645-3.174-2.04-.887-.307-1.763-.37-2.572-.14a3.56 3.56 0 0 0-1.811 1.231 4.668 4.668 0 0 0-.917 2.088 5.477 5.477 0 0 0 1.438 4.73c.642.673 1.513 1.258 2.654 1.655 1.12.389 2.501.598 4.182.53 1.992-.085 3.697-.346 5.108-.752 1.435-.412 2.53-.966 3.317-1.607a4.85 4.85 0 0 0 .975-1.052c.256-.382.43-.779.534-1.184.11-.43.14-.871.106-1.317a5.568 5.568 0 0 0-.33-1.46 2.789 2.789 0 0 0-.223-.464 3.924 3.924 0 0 0-.373-.522 7.03 7.03 0 0 0-1.012-.96c-.82-.653-1.856-1.272-2.865-1.84-1.1-.619-2.217-1.207-3.233-1.802-1.041-.609-1.997-1.234-2.72-1.899a1.668 1.668 0 0 1-.448-.658c-.07-.194-.1-.398-.1-.607.001-.238.043-.485.113-.737.07-.255.172-.52.292-.788.245-.544.578-1.127.927-1.716.357-.603.73-1.216 1.074-1.844.34-.626.645-1.257.855-1.88.207-.615.322-1.218.292-1.798a3.19 3.19 0 0 0-.155-.84 3.248 3.248 0 0 0-.509-.96 4.491 4.491 0 0 0-.61-.653 6.947 6.947 0 0 0-1.087-.778 3.419 3.419 0 0 0-1.624-.465c-.585-.025-1.216.073-1.884.28-.66.204-1.347.51-2.048.899-.693.384-1.394.845-2.088 1.357-1.37 1.01-2.695 2.207-3.847 3.37a40.47 40.47 0 0 0-1.548 1.652c-.436.493-.833.966-1.162 1.385a6.223 6.223 0 0 0-.963 1.688 4.493 4.493 0 0 0-.28 1.554c0 .494.086.965.23 1.408.145.448.348.862.576 1.235.49.802 1.1 1.427 1.509 1.806.593.55.807.677.802.685z" class="UnoptimicedTransforms"/>
  <path transform="rotate(-180 75.135 70.92)" d="M127.212 130.197c-.006.01-.239-.09-.865-.613a8.42 8.42 0 0 1-1.608-1.775 5.997 5.997 0 0 1-.64-1.26 4.79 4.79 0 0 1-.29-1.482 4.736 4.736 0 0 1 .253-1.667 6.45 6.45 0 0 1 .977-1.807 28.136 28.136 0 0 1 1.318-1.631c.411-.476.869-.982 1.362-1.498 1.141-1.195 2.464-2.436 3.843-3.492a19.89 19.89 0 0 1 2.127-1.435c.72-.416 1.442-.755 2.15-.986.715-.234 1.42-.36 2.1-.339.688.02 1.345.191 1.946.544.466.273.862.56 1.195.856a5.066 5.066 0 0 1 .822.93 3.73 3.73 0 0 1 .64 2.01c.017.686-.143 1.366-.389 2.015-.25.66-.596 1.31-.967 1.932-.373.624-.779 1.234-1.153 1.816-.37.574-.714 1.128-.967 1.644a5.115 5.115 0 0 0-.298.731c-.07.23-.112.448-.117.652a1.403 1.403 0 0 0 .096.56c.071.172.184.333.348.481.703.637 1.65 1.223 2.702 1.795 1.024.556 2.158 1.102 3.288 1.69 1.028.534 2.116 1.138 2.993 1.805.415.315.8.657 1.119 1.03.163.191.311.393.437.605.105.177.198.367.27.57.19.529.318 1.075.355 1.627a4.532 4.532 0 0 1-.145 1.513 4.344 4.344 0 0 1-.64 1.35c-.288.41-.656.795-1.108 1.148-.87.68-2.042 1.235-3.525 1.633-1.46.391-3.203.627-5.217.684-1.72.054-3.145-.175-4.304-.594-1.183-.428-2.087-1.053-2.75-1.771a5.709 5.709 0 0 1-1.333-2.42 5.64 5.64 0 0 1-.082-2.537c.167-.84.52-1.572.992-2.14a3.677 3.677 0 0 1 1.895-1.23c.833-.22 1.722-.136 2.609.185 1.147.415 2.223 1.198 3.16 2.081-.945-.876-2.027-1.645-3.174-2.04-.887-.307-1.763-.37-2.572-.14a3.56 3.56 0 0 0-1.811 1.231 4.668 4.668 0 0 0-.917 2.088 5.477 5.477 0 0 0 1.438 4.73c.642.673 1.513 1.258 2.654 1.655 1.12.389 2.501.598 4.182.53 1.992-.085 3.697-.346 5.108-.752 1.435-.412 2.53-.966 3.317-1.607a4.85 4.85 0 0 0 .975-1.052c.256-.382.43-.779.534-1.184.11-.43.14-.871.106-1.317a5.568 5.568 0 0 0-.33-1.46 2.789 2.789 0 0 0-.223-.464 3.924 3.924 0 0 0-.373-.522 7.03 7.03 0 0 0-1.012-.96c-.82-.653-1.856-1.272-2.865-1.84-1.1-.619-2.217-1.207-3.233-1.802-1.041-.609-1.997-1.234-2.72-1.899a1.668 1.668 0 0 1-.448-.658c-.07-.194-.1-.398-.1-.607.001-.238.043-.485.113-.737.07-.255.172-.52.292-.788.245-.544.578-1.127.927-1.716.357-.603.73-1.216 1.074-1.844.34-.626.645-1.257.855-1.88.207-.615.322-1.218.292-1.798a3.19 3.19 0 0 0-.155-.84 3.248 3.248 0 0 0-.509-.96 4.491 4.491 0 0 0-.61-.653 6.947 6.947 0 0 0-1.087-.778 3.419 3.419 0 0 0-1.624-.465c-.585-.025-1.216.073-1.884.28-.66.204-1.347.51-2.048.899-.693.384-1.394.845-2.088 1.357-1.37 1.01-2.695 2.207-3.847 3.37a40.47 40.47 0 0 0-1.548 1.652c-.436.493-.833.966-1.162 1.385a6.223 6.223 0 0 0-.963 1.688 4.493 4.493 0 0 0-.28 1.554c0 .494.086.965.23 1.408.145.448.348.862.576 1.235.49.802 1.1 1.427 1.509 1.806.593.55.807.677.802.685z" style="fill:#000;fill-rule:nonzero;stroke:none;stroke-width:.25;stroke-linejoin:bevel" class="UnoptimicedTransforms"/>
</svg>
