<svg width="234.393" height="85.046" viewBox="0 0 58.598 21.262" xmlns="http://www.w3.org/2000/svg">
  <path style="fill:#000;fill-rule:nonzero;stroke:none;stroke-width:.25" d="M150.74 144.914c2.428-1.63 4.154-4.189 4.797-6.99.665-2.894.062-5.964-1.6-8.26a9.206 9.206 0 0 0-5.611-3.575c-2.346-.462-4.718.159-6.382 1.511a6.729 6.729 0 0 0-2.375 4.186c-.263 1.773.356 3.445 1.402 4.492a4.29 4.29 0 0 0 2.779 1.222c1.212.065 2.17-.572 2.596-1.304.311-.546.215-1.185.085-1.58-.09-.278-.233-.48-.419-.585-.454-.252-.759.05-.759.05s.322-.285.743-.023c.175.106.299.303.378.576.11.391.178 1.013-.13 1.5-.425.685-1.355 1.24-2.479 1.143-.877-.076-1.849-.465-2.563-1.224-.945-.999-1.46-2.575-1.174-4.192a6.234 6.234 0 0 1 2.285-3.798c1.544-1.203 3.744-1.709 5.863-1.247 1.959.427 3.84 1.613 5.06 3.35 1.482 2.094 1.987 4.92 1.364 7.539-.608 2.553-2.21 4.902-4.417 6.378-5.638 3.778-13.421 1.649-23.327-8.23-10.058-10.032-18.392-12.505-24.59-8.353-2.428 1.63-4.154 4.189-4.797 6.99-.664 2.894-.061 5.964 1.601 8.26a9.206 9.206 0 0 0 5.61 3.574c2.347.463 4.719-.158 6.383-1.51a6.729 6.729 0 0 0 2.374-4.187c.263-1.772-.356-3.444-1.402-4.49a4.29 4.29 0 0 0-2.778-1.223c-1.213-.065-2.171.571-2.596 1.304-.312.546-.215 1.185-.085 1.58.09.278.232.48.418.585.454.251.76-.051.76-.051s-.322.286-.744.024c-.175-.106-.298-.303-.377-.576-.11-.391-.179-1.013.13-1.5.424-.685 1.354-1.24 2.478-1.143.878.076 1.85.464 2.563 1.224.946.999 1.46 2.575 1.175 4.192a6.234 6.234 0 0 1-2.285 3.797c-1.544 1.204-3.744 1.71-5.863 1.248-1.96-.427-3.84-1.613-5.061-3.35-1.481-2.094-1.986-4.92-1.363-7.539.608-2.553 2.209-4.902 4.416-6.378 5.638-3.778 13.422-1.649 23.327 8.23 10.058 10.032 18.392 12.505 24.59 8.353z" transform="translate(-97.204 -125.576)"/>
</svg>
