<svg width="433.471" height="90.657" viewBox="0 0 108.368 22.664" xmlns="http://www.w3.org/2000/svg">
  <path style="fill:#000;fill-rule:nonzero;stroke:none;stroke-width:.25" d="M159.419 179.613c3.24-1.008 6.029-3.409 7.206-6.555.994-2.651.79-5.718-.805-7.942a9.202 9.202 0 0 0-5.608-3.573c-2.345-.463-4.716.159-6.378 1.51a6.725 6.725 0 0 0-2.374 4.183c-.263 1.771.356 3.442 1.4 4.488a4.288 4.288 0 0 0 2.778 1.223c1.211.065 2.17-.571 2.594-1.303.312-.546.215-1.184.086-1.579-.09-.279-.233-.48-.419-.586-.453-.25-.758.051-.758.051s.321-.286.743-.024c.175.106.299.303.378.576.11.391.179 1.014-.13 1.502-.424.684-1.354 1.24-2.48 1.143-.877-.075-1.85-.464-2.564-1.224-.946-.999-1.462-2.576-1.176-4.195a6.238 6.238 0 0 1 2.285-3.8c1.545-1.204 3.746-1.71 5.867-1.249 1.959.427 3.842 1.613 5.064 3.353 1.39 1.944 1.502 4.723.606 7.112-1.06 2.823-3.65 5.002-6.614 5.935-1.366.427-2.943.668-4.741.653a19.135 19.135 0 0 1-.01 0 121.636 121.636 0 0 1-.012 0c-52.841 1.823-69.059-32.113-90.486-17.442a27.218 27.218 0 0 0-.01.007l-.009.007c-2.32 1.75-4.028 4.273-4.704 7.066-.688 2.853-.114 5.895 1.53 8.167a9.206 9.206 0 0 0 5.611 3.576c2.346.462 4.718-.159 6.383-1.512a6.729 6.729 0 0 0 2.374-4.186c.263-1.772-.356-3.444-1.402-4.491a4.29 4.29 0 0 0-2.779-1.223c-1.212-.064-2.17.572-2.596 1.305-.311.546-.215 1.184-.085 1.58.09.278.233.48.419.585.454.251.759-.051.759-.051s-.322.286-.743.024c-.175-.107-.298-.304-.378-.576-.11-.391-.178-1.014.13-1.501.425-.685 1.355-1.239 2.479-1.142.877.076 1.849.464 2.563 1.224.945.999 1.46 2.575 1.174 4.192a6.234 6.234 0 0 1-2.285 3.797c-1.544 1.203-3.744 1.709-5.862 1.247-1.96-.427-3.84-1.613-5.061-3.35-1.462-2.065-1.94-4.86-1.296-7.436.636-2.554 2.234-4.881 4.372-6.497l-.019.013c20.801-14.242 36.775 19.452 89.956 17.617h-.021c1.892.016 3.574-.237 5.048-.698z" transform="translate(-58.863 -158.18)"/>
</svg>
