<svg width="40" height="40" viewBox="0 0 40 40" fill="none" xmlns="http://www.w3.org/2000/svg">
<path fill-rule="evenodd" clip-rule="evenodd" d="M15.7111 7.5967C9.43558 11.627 5.94928 16.3177 5.25213 21.6691C4.16684 30 11.617 34.0778 15.3919 30.414C19.1668 26.7502 16.904 22.0997 14.1706 20.8285C11.4372 19.5573 9.76558 20 10.0572 18.3014C10.3488 16.6026 14.2376 11.8928 17.6541 9.69937C17.8807 9.50662 17.967 9.13262 17.7487 8.84896C17.6052 8.66229 17.3236 8.29635 16.904 7.75099C16.5371 7.2741 16.1856 7.29195 15.7111 7.5967Z" fill="#FFC947"/>
<path fill-rule="evenodd" clip-rule="evenodd" d="M32.2325 7.5967C25.9571 11.627 22.4708 16.3177 21.7736 21.6691C20.6884 30 28.1385 34.0778 31.9134 30.414C35.6884 26.7502 33.4255 22.0997 30.6921 20.8285C27.9587 19.5573 26.287 20 26.5787 18.3014C26.8703 16.6026 30.7591 11.8928 34.1756 9.69937C34.4023 9.50662 34.4885 9.13262 34.2702 8.84896C34.1267 8.66229 33.8451 8.29635 33.4255 7.75099C33.0586 7.2741 32.7071 7.29195 32.2325 7.5967Z" fill="#FFC947"/>
</svg>
